<?xml version="1.0" encoding="UTF-8" standalone="no"?>
<!-- Created with Inkscape (http://www.inkscape.org/) -->

<svg
   width="344.43057"
   height="755.47314"
   viewBox="0 0 43.053825 94.434141"
   version="1.1"
   id="svg5"
   inkscape:version="1.2.2 (732a01da63, 2022-12-09)"
   sodipodi:docname="prob10_2.svg"
   xmlns:inkscape="http://www.inkscape.org/namespaces/inkscape"
   xmlns:sodipodi="http://sodipodi.sourceforge.net/DTD/sodipodi-0.dtd"
   xmlns="http://www.w3.org/2000/svg"
   xmlns:svg="http://www.w3.org/2000/svg"
   xmlns:ns2="http://www.iki.fi/pav/software/textext/">
  <sodipodi:namedview
     id="namedview7"
     pagecolor="#ffffff"
     bordercolor="#000000"
     borderopacity="0.25"
     inkscape:showpageshadow="2"
     inkscape:pageopacity="0.0"
     inkscape:pagecheckerboard="0"
     inkscape:deskcolor="#d1d1d1"
     inkscape:document-units="px"
     showgrid="false"
     inkscape:zoom="2"
     inkscape:cx="-184.75"
     inkscape:cy="375"
     inkscape:window-width="3840"
     inkscape:window-height="2054"
     inkscape:window-x="3829"
     inkscape:window-y="4"
     inkscape:window-maximized="1"
     inkscape:current-layer="g27128">
    <inkscape:grid
       type="xygrid"
       id="grid368"
       originx="-13.316013"
       originy="-4.4414506" />
  </sodipodi:namedview>
  <defs
     id="defs2">
    <marker
       style="overflow:visible"
       id="Arrow1"
       refX="0"
       refY="0"
       orient="auto-start-reverse"
       inkscape:stockid="Arrow1"
       markerWidth="4.0606604"
       markerHeight="6.7071066"
       viewBox="0 0 4.0606602 6.7071068"
       inkscape:isstock="true"
       inkscape:collect="always"
       preserveAspectRatio="xMidYMid">
      <path
         style="fill:none;stroke:context-stroke;stroke-width:1;stroke-linecap:butt"
         d="M 3,-3 0,0 3,3"
         id="path5057"
         transform="rotate(180,0.125,0)"
         sodipodi:nodetypes="ccc" />
    </marker>
    <marker
       inkscape:stockid="DimmArrow_Start_n00001"
       orient="auto"
       refY="0"
       refX="0"
       id="DimmArrow_Start_n00001"
       style="overflow:visible">
      <path
         d="M 0,0 -10,1.76327 V -1.76327 Z"
         style="fill:#000000;fill-opacity:1;fill-rule:evenodd;stroke:none;stroke-width:1;stroke-opacity:1"
         transform="rotate(180,-5,0)"
         id="path358" />
    </marker>
    <marker
       inkscape:stockid="DimmArrow_End_n00001"
       orient="auto"
       refY="0"
       refX="0"
       id="DimmArrow_End_n00001"
       style="overflow:visible">
      <path
         d="M 0,0 -10,1.76327 V -1.76327 Z"
         style="fill:#000000;fill-opacity:1;fill-rule:evenodd;stroke:none;stroke-width:1;stroke-opacity:1"
         transform="translate(10)"
         id="path361" />
    </marker>
    <marker
       inkscape:stockid="DimmArrow_Start_n00002"
       orient="auto"
       refY="0"
       refX="0"
       id="DimmArrow_Start_n00002"
       style="overflow:visible">
      <path
         d="M 0,0 -1,0.176327 V -0.176327 Z"
         style="fill:#000000;fill-opacity:1;fill-rule:evenodd;stroke:none;stroke-width:1;stroke-opacity:1"
         transform="matrix(-10,0,0,-10,-10,0)"
         id="path1402" />
    </marker>
    <marker
       inkscape:stockid="DimmArrow_End_n00002"
       orient="auto"
       refY="0"
       refX="0"
       id="DimmArrow_End_n00002"
       style="overflow:visible">
      <path
         d="M 0,0 -1,0.176327 V -0.176327 Z"
         style="fill:#000000;fill-opacity:1;fill-rule:evenodd;stroke:none;stroke-width:1;stroke-opacity:1"
         transform="matrix(10,0,0,10,10,0)"
         id="path1405" />
    </marker>
    <marker
       inkscape:stockid="DimmArrow_Start_n00003"
       orient="auto"
       refY="0"
       refX="0"
       id="DimmArrow_Start_n00003"
       style="overflow:visible">
      <path
         d="M 0,0 -1,0.176327 V -0.176327 Z"
         style="fill:#000000;fill-opacity:1;fill-rule:evenodd;stroke:none;stroke-width:1;stroke-opacity:1"
         transform="matrix(-10,0,0,-10,-10,0)"
         id="path1642" />
    </marker>
    <marker
       inkscape:stockid="DimmArrow_End_n00003"
       orient="auto"
       refY="0"
       refX="0"
       id="DimmArrow_End_n00003"
       style="overflow:visible">
      <path
         d="M 0,0 -1,0.176327 V -0.176327 Z"
         style="fill:#000000;fill-opacity:1;fill-rule:evenodd;stroke:none;stroke-width:1;stroke-opacity:1"
         transform="matrix(10,0,0,10,10,0)"
         id="path1645" />
    </marker>
    <marker
       inkscape:stockid="DimmArrow_Start_n00004"
       orient="auto"
       refY="0"
       refX="0"
       id="DimmArrow_Start_n00004"
       style="overflow:visible">
      <path
         d="M 0,0 -1,0.176327 V -0.176327 Z"
         style="fill:#000000;fill-opacity:1;fill-rule:evenodd;stroke:none;stroke-width:1;stroke-opacity:1"
         transform="matrix(-10,0,0,-10,-10,0)"
         id="path2324" />
    </marker>
    <marker
       inkscape:stockid="DimmArrow_End_n00004"
       orient="auto"
       refY="0"
       refX="0"
       id="DimmArrow_End_n00004"
       style="overflow:visible">
      <path
         d="M 0,0 -1,0.176327 V -0.176327 Z"
         style="fill:#000000;fill-opacity:1;fill-rule:evenodd;stroke:none;stroke-width:1;stroke-opacity:1"
         transform="matrix(10,0,0,10,10,0)"
         id="path2327" />
    </marker>
    <marker
       inkscape:stockid="DimmArrow_Start_n00005"
       orient="auto"
       refY="0"
       refX="0"
       id="DimmArrow_Start_n00005"
       style="overflow:visible">
      <path
         d="M 0,0 -2.5,0.440817 V -0.440817 Z"
         style="fill:#000000;fill-opacity:1;fill-rule:evenodd;stroke:none;stroke-width:1;stroke-opacity:1"
         transform="matrix(-4,0,0,-4,-10,0)"
         id="path2495" />
    </marker>
    <marker
       inkscape:stockid="DimmArrow_End_n00005"
       orient="auto"
       refY="0"
       refX="0"
       id="DimmArrow_End_n00005"
       style="overflow:visible">
      <path
         d="M 0,0 -2.5,0.440817 V -0.440817 Z"
         style="fill:#000000;fill-opacity:1;fill-rule:evenodd;stroke:none;stroke-width:1;stroke-opacity:1"
         transform="matrix(4,0,0,4,10,0)"
         id="path2498" />
    </marker>
    <marker
       inkscape:stockid="DimmArrow_Start_n00006"
       orient="auto"
       refY="0"
       refX="0"
       id="DimmArrow_Start_n00006"
       style="overflow:visible">
      <path
         d="M 0,0 -2.5,0.440817 V -0.440817 Z"
         style="fill:#000000;fill-opacity:1;fill-rule:evenodd;stroke:none;stroke-width:1;stroke-opacity:1"
         transform="matrix(-4,0,0,-4,-10,0)"
         id="path2721" />
    </marker>
    <marker
       inkscape:stockid="DimmArrow_End_n00006"
       orient="auto"
       refY="0"
       refX="0"
       id="DimmArrow_End_n00006"
       style="overflow:visible">
      <path
         d="M 0,0 -2.5,0.440817 V -0.440817 Z"
         style="fill:#000000;fill-opacity:1;fill-rule:evenodd;stroke:none;stroke-width:1;stroke-opacity:1"
         transform="matrix(4,0,0,4,10,0)"
         id="path2724" />
    </marker>
    <marker
       inkscape:stockid="DimmArrow_Start_n00007"
       orient="auto"
       refY="0"
       refX="0"
       id="DimmArrow_Start_n00007"
       style="overflow:visible">
      <path
         d="M 0,0 -2.5,0.440817 V -0.440817 Z"
         style="fill:#000000;fill-opacity:1;fill-rule:evenodd;stroke:none;stroke-width:1;stroke-opacity:1"
         transform="matrix(-4,0,0,-4,-10,0)"
         id="path3869" />
    </marker>
    <marker
       inkscape:stockid="DimmArrow_End_n00007"
       orient="auto"
       refY="0"
       refX="0"
       id="DimmArrow_End_n00007"
       style="overflow:visible">
      <path
         d="M 0,0 -2.5,0.440817 V -0.440817 Z"
         style="fill:#000000;fill-opacity:1;fill-rule:evenodd;stroke:none;stroke-width:1;stroke-opacity:1"
         transform="matrix(4,0,0,4,10,0)"
         id="path3872" />
    </marker>
    <marker
       style="overflow:visible"
       id="Arrow1-3"
       refX="0"
       refY="0"
       orient="auto-start-reverse"
       inkscape:stockid="Arrow1"
       markerWidth="4.0606604"
       markerHeight="6.7071066"
       viewBox="0 0 4.0606602 6.7071068"
       inkscape:isstock="true"
       inkscape:collect="always"
       preserveAspectRatio="xMidYMid">
      <path
         style="fill:none;stroke:context-stroke;stroke-width:1;stroke-linecap:butt"
         d="M 3,-3 0,0 3,3"
         id="path5057-5"
         transform="rotate(180,0.125,0)"
         sodipodi:nodetypes="ccc" />
    </marker>
    <marker
       style="overflow:visible"
       id="Arrow1-3-0"
       refX="0"
       refY="0"
       orient="auto-start-reverse"
       inkscape:stockid="Arrow1"
       markerWidth="4.0606604"
       markerHeight="6.7071066"
       viewBox="0 0 4.0606602 6.7071068"
       inkscape:isstock="true"
       inkscape:collect="always"
       preserveAspectRatio="xMidYMid">
      <path
         style="fill:none;stroke:context-stroke;stroke-width:1;stroke-linecap:butt"
         d="M 3,-3 0,0 3,3"
         id="path5057-5-5"
         transform="rotate(180,0.125,0)"
         sodipodi:nodetypes="ccc" />
    </marker>
    <marker
       inkscape:stockid="DimmArrow_Start_n00008"
       orient="auto"
       refY="0"
       refX="0"
       id="DimmArrow_Start_n00008"
       style="overflow:visible">
      <path
         d="M 0,0 -2.5,0.440817 V -0.440817 Z"
         style="fill:#000000;fill-opacity:1;fill-rule:evenodd;stroke:none;stroke-width:1;stroke-opacity:1"
         transform="matrix(-4,0,0,-4,-10,0)"
         id="path18154" />
    </marker>
    <marker
       inkscape:stockid="DimmArrow_End_n00008"
       orient="auto"
       refY="0"
       refX="0"
       id="DimmArrow_End_n00008"
       style="overflow:visible">
      <path
         d="M 0,0 -2.5,0.440817 V -0.440817 Z"
         style="fill:#000000;fill-opacity:1;fill-rule:evenodd;stroke:none;stroke-width:1;stroke-opacity:1"
         transform="matrix(4,0,0,4,10,0)"
         id="path18157" />
    </marker>
    <marker
       inkscape:stockid="DimmArrow_Start_n00009"
       orient="auto"
       refY="0"
       refX="0"
       id="DimmArrow_Start_n00009"
       style="overflow:visible">
      <path
         d="M 0,0 -2.5,0.440817 V -0.440817 Z"
         style="fill:#000000;fill-opacity:1;fill-rule:evenodd;stroke:none;stroke-width:1;stroke-opacity:1"
         transform="matrix(-4,0,0,-4,-10,0)"
         id="path22156" />
    </marker>
    <marker
       inkscape:stockid="DimmArrow_End_n00009"
       orient="auto"
       refY="0"
       refX="0"
       id="DimmArrow_End_n00009"
       style="overflow:visible">
      <path
         d="M 0,0 -2.5,0.440817 V -0.440817 Z"
         style="fill:#000000;fill-opacity:1;fill-rule:evenodd;stroke:none;stroke-width:1;stroke-opacity:1"
         transform="matrix(4,0,0,4,10,0)"
         id="path22159" />
    </marker>
    <marker
       inkscape:stockid="DimmArrow_Start_n00010"
       orient="auto"
       refY="0"
       refX="0"
       id="DimmArrow_Start_n00010"
       style="overflow:visible">
      <path
         d="M 0,0 -2.5,0.440817 V -0.440817 Z"
         style="fill:#000000;fill-opacity:1;fill-rule:evenodd;stroke:none;stroke-width:1;stroke-opacity:1"
         transform="matrix(-4,0,0,-4,-10,0)"
         id="path22701" />
    </marker>
    <marker
       inkscape:stockid="DimmArrow_End_n00010"
       orient="auto"
       refY="0"
       refX="0"
       id="DimmArrow_End_n00010"
       style="overflow:visible">
      <path
         d="M 0,0 -2.5,0.440817 V -0.440817 Z"
         style="fill:#000000;fill-opacity:1;fill-rule:evenodd;stroke:none;stroke-width:1;stroke-opacity:1"
         transform="matrix(4,0,0,4,10,0)"
         id="path22704" />
    </marker>
    <marker
       inkscape:stockid="DimmArrow_Start_n00011"
       orient="auto"
       refY="0"
       refX="0"
       id="DimmArrow_Start_n00011"
       style="overflow:visible">
      <path
         d="M 0,0 -2.5,0.440817 V -0.440817 Z"
         style="fill:#000000;fill-opacity:1;fill-rule:evenodd;stroke:none;stroke-width:1;stroke-opacity:1"
         transform="matrix(-4,0,0,-4,-10,0)"
         id="path26894" />
    </marker>
    <marker
       inkscape:stockid="DimmArrow_End_n00011"
       orient="auto"
       refY="0"
       refX="0"
       id="DimmArrow_End_n00011"
       style="overflow:visible">
      <path
         d="M 0,0 -2.5,0.440817 V -0.440817 Z"
         style="fill:#000000;fill-opacity:1;fill-rule:evenodd;stroke:none;stroke-width:1;stroke-opacity:1"
         transform="matrix(4,0,0,4,10,0)"
         id="path26897" />
    </marker>
  </defs>
  <g
     inkscape:label="Layer 1"
     inkscape:groupmode="layer"
     id="g399"
     transform="translate(-43.815263,-27.313752)">
    <path
       style="fill:#2a0bff;stroke:#c9c9c9;stroke-width:0.3;stroke-linecap:round;stroke-miterlimit:3;stroke-dasharray:2.4, 2.4;stroke-dashoffset:0"
       d="M 45.004172,40.123878 H 84.69167"
       id="path926" />
    <circle
       style="fill:#ff110b;fill-opacity:1;stroke:#c9c9c9;stroke-width:0;stroke-linecap:round;stroke-miterlimit:3;stroke-dasharray:none;stroke-dashoffset:0"
       id="path1878"
       cx="44.779167"
       cy="40.256096"
       r="0.96390384" />
    <circle
       style="fill:#ff110b;fill-opacity:1;stroke:#c9c9c9;stroke-width:0;stroke-linecap:round;stroke-miterlimit:3;stroke-dasharray:none;stroke-dashoffset:0"
       id="path1878-0"
       cx="84.84166"
       cy="40.27388"
       r="0.96390384" />
    <g
       inkscape:label="Dim"
       id="g1441"
       transform="matrix(3,0,0,3,-129.62083,-102.75112)">
      <path
         inkscape:label="none"
         style="fill:none;fill-opacity:1;stroke:#000000;stroke-width:0.1;stroke-linecap:round;stroke-linejoin:round;stroke-dasharray:none;stroke-opacity:1"
         d="m 58.208333,47.224999 v -2.4"
         id="path1415" />
      <path
         inkscape:label="none"
         style="fill:none;fill-opacity:1;stroke:#000000;stroke-width:0.1;stroke-linecap:round;stroke-linejoin:round;stroke-dasharray:none;stroke-opacity:1"
         d="m 71.437499,47.224999 v -2.4"
         id="path1417" />
      <path
         inkscape:label="dim"
         style="fill:none;fill-opacity:1;stroke:#000000;stroke-width:0.1;stroke-linecap:round;stroke-linejoin:round;stroke-dasharray:none;stroke-opacity:1;marker-start:url(#DimmArrow_Start_n00002);marker-end:url(#DimmArrow_End_n00002)"
         d="M 59.208333,45.224999 H 70.437499"
         id="path1419" />
      <g
         inkscape:label="Layer 1"
         inkscape:groupmode="layer"
         id="layer1"
         transform="matrix(0.110599,0,0,0.110599,20.583335,-17.845405)">
        <g
           transform="matrix(1.33333,0,0,1.33333,391.634,553.354)"
           ns2:version="1.8.2"
           ns2:texconverter="pdflatex"
           ns2:pdfconverter="inkscape"
           ns2:text=" \\noindent $\\sqrt{3}$"
           ns2:preamble="C:\Users\USER\AppData\Roaming\inkscape\extensions\inkscapeMadeEasy\basicLatexPackages.tex"
           ns2:scale="1.0"
           ns2:alignment="middle center"
           ns2:stroke-to-path="0"
           ns2:inkscapeversion="1.0.1"
           ns2:jacobian_sqrt="1.33333"
           id="g1438">
          <defs
             id="id-80b36894-7671-42ab-8711-2ad2f25dbd48">
            <g
               id="id-33139352-a5e8-4546-b9d4-4f11209aa8b9">
              <g
                 id="id-cd5d7676-7fa7-4caa-a96d-44d1ded9cd96" />
              <g
                 id="id-29c40af3-4e42-47fd-b1e8-3cc008aedeac">
                <path
                   d="m 3.875,8.515625 -1.75,-3.875 C 2.046875,4.484375 2,4.484375 1.96875,4.484375 c 0,0 -0.0625,0 -0.171875,0.078125 l -0.9375,0.71875 c -0.125,0.109375 -0.125,0.125 -0.125,0.15625 0,0.0625 0.015625,0.109375 0.09375,0.109375 0.0625,0 0.234375,-0.140625 0.34375,-0.21875 C 1.21875,5.28125 1.375,5.171875 1.484375,5.09375 l 1.96875,4.3125 C 3.515625,9.5625 3.5625,9.5625 3.65625,9.5625 c 0.15625,0 0.1875,-0.046875 0.25,-0.1875 L 8.4375,0 C 8.5,-0.140625 8.5,-0.171875 8.5,-0.203125 8.5,-0.296875 8.421875,-0.40625 8.296875,-0.40625 c -0.078125,0 -0.140625,0.0625 -0.21875,0.21875 z m 0,0"
                   id="id-742d7022-9e98-4aa2-98b4-4cf44bb227e2" />
              </g>
              <g
                 id="id-8f700e18-dbda-44c3-949e-9c1ee4b7b949" />
              <g
                 id="id-ae05f6e5-c5c9-4081-a4ce-4aaec182c2c3">
                <path
                   d="m 2.890625,-3.515625 c 0.8125,-0.265625 1.390625,-0.953125 1.390625,-1.75 0,-0.8125 -0.875,-1.375 -1.828125,-1.375 -1,0 -1.765625,0.59375 -1.765625,1.359375 0,0.328125 0.21875,0.515625 0.515625,0.515625 0.296875,0 0.5,-0.21875 0.5,-0.515625 0,-0.484375 -0.46875,-0.484375 -0.609375,-0.484375 0.296875,-0.5 0.953125,-0.625 1.3125,-0.625 0.421875,0 0.96875,0.21875 0.96875,1.109375 0,0.125 -0.03125,0.703125 -0.28125,1.140625 C 2.796875,-3.65625 2.453125,-3.625 2.203125,-3.625 2.125,-3.609375 1.890625,-3.59375 1.8125,-3.59375 c -0.078125,0.015625 -0.140625,0.03125 -0.140625,0.125 0,0.109375 0.0625,0.109375 0.234375,0.109375 h 0.4375 c 0.8125,0 1.1875,0.671875 1.1875,1.65625 0,1.359375 -0.6875,1.640625 -1.125,1.640625 -0.4375,0 -1.1875,-0.171875 -1.53125,-0.75 0.34375,0.046875 0.65625,-0.171875 0.65625,-0.546875 0,-0.359375 -0.265625,-0.5625 -0.546875,-0.5625 -0.25,0 -0.5625,0.140625 -0.5625,0.578125 0,0.90625 0.921875,1.5625 2.015625,1.5625 1.21875,0 2.125,-0.90625 2.125,-1.921875 0,-0.8125 -0.640625,-1.59375 -1.671875,-1.8125 z m 0,0"
                   id="id-739174a6-dffe-4c3d-b093-9e10efefb355" />
              </g>
            </g>
          </defs>
          <g
             fill="#000000"
             fill-opacity="1"
             id="id-46dd9170-134d-49c4-bddb-0cba676b6ea6"
             transform="translate(-134.502,-126.117)">
            <g
               transform="translate(133.768,126.523)"
               id="g1430">
              <path
                 d="m 3.875,8.515625 -1.75,-3.875 C 2.046875,4.484375 2,4.484375 1.96875,4.484375 c 0,0 -0.0625,0 -0.171875,0.078125 l -0.9375,0.71875 c -0.125,0.109375 -0.125,0.125 -0.125,0.15625 0,0.0625 0.015625,0.109375 0.09375,0.109375 0.0625,0 0.234375,-0.140625 0.34375,-0.21875 C 1.21875,5.28125 1.375,5.171875 1.484375,5.09375 l 1.96875,4.3125 C 3.515625,9.5625 3.5625,9.5625 3.65625,9.5625 c 0.15625,0 0.1875,-0.046875 0.25,-0.1875 L 8.4375,0 C 8.5,-0.140625 8.5,-0.171875 8.5,-0.203125 8.5,-0.296875 8.421875,-0.40625 8.296875,-0.40625 c -0.078125,0 -0.140625,0.0625 -0.21875,0.21875 z m 0,0"
                 id="id-7c8cf52f-c7ad-4eb2-973a-4c442d1a3d97" />
            </g>
          </g>
          <path
             fill="none"
             stroke-width="0.398"
             stroke-linecap="butt"
             stroke-linejoin="miter"
             stroke="#000000"
             stroke-opacity="1"
             stroke-miterlimit="10"
             d="M 7.5679321,0.20746613 H 12.548401"
             id="id-9f931948-1f51-4df8-8e29-7d240463dfe5" />
          <g
             fill="#000000"
             fill-opacity="1"
             id="id-5ef50af1-84d0-481c-abfd-f764e3d90245"
             transform="translate(-134.502,-126.117)">
            <g
               transform="translate(142.071,134.765)"
               id="g1435">
              <path
                 d="m 2.890625,-3.515625 c 0.8125,-0.265625 1.390625,-0.953125 1.390625,-1.75 0,-0.8125 -0.875,-1.375 -1.828125,-1.375 -1,0 -1.765625,0.59375 -1.765625,1.359375 0,0.328125 0.21875,0.515625 0.515625,0.515625 0.296875,0 0.5,-0.21875 0.5,-0.515625 0,-0.484375 -0.46875,-0.484375 -0.609375,-0.484375 0.296875,-0.5 0.953125,-0.625 1.3125,-0.625 0.421875,0 0.96875,0.21875 0.96875,1.109375 0,0.125 -0.03125,0.703125 -0.28125,1.140625 C 2.796875,-3.65625 2.453125,-3.625 2.203125,-3.625 2.125,-3.609375 1.890625,-3.59375 1.8125,-3.59375 c -0.078125,0.015625 -0.140625,0.03125 -0.140625,0.125 0,0.109375 0.0625,0.109375 0.234375,0.109375 h 0.4375 c 0.8125,0 1.1875,0.671875 1.1875,1.65625 0,1.359375 -0.6875,1.640625 -1.125,1.640625 -0.4375,0 -1.1875,-0.171875 -1.53125,-0.75 0.34375,0.046875 0.65625,-0.171875 0.65625,-0.546875 0,-0.359375 -0.265625,-0.5625 -0.546875,-0.5625 -0.25,0 -0.5625,0.140625 -0.5625,0.578125 0,0.90625 0.921875,1.5625 2.015625,1.5625 1.21875,0 2.125,-0.90625 2.125,-1.921875 0,-0.8125 -0.640625,-1.59375 -1.671875,-1.8125 z m 0,0"
                 id="id-c54b6622-eb1c-4acf-afa1-3ad4417480d5" />
            </g>
          </g>
        </g>
      </g>
    </g>
    <path
       style="fill:#2a0bff;stroke:#c9c9c9;stroke-width:0.44785;stroke-linecap:round;stroke-miterlimit:3;stroke-dasharray:1.7914, 1.7914;stroke-dashoffset:0"
       d="M 64.421752,118.89547 45.072811,40.167398"
       id="path926-5-9"
       inkscape:transform-center-x="-9.6706517"
       inkscape:transform-center-y="39.26948" />
    <g
       id="g3321">
      <path
         style="fill:#2a0bff;stroke:#c9c9c9;stroke-width:0.44771;stroke-linecap:round;stroke-miterlimit:3;stroke-dasharray:1.79084, 1.79084;stroke-dashoffset:0"
         d="M 65.362053,118.89554 84.688241,40.123878"
         id="path926-5-9-0"
         inkscape:transform-center-x="9.6592796"
         inkscape:transform-center-y="39.291223" />
      <path
         style="fill:#ff110b;stroke:#c9c9c9;stroke-width:0.447029;stroke-linecap:round;stroke-miterlimit:3;stroke-dasharray:1.78812, 1.78812;stroke-dashoffset:0"
         d="M 64.914683,116.35496 V 40.177851"
         id="path2477" />
    </g>
    <circle
       style="fill:#ff110b;fill-opacity:1;stroke:#c9c9c9;stroke-width:0;stroke-linecap:round;stroke-miterlimit:3;stroke-dasharray:none;stroke-dashoffset:0"
       id="path1878-8"
       cx="64.888199"
       cy="118.64554"
       r="0.96390384" />
    <path
       style="fill:#ff110b;stroke:#c9c9c9;stroke-width:0;stroke-linecap:round;stroke-miterlimit:3;stroke-dasharray:none"
       d="M 64.914683,40.123878 H 84.69167"
       id="path1783" />
    <g
       inkscape:label="Dim"
       id="g2549">
      <path
         inkscape:label="arc"
         style="fill:none;fill-opacity:1;stroke:#000000;stroke-width:0.25;stroke-linecap:round;stroke-linejoin:round;stroke-dasharray:none;stroke-opacity:1;marker-start:url(#DimmArrow_Start_n00005);marker-end:url(#DimmArrow_End_n00005)"
         sodipodi:type="arc"
         sodipodi:rx="40.361641"
         sodipodi:ry="40.361641"
         sodipodi:cx="64.91468"
         sodipodi:cy="120.90114"
         sodipodi:start="4.5333361"
         sodipodi:end="4.650449"
         d="m 57.726366,81.184766 a 40.361641,40.361641 0 0 1 4.689913,-0.567868"
         sodipodi:arc-type="arc"
         id="path2534"
         sodipodi:open="true" />
      <g
         inkscape:label="Layer 1"
         inkscape:groupmode="layer"
         id="g2547"
         transform="matrix(0.27449314,-0.03323646,0.03323646,0.27449314,-68.813639,-61.866058)">
        <g
           transform="matrix(1.33333,0,0,1.33333,397.26,555.24)"
           ns2:version="1.8.2"
           ns2:texconverter="pdflatex"
           ns2:pdfconverter="inkscape"
           ns2:text=" \\noindent $\\theta$"
           ns2:preamble="C:\Users\USER\AppData\Roaming\inkscape\extensions\inkscapeMadeEasy\basicLatexPackages.tex"
           ns2:scale="1.0"
           ns2:alignment="middle center"
           ns2:stroke-to-path="0"
           ns2:inkscapeversion="1.0.1"
           ns2:jacobian_sqrt="1.33333"
           id="g2545">
          <defs
             id="id-c1b17663-1e0a-474c-a729-8115abf7207b">
            <g
               id="id-67a73f1f-b535-4bcf-a275-ce428df949e9">
              <g
                 id="id-2da343b4-f4a0-466b-b1a8-43bc04c161f6" />
              <g
                 id="id-d3b2f22b-9ec6-4c28-a1a4-f7482c1bf507">
                <path
                   d="m 4.53125,-4.984375 c 0,-0.65625 -0.171875,-2.046875 -1.1875,-2.046875 -1.390625,0 -2.921875,2.8125 -2.921875,5.09375 0,0.9375 0.28125,2.046875 1.1875,2.046875 1.40625,0 2.921875,-2.859375 2.921875,-5.09375 z M 1.46875,-3.625 C 1.640625,-4.25 1.84375,-5.046875 2.25,-5.765625 2.515625,-6.25 2.875,-6.8125 3.328125,-6.8125 c 0.484375,0 0.546875,0.640625 0.546875,1.203125 0,0.5 -0.078125,1 -0.3125,1.984375 z m 2,0.328125 C 3.359375,-2.84375 3.15625,-2 2.765625,-1.28125 c -0.34375,0.6875 -0.71875,1.171875 -1.15625,1.171875 -0.328125,0 -0.53125,-0.296875 -0.53125,-1.21875 0,-0.421875 0.0625,-1 0.3125,-1.96875 z m 0,0"
                   id="id-36ac4d97-1a9d-4a52-a8c3-9cde05c44a8d" />
              </g>
            </g>
          </defs>
          <g
             fill="#000000"
             fill-opacity="1"
             id="id-bf7fdf21-d727-45d4-af9f-84ac67884173"
             transform="translate(-134.19,-127.734)">
            <g
               transform="translate(133.768,134.765)"
               id="g2542">
              <path
                 d="m 4.53125,-4.984375 c 0,-0.65625 -0.171875,-2.046875 -1.1875,-2.046875 -1.390625,0 -2.921875,2.8125 -2.921875,5.09375 0,0.9375 0.28125,2.046875 1.1875,2.046875 1.40625,0 2.921875,-2.859375 2.921875,-5.09375 z M 1.46875,-3.625 C 1.640625,-4.25 1.84375,-5.046875 2.25,-5.765625 2.515625,-6.25 2.875,-6.8125 3.328125,-6.8125 c 0.484375,0 0.546875,0.640625 0.546875,1.203125 0,0.5 -0.078125,1 -0.3125,1.984375 z m 2,0.328125 C 3.359375,-2.84375 3.15625,-2 2.765625,-1.28125 c -0.34375,0.6875 -0.71875,1.171875 -1.15625,1.171875 -0.328125,0 -0.53125,-0.296875 -0.53125,-1.21875 0,-0.421875 0.0625,-1 0.3125,-1.96875 z m 0,0"
                 id="id-a713ce60-08dc-4969-b968-d22cc2361b3f" />
            </g>
          </g>
        </g>
      </g>
    </g>
    <g
       inkscape:label="Dim"
       id="g2788">
      <path
         inkscape:label="arc"
         style="fill:none;fill-opacity:1;stroke:#000000;stroke-width:0.25;stroke-linecap:round;stroke-linejoin:round;stroke-dasharray:none;stroke-opacity:1;marker-start:url(#DimmArrow_Start_n00006);marker-end:url(#DimmArrow_End_n00006)"
         sodipodi:type="arc"
         sodipodi:rx="40.361641"
         sodipodi:ry="40.361641"
         sodipodi:cx="64.91468"
         sodipodi:cy="120.90114"
         sodipodi:start="4.5333361"
         sodipodi:end="4.650449"
         d="m 57.726366,81.184766 a 40.361641,40.361641 0 0 1 4.689913,-0.567868"
         sodipodi:arc-type="arc"
         id="path2773"
         sodipodi:open="true" />
      <g
         inkscape:label="Layer 1"
         inkscape:groupmode="layer"
         id="g2786"
         transform="matrix(0.27449314,-0.03323646,0.03323646,0.27449314,-68.813639,-61.866058)">
        <g
           transform="matrix(1.33333,0,0,1.33333,397.26,555.24)"
           ns2:version="1.8.2"
           ns2:texconverter="pdflatex"
           ns2:pdfconverter="inkscape"
           ns2:text=" \\noindent $\\theta$"
           ns2:preamble="C:\Users\USER\AppData\Roaming\inkscape\extensions\inkscapeMadeEasy\basicLatexPackages.tex"
           ns2:scale="1.0"
           ns2:alignment="middle center"
           ns2:stroke-to-path="0"
           ns2:inkscapeversion="1.0.1"
           ns2:jacobian_sqrt="1.33333"
           id="g2784">
          <defs
             id="id-fc3c0016-3402-4cdb-9009-20a05d9aa39b">
            <g
               id="id-da45d85a-a50e-449a-ad86-abcc59caea04">
              <g
                 id="id-ccd5d844-0bb0-40f8-95de-23a42e8a8703" />
              <g
                 id="id-d6b20b75-bdb6-42cd-8384-8148868d241a">
                <path
                   d="m 4.53125,-4.984375 c 0,-0.65625 -0.171875,-2.046875 -1.1875,-2.046875 -1.390625,0 -2.921875,2.8125 -2.921875,5.09375 0,0.9375 0.28125,2.046875 1.1875,2.046875 1.40625,0 2.921875,-2.859375 2.921875,-5.09375 z M 1.46875,-3.625 C 1.640625,-4.25 1.84375,-5.046875 2.25,-5.765625 2.515625,-6.25 2.875,-6.8125 3.328125,-6.8125 c 0.484375,0 0.546875,0.640625 0.546875,1.203125 0,0.5 -0.078125,1 -0.3125,1.984375 z m 2,0.328125 C 3.359375,-2.84375 3.15625,-2 2.765625,-1.28125 c -0.34375,0.6875 -0.71875,1.171875 -1.15625,1.171875 -0.328125,0 -0.53125,-0.296875 -0.53125,-1.21875 0,-0.421875 0.0625,-1 0.3125,-1.96875 z m 0,0"
                   id="id-821ad656-6ad3-4633-93e7-67dc53cda11b" />
              </g>
            </g>
          </defs>
          <g
             fill="#000000"
             fill-opacity="1"
             id="id-f0df6d41-e81b-4e14-a64c-bb927f81259a"
             transform="translate(-134.19,-127.734)">
            <g
               transform="translate(133.768,134.765)"
               id="g2781">
              <path
                 d="m 4.53125,-4.984375 c 0,-0.65625 -0.171875,-2.046875 -1.1875,-2.046875 -1.390625,0 -2.921875,2.8125 -2.921875,5.09375 0,0.9375 0.28125,2.046875 1.1875,2.046875 1.40625,0 2.921875,-2.859375 2.921875,-5.09375 z M 1.46875,-3.625 C 1.640625,-4.25 1.84375,-5.046875 2.25,-5.765625 2.515625,-6.25 2.875,-6.8125 3.328125,-6.8125 c 0.484375,0 0.546875,0.640625 0.546875,1.203125 0,0.5 -0.078125,1 -0.3125,1.984375 z m 2,0.328125 C 3.359375,-2.84375 3.15625,-2 2.765625,-1.28125 c -0.34375,0.6875 -0.71875,1.171875 -1.15625,1.171875 -0.328125,0 -0.53125,-0.296875 -0.53125,-1.21875 0,-0.421875 0.0625,-1 0.3125,-1.96875 z m 0,0"
                 id="id-627e4c69-a9aa-46b5-8627-8b2b618d0efb" />
            </g>
          </g>
        </g>
      </g>
    </g>
    <g
       inkscape:label="Dim"
       id="g3949">
      <path
         inkscape:label="arc"
         style="fill:none;fill-opacity:1;stroke:#000000;stroke-width:0.25;stroke-linecap:round;stroke-linejoin:round;stroke-dasharray:none;stroke-opacity:1;marker-start:url(#DimmArrow_Start_n00007);marker-end:url(#DimmArrow_End_n00007)"
         sodipodi:type="arc"
         sodipodi:rx="40.270561"
         sodipodi:ry="40.270561"
         sodipodi:cx="64.91468"
         sodipodi:cy="120.71898"
         sodipodi:start="4.7744691"
         sodipodi:end="4.8909011"
         d="m 67.413076,80.525993 a 40.270561,40.270561 0 0 1 4.652268,0.562365"
         sodipodi:arc-type="arc"
         id="path3934"
         sodipodi:open="true" />
      <g
         inkscape:label="Layer 1"
         inkscape:groupmode="layer"
         id="g3947"
         transform="matrix(0.27449979,0.03318146,-0.03318146,0.27449979,-21.381489,-88.57534)">
        <g
           transform="matrix(1.33333,0,0,1.33333,397.26,555.24)"
           ns2:version="1.8.2"
           ns2:texconverter="pdflatex"
           ns2:pdfconverter="inkscape"
           ns2:text=" \\noindent $\\theta$"
           ns2:preamble="C:\Users\USER\AppData\Roaming\inkscape\extensions\inkscapeMadeEasy\basicLatexPackages.tex"
           ns2:scale="1.0"
           ns2:alignment="middle center"
           ns2:stroke-to-path="0"
           ns2:inkscapeversion="1.0.1"
           ns2:jacobian_sqrt="1.33333"
           id="g3945">
          <defs
             id="id-638b2c8c-4522-4cdf-bd69-cdfe0b6c49d5">
            <g
               id="id-5926de6f-1319-4f8f-9cfd-74dc64532127">
              <g
                 id="id-6c150bc6-40dc-4520-8518-42c18d07709f" />
              <g
                 id="id-3ccaeaed-1265-40e9-8794-f353c1157b52">
                <path
                   d="m 4.53125,-4.984375 c 0,-0.65625 -0.171875,-2.046875 -1.1875,-2.046875 -1.390625,0 -2.921875,2.8125 -2.921875,5.09375 0,0.9375 0.28125,2.046875 1.1875,2.046875 1.40625,0 2.921875,-2.859375 2.921875,-5.09375 z M 1.46875,-3.625 C 1.640625,-4.25 1.84375,-5.046875 2.25,-5.765625 2.515625,-6.25 2.875,-6.8125 3.328125,-6.8125 c 0.484375,0 0.546875,0.640625 0.546875,1.203125 0,0.5 -0.078125,1 -0.3125,1.984375 z m 2,0.328125 C 3.359375,-2.84375 3.15625,-2 2.765625,-1.28125 c -0.34375,0.6875 -0.71875,1.171875 -1.15625,1.171875 -0.328125,0 -0.53125,-0.296875 -0.53125,-1.21875 0,-0.421875 0.0625,-1 0.3125,-1.96875 z m 0,0"
                   id="id-597fd9f6-a2e1-4e73-9a47-ff8f728d65b8" />
              </g>
            </g>
          </defs>
          <g
             fill="#000000"
             fill-opacity="1"
             id="id-f696e1ac-aa4c-4c53-8044-e4d35ab64ade"
             transform="translate(-134.19,-127.734)">
            <g
               transform="translate(133.768,134.765)"
               id="g3942">
              <path
                 d="m 4.53125,-4.984375 c 0,-0.65625 -0.171875,-2.046875 -1.1875,-2.046875 -1.390625,0 -2.921875,2.8125 -2.921875,5.09375 0,0.9375 0.28125,2.046875 1.1875,2.046875 1.40625,0 2.921875,-2.859375 2.921875,-5.09375 z M 1.46875,-3.625 C 1.640625,-4.25 1.84375,-5.046875 2.25,-5.765625 2.515625,-6.25 2.875,-6.8125 3.328125,-6.8125 c 0.484375,0 0.546875,0.640625 0.546875,1.203125 0,0.5 -0.078125,1 -0.3125,1.984375 z m 2,0.328125 C 3.359375,-2.84375 3.15625,-2 2.765625,-1.28125 c -0.34375,0.6875 -0.71875,1.171875 -1.15625,1.171875 -0.328125,0 -0.53125,-0.296875 -0.53125,-1.21875 0,-0.421875 0.0625,-1 0.3125,-1.96875 z m 0,0"
                 id="id-a30223c3-589a-48f3-905c-93bcb9b4a1ea" />
            </g>
          </g>
        </g>
      </g>
    </g>
    <path
       style="fill:#0b64ff;fill-opacity:1;stroke:#ab82ff;stroke-width:0.420113;stroke-linecap:round;stroke-miterlimit:3;stroke-dasharray:15.7348, 15.7348;stroke-dashoffset:0;stroke-opacity:1;marker-end:url(#Arrow1-3)"
       d="m 68.332025,106.69125 -3.22899,13.25246"
       id="path4841-6" />
    <path
       style="fill:#0b64ff;fill-opacity:1;stroke:#ab82ff;stroke-width:0.420113;stroke-linecap:round;stroke-miterlimit:3;stroke-dasharray:15.7348, 15.7348;stroke-dashoffset:0;stroke-opacity:1;marker-end:url(#Arrow1-3-0)"
       d="m 61.458084,106.71335 3.22899,13.25246"
       id="path4841-6-3" />
    <path
       style="fill:#0b64ff;fill-opacity:1;stroke:#f882ff;stroke-width:0.593965;stroke-linecap:round;stroke-miterlimit:3;stroke-dasharray:none;stroke-dashoffset:0;stroke-opacity:1;marker-end:url(#Arrow1)"
       d="M 64.878669,94.048159 V 119.82457"
       id="path13726" />
    <g
       inkscape:label="Dim"
       id="g22324">
      <path
         inkscape:label="none"
         style="fill:none;fill-opacity:1;stroke:#000000;stroke-width:0.25;stroke-linecap:round;stroke-linejoin:round;stroke-dasharray:none;stroke-opacity:1"
         d="m 60.486508,106.95008 -5.829458,1.42036"
         id="path22272" />
      <path
         inkscape:label="none"
         style="fill:none;fill-opacity:1;stroke:#000000;stroke-width:0.25;stroke-linecap:round;stroke-linejoin:round;stroke-dasharray:none;stroke-opacity:1"
         d="M 63.715498,120.20254 57.88604,121.6229"
         id="path22274" />
      <path
         inkscape:label="dim"
         style="fill:none;fill-opacity:1;stroke:#000000;stroke-width:0.25;stroke-linecap:round;stroke-linejoin:round;stroke-dasharray:none;stroke-opacity:1;marker-start:url(#DimmArrow_Start_n00009);marker-end:url(#DimmArrow_End_n00009)"
         d="m 56.220443,110.56265 2.045357,8.39458"
         id="path22276" />
      <g
         inkscape:label="Layer 1"
         inkscape:groupmode="layer"
         id="g22322"
         transform="matrix(0.276498,0,0,0.276498,-58.072747,-42.829407)">
        <g
           transform="matrix(1.33333,0,0,1.33333,392.311,547.77)"
           ns2:version="1.8.2"
           ns2:texconverter="pdflatex"
           ns2:pdfconverter="inkscape"
           ns2:text=" \\noindent $\\left|\\vec{F}\\right|$"
           ns2:preamble="C:\Users\USER\AppData\Roaming\inkscape\extensions\inkscapeMadeEasy\basicLatexPackages.tex"
           ns2:scale="1.0"
           ns2:alignment="middle center"
           ns2:stroke-to-path="0"
           ns2:inkscapeversion="1.0.1"
           ns2:jacobian_sqrt="1.33333"
           id="g22320">
          <defs
             id="id-69c89a63-8e00-4d9b-9a48-fbadbb7c07af">
            <g
               id="id-4668bfc5-19a5-4014-a9a2-d8b0658c7d38">
              <g
                 id="id-ab32dc62-5dfc-4870-8147-44057b39d30d" />
              <g
                 id="id-e2320549-459e-4f51-bd5f-d5b20f7c637f">
                <path
                   d="m 1.453125,5.828125 c 0,0.15625 0,0.359375 0.203125,0.359375 C 1.875,6.1875 1.875,5.984375 1.875,5.828125 V 0.15625 c 0,-0.15625 0,-0.359375 -0.203125,-0.359375 -0.21875,0 -0.21875,0.1875 -0.21875,0.359375 z m 0,0"
                   id="id-036a23be-a200-4dd5-b902-b90248b54300" />
              </g>
              <g
                 id="id-7c10b4dc-4a92-422d-bbf0-9a65a7569608" />
              <g
                 id="id-3605c049-88ad-4752-aaf6-76fcb351ded1">
                <path
                   d="m 5.359375,-5.9375 c -0.140625,0.140625 -0.46875,0.421875 -0.46875,0.59375 0,0.09375 0.09375,0.203125 0.1875,0.203125 0.09375,0 0.140625,-0.078125 0.203125,-0.140625 C 5.390625,-5.421875 5.625,-5.703125 6.0625,-5.921875 6.125,-5.96875 6.234375,-6.015625 6.234375,-6.125 6.234375,-6.234375 6.15625,-6.28125 6.09375,-6.328125 5.875,-6.484375 5.765625,-6.65625 5.6875,-6.890625 5.65625,-6.984375 5.625,-7.125 5.484375,-7.125 c -0.140625,0 -0.203125,0.140625 -0.203125,0.21875 0,0.046875 0.078125,0.359375 0.234375,0.578125 H 2.15625 c -0.15625,0 -0.34375,0 -0.34375,0.203125 0,0.1875 0.1875,0.1875 0.34375,0.1875 z m 0,0"
                   id="id-ddc306c8-ef40-48e9-9e9c-cf68dc42a00f" />
              </g>
              <g
                 id="id-a4f95b71-2783-46cc-b878-9c64d8b26da8">
                <path
                   d="m 3.015625,-3.234375 h 0.96875 c 0.75,0 0.828125,0.15625 0.828125,0.4375 0,0.078125 0,0.1875 -0.0625,0.5 C 4.71875,-2.25 4.71875,-2.21875 4.71875,-2.1875 c 0,0.078125 0.0625,0.109375 0.109375,0.109375 0.109375,0 0.109375,-0.03125 0.15625,-0.203125 L 5.53125,-4.453125 C 5.5625,-4.5625 5.5625,-4.578125 5.5625,-4.609375 5.5625,-4.625 5.546875,-4.71875 5.4375,-4.71875 5.34375,-4.71875 5.328125,-4.671875 5.296875,-4.5 5.078125,-3.734375 4.859375,-3.546875 4,-3.546875 H 3.09375 l 0.640625,-2.53125 C 3.828125,-6.4375 3.84375,-6.46875 4.28125,-6.46875 h 1.3125 c 1.21875,0 1.453125,0.328125 1.453125,1.09375 0,0.234375 0,0.265625 -0.03125,0.546875 C 7,-4.703125 7,-4.6875 7,-4.65625 c 0,0.046875 0.03125,0.125 0.125,0.125 0.109375,0 0.109375,-0.0625 0.125,-0.25 L 7.453125,-6.515625 C 7.484375,-6.78125 7.4375,-6.78125 7.1875,-6.78125 H 2.296875 c -0.1875,0 -0.296875,0 -0.296875,0.203125 0,0.109375 0.09375,0.109375 0.28125,0.109375 0.375,0 0.65625,0 0.65625,0.171875 0,0.046875 0,0.0625 -0.0625,0.25 L 1.5625,-0.78125 c -0.09375,0.390625 -0.109375,0.46875 -0.90625,0.46875 -0.171875,0 -0.28125,0 -0.28125,0.1875 C 0.375,0 0.5,0 0.53125,0 0.8125,0 1.5625,-0.03125 1.84375,-0.03125 2.171875,-0.03125 3,0 3.328125,0 3.421875,0 3.53125,0 3.53125,-0.1875 3.53125,-0.265625 3.484375,-0.296875 3.484375,-0.296875 3.453125,-0.3125 3.421875,-0.3125 3.203125,-0.3125 c -0.21875,0 -0.265625,0 -0.515625,-0.015625 -0.296875,-0.03125 -0.328125,-0.078125 -0.328125,-0.203125 0,-0.015625 0,-0.078125 0.046875,-0.21875 z m 0,0"
                   id="id-7434f016-0e19-43de-90f7-6aa779527abe" />
              </g>
            </g>
          </defs>
          <g
             fill="#000000"
             fill-opacity="1"
             id="id-4acb2ae6-5e9f-407c-babb-a7ebff9802ae"
             transform="translate(-135.221,-124.599)">
            <g
               transform="translate(133.768,124.802)"
               id="g22289">
              <path
                 d="m 1.453125,5.828125 c 0,0.15625 0,0.359375 0.203125,0.359375 C 1.875,6.1875 1.875,5.984375 1.875,5.828125 V 0.15625 c 0,-0.15625 0,-0.359375 -0.203125,-0.359375 -0.21875,0 -0.21875,0.1875 -0.21875,0.359375 z m 0,0"
                 id="id-ecf74c2e-9e3a-4273-8ec8-8736f30fe8f0" />
            </g>
          </g>
          <g
             fill="#000000"
             fill-opacity="1"
             id="id-3b038ebf-77f0-4c42-9eef-16f74a276ad1"
             transform="translate(-135.221,-124.599)">
            <g
               transform="translate(133.768,130.78)"
               id="g22293">
              <path
                 d="m 1.453125,5.828125 c 0,0.15625 0,0.359375 0.203125,0.359375 C 1.875,6.1875 1.875,5.984375 1.875,5.828125 V 0.15625 c 0,-0.15625 0,-0.359375 -0.203125,-0.359375 -0.21875,0 -0.21875,0.1875 -0.21875,0.359375 z m 0,0"
                 id="id-d8ca6433-d52d-4220-8278-4e06cdcf59fa" />
            </g>
          </g>
          <g
             fill="#000000"
             fill-opacity="1"
             id="id-7a45371a-924c-4160-80c5-b7774eb56459"
             transform="translate(-135.221,-124.599)">
            <g
               transform="translate(133.768,136.757)"
               id="g22297">
              <path
                 d="m 1.453125,5.828125 c 0,0.15625 0,0.359375 0.203125,0.359375 C 1.875,6.1875 1.875,5.984375 1.875,5.828125 V 0.15625 c 0,-0.15625 0,-0.359375 -0.203125,-0.359375 -0.21875,0 -0.21875,0.1875 -0.21875,0.359375 z m 0,0"
                 id="id-17ac6a27-767d-4ac3-95cb-ecc691ac1fe6" />
            </g>
          </g>
          <g
             fill="#000000"
             fill-opacity="1"
             id="id-e4b63e52-b453-49fb-9cf8-116fcae216e7"
             transform="translate(-135.221,-124.599)">
            <g
               transform="translate(138.558,133.741)"
               id="g22301">
              <path
                 d="m 5.359375,-5.9375 c -0.140625,0.140625 -0.46875,0.421875 -0.46875,0.59375 0,0.09375 0.09375,0.203125 0.1875,0.203125 0.09375,0 0.140625,-0.078125 0.203125,-0.140625 C 5.390625,-5.421875 5.625,-5.703125 6.0625,-5.921875 6.125,-5.96875 6.234375,-6.015625 6.234375,-6.125 6.234375,-6.234375 6.15625,-6.28125 6.09375,-6.328125 5.875,-6.484375 5.765625,-6.65625 5.6875,-6.890625 5.65625,-6.984375 5.625,-7.125 5.484375,-7.125 c -0.140625,0 -0.203125,0.140625 -0.203125,0.21875 0,0.046875 0.078125,0.359375 0.234375,0.578125 H 2.15625 c -0.15625,0 -0.34375,0 -0.34375,0.203125 0,0.1875 0.1875,0.1875 0.34375,0.1875 z m 0,0"
                 id="id-32fc9b36-369a-4443-aeae-7f9ebf771a45" />
            </g>
          </g>
          <g
             fill="#000000"
             fill-opacity="1"
             id="id-ddcf00ee-e7b1-4198-9174-6d83ed9f29c6"
             transform="translate(-135.221,-124.599)">
            <g
               transform="translate(137.089,136.259)"
               id="g22305">
              <path
                 d="m 3.015625,-3.234375 h 0.96875 c 0.75,0 0.828125,0.15625 0.828125,0.4375 0,0.078125 0,0.1875 -0.0625,0.5 C 4.71875,-2.25 4.71875,-2.21875 4.71875,-2.1875 c 0,0.078125 0.0625,0.109375 0.109375,0.109375 0.109375,0 0.109375,-0.03125 0.15625,-0.203125 L 5.53125,-4.453125 C 5.5625,-4.5625 5.5625,-4.578125 5.5625,-4.609375 5.5625,-4.625 5.546875,-4.71875 5.4375,-4.71875 5.34375,-4.71875 5.328125,-4.671875 5.296875,-4.5 5.078125,-3.734375 4.859375,-3.546875 4,-3.546875 H 3.09375 l 0.640625,-2.53125 C 3.828125,-6.4375 3.84375,-6.46875 4.28125,-6.46875 h 1.3125 c 1.21875,0 1.453125,0.328125 1.453125,1.09375 0,0.234375 0,0.265625 -0.03125,0.546875 C 7,-4.703125 7,-4.6875 7,-4.65625 c 0,0.046875 0.03125,0.125 0.125,0.125 0.109375,0 0.109375,-0.0625 0.125,-0.25 L 7.453125,-6.515625 C 7.484375,-6.78125 7.4375,-6.78125 7.1875,-6.78125 H 2.296875 c -0.1875,0 -0.296875,0 -0.296875,0.203125 0,0.109375 0.09375,0.109375 0.28125,0.109375 0.375,0 0.65625,0 0.65625,0.171875 0,0.046875 0,0.0625 -0.0625,0.25 L 1.5625,-0.78125 c -0.09375,0.390625 -0.109375,0.46875 -0.90625,0.46875 -0.171875,0 -0.28125,0 -0.28125,0.1875 C 0.375,0 0.5,0 0.53125,0 0.8125,0 1.5625,-0.03125 1.84375,-0.03125 2.171875,-0.03125 3,0 3.328125,0 3.421875,0 3.53125,0 3.53125,-0.1875 3.53125,-0.265625 3.484375,-0.296875 3.484375,-0.296875 3.453125,-0.3125 3.421875,-0.3125 3.203125,-0.3125 c -0.21875,0 -0.265625,0 -0.515625,-0.015625 -0.296875,-0.03125 -0.328125,-0.078125 -0.328125,-0.203125 0,-0.015625 0,-0.078125 0.046875,-0.21875 z m 0,0"
                 id="id-fd457e94-45f9-4e0e-ae78-88d66c117a79" />
            </g>
          </g>
          <g
             fill="#000000"
             fill-opacity="1"
             id="id-03c454be-9c93-4609-a0c2-e29573c8ab80"
             transform="translate(-135.221,-124.599)">
            <g
               transform="translate(144.879,124.802)"
               id="g22309">
              <path
                 d="m 1.453125,5.828125 c 0,0.15625 0,0.359375 0.203125,0.359375 C 1.875,6.1875 1.875,5.984375 1.875,5.828125 V 0.15625 c 0,-0.15625 0,-0.359375 -0.203125,-0.359375 -0.21875,0 -0.21875,0.1875 -0.21875,0.359375 z m 0,0"
                 id="id-a8e377e1-e1a5-483d-a49d-498e89e1f115" />
            </g>
          </g>
          <g
             fill="#000000"
             fill-opacity="1"
             id="id-6e2cd314-ac6b-45fe-813b-03393376620b"
             transform="translate(-135.221,-124.599)">
            <g
               transform="translate(144.879,130.78)"
               id="g22313">
              <path
                 d="m 1.453125,5.828125 c 0,0.15625 0,0.359375 0.203125,0.359375 C 1.875,6.1875 1.875,5.984375 1.875,5.828125 V 0.15625 c 0,-0.15625 0,-0.359375 -0.203125,-0.359375 -0.21875,0 -0.21875,0.1875 -0.21875,0.359375 z m 0,0"
                 id="id-6945c0fc-97b3-4879-b51f-36e50d9cf46f" />
            </g>
          </g>
          <g
             fill="#000000"
             fill-opacity="1"
             id="id-26bf8b90-ec72-4d38-9ee5-b5e2e9c740a7"
             transform="translate(-135.221,-124.599)">
            <g
               transform="translate(144.879,136.757)"
               id="g22317">
              <path
                 d="m 1.453125,5.828125 c 0,0.15625 0,0.359375 0.203125,0.359375 C 1.875,6.1875 1.875,5.984375 1.875,5.828125 V 0.15625 c 0,-0.15625 0,-0.359375 -0.203125,-0.359375 -0.21875,0 -0.21875,0.1875 -0.21875,0.359375 z m 0,0"
                 id="id-6cd7708b-a61e-4b40-9656-4fdcae16614e" />
            </g>
          </g>
        </g>
      </g>
    </g>
    <g
       inkscape:label="Dim"
       id="g22869">
      <path
         inkscape:label="none"
         style="fill:none;fill-opacity:1;stroke:#000000;stroke-width:0.25;stroke-linecap:round;stroke-linejoin:round;stroke-dasharray:none;stroke-opacity:1"
         d="m 66.074611,120.18044 5.829458,1.42036"
         id="path22817" />
      <path
         inkscape:label="none"
         style="fill:none;fill-opacity:1;stroke:#000000;stroke-width:0.25;stroke-linecap:round;stroke-linejoin:round;stroke-dasharray:none;stroke-opacity:1"
         d="m 69.303601,106.92798 5.829458,1.42036"
         id="path22819" />
      <path
         inkscape:label="dim"
         style="fill:none;fill-opacity:1;stroke:#000000;stroke-width:0.25;stroke-linecap:round;stroke-linejoin:round;stroke-dasharray:none;stroke-opacity:1;marker-start:url(#DimmArrow_Start_n00010);marker-end:url(#DimmArrow_End_n00010)"
         d="m 71.524309,118.93513 2.045357,-8.39458"
         id="path22821" />
      <g
         inkscape:label="Layer 1"
         inkscape:groupmode="layer"
         id="g22867"
         transform="matrix(0.276498,0,0,0.276498,-33.335395,-42.851507)">
        <g
           transform="matrix(1.33333,0,0,1.33333,392.311,547.77)"
           ns2:version="1.8.2"
           ns2:texconverter="pdflatex"
           ns2:pdfconverter="inkscape"
           ns2:text=" \\noindent $\\left|\\vec{F}\\right|$"
           ns2:preamble="C:\Users\USER\AppData\Roaming\inkscape\extensions\inkscapeMadeEasy\basicLatexPackages.tex"
           ns2:scale="1.0"
           ns2:alignment="middle center"
           ns2:stroke-to-path="0"
           ns2:inkscapeversion="1.0.1"
           ns2:jacobian_sqrt="1.33333"
           id="g22865">
          <defs
             id="id-4162fee7-aebf-45fe-9fa2-19a6dd8e2979">
            <g
               id="id-3f4b70ee-6561-4d79-99cc-b0baea190fb1">
              <g
                 id="id-afb8b777-66b7-4dfb-930c-11590f2a69f9" />
              <g
                 id="id-9c437e3d-4e41-42ce-a0c9-ba77506ecd61">
                <path
                   d="m 1.453125,5.828125 c 0,0.15625 0,0.359375 0.203125,0.359375 C 1.875,6.1875 1.875,5.984375 1.875,5.828125 V 0.15625 c 0,-0.15625 0,-0.359375 -0.203125,-0.359375 -0.21875,0 -0.21875,0.1875 -0.21875,0.359375 z m 0,0"
                   id="id-3edbe6cd-a4e2-42cf-8699-a9ad9626f77c" />
              </g>
              <g
                 id="id-5e0a337e-4388-4463-bd1b-d387e5e941a1" />
              <g
                 id="id-6a279575-f962-4843-be8d-c7935c1e8d48">
                <path
                   d="m 5.359375,-5.9375 c -0.140625,0.140625 -0.46875,0.421875 -0.46875,0.59375 0,0.09375 0.09375,0.203125 0.1875,0.203125 0.09375,0 0.140625,-0.078125 0.203125,-0.140625 C 5.390625,-5.421875 5.625,-5.703125 6.0625,-5.921875 6.125,-5.96875 6.234375,-6.015625 6.234375,-6.125 6.234375,-6.234375 6.15625,-6.28125 6.09375,-6.328125 5.875,-6.484375 5.765625,-6.65625 5.6875,-6.890625 5.65625,-6.984375 5.625,-7.125 5.484375,-7.125 c -0.140625,0 -0.203125,0.140625 -0.203125,0.21875 0,0.046875 0.078125,0.359375 0.234375,0.578125 H 2.15625 c -0.15625,0 -0.34375,0 -0.34375,0.203125 0,0.1875 0.1875,0.1875 0.34375,0.1875 z m 0,0"
                   id="id-b4bb61da-1a54-4d7f-8349-8870f558b7f9" />
              </g>
              <g
                 id="id-4765b96e-868b-4466-b689-629a7b212891">
                <path
                   d="m 3.015625,-3.234375 h 0.96875 c 0.75,0 0.828125,0.15625 0.828125,0.4375 0,0.078125 0,0.1875 -0.0625,0.5 C 4.71875,-2.25 4.71875,-2.21875 4.71875,-2.1875 c 0,0.078125 0.0625,0.109375 0.109375,0.109375 0.109375,0 0.109375,-0.03125 0.15625,-0.203125 L 5.53125,-4.453125 C 5.5625,-4.5625 5.5625,-4.578125 5.5625,-4.609375 5.5625,-4.625 5.546875,-4.71875 5.4375,-4.71875 5.34375,-4.71875 5.328125,-4.671875 5.296875,-4.5 5.078125,-3.734375 4.859375,-3.546875 4,-3.546875 H 3.09375 l 0.640625,-2.53125 C 3.828125,-6.4375 3.84375,-6.46875 4.28125,-6.46875 h 1.3125 c 1.21875,0 1.453125,0.328125 1.453125,1.09375 0,0.234375 0,0.265625 -0.03125,0.546875 C 7,-4.703125 7,-4.6875 7,-4.65625 c 0,0.046875 0.03125,0.125 0.125,0.125 0.109375,0 0.109375,-0.0625 0.125,-0.25 L 7.453125,-6.515625 C 7.484375,-6.78125 7.4375,-6.78125 7.1875,-6.78125 H 2.296875 c -0.1875,0 -0.296875,0 -0.296875,0.203125 0,0.109375 0.09375,0.109375 0.28125,0.109375 0.375,0 0.65625,0 0.65625,0.171875 0,0.046875 0,0.0625 -0.0625,0.25 L 1.5625,-0.78125 c -0.09375,0.390625 -0.109375,0.46875 -0.90625,0.46875 -0.171875,0 -0.28125,0 -0.28125,0.1875 C 0.375,0 0.5,0 0.53125,0 0.8125,0 1.5625,-0.03125 1.84375,-0.03125 2.171875,-0.03125 3,0 3.328125,0 3.421875,0 3.53125,0 3.53125,-0.1875 3.53125,-0.265625 3.484375,-0.296875 3.484375,-0.296875 3.453125,-0.3125 3.421875,-0.3125 3.203125,-0.3125 c -0.21875,0 -0.265625,0 -0.515625,-0.015625 -0.296875,-0.03125 -0.328125,-0.078125 -0.328125,-0.203125 0,-0.015625 0,-0.078125 0.046875,-0.21875 z m 0,0"
                   id="id-ded7f0cd-29a7-4fc1-8a21-163eaf096737" />
              </g>
            </g>
          </defs>
          <g
             fill="#000000"
             fill-opacity="1"
             id="id-63b4b58e-e2d2-4bc2-b4df-6382a0d1885f"
             transform="translate(-135.221,-124.599)">
            <g
               transform="translate(133.768,124.802)"
               id="g22834">
              <path
                 d="m 1.453125,5.828125 c 0,0.15625 0,0.359375 0.203125,0.359375 C 1.875,6.1875 1.875,5.984375 1.875,5.828125 V 0.15625 c 0,-0.15625 0,-0.359375 -0.203125,-0.359375 -0.21875,0 -0.21875,0.1875 -0.21875,0.359375 z m 0,0"
                 id="id-7bfbd9c9-4e8f-4824-bc67-24e08ce1ae19" />
            </g>
          </g>
          <g
             fill="#000000"
             fill-opacity="1"
             id="id-85cefd31-27e3-4f0f-8ebd-31a5525ded23"
             transform="translate(-135.221,-124.599)">
            <g
               transform="translate(133.768,130.78)"
               id="g22838">
              <path
                 d="m 1.453125,5.828125 c 0,0.15625 0,0.359375 0.203125,0.359375 C 1.875,6.1875 1.875,5.984375 1.875,5.828125 V 0.15625 c 0,-0.15625 0,-0.359375 -0.203125,-0.359375 -0.21875,0 -0.21875,0.1875 -0.21875,0.359375 z m 0,0"
                 id="id-f8671a97-2738-4a38-a85c-7de3e11f1d22" />
            </g>
          </g>
          <g
             fill="#000000"
             fill-opacity="1"
             id="id-7d3487ca-d7e8-4bf4-89e5-93d2162dd07b"
             transform="translate(-135.221,-124.599)">
            <g
               transform="translate(133.768,136.757)"
               id="g22842">
              <path
                 d="m 1.453125,5.828125 c 0,0.15625 0,0.359375 0.203125,0.359375 C 1.875,6.1875 1.875,5.984375 1.875,5.828125 V 0.15625 c 0,-0.15625 0,-0.359375 -0.203125,-0.359375 -0.21875,0 -0.21875,0.1875 -0.21875,0.359375 z m 0,0"
                 id="id-ac6d5efe-b97d-44df-9774-ead0fa210dcd" />
            </g>
          </g>
          <g
             fill="#000000"
             fill-opacity="1"
             id="id-7d3ad569-cfa9-4fc1-b144-0dc461b4ad79"
             transform="translate(-135.221,-124.599)">
            <g
               transform="translate(138.558,133.741)"
               id="g22846">
              <path
                 d="m 5.359375,-5.9375 c -0.140625,0.140625 -0.46875,0.421875 -0.46875,0.59375 0,0.09375 0.09375,0.203125 0.1875,0.203125 0.09375,0 0.140625,-0.078125 0.203125,-0.140625 C 5.390625,-5.421875 5.625,-5.703125 6.0625,-5.921875 6.125,-5.96875 6.234375,-6.015625 6.234375,-6.125 6.234375,-6.234375 6.15625,-6.28125 6.09375,-6.328125 5.875,-6.484375 5.765625,-6.65625 5.6875,-6.890625 5.65625,-6.984375 5.625,-7.125 5.484375,-7.125 c -0.140625,0 -0.203125,0.140625 -0.203125,0.21875 0,0.046875 0.078125,0.359375 0.234375,0.578125 H 2.15625 c -0.15625,0 -0.34375,0 -0.34375,0.203125 0,0.1875 0.1875,0.1875 0.34375,0.1875 z m 0,0"
                 id="id-35d59bca-31d6-41b3-833b-14c43dff71eb" />
            </g>
          </g>
          <g
             fill="#000000"
             fill-opacity="1"
             id="id-1b191b17-a2b9-4e7f-82c1-c5dd5078e275"
             transform="translate(-135.221,-124.599)">
            <g
               transform="translate(137.089,136.259)"
               id="g22850">
              <path
                 d="m 3.015625,-3.234375 h 0.96875 c 0.75,0 0.828125,0.15625 0.828125,0.4375 0,0.078125 0,0.1875 -0.0625,0.5 C 4.71875,-2.25 4.71875,-2.21875 4.71875,-2.1875 c 0,0.078125 0.0625,0.109375 0.109375,0.109375 0.109375,0 0.109375,-0.03125 0.15625,-0.203125 L 5.53125,-4.453125 C 5.5625,-4.5625 5.5625,-4.578125 5.5625,-4.609375 5.5625,-4.625 5.546875,-4.71875 5.4375,-4.71875 5.34375,-4.71875 5.328125,-4.671875 5.296875,-4.5 5.078125,-3.734375 4.859375,-3.546875 4,-3.546875 H 3.09375 l 0.640625,-2.53125 C 3.828125,-6.4375 3.84375,-6.46875 4.28125,-6.46875 h 1.3125 c 1.21875,0 1.453125,0.328125 1.453125,1.09375 0,0.234375 0,0.265625 -0.03125,0.546875 C 7,-4.703125 7,-4.6875 7,-4.65625 c 0,0.046875 0.03125,0.125 0.125,0.125 0.109375,0 0.109375,-0.0625 0.125,-0.25 L 7.453125,-6.515625 C 7.484375,-6.78125 7.4375,-6.78125 7.1875,-6.78125 H 2.296875 c -0.1875,0 -0.296875,0 -0.296875,0.203125 0,0.109375 0.09375,0.109375 0.28125,0.109375 0.375,0 0.65625,0 0.65625,0.171875 0,0.046875 0,0.0625 -0.0625,0.25 L 1.5625,-0.78125 c -0.09375,0.390625 -0.109375,0.46875 -0.90625,0.46875 -0.171875,0 -0.28125,0 -0.28125,0.1875 C 0.375,0 0.5,0 0.53125,0 0.8125,0 1.5625,-0.03125 1.84375,-0.03125 2.171875,-0.03125 3,0 3.328125,0 3.421875,0 3.53125,0 3.53125,-0.1875 3.53125,-0.265625 3.484375,-0.296875 3.484375,-0.296875 3.453125,-0.3125 3.421875,-0.3125 3.203125,-0.3125 c -0.21875,0 -0.265625,0 -0.515625,-0.015625 -0.296875,-0.03125 -0.328125,-0.078125 -0.328125,-0.203125 0,-0.015625 0,-0.078125 0.046875,-0.21875 z m 0,0"
                 id="id-c190b7b6-e998-4ed4-aaa5-33c7b70dbd59" />
            </g>
          </g>
          <g
             fill="#000000"
             fill-opacity="1"
             id="id-78f917dd-332f-4c11-9f77-0e8046ecaf32"
             transform="translate(-135.221,-124.599)">
            <g
               transform="translate(144.879,124.802)"
               id="g22854">
              <path
                 d="m 1.453125,5.828125 c 0,0.15625 0,0.359375 0.203125,0.359375 C 1.875,6.1875 1.875,5.984375 1.875,5.828125 V 0.15625 c 0,-0.15625 0,-0.359375 -0.203125,-0.359375 -0.21875,0 -0.21875,0.1875 -0.21875,0.359375 z m 0,0"
                 id="id-de7540ab-aec8-4f1c-9c79-daae229a1267" />
            </g>
          </g>
          <g
             fill="#000000"
             fill-opacity="1"
             id="id-b8642b79-52f7-41fe-b2e1-038ea5640dbe"
             transform="translate(-135.221,-124.599)">
            <g
               transform="translate(144.879,130.78)"
               id="g22858">
              <path
                 d="m 1.453125,5.828125 c 0,0.15625 0,0.359375 0.203125,0.359375 C 1.875,6.1875 1.875,5.984375 1.875,5.828125 V 0.15625 c 0,-0.15625 0,-0.359375 -0.203125,-0.359375 -0.21875,0 -0.21875,0.1875 -0.21875,0.359375 z m 0,0"
                 id="id-50922367-51d8-497c-bc2c-8d662851ea92" />
            </g>
          </g>
          <g
             fill="#000000"
             fill-opacity="1"
             id="id-86f972df-07e0-4286-8e5e-d65650c03212"
             transform="translate(-135.221,-124.599)">
            <g
               transform="translate(144.879,136.757)"
               id="g22862">
              <path
                 d="m 1.453125,5.828125 c 0,0.15625 0,0.359375 0.203125,0.359375 C 1.875,6.1875 1.875,5.984375 1.875,5.828125 V 0.15625 c 0,-0.15625 0,-0.359375 -0.203125,-0.359375 -0.21875,0 -0.21875,0.1875 -0.21875,0.359375 z m 0,0"
                 id="id-29d11723-7daf-410c-80f0-23377d5cfba4" />
            </g>
          </g>
        </g>
      </g>
    </g>
    <path
       inkscape:label="none"
       style="fill:none;fill-opacity:1;stroke:#000000;stroke-width:0.25;stroke-linecap:round;stroke-linejoin:round;stroke-dasharray:none;stroke-opacity:1"
       d="m 65.878669,119.82457 h 6"
       id="path27050" />
    <path
       inkscape:label="none"
       style="fill:none;fill-opacity:1;stroke:#000000;stroke-width:0.25;stroke-linecap:round;stroke-linejoin:round;stroke-dasharray:none;stroke-opacity:1"
       d="m 65.878669,94.048159 h 6"
       id="path27052" />
    <path
       inkscape:label="dim"
       style="fill:none;fill-opacity:1;stroke:#000000;stroke-width:0.25;stroke-linecap:round;stroke-linejoin:round;stroke-dasharray:none;stroke-opacity:1;marker-start:url(#DimmArrow_Start_n00011);marker-end:url(#DimmArrow_End_n00011)"
       d="M 70.878669,117.32457 V 96.548159"
       id="path27054" />
    <g
       inkscape:label="Layer 1"
       inkscape:groupmode="layer"
       id="g27128"
       transform="matrix(0.276498,0,0,0.276498,-48.580133,-50.034254)">
      <g
         transform="matrix(1.33333,0,0,1.33333,435.7726,529.91273)"
         ns2:version="1.8.2"
         ns2:texconverter="pdflatex"
         ns2:pdfconverter="inkscape"
         ns2:text=" \\noindent $2\\left|\\vec{F}\\right|cos\\theta$"
         ns2:preamble="C:\Users\USER\AppData\Roaming\inkscape\extensions\inkscapeMadeEasy\basicLatexPackages.tex"
         ns2:scale="1.0"
         ns2:alignment="middle center"
         ns2:stroke-to-path="0"
         ns2:inkscapeversion="1.0.1"
         ns2:jacobian_sqrt="1.33333"
         id="g27126">
        <defs
           id="id-258698a5-35d3-4b8e-a176-65a43eed940f">
          <g
             id="id-42e0133b-8588-4a80-9ce8-72dc639e7e06">
            <g
               id="id-e7210422-0218-40ce-92ef-3f0871e9f766" />
            <g
               id="id-45fade93-7113-4450-87e8-7d04452b1f7c">
              <path
                 d="m 1.265625,-0.765625 1.0625,-1.03125 c 1.546875,-1.375 2.140625,-1.90625 2.140625,-2.90625 0,-1.140625 -0.890625,-1.9375 -2.109375,-1.9375 -1.125,0 -1.859375,0.921875 -1.859375,1.8125 0,0.546875 0.5,0.546875 0.53125,0.546875 0.171875,0 0.515625,-0.109375 0.515625,-0.53125 0,-0.25 -0.1875,-0.515625 -0.53125,-0.515625 -0.078125,0 -0.09375,0 -0.125,0.015625 0.21875,-0.65625 0.765625,-1.015625 1.34375,-1.015625 0.90625,0 1.328125,0.8125 1.328125,1.625 C 3.5625,-3.90625 3.078125,-3.125 2.515625,-2.5 l -1.90625,2.125 C 0.5,-0.265625 0.5,-0.234375 0.5,0 H 4.203125 L 4.46875,-1.734375 H 4.234375 C 4.171875,-1.4375 4.109375,-1 4,-0.84375 3.9375,-0.765625 3.28125,-0.765625 3.0625,-0.765625 Z m 0,0"
                 id="id-2b53fa1c-6b2c-47d0-99f6-2a6336302237" />
            </g>
            <g
               id="id-895ece43-17a3-4da4-b004-17485f2891a2" />
            <g
               id="id-a0d831a8-db01-40ab-ac59-a0e97bfb7da6">
              <path
                 d="m 1.453125,5.828125 c 0,0.15625 0,0.359375 0.203125,0.359375 C 1.875,6.1875 1.875,5.984375 1.875,5.828125 V 0.15625 c 0,-0.15625 0,-0.359375 -0.203125,-0.359375 -0.21875,0 -0.21875,0.1875 -0.21875,0.359375 z m 0,0"
                 id="id-c26955cf-a780-4ba5-b61b-23e0aa220696" />
            </g>
            <g
               id="id-6d02063d-7805-4223-bb71-3b70c81c140a" />
            <g
               id="id-7ccee3f9-1dc2-4b2b-b89b-f2299e5f72f0">
              <path
                 d="m 5.359375,-5.9375 c -0.140625,0.140625 -0.46875,0.421875 -0.46875,0.59375 0,0.09375 0.09375,0.203125 0.1875,0.203125 0.09375,0 0.140625,-0.078125 0.203125,-0.140625 C 5.390625,-5.421875 5.625,-5.703125 6.0625,-5.921875 6.125,-5.96875 6.234375,-6.015625 6.234375,-6.125 6.234375,-6.234375 6.15625,-6.28125 6.09375,-6.328125 5.875,-6.484375 5.765625,-6.65625 5.6875,-6.890625 5.65625,-6.984375 5.625,-7.125 5.484375,-7.125 c -0.140625,0 -0.203125,0.140625 -0.203125,0.21875 0,0.046875 0.078125,0.359375 0.234375,0.578125 H 2.15625 c -0.15625,0 -0.34375,0 -0.34375,0.203125 0,0.1875 0.1875,0.1875 0.34375,0.1875 z m 0,0"
                 id="id-997fea04-0990-467d-9d9f-5c94903e2743" />
            </g>
            <g
               id="id-0169a321-8876-4471-9ab2-2318f63241a7">
              <path
                 d="m 3.015625,-3.234375 h 0.96875 c 0.75,0 0.828125,0.15625 0.828125,0.4375 0,0.078125 0,0.1875 -0.0625,0.5 C 4.71875,-2.25 4.71875,-2.21875 4.71875,-2.1875 c 0,0.078125 0.0625,0.109375 0.109375,0.109375 0.109375,0 0.109375,-0.03125 0.15625,-0.203125 L 5.53125,-4.453125 C 5.5625,-4.5625 5.5625,-4.578125 5.5625,-4.609375 5.5625,-4.625 5.546875,-4.71875 5.4375,-4.71875 5.34375,-4.71875 5.328125,-4.671875 5.296875,-4.5 5.078125,-3.734375 4.859375,-3.546875 4,-3.546875 H 3.09375 l 0.640625,-2.53125 C 3.828125,-6.4375 3.84375,-6.46875 4.28125,-6.46875 h 1.3125 c 1.21875,0 1.453125,0.328125 1.453125,1.09375 0,0.234375 0,0.265625 -0.03125,0.546875 C 7,-4.703125 7,-4.6875 7,-4.65625 c 0,0.046875 0.03125,0.125 0.125,0.125 0.109375,0 0.109375,-0.0625 0.125,-0.25 L 7.453125,-6.515625 C 7.484375,-6.78125 7.4375,-6.78125 7.1875,-6.78125 H 2.296875 c -0.1875,0 -0.296875,0 -0.296875,0.203125 0,0.109375 0.09375,0.109375 0.28125,0.109375 0.375,0 0.65625,0 0.65625,0.171875 0,0.046875 0,0.0625 -0.0625,0.25 L 1.5625,-0.78125 c -0.09375,0.390625 -0.109375,0.46875 -0.90625,0.46875 -0.171875,0 -0.28125,0 -0.28125,0.1875 C 0.375,0 0.5,0 0.53125,0 0.8125,0 1.5625,-0.03125 1.84375,-0.03125 2.171875,-0.03125 3,0 3.328125,0 3.421875,0 3.53125,0 3.53125,-0.1875 3.53125,-0.265625 3.484375,-0.296875 3.484375,-0.296875 3.453125,-0.3125 3.421875,-0.3125 3.203125,-0.3125 c -0.21875,0 -0.265625,0 -0.515625,-0.015625 -0.296875,-0.03125 -0.328125,-0.078125 -0.328125,-0.203125 0,-0.015625 0,-0.078125 0.046875,-0.21875 z m 0,0"
                 id="id-1499d5ae-bb98-44a1-a445-2727f6243a71" />
            </g>
            <g
               id="id-9cd00b4e-22b8-44c7-a6b2-1036b4f3afa0">
              <path
                 d="m 3.953125,-3.78125 c -0.171875,0 -0.296875,0 -0.4375,0.125 -0.171875,0.15625 -0.1875,0.328125 -0.1875,0.390625 0,0.25 0.1875,0.359375 0.375,0.359375 0.28125,0 0.546875,-0.25 0.546875,-0.640625 0,-0.484375 -0.46875,-0.859375 -1.171875,-0.859375 -1.34375,0 -2.671875,1.421875 -2.671875,2.828125 0,0.90625 0.578125,1.6875 1.625,1.6875 1.421875,0 2.25,-1.0625 2.25,-1.171875 0,-0.0625 -0.046875,-0.140625 -0.109375,-0.140625 -0.0625,0 -0.078125,0.03125 -0.140625,0.109375 -0.78125,0.984375 -1.875,0.984375 -1.984375,0.984375 -0.625,0 -0.90625,-0.484375 -0.90625,-1.09375 0,-0.40625 0.203125,-1.375 0.546875,-1.984375 0.3125,-0.578125 0.859375,-1 1.40625,-1 0.328125,0 0.71875,0.125 0.859375,0.40625 z m 0,0"
                 id="id-eea8b27f-4355-4714-abc8-cb7ac5d97d80" />
            </g>
            <g
               id="id-d34d8ae1-346f-4e0d-a4be-76ac03181b50">
              <path
                 d="m 4.671875,-2.71875 c 0,-1.046875 -0.6875,-1.6875 -1.59375,-1.6875 -1.328125,0 -2.671875,1.421875 -2.671875,2.828125 0,0.984375 0.671875,1.6875 1.59375,1.6875 1.328125,0 2.671875,-1.375 2.671875,-2.828125 z m -2.65625,2.609375 c -0.4375,0 -0.875,-0.3125 -0.875,-1.09375 0,-0.484375 0.265625,-1.5625 0.578125,-2.0625 0.5,-0.765625 1.078125,-0.921875 1.359375,-0.921875 0.578125,0 0.875,0.484375 0.875,1.078125 0,0.390625 -0.203125,1.4375 -0.578125,2.078125 -0.359375,0.578125 -0.90625,0.921875 -1.359375,0.921875 z m 0,0"
                 id="id-51d7d05d-8101-4777-8315-88c679233b38" />
            </g>
            <g
               id="id-551c148c-28be-449e-bd3a-493e75a8a174">
              <path
                 d="M 3.890625,-3.734375 C 3.625,-3.71875 3.421875,-3.5 3.421875,-3.28125 c 0,0.140625 0.09375,0.296875 0.3125,0.296875 0.21875,0 0.453125,-0.171875 0.453125,-0.5625 C 4.1875,-4 3.765625,-4.40625 3,-4.40625 c -1.3125,0 -1.6875,1.015625 -1.6875,1.453125 0,0.78125 0.734375,0.921875 1.03125,0.984375 0.515625,0.109375 1.03125,0.21875 1.03125,0.765625 0,0.25 -0.21875,1.09375 -1.421875,1.09375 -0.140625,0 -0.90625,0 -1.140625,-0.53125 0.390625,0.046875 0.640625,-0.25 0.640625,-0.53125 0,-0.21875 -0.171875,-0.34375 -0.375,-0.34375 -0.265625,0 -0.5625,0.203125 -0.5625,0.65625 0,0.5625 0.578125,0.96875 1.421875,0.96875 1.625,0 2.015625,-1.203125 2.015625,-1.65625 0,-0.359375 -0.1875,-0.609375 -0.3125,-0.71875 -0.265625,-0.28125 -0.5625,-0.34375 -1,-0.421875 -0.359375,-0.078125 -0.75,-0.15625 -0.75,-0.609375 C 1.890625,-3.578125 2.125,-4.1875 3,-4.1875 c 0.25,0 0.75,0.078125 0.890625,0.453125 z m 0,0"
                 id="id-2906bf33-5cf1-466a-b3e7-6ca208833d45" />
            </g>
            <g
               id="id-4567625d-49f6-4ef2-8157-c1ef5f2bcc4b">
              <path
                 d="m 4.53125,-4.984375 c 0,-0.65625 -0.171875,-2.046875 -1.1875,-2.046875 -1.390625,0 -2.921875,2.8125 -2.921875,5.09375 0,0.9375 0.28125,2.046875 1.1875,2.046875 1.40625,0 2.921875,-2.859375 2.921875,-5.09375 z M 1.46875,-3.625 C 1.640625,-4.25 1.84375,-5.046875 2.25,-5.765625 2.515625,-6.25 2.875,-6.8125 3.328125,-6.8125 c 0.484375,0 0.546875,0.640625 0.546875,1.203125 0,0.5 -0.078125,1 -0.3125,1.984375 z m 2,0.328125 C 3.359375,-2.84375 3.15625,-2 2.765625,-1.28125 c -0.34375,0.6875 -0.71875,1.171875 -1.15625,1.171875 -0.328125,0 -0.53125,-0.296875 -0.53125,-1.21875 0,-0.421875 0.0625,-1 0.3125,-1.96875 z m 0,0"
                 id="id-362e177a-5e75-4ca1-9bc9-273ed534582a" />
            </g>
          </g>
        </defs>
        <g
           fill="#000000"
           fill-opacity="1"
           id="id-a0554ce4-053d-4952-8cf1-7debffed7fe1"
           transform="translate(-134.268,-124.599)">
          <g
             transform="translate(133.768,136.259)"
             id="g27078">
            <path
               d="m 1.265625,-0.765625 1.0625,-1.03125 c 1.546875,-1.375 2.140625,-1.90625 2.140625,-2.90625 0,-1.140625 -0.890625,-1.9375 -2.109375,-1.9375 -1.125,0 -1.859375,0.921875 -1.859375,1.8125 0,0.546875 0.5,0.546875 0.53125,0.546875 0.171875,0 0.515625,-0.109375 0.515625,-0.53125 0,-0.25 -0.1875,-0.515625 -0.53125,-0.515625 -0.078125,0 -0.09375,0 -0.125,0.015625 0.21875,-0.65625 0.765625,-1.015625 1.34375,-1.015625 0.90625,0 1.328125,0.8125 1.328125,1.625 C 3.5625,-3.90625 3.078125,-3.125 2.515625,-2.5 l -1.90625,2.125 C 0.5,-0.265625 0.5,-0.234375 0.5,0 H 4.203125 L 4.46875,-1.734375 H 4.234375 C 4.171875,-1.4375 4.109375,-1 4,-0.84375 3.9375,-0.765625 3.28125,-0.765625 3.0625,-0.765625 Z m 0,0"
               id="id-6bf926fe-27de-494a-9fce-dfe69349261d" />
          </g>
        </g>
        <g
           fill="#000000"
           fill-opacity="1"
           id="id-a38fd9b9-1c61-4419-9c4d-bd3494c57b24"
           transform="translate(-134.268,-124.599)">
          <g
             transform="translate(140.41,124.802)"
             id="g27082">
            <path
               d="m 1.453125,5.828125 c 0,0.15625 0,0.359375 0.203125,0.359375 C 1.875,6.1875 1.875,5.984375 1.875,5.828125 V 0.15625 c 0,-0.15625 0,-0.359375 -0.203125,-0.359375 -0.21875,0 -0.21875,0.1875 -0.21875,0.359375 z m 0,0"
               id="id-93ba49e2-c3da-462c-b456-5b122b7ded03" />
          </g>
        </g>
        <g
           fill="#000000"
           fill-opacity="1"
           id="id-9c112549-93b9-4ab8-b2fc-b04b26911d4a"
           transform="translate(-134.268,-124.599)">
          <g
             transform="translate(140.41,130.78)"
             id="g27086">
            <path
               d="m 1.453125,5.828125 c 0,0.15625 0,0.359375 0.203125,0.359375 C 1.875,6.1875 1.875,5.984375 1.875,5.828125 V 0.15625 c 0,-0.15625 0,-0.359375 -0.203125,-0.359375 -0.21875,0 -0.21875,0.1875 -0.21875,0.359375 z m 0,0"
               id="id-2e98a5b2-4d50-4147-bdf0-eaeb481619a2" />
          </g>
        </g>
        <g
           fill="#000000"
           fill-opacity="1"
           id="id-f7fcd3a8-b2c9-49b3-8adb-c09752d6022b"
           transform="translate(-134.268,-124.599)">
          <g
             transform="translate(140.41,136.757)"
             id="g27090">
            <path
               d="m 1.453125,5.828125 c 0,0.15625 0,0.359375 0.203125,0.359375 C 1.875,6.1875 1.875,5.984375 1.875,5.828125 V 0.15625 c 0,-0.15625 0,-0.359375 -0.203125,-0.359375 -0.21875,0 -0.21875,0.1875 -0.21875,0.359375 z m 0,0"
               id="id-9f3372af-136e-484d-9c70-89a04200712c" />
          </g>
        </g>
        <g
           fill="#000000"
           fill-opacity="1"
           id="id-09bfe78e-b77f-4418-8179-b657a8233e59"
           transform="translate(-134.268,-124.599)">
          <g
             transform="translate(145.199,133.741)"
             id="g27094">
            <path
               d="m 5.359375,-5.9375 c -0.140625,0.140625 -0.46875,0.421875 -0.46875,0.59375 0,0.09375 0.09375,0.203125 0.1875,0.203125 0.09375,0 0.140625,-0.078125 0.203125,-0.140625 C 5.390625,-5.421875 5.625,-5.703125 6.0625,-5.921875 6.125,-5.96875 6.234375,-6.015625 6.234375,-6.125 6.234375,-6.234375 6.15625,-6.28125 6.09375,-6.328125 5.875,-6.484375 5.765625,-6.65625 5.6875,-6.890625 5.65625,-6.984375 5.625,-7.125 5.484375,-7.125 c -0.140625,0 -0.203125,0.140625 -0.203125,0.21875 0,0.046875 0.078125,0.359375 0.234375,0.578125 H 2.15625 c -0.15625,0 -0.34375,0 -0.34375,0.203125 0,0.1875 0.1875,0.1875 0.34375,0.1875 z m 0,0"
               id="id-caccbced-a013-461a-b69e-da74657bb794" />
          </g>
        </g>
        <g
           fill="#000000"
           fill-opacity="1"
           id="id-1d4c6c5b-7fb7-46de-9f3e-20a747a9ae2f"
           transform="translate(-134.268,-124.599)">
          <g
             transform="translate(143.731,136.259)"
             id="g27098">
            <path
               d="m 3.015625,-3.234375 h 0.96875 c 0.75,0 0.828125,0.15625 0.828125,0.4375 0,0.078125 0,0.1875 -0.0625,0.5 C 4.71875,-2.25 4.71875,-2.21875 4.71875,-2.1875 c 0,0.078125 0.0625,0.109375 0.109375,0.109375 0.109375,0 0.109375,-0.03125 0.15625,-0.203125 L 5.53125,-4.453125 C 5.5625,-4.5625 5.5625,-4.578125 5.5625,-4.609375 5.5625,-4.625 5.546875,-4.71875 5.4375,-4.71875 5.34375,-4.71875 5.328125,-4.671875 5.296875,-4.5 5.078125,-3.734375 4.859375,-3.546875 4,-3.546875 H 3.09375 l 0.640625,-2.53125 C 3.828125,-6.4375 3.84375,-6.46875 4.28125,-6.46875 h 1.3125 c 1.21875,0 1.453125,0.328125 1.453125,1.09375 0,0.234375 0,0.265625 -0.03125,0.546875 C 7,-4.703125 7,-4.6875 7,-4.65625 c 0,0.046875 0.03125,0.125 0.125,0.125 0.109375,0 0.109375,-0.0625 0.125,-0.25 L 7.453125,-6.515625 C 7.484375,-6.78125 7.4375,-6.78125 7.1875,-6.78125 H 2.296875 c -0.1875,0 -0.296875,0 -0.296875,0.203125 0,0.109375 0.09375,0.109375 0.28125,0.109375 0.375,0 0.65625,0 0.65625,0.171875 0,0.046875 0,0.0625 -0.0625,0.25 L 1.5625,-0.78125 c -0.09375,0.390625 -0.109375,0.46875 -0.90625,0.46875 -0.171875,0 -0.28125,0 -0.28125,0.1875 C 0.375,0 0.5,0 0.53125,0 0.8125,0 1.5625,-0.03125 1.84375,-0.03125 2.171875,-0.03125 3,0 3.328125,0 3.421875,0 3.53125,0 3.53125,-0.1875 3.53125,-0.265625 3.484375,-0.296875 3.484375,-0.296875 3.453125,-0.3125 3.421875,-0.3125 3.203125,-0.3125 c -0.21875,0 -0.265625,0 -0.515625,-0.015625 -0.296875,-0.03125 -0.328125,-0.078125 -0.328125,-0.203125 0,-0.015625 0,-0.078125 0.046875,-0.21875 z m 0,0"
               id="id-43abf2e7-651e-4479-81e5-e6d4d2bed13b" />
          </g>
        </g>
        <g
           fill="#000000"
           fill-opacity="1"
           id="id-76bef155-913c-4c64-a244-669fa36e7a60"
           transform="translate(-134.268,-124.599)">
          <g
             transform="translate(151.521,124.802)"
             id="g27102">
            <path
               d="m 1.453125,5.828125 c 0,0.15625 0,0.359375 0.203125,0.359375 C 1.875,6.1875 1.875,5.984375 1.875,5.828125 V 0.15625 c 0,-0.15625 0,-0.359375 -0.203125,-0.359375 -0.21875,0 -0.21875,0.1875 -0.21875,0.359375 z m 0,0"
               id="id-7b1e8def-8aa5-4b48-a6a4-75ed182e2b48" />
          </g>
        </g>
        <g
           fill="#000000"
           fill-opacity="1"
           id="id-5f4301dc-102f-4e91-a60e-d065c4e35dee"
           transform="translate(-134.268,-124.599)">
          <g
             transform="translate(151.521,130.78)"
             id="g27106">
            <path
               d="m 1.453125,5.828125 c 0,0.15625 0,0.359375 0.203125,0.359375 C 1.875,6.1875 1.875,5.984375 1.875,5.828125 V 0.15625 c 0,-0.15625 0,-0.359375 -0.203125,-0.359375 -0.21875,0 -0.21875,0.1875 -0.21875,0.359375 z m 0,0"
               id="id-835ff531-8492-4d0c-9555-625eb118688c" />
          </g>
        </g>
        <g
           fill="#000000"
           fill-opacity="1"
           id="id-5d9541cf-c420-4ed3-a3e5-ba0fef905d12"
           transform="translate(-134.268,-124.599)">
          <g
             transform="translate(151.521,136.757)"
             id="g27110">
            <path
               d="m 1.453125,5.828125 c 0,0.15625 0,0.359375 0.203125,0.359375 C 1.875,6.1875 1.875,5.984375 1.875,5.828125 V 0.15625 c 0,-0.15625 0,-0.359375 -0.203125,-0.359375 -0.21875,0 -0.21875,0.1875 -0.21875,0.359375 z m 0,0"
               id="id-772cb45b-c5b2-4cae-8eea-320b458b6ad8" />
          </g>
        </g>
        <g
           fill="#000000"
           fill-opacity="1"
           id="id-10bd763b-28ea-49d3-98a7-d1440632b4cb"
           transform="translate(-134.268,-124.599)">
          <g
             transform="translate(156.502,136.259)"
             id="g27114">
            <path
               d="m 3.953125,-3.78125 c -0.171875,0 -0.296875,0 -0.4375,0.125 -0.171875,0.15625 -0.1875,0.328125 -0.1875,0.390625 0,0.25 0.1875,0.359375 0.375,0.359375 0.28125,0 0.546875,-0.25 0.546875,-0.640625 0,-0.484375 -0.46875,-0.859375 -1.171875,-0.859375 -1.34375,0 -2.671875,1.421875 -2.671875,2.828125 0,0.90625 0.578125,1.6875 1.625,1.6875 1.421875,0 2.25,-1.0625 2.25,-1.171875 0,-0.0625 -0.046875,-0.140625 -0.109375,-0.140625 -0.0625,0 -0.078125,0.03125 -0.140625,0.109375 -0.78125,0.984375 -1.875,0.984375 -1.984375,0.984375 -0.625,0 -0.90625,-0.484375 -0.90625,-1.09375 0,-0.40625 0.203125,-1.375 0.546875,-1.984375 0.3125,-0.578125 0.859375,-1 1.40625,-1 0.328125,0 0.71875,0.125 0.859375,0.40625 z m 0,0"
               id="id-2424aba6-d5f4-494f-b84a-43d9645a155a" />
          </g>
          <g
             transform="translate(160.814,136.259)"
             id="g27117">
            <path
               d="m 4.671875,-2.71875 c 0,-1.046875 -0.6875,-1.6875 -1.59375,-1.6875 -1.328125,0 -2.671875,1.421875 -2.671875,2.828125 0,0.984375 0.671875,1.6875 1.59375,1.6875 1.328125,0 2.671875,-1.375 2.671875,-2.828125 z m -2.65625,2.609375 c -0.4375,0 -0.875,-0.3125 -0.875,-1.09375 0,-0.484375 0.265625,-1.5625 0.578125,-2.0625 0.5,-0.765625 1.078125,-0.921875 1.359375,-0.921875 0.578125,0 0.875,0.484375 0.875,1.078125 0,0.390625 -0.203125,1.4375 -0.578125,2.078125 -0.359375,0.578125 -0.90625,0.921875 -1.359375,0.921875 z m 0,0"
               id="id-e82f50eb-a2f1-4a46-90ab-d5d3ead1de7b" />
          </g>
          <g
             transform="translate(165.643,136.259)"
             id="g27120">
            <path
               d="M 3.890625,-3.734375 C 3.625,-3.71875 3.421875,-3.5 3.421875,-3.28125 c 0,0.140625 0.09375,0.296875 0.3125,0.296875 0.21875,0 0.453125,-0.171875 0.453125,-0.5625 C 4.1875,-4 3.765625,-4.40625 3,-4.40625 c -1.3125,0 -1.6875,1.015625 -1.6875,1.453125 0,0.78125 0.734375,0.921875 1.03125,0.984375 0.515625,0.109375 1.03125,0.21875 1.03125,0.765625 0,0.25 -0.21875,1.09375 -1.421875,1.09375 -0.140625,0 -0.90625,0 -1.140625,-0.53125 0.390625,0.046875 0.640625,-0.25 0.640625,-0.53125 0,-0.21875 -0.171875,-0.34375 -0.375,-0.34375 -0.265625,0 -0.5625,0.203125 -0.5625,0.65625 0,0.5625 0.578125,0.96875 1.421875,0.96875 1.625,0 2.015625,-1.203125 2.015625,-1.65625 0,-0.359375 -0.1875,-0.609375 -0.3125,-0.71875 -0.265625,-0.28125 -0.5625,-0.34375 -1,-0.421875 -0.359375,-0.078125 -0.75,-0.15625 -0.75,-0.609375 C 1.890625,-3.578125 2.125,-4.1875 3,-4.1875 c 0.25,0 0.75,0.078125 0.890625,0.453125 z m 0,0"
               id="id-9403191f-fc7c-479f-b87d-cf3e0254e60d" />
          </g>
          <g
             transform="translate(170.313,136.259)"
             id="g27123">
            <path
               d="m 4.53125,-4.984375 c 0,-0.65625 -0.171875,-2.046875 -1.1875,-2.046875 -1.390625,0 -2.921875,2.8125 -2.921875,5.09375 0,0.9375 0.28125,2.046875 1.1875,2.046875 1.40625,0 2.921875,-2.859375 2.921875,-5.09375 z M 1.46875,-3.625 C 1.640625,-4.25 1.84375,-5.046875 2.25,-5.765625 2.515625,-6.25 2.875,-6.8125 3.328125,-6.8125 c 0.484375,0 0.546875,0.640625 0.546875,1.203125 0,0.5 -0.078125,1 -0.3125,1.984375 z m 2,0.328125 C 3.359375,-2.84375 3.15625,-2 2.765625,-1.28125 c -0.34375,0.6875 -0.71875,1.171875 -1.15625,1.171875 -0.328125,0 -0.53125,-0.296875 -0.53125,-1.21875 0,-0.421875 0.0625,-1 0.3125,-1.96875 z m 0,0"
               id="id-84a52fef-124e-4549-a474-561d9578717b" />
          </g>
        </g>
      </g>
    </g>
  </g>
</svg>
