<?xml version="1.0" encoding="UTF-8" standalone="no"?>
<!-- Created with Inkscape (http://www.inkscape.org/) -->

<svg
   sodipodi:docname="prob18.svg"
   width="120.82725mm"
   height="83.132729mm"
   viewBox="0 0 120.82725 83.132729"
   version="1.1"
   id="svg5"
   inkscape:version="1.2.2 (732a01da63, 2022-12-09)"
   xmlns:inkscape="http://www.inkscape.org/namespaces/inkscape"
   xmlns:sodipodi="http://sodipodi.sourceforge.net/DTD/sodipodi-0.dtd"
   xmlns="http://www.w3.org/2000/svg"
   xmlns:svg="http://www.w3.org/2000/svg"
   xmlns:ns2="http://www.iki.fi/pav/software/textext/">
  <sodipodi:namedview
     id="namedview7"
     pagecolor="#ffffff"
     bordercolor="#000000"
     borderopacity="0.25"
     inkscape:showpageshadow="2"
     inkscape:pageopacity="0.0"
     inkscape:pagecheckerboard="0"
     inkscape:deskcolor="#d1d1d1"
     inkscape:document-units="mm"
     showgrid="false"
     inkscape:zoom="2.6532575"
     inkscape:cx="170.92197"
     inkscape:cy="74.248354"
     inkscape:window-width="3840"
     inkscape:window-height="2054"
     inkscape:window-x="3829"
     inkscape:window-y="-11"
     inkscape:window-maximized="1"
     inkscape:current-layer="g2000" />
  <defs
     id="defs2">
    <marker
       style="overflow:visible"
       id="marker1326"
       refX="0"
       refY="0"
       orient="auto-start-reverse"
       inkscape:stockid="TriangleStart"
       markerWidth="5.3244081"
       markerHeight="6.155385"
       viewBox="0 0 5.3244081 6.1553851"
       inkscape:isstock="true"
       inkscape:collect="always"
       preserveAspectRatio="xMidYMid">
      <path
         transform="scale(0.5)"
         style="fill:context-stroke;fill-rule:evenodd;stroke:context-stroke;stroke-width:1pt"
         d="M 5.77,0 -2.88,5 V -5 Z"
         id="path1324" />
    </marker>
    <marker
       style="overflow:visible"
       id="TriangleStart"
       refX="0"
       refY="0"
       orient="auto-start-reverse"
       inkscape:stockid="TriangleStart"
       markerWidth="5.3244081"
       markerHeight="6.155385"
       viewBox="0 0 5.3244081 6.1553851"
       inkscape:isstock="true"
       inkscape:collect="always"
       preserveAspectRatio="xMidYMid">
      <path
         transform="scale(0.5)"
         style="fill:context-stroke;fill-rule:evenodd;stroke:context-stroke;stroke-width:1pt"
         d="M 5.77,0 -2.88,5 V -5 Z"
         id="path135" />
    </marker>
    <marker
       style="overflow:visible"
       id="TriangleStart-2"
       refX="0"
       refY="0"
       orient="auto-start-reverse"
       inkscape:stockid="TriangleStart"
       markerWidth="5.3244081"
       markerHeight="6.155385"
       viewBox="0 0 5.3244081 6.1553851"
       inkscape:isstock="true"
       inkscape:collect="always"
       preserveAspectRatio="xMidYMid">
      <path
         transform="scale(0.5)"
         style="fill:context-stroke;fill-rule:evenodd;stroke:context-stroke;stroke-width:1pt"
         d="M 5.77,0 -2.88,5 V -5 Z"
         id="path135-4" />
    </marker>
    <marker
       inkscape:stockid="DimmArrow_Start_n00001"
       orient="auto"
       refY="0"
       refX="0"
       id="DimmArrow_Start_n00001"
       style="overflow:visible">
      <path
         d="M 0,0 -1,0.176327 V -0.176327 Z"
         style="fill:#000000;fill-opacity:1;fill-rule:evenodd;stroke:none;stroke-width:1;stroke-opacity:1"
         transform="matrix(-10,0,0,-10,-10,0)"
         id="path1965" />
    </marker>
    <marker
       inkscape:stockid="DimmArrow_End_n00001"
       orient="auto"
       refY="0"
       refX="0"
       id="DimmArrow_End_n00001"
       style="overflow:visible">
      <path
         d="M 0,0 -1,0.176327 V -0.176327 Z"
         style="fill:#000000;fill-opacity:1;fill-rule:evenodd;stroke:none;stroke-width:1;stroke-opacity:1"
         transform="matrix(10,0,0,10,10,0)"
         id="path1968" />
    </marker>
    <marker
       inkscape:stockid="DimmArrow_Start_n00002"
       orient="auto"
       refY="0"
       refX="0"
       id="DimmArrow_Start_n00002"
       style="overflow:visible">
      <path
         d="M 0,0 -2.5,0.440817 V -0.440817 Z"
         style="fill:#000000;fill-opacity:1;fill-rule:evenodd;stroke:none;stroke-width:1;stroke-opacity:1"
         transform="matrix(-4,0,0,-4,-10,0)"
         id="path4227" />
    </marker>
    <marker
       inkscape:stockid="DimmArrow_End_n00002"
       orient="auto"
       refY="0"
       refX="0"
       id="DimmArrow_End_n00002"
       style="overflow:visible">
      <path
         d="M 0,0 -2.5,0.440817 V -0.440817 Z"
         style="fill:#000000;fill-opacity:1;fill-rule:evenodd;stroke:none;stroke-width:1;stroke-opacity:1"
         transform="matrix(4,0,0,4,10,0)"
         id="path4230" />
    </marker>
    <marker
       inkscape:stockid="DimmArrow_Start_n00003"
       orient="auto"
       refY="0"
       refX="0"
       id="DimmArrow_Start_n00003"
       style="overflow:visible">
      <path
         d="M 0,0 -2.5,0.440817 V -0.440817 Z"
         style="fill:#000000;fill-opacity:1;fill-rule:evenodd;stroke:none;stroke-width:1;stroke-opacity:1"
         transform="matrix(-4,0,0,-4,-10,0)"
         id="path5255" />
    </marker>
    <marker
       inkscape:stockid="DimmArrow_End_n00003"
       orient="auto"
       refY="0"
       refX="0"
       id="DimmArrow_End_n00003"
       style="overflow:visible">
      <path
         d="M 0,0 -2.5,0.440817 V -0.440817 Z"
         style="fill:#000000;fill-opacity:1;fill-rule:evenodd;stroke:none;stroke-width:1;stroke-opacity:1"
         transform="matrix(4,0,0,4,10,0)"
         id="path5258" />
    </marker>
    <marker
       inkscape:stockid="DimmArrow_Start_n00004"
       orient="auto"
       refY="0"
       refX="0"
       id="DimmArrow_Start_n00004"
       style="overflow:visible">
      <path
         d="M 0,0 -2.5,0.440817 V -0.440817 Z"
         style="fill:#000000;fill-opacity:1;fill-rule:evenodd;stroke:none;stroke-width:1;stroke-opacity:1"
         transform="matrix(-4,0,0,-4,-10,0)"
         id="path12160" />
    </marker>
    <marker
       inkscape:stockid="DimmArrow_End_n00004"
       orient="auto"
       refY="0"
       refX="0"
       id="DimmArrow_End_n00004"
       style="overflow:visible">
      <path
         d="M 0,0 -2.5,0.440817 V -0.440817 Z"
         style="fill:#000000;fill-opacity:1;fill-rule:evenodd;stroke:none;stroke-width:1;stroke-opacity:1"
         transform="matrix(4,0,0,4,10,0)"
         id="path12163" />
    </marker>
    <marker
       inkscape:stockid="DimmArrow_Start_n00005"
       orient="auto"
       refY="0"
       refX="0"
       id="DimmArrow_Start_n00005"
       style="overflow:visible">
      <path
         d="M 0,0 -2.5,0.440817 V -0.440817 Z"
         style="fill:#000000;fill-opacity:1;fill-rule:evenodd;stroke:none;stroke-width:1;stroke-opacity:1"
         transform="matrix(-4,0,0,-4,-10,0)"
         id="path14558" />
    </marker>
    <marker
       inkscape:stockid="DimmArrow_End_n00005"
       orient="auto"
       refY="0"
       refX="0"
       id="DimmArrow_End_n00005"
       style="overflow:visible">
      <path
         d="M 0,0 -2.5,0.440817 V -0.440817 Z"
         style="fill:#000000;fill-opacity:1;fill-rule:evenodd;stroke:none;stroke-width:1;stroke-opacity:1"
         transform="matrix(4,0,0,4,10,0)"
         id="path14561" />
    </marker>
  </defs>
  <g
     inkscape:label="Layer 1"
     inkscape:groupmode="layer"
     id="g2000"
     transform="translate(3.535581,-120.77889)">
    <g
       id="g4743">
      <g
         id="g5859">
        <g
           id="g8890">
          <g
             id="g10164">
            <path
               style="fill:#000000;stroke:#000000;stroke-width:1;marker-end:url(#TriangleStart)"
               d="M 35.820514,130.30769 H 113.66667"
               id="path195"
               sodipodi:nodetypes="cc" />
            <path
               style="fill:#000000;stroke:#000000;stroke-width:1;marker-end:url(#TriangleStart-2)"
               d="M -3.1025683,197.72444 C 9.8717957,175.25219 22.846154,152.77994 35.820514,130.30769"
               id="path195-4"
               sodipodi:nodetypes="cc" />
          </g>
        </g>
      </g>
      <path
         style="fill:#000000;fill-opacity:0;stroke:#ff0000;stroke-width:0;stroke-dasharray:none;stroke-opacity:1"
         d="M -3.1025682,197.72444 35.820514,130.30769 h 77.846156"
         id="path11116" />
      <g
         inkscape:label="Dim"
         id="g12204">
        <path
           inkscape:label="arc"
           style="fill:none;fill-opacity:1;stroke:#000000;stroke-width:0.25;stroke-linecap:round;stroke-linejoin:round;stroke-dasharray:none;stroke-opacity:1;marker-start:url(#DimmArrow_Start_n00004);marker-end:url(#DimmArrow_End_n00004)"
           sodipodi:type="arc"
           sodipodi:rx="15.569232"
           sodipodi:ry="15.569232"
           sodipodi:cx="35.820515"
           sodipodi:cy="130.30769"
           sodipodi:start="0.16057311"
           sodipodi:end="1.933822"
           d="m 51.189461,132.79696 a 15.569232,15.569232 0 0 1 -7.58433,10.99408 15.569232,15.569232 0 0 1 -13.313318,1.07119"
           sodipodi:arc-type="arc"
           id="path12173"
           sodipodi:open="true" />
        <g
           inkscape:label="Layer 1"
           inkscape:groupmode="layer"
           id="layer1"
           transform="matrix(0.23945429,-0.138249,0.138249,0.23945429,-128.44428,66.990865)">
          <g
             transform="matrix(1.33333,0,0,1.33333,388.277,555.287)"
             ns2:version="1.8.2"
             ns2:texconverter="pdflatex"
             ns2:pdfconverter="inkscape"
             ns2:text=" \\noindent $120^\\circ$"
             ns2:preamble="C:\Users\user\AppData\Roaming\inkscape\extensions\inkscapeMadeEasy\basicLatexPackages.tex"
             ns2:scale="1.0"
             ns2:alignment="middle center"
             ns2:stroke-to-path="0"
             ns2:inkscapeversion="1.0.1"
             ns2:jacobian_sqrt="1.33333"
             id="g12201">
            <defs
               id="id-a594187a-de46-438f-ae2f-127a3c32c791">
              <g
                 id="id-3268296d-0be0-4139-bb60-de9aa2d82201">
                <g
                   id="id-ddc2a6b6-83c8-4000-ac00-7cfb0071551c" />
                <g
                   id="id-839101ae-83da-423d-8508-d749ea567042">
                  <path
                     d="m 2.9375,-6.375 c 0,-0.25 0,-0.265625 -0.234375,-0.265625 C 2.078125,-6 1.203125,-6 0.890625,-6 v 0.3125 c 0.203125,0 0.78125,0 1.296875,-0.265625 v 5.171875 c 0,0.359375 -0.03125,0.46875 -0.921875,0.46875 h -0.3125 V 0 c 0.34375,-0.03125 1.203125,-0.03125 1.609375,-0.03125 0.390625,0 1.265625,0 1.609375,0.03125 v -0.3125 h -0.3125 c -0.90625,0 -0.921875,-0.109375 -0.921875,-0.46875 z m 0,0"
                     id="id-79b4beb4-1abf-49a5-a32f-96a530a85f7b" />
                </g>
                <g
                   id="id-84efde8a-5767-4889-a7f1-39fe96727bf7">
                  <path
                     d="m 1.265625,-0.765625 1.0625,-1.03125 c 1.546875,-1.375 2.140625,-1.90625 2.140625,-2.90625 0,-1.140625 -0.890625,-1.9375 -2.109375,-1.9375 -1.125,0 -1.859375,0.921875 -1.859375,1.8125 0,0.546875 0.5,0.546875 0.53125,0.546875 0.171875,0 0.515625,-0.109375 0.515625,-0.53125 0,-0.25 -0.1875,-0.515625 -0.53125,-0.515625 -0.078125,0 -0.09375,0 -0.125,0.015625 0.21875,-0.65625 0.765625,-1.015625 1.34375,-1.015625 0.90625,0 1.328125,0.8125 1.328125,1.625 C 3.5625,-3.90625 3.078125,-3.125 2.515625,-2.5 l -1.90625,2.125 C 0.5,-0.265625 0.5,-0.234375 0.5,0 H 4.203125 L 4.46875,-1.734375 H 4.234375 C 4.171875,-1.4375 4.109375,-1 4,-0.84375 3.9375,-0.765625 3.28125,-0.765625 3.0625,-0.765625 Z m 0,0"
                     id="id-b0c1a01e-a9f6-4070-beaa-6cd1916246f9" />
                </g>
                <g
                   id="id-78f7506a-ee8c-4e2a-b1cd-b991752ff929">
                  <path
                     d="m 4.578125,-3.1875 c 0,-0.796875 -0.046875,-1.59375 -0.390625,-2.328125 -0.453125,-0.96875 -1.28125,-1.125 -1.6875,-1.125 -0.609375,0 -1.328125,0.265625 -1.75,1.1875 -0.3125,0.6875 -0.359375,1.46875 -0.359375,2.265625 0,0.75 0.03125,1.640625 0.453125,2.40625 0.421875,0.796875 1.15625,1 1.640625,1 0.53125,0 1.296875,-0.203125 1.734375,-1.15625 0.3125,-0.6875 0.359375,-1.46875 0.359375,-2.25 z M 2.484375,0 C 2.09375,0 1.5,-0.25 1.328125,-1.203125 1.21875,-1.796875 1.21875,-2.71875 1.21875,-3.3125 c 0,-0.640625 0,-1.296875 0.078125,-1.828125 0.1875,-1.1875 0.9375,-1.28125 1.1875,-1.28125 0.328125,0 0.984375,0.1875 1.171875,1.171875 0.109375,0.5625 0.109375,1.3125 0.109375,1.9375 0,0.75 0,1.421875 -0.109375,2.0625 C 3.5,-0.296875 2.9375,0 2.484375,0 Z m 0,0"
                     id="id-c5e13598-f453-4e35-b88e-fa7319bcde19" />
                </g>
                <g
                   id="id-3b268000-293b-4826-89f5-15f5578b9fc9" />
                <g
                   id="id-2e750df8-9ad2-4036-a2cf-a4b11df9266c">
                  <path
                     d="m 3.53125,-1.734375 c 0,-0.84375 -0.671875,-1.5 -1.5,-1.5 -0.828125,0 -1.5,0.671875 -1.5,1.484375 0,0.84375 0.6875,1.5 1.5,1.5 0.84375,0 1.5,-0.671875 1.5,-1.484375 z m -1.5,1.140625 C 1.375,-0.59375 0.875,-1.125 0.875,-1.734375 c 0,-0.65625 0.515625,-1.171875 1.15625,-1.171875 0.65625,0 1.15625,0.53125 1.15625,1.15625 0,0.65625 -0.515625,1.15625 -1.15625,1.15625 z m 0,0"
                     id="id-bbb25997-bd44-4b31-a329-f7a3d0016afd" />
                </g>
              </g>
            </defs>
            <g
               fill="#000000"
               fill-opacity="1"
               id="id-b39864c5-b2ad-45ba-b5b7-96efba2d376d"
               transform="translate(-134.659,-127.915)">
              <g
                 transform="translate(133.768,134.765)"
                 id="g12188">
                <path
                   d="m 2.9375,-6.375 c 0,-0.25 0,-0.265625 -0.234375,-0.265625 C 2.078125,-6 1.203125,-6 0.890625,-6 v 0.3125 c 0.203125,0 0.78125,0 1.296875,-0.265625 v 5.171875 c 0,0.359375 -0.03125,0.46875 -0.921875,0.46875 h -0.3125 V 0 c 0.34375,-0.03125 1.203125,-0.03125 1.609375,-0.03125 0.390625,0 1.265625,0 1.609375,0.03125 v -0.3125 h -0.3125 c -0.90625,0 -0.921875,-0.109375 -0.921875,-0.46875 z m 0,0"
                   id="id-689cdffd-5a84-4780-864e-37c9fa37eee0" />
              </g>
              <g
                 transform="translate(138.749,134.765)"
                 id="g12191">
                <path
                   d="m 1.265625,-0.765625 1.0625,-1.03125 c 1.546875,-1.375 2.140625,-1.90625 2.140625,-2.90625 0,-1.140625 -0.890625,-1.9375 -2.109375,-1.9375 -1.125,0 -1.859375,0.921875 -1.859375,1.8125 0,0.546875 0.5,0.546875 0.53125,0.546875 0.171875,0 0.515625,-0.109375 0.515625,-0.53125 0,-0.25 -0.1875,-0.515625 -0.53125,-0.515625 -0.078125,0 -0.09375,0 -0.125,0.015625 0.21875,-0.65625 0.765625,-1.015625 1.34375,-1.015625 0.90625,0 1.328125,0.8125 1.328125,1.625 C 3.5625,-3.90625 3.078125,-3.125 2.515625,-2.5 l -1.90625,2.125 C 0.5,-0.265625 0.5,-0.234375 0.5,0 H 4.203125 L 4.46875,-1.734375 H 4.234375 C 4.171875,-1.4375 4.109375,-1 4,-0.84375 3.9375,-0.765625 3.28125,-0.765625 3.0625,-0.765625 Z m 0,0"
                   id="id-37d66141-c6ab-41b0-92ad-9a56fbd195b4" />
              </g>
              <g
                 transform="translate(143.731,134.765)"
                 id="g12194">
                <path
                   d="m 4.578125,-3.1875 c 0,-0.796875 -0.046875,-1.59375 -0.390625,-2.328125 -0.453125,-0.96875 -1.28125,-1.125 -1.6875,-1.125 -0.609375,0 -1.328125,0.265625 -1.75,1.1875 -0.3125,0.6875 -0.359375,1.46875 -0.359375,2.265625 0,0.75 0.03125,1.640625 0.453125,2.40625 0.421875,0.796875 1.15625,1 1.640625,1 0.53125,0 1.296875,-0.203125 1.734375,-1.15625 0.3125,-0.6875 0.359375,-1.46875 0.359375,-2.25 z M 2.484375,0 C 2.09375,0 1.5,-0.25 1.328125,-1.203125 1.21875,-1.796875 1.21875,-2.71875 1.21875,-3.3125 c 0,-0.640625 0,-1.296875 0.078125,-1.828125 0.1875,-1.1875 0.9375,-1.28125 1.1875,-1.28125 0.328125,0 0.984375,0.1875 1.171875,1.171875 0.109375,0.5625 0.109375,1.3125 0.109375,1.9375 0,0.75 0,1.421875 -0.109375,2.0625 C 3.5,-0.296875 2.9375,0 2.484375,0 Z m 0,0"
                   id="id-4bf5bcdc-b02b-4383-8594-f00cf3f118ad" />
              </g>
            </g>
            <g
               fill="#000000"
               fill-opacity="1"
               id="id-95c5c0e0-f819-40a5-871d-b1c96bb6e906"
               transform="translate(-134.659,-127.915)">
              <g
                 transform="translate(148.712,131.149)"
                 id="g12198">
                <path
                   d="m 3.53125,-1.734375 c 0,-0.84375 -0.671875,-1.5 -1.5,-1.5 -0.828125,0 -1.5,0.671875 -1.5,1.484375 0,0.84375 0.6875,1.5 1.5,1.5 0.84375,0 1.5,-0.671875 1.5,-1.484375 z m -1.5,1.140625 C 1.375,-0.59375 0.875,-1.125 0.875,-1.734375 c 0,-0.65625 0.515625,-1.171875 1.15625,-1.171875 0.65625,0 1.15625,0.53125 1.15625,1.15625 0,0.65625 -0.515625,1.15625 -1.15625,1.15625 z m 0,0"
                   id="id-8b3c31d5-67a1-48b5-badb-163d35b2556f" />
              </g>
            </g>
          </g>
        </g>
      </g>
    </g>
    <path
       style="fill:#000000;stroke:#ff0000;stroke-width:1;stroke-dasharray:none;stroke-opacity:1;marker-end:url(#marker1326)"
       d="M -3.1025682,197.72444 113.66667,130.30769"
       id="path1322" />
    <g
       inkscape:label="Dim"
       id="g4260">
      <path
         inkscape:label="none"
         style="fill:none;fill-opacity:1;stroke:#000000;stroke-width:0.25;stroke-linecap:round;stroke-linejoin:round;stroke-dasharray:none;stroke-opacity:1"
         d="m 35.820514,129.30769 v -6"
         id="path4237" />
      <path
         inkscape:label="none"
         style="fill:none;fill-opacity:1;stroke:#000000;stroke-width:0.25;stroke-linecap:round;stroke-linejoin:round;stroke-dasharray:none;stroke-opacity:1"
         d="m 113.66667,129.30769 v -6"
         id="path4239" />
      <path
         inkscape:label="dim"
         style="fill:none;fill-opacity:1;stroke:#000000;stroke-width:0.25;stroke-linecap:round;stroke-linejoin:round;stroke-dasharray:none;stroke-opacity:1;marker-start:url(#DimmArrow_Start_n00002);marker-end:url(#DimmArrow_End_n00002)"
         d="M 38.320514,124.30769 H 111.16667"
         id="path4241" />
      <g
         inkscape:label="Layer 1"
         inkscape:groupmode="layer"
         id="g12224"
         transform="matrix(0.276498,0,0,0.276498,-35.855719,-32.795701)">
        <g
           transform="matrix(1.33333,0,0,1.33333,393.961,555.427)"
           ns2:version="1.8.2"
           ns2:texconverter="pdflatex"
           ns2:pdfconverter="inkscape"
           ns2:text=" \\noindent 20"
           ns2:preamble="C:\Users\user\AppData\Roaming\inkscape\extensions\inkscapeMadeEasy\basicLatexPackages.tex"
           ns2:scale="1.0"
           ns2:alignment="middle center"
           ns2:stroke-to-path="0"
           ns2:inkscapeversion="1.0.1"
           ns2:jacobian_sqrt="1.33333"
           id="g4257">
          <defs
             id="id-f2e5d3dc-bb11-42e1-93e6-253398b984eb">
            <g
               id="id-c2c7a4a9-149b-4e02-a516-ca77cce60b37">
              <g
                 id="id-f91fc41b-6559-4674-81de-214658662886" />
              <g
                 id="id-e74d5dff-86e4-4cd4-a4a6-4cd9d7dbfbca">
                <path
                   d="m 1.265625,-0.765625 1.0625,-1.03125 c 1.546875,-1.375 2.140625,-1.90625 2.140625,-2.90625 0,-1.140625 -0.890625,-1.9375 -2.109375,-1.9375 -1.125,0 -1.859375,0.921875 -1.859375,1.8125 0,0.546875 0.5,0.546875 0.53125,0.546875 0.171875,0 0.515625,-0.109375 0.515625,-0.53125 0,-0.25 -0.1875,-0.515625 -0.53125,-0.515625 -0.078125,0 -0.09375,0 -0.125,0.015625 0.21875,-0.65625 0.765625,-1.015625 1.34375,-1.015625 0.90625,0 1.328125,0.8125 1.328125,1.625 C 3.5625,-3.90625 3.078125,-3.125 2.515625,-2.5 l -1.90625,2.125 C 0.5,-0.265625 0.5,-0.234375 0.5,0 H 4.203125 L 4.46875,-1.734375 H 4.234375 C 4.171875,-1.4375 4.109375,-1 4,-0.84375 3.9375,-0.765625 3.28125,-0.765625 3.0625,-0.765625 Z m 0,0"
                   id="id-614c7059-9aab-4c8b-bae5-62953a6cd470" />
              </g>
              <g
                 id="id-c7653504-316f-4ae7-84e1-258d356e7128">
                <path
                   d="m 4.578125,-3.1875 c 0,-0.796875 -0.046875,-1.59375 -0.390625,-2.328125 -0.453125,-0.96875 -1.28125,-1.125 -1.6875,-1.125 -0.609375,0 -1.328125,0.265625 -1.75,1.1875 -0.3125,0.6875 -0.359375,1.46875 -0.359375,2.265625 0,0.75 0.03125,1.640625 0.453125,2.40625 0.421875,0.796875 1.15625,1 1.640625,1 0.53125,0 1.296875,-0.203125 1.734375,-1.15625 0.3125,-0.6875 0.359375,-1.46875 0.359375,-2.25 z M 2.484375,0 C 2.09375,0 1.5,-0.25 1.328125,-1.203125 1.21875,-1.796875 1.21875,-2.71875 1.21875,-3.3125 c 0,-0.640625 0,-1.296875 0.078125,-1.828125 0.1875,-1.1875 0.9375,-1.28125 1.1875,-1.28125 0.328125,0 0.984375,0.1875 1.171875,1.171875 0.109375,0.5625 0.109375,1.3125 0.109375,1.9375 0,0.75 0,1.421875 -0.109375,2.0625 C 3.5,-0.296875 2.9375,0 2.484375,0 Z m 0,0"
                   id="id-35d1e731-e5af-47cc-89c1-234b2e32a585" />
              </g>
            </g>
          </defs>
          <g
             fill="#000000"
             fill-opacity="1"
             id="id-68e3f6ed-5842-4e1a-84e8-069451a2f792"
             transform="translate(-134.268,-128.124)">
            <g
               transform="translate(133.768,134.765)"
               id="g4251">
              <path
                 d="m 1.265625,-0.765625 1.0625,-1.03125 c 1.546875,-1.375 2.140625,-1.90625 2.140625,-2.90625 0,-1.140625 -0.890625,-1.9375 -2.109375,-1.9375 -1.125,0 -1.859375,0.921875 -1.859375,1.8125 0,0.546875 0.5,0.546875 0.53125,0.546875 0.171875,0 0.515625,-0.109375 0.515625,-0.53125 0,-0.25 -0.1875,-0.515625 -0.53125,-0.515625 -0.078125,0 -0.09375,0 -0.125,0.015625 0.21875,-0.65625 0.765625,-1.015625 1.34375,-1.015625 0.90625,0 1.328125,0.8125 1.328125,1.625 C 3.5625,-3.90625 3.078125,-3.125 2.515625,-2.5 l -1.90625,2.125 C 0.5,-0.265625 0.5,-0.234375 0.5,0 H 4.203125 L 4.46875,-1.734375 H 4.234375 C 4.171875,-1.4375 4.109375,-1 4,-0.84375 3.9375,-0.765625 3.28125,-0.765625 3.0625,-0.765625 Z m 0,0"
                 id="id-0f6255fa-67b8-4e01-a266-17e580186afb" />
            </g>
            <g
               transform="translate(138.749,134.765)"
               id="g4254">
              <path
                 d="m 4.578125,-3.1875 c 0,-0.796875 -0.046875,-1.59375 -0.390625,-2.328125 -0.453125,-0.96875 -1.28125,-1.125 -1.6875,-1.125 -0.609375,0 -1.328125,0.265625 -1.75,1.1875 -0.3125,0.6875 -0.359375,1.46875 -0.359375,2.265625 0,0.75 0.03125,1.640625 0.453125,2.40625 0.421875,0.796875 1.15625,1 1.640625,1 0.53125,0 1.296875,-0.203125 1.734375,-1.15625 0.3125,-0.6875 0.359375,-1.46875 0.359375,-2.25 z M 2.484375,0 C 2.09375,0 1.5,-0.25 1.328125,-1.203125 1.21875,-1.796875 1.21875,-2.71875 1.21875,-3.3125 c 0,-0.640625 0,-1.296875 0.078125,-1.828125 0.1875,-1.1875 0.9375,-1.28125 1.1875,-1.28125 0.328125,0 0.984375,0.1875 1.171875,1.171875 0.109375,0.5625 0.109375,1.3125 0.109375,1.9375 0,0.75 0,1.421875 -0.109375,2.0625 C 3.5,-0.296875 2.9375,0 2.484375,0 Z m 0,0"
                 id="id-7bd4f092-d6a1-48ba-baa2-9fc9b43d5210" />
            </g>
          </g>
        </g>
      </g>
    </g>
    <g
       inkscape:label="Dim"
       id="g5284" />
    <g
       inkscape:label="Dim"
       id="g14656">
      <path
         inkscape:label="none"
         style="fill:none;fill-opacity:1;stroke:#000000;stroke-width:0.25;stroke-linecap:round;stroke-linejoin:round;stroke-dasharray:none;stroke-opacity:1"
         d="m -2.6025682,198.59047 2.99999996,5.19615"
         id="path14618" />
      <path
         inkscape:label="none"
         style="fill:none;fill-opacity:1;stroke:#000000;stroke-width:0.25;stroke-linecap:round;stroke-linejoin:round;stroke-dasharray:none;stroke-opacity:1"
         d="m 114.16667,131.17372 3,5.19615"
         id="path14620" />
      <path
         inkscape:label="dim"
         style="fill:none;fill-opacity:1;stroke:#000000;stroke-width:0.25;stroke-linecap:round;stroke-linejoin:round;stroke-dasharray:none;stroke-opacity:1;marker-start:url(#DimmArrow_Start_n00005);marker-end:url(#DimmArrow_End_n00005)"
         d="M 2.0624953,201.67059 114.50161,136.75384"
         id="path14622" />
      <g
         inkscape:label="Layer 1"
         inkscape:groupmode="layer"
         id="g14654"
         transform="matrix(0.276498,0,0,0.276498,-46.790724,14.845327)">
        <g
           transform="matrix(1.33333,0,0,1.33333,384.835,553.354)"
           ns2:version="1.8.2"
           ns2:texconverter="pdflatex"
           ns2:pdfconverter="inkscape"
           ns2:text=" \\noindent $20\\sqrt{3}$"
           ns2:preamble="C:\Users\user\AppData\Roaming\inkscape\extensions\inkscapeMadeEasy\basicLatexPackages.tex"
           ns2:scale="1.0"
           ns2:alignment="middle center"
           ns2:stroke-to-path="0"
           ns2:inkscapeversion="1.0.1"
           ns2:jacobian_sqrt="1.33333"
           id="g14652">
          <defs
             id="id-ff6ec606-f7c6-4387-9fb0-cdba5a61284a">
            <g
               id="id-444cd52a-1e63-40b8-962d-bff187baad37">
              <g
                 id="id-d68cc684-e87e-46d1-850f-b02ec7646a25" />
              <g
                 id="id-4b74e359-1898-4dc8-96be-50cc979eb0dd">
                <path
                   d="m 1.265625,-0.765625 1.0625,-1.03125 c 1.546875,-1.375 2.140625,-1.90625 2.140625,-2.90625 0,-1.140625 -0.890625,-1.9375 -2.109375,-1.9375 -1.125,0 -1.859375,0.921875 -1.859375,1.8125 0,0.546875 0.5,0.546875 0.53125,0.546875 0.171875,0 0.515625,-0.109375 0.515625,-0.53125 0,-0.25 -0.1875,-0.515625 -0.53125,-0.515625 -0.078125,0 -0.09375,0 -0.125,0.015625 0.21875,-0.65625 0.765625,-1.015625 1.34375,-1.015625 0.90625,0 1.328125,0.8125 1.328125,1.625 C 3.5625,-3.90625 3.078125,-3.125 2.515625,-2.5 l -1.90625,2.125 C 0.5,-0.265625 0.5,-0.234375 0.5,0 H 4.203125 L 4.46875,-1.734375 H 4.234375 C 4.171875,-1.4375 4.109375,-1 4,-0.84375 3.9375,-0.765625 3.28125,-0.765625 3.0625,-0.765625 Z m 0,0"
                   id="id-446c8f13-3e39-4abe-9ff7-2953aeb44685" />
              </g>
              <g
                 id="id-4efc9b3c-c207-4cda-b059-9a6b0d4d22f1">
                <path
                   d="m 4.578125,-3.1875 c 0,-0.796875 -0.046875,-1.59375 -0.390625,-2.328125 -0.453125,-0.96875 -1.28125,-1.125 -1.6875,-1.125 -0.609375,0 -1.328125,0.265625 -1.75,1.1875 -0.3125,0.6875 -0.359375,1.46875 -0.359375,2.265625 0,0.75 0.03125,1.640625 0.453125,2.40625 0.421875,0.796875 1.15625,1 1.640625,1 0.53125,0 1.296875,-0.203125 1.734375,-1.15625 0.3125,-0.6875 0.359375,-1.46875 0.359375,-2.25 z M 2.484375,0 C 2.09375,0 1.5,-0.25 1.328125,-1.203125 1.21875,-1.796875 1.21875,-2.71875 1.21875,-3.3125 c 0,-0.640625 0,-1.296875 0.078125,-1.828125 0.1875,-1.1875 0.9375,-1.28125 1.1875,-1.28125 0.328125,0 0.984375,0.1875 1.171875,1.171875 0.109375,0.5625 0.109375,1.3125 0.109375,1.9375 0,0.75 0,1.421875 -0.109375,2.0625 C 3.5,-0.296875 2.9375,0 2.484375,0 Z m 0,0"
                   id="id-7a9a4588-4b49-46fb-96a7-cc65beb7f19b" />
              </g>
              <g
                 id="id-e1423eb6-87d7-415d-949d-499c8bb78a7d">
                <path
                   d="m 2.890625,-3.515625 c 0.8125,-0.265625 1.390625,-0.953125 1.390625,-1.75 0,-0.8125 -0.875,-1.375 -1.828125,-1.375 -1,0 -1.765625,0.59375 -1.765625,1.359375 0,0.328125 0.21875,0.515625 0.515625,0.515625 0.296875,0 0.5,-0.21875 0.5,-0.515625 0,-0.484375 -0.46875,-0.484375 -0.609375,-0.484375 0.296875,-0.5 0.953125,-0.625 1.3125,-0.625 0.421875,0 0.96875,0.21875 0.96875,1.109375 0,0.125 -0.03125,0.703125 -0.28125,1.140625 C 2.796875,-3.65625 2.453125,-3.625 2.203125,-3.625 2.125,-3.609375 1.890625,-3.59375 1.8125,-3.59375 c -0.078125,0.015625 -0.140625,0.03125 -0.140625,0.125 0,0.109375 0.0625,0.109375 0.234375,0.109375 h 0.4375 c 0.8125,0 1.1875,0.671875 1.1875,1.65625 0,1.359375 -0.6875,1.640625 -1.125,1.640625 -0.4375,0 -1.1875,-0.171875 -1.53125,-0.75 0.34375,0.046875 0.65625,-0.171875 0.65625,-0.546875 0,-0.359375 -0.265625,-0.5625 -0.546875,-0.5625 -0.25,0 -0.5625,0.140625 -0.5625,0.578125 0,0.90625 0.921875,1.5625 2.015625,1.5625 1.21875,0 2.125,-0.90625 2.125,-1.921875 0,-0.8125 -0.640625,-1.59375 -1.671875,-1.8125 z m 0,0"
                   id="id-8fddfa33-767a-4295-a694-86afe76976ff" />
              </g>
              <g
                 id="id-4aa7d601-76a4-4922-a065-a9b163249c1e" />
              <g
                 id="id-3b6221e8-87a2-4d21-a4d0-76dc1b76d24b">
                <path
                   d="m 3.875,8.515625 -1.75,-3.875 C 2.046875,4.484375 2,4.484375 1.96875,4.484375 c 0,0 -0.0625,0 -0.171875,0.078125 l -0.9375,0.71875 c -0.125,0.109375 -0.125,0.125 -0.125,0.15625 0,0.0625 0.015625,0.109375 0.09375,0.109375 0.0625,0 0.234375,-0.140625 0.34375,-0.21875 C 1.21875,5.28125 1.375,5.171875 1.484375,5.09375 l 1.96875,4.3125 C 3.515625,9.5625 3.5625,9.5625 3.65625,9.5625 c 0.15625,0 0.1875,-0.046875 0.25,-0.1875 L 8.4375,0 C 8.5,-0.140625 8.5,-0.171875 8.5,-0.203125 8.5,-0.296875 8.421875,-0.40625 8.296875,-0.40625 c -0.078125,0 -0.140625,0.0625 -0.21875,0.21875 z m 0,0"
                   id="id-f3fa8aec-ff54-44b2-9f64-64fc810910a4" />
              </g>
            </g>
          </defs>
          <g
             fill="#000000"
             fill-opacity="1"
             id="id-09f470bb-bdd5-43b7-91fc-349788326b1d"
             transform="translate(-134.268,-126.117)">
            <g
               transform="translate(133.768,134.765)"
               id="g14637">
              <path
                 d="m 1.265625,-0.765625 1.0625,-1.03125 c 1.546875,-1.375 2.140625,-1.90625 2.140625,-2.90625 0,-1.140625 -0.890625,-1.9375 -2.109375,-1.9375 -1.125,0 -1.859375,0.921875 -1.859375,1.8125 0,0.546875 0.5,0.546875 0.53125,0.546875 0.171875,0 0.515625,-0.109375 0.515625,-0.53125 0,-0.25 -0.1875,-0.515625 -0.53125,-0.515625 -0.078125,0 -0.09375,0 -0.125,0.015625 0.21875,-0.65625 0.765625,-1.015625 1.34375,-1.015625 0.90625,0 1.328125,0.8125 1.328125,1.625 C 3.5625,-3.90625 3.078125,-3.125 2.515625,-2.5 l -1.90625,2.125 C 0.5,-0.265625 0.5,-0.234375 0.5,0 H 4.203125 L 4.46875,-1.734375 H 4.234375 C 4.171875,-1.4375 4.109375,-1 4,-0.84375 3.9375,-0.765625 3.28125,-0.765625 3.0625,-0.765625 Z m 0,0"
                 id="id-10798ecc-46c1-435d-95c9-ca38eda9886f" />
            </g>
            <g
               transform="translate(138.749,134.765)"
               id="g14640">
              <path
                 d="m 4.578125,-3.1875 c 0,-0.796875 -0.046875,-1.59375 -0.390625,-2.328125 -0.453125,-0.96875 -1.28125,-1.125 -1.6875,-1.125 -0.609375,0 -1.328125,0.265625 -1.75,1.1875 -0.3125,0.6875 -0.359375,1.46875 -0.359375,2.265625 0,0.75 0.03125,1.640625 0.453125,2.40625 0.421875,0.796875 1.15625,1 1.640625,1 0.53125,0 1.296875,-0.203125 1.734375,-1.15625 0.3125,-0.6875 0.359375,-1.46875 0.359375,-2.25 z M 2.484375,0 C 2.09375,0 1.5,-0.25 1.328125,-1.203125 1.21875,-1.796875 1.21875,-2.71875 1.21875,-3.3125 c 0,-0.640625 0,-1.296875 0.078125,-1.828125 0.1875,-1.1875 0.9375,-1.28125 1.1875,-1.28125 0.328125,0 0.984375,0.1875 1.171875,1.171875 0.109375,0.5625 0.109375,1.3125 0.109375,1.9375 0,0.75 0,1.421875 -0.109375,2.0625 C 3.5,-0.296875 2.9375,0 2.484375,0 Z m 0,0"
                 id="id-121dc555-9cfe-4fed-a763-d834959781d7" />
            </g>
          </g>
          <g
             fill="#000000"
             fill-opacity="1"
             id="id-b97c847f-b933-41ee-a9f0-e8e10059dfa8"
             transform="translate(-134.268,-126.117)">
            <g
               transform="translate(143.731,126.523)"
               id="g14644">
              <path
                 d="m 3.875,8.515625 -1.75,-3.875 C 2.046875,4.484375 2,4.484375 1.96875,4.484375 c 0,0 -0.0625,0 -0.171875,0.078125 l -0.9375,0.71875 c -0.125,0.109375 -0.125,0.125 -0.125,0.15625 0,0.0625 0.015625,0.109375 0.09375,0.109375 0.0625,0 0.234375,-0.140625 0.34375,-0.21875 C 1.21875,5.28125 1.375,5.171875 1.484375,5.09375 l 1.96875,4.3125 C 3.515625,9.5625 3.5625,9.5625 3.65625,9.5625 c 0.15625,0 0.1875,-0.046875 0.25,-0.1875 L 8.4375,0 C 8.5,-0.140625 8.5,-0.171875 8.5,-0.203125 8.5,-0.296875 8.421875,-0.40625 8.296875,-0.40625 c -0.078125,0 -0.140625,0.0625 -0.21875,0.21875 z m 0,0"
                 id="id-dd7c8906-26ea-4f0f-a6b5-7c573a665e0a" />
            </g>
          </g>
          <path
             fill="none"
             stroke-width="0.398"
             stroke-linecap="butt"
             stroke-linejoin="miter"
             stroke="#000000"
             stroke-opacity="1"
             stroke-miterlimit="10"
             d="M 17.763245,0.20746613 H 22.74762"
             id="id-02ca5b27-2191-4058-be43-5658edd96e5f" />
          <g
             fill="#000000"
             fill-opacity="1"
             id="id-1032366a-6b80-4c52-9070-8437bff937bc"
             transform="translate(-134.268,-126.117)">
            <g
               transform="translate(152.033,134.765)"
               id="g14649">
              <path
                 d="m 2.890625,-3.515625 c 0.8125,-0.265625 1.390625,-0.953125 1.390625,-1.75 0,-0.8125 -0.875,-1.375 -1.828125,-1.375 -1,0 -1.765625,0.59375 -1.765625,1.359375 0,0.328125 0.21875,0.515625 0.515625,0.515625 0.296875,0 0.5,-0.21875 0.5,-0.515625 0,-0.484375 -0.46875,-0.484375 -0.609375,-0.484375 0.296875,-0.5 0.953125,-0.625 1.3125,-0.625 0.421875,0 0.96875,0.21875 0.96875,1.109375 0,0.125 -0.03125,0.703125 -0.28125,1.140625 C 2.796875,-3.65625 2.453125,-3.625 2.203125,-3.625 2.125,-3.609375 1.890625,-3.59375 1.8125,-3.59375 c -0.078125,0.015625 -0.140625,0.03125 -0.140625,0.125 0,0.109375 0.0625,0.109375 0.234375,0.109375 h 0.4375 c 0.8125,0 1.1875,0.671875 1.1875,1.65625 0,1.359375 -0.6875,1.640625 -1.125,1.640625 -0.4375,0 -1.1875,-0.171875 -1.53125,-0.75 0.34375,0.046875 0.65625,-0.171875 0.65625,-0.546875 0,-0.359375 -0.265625,-0.5625 -0.546875,-0.5625 -0.25,0 -0.5625,0.140625 -0.5625,0.578125 0,0.90625 0.921875,1.5625 2.015625,1.5625 1.21875,0 2.125,-0.90625 2.125,-1.921875 0,-0.8125 -0.640625,-1.59375 -1.671875,-1.8125 z m 0,0"
                 id="id-2fc9ad1c-97e9-493c-8ff2-e8751393a42f" />
            </g>
          </g>
        </g>
      </g>
    </g>
  </g>
</svg>
