<?xml version="1.0" encoding="UTF-8" standalone="no"?>
<!-- Created with Inkscape (http://www.inkscape.org/) -->

<svg
   sodipodi:docname="prob10_2.svg"
   inkscape:version="1.2.2 (732a01da63, 2022-12-09)"
   id="svg5"
   version="1.1"
   viewBox="0 0 47.655464 94.412038"
   height="755.29633"
   width="381.24368"
   xmlns:inkscape="http://www.inkscape.org/namespaces/inkscape"
   xmlns:sodipodi="http://sodipodi.sourceforge.net/DTD/sodipodi-0.dtd"
   xmlns="http://www.w3.org/2000/svg"
   xmlns:svg="http://www.w3.org/2000/svg"
   xmlns:ns2="http://www.iki.fi/pav/software/textext/">
  <sodipodi:namedview
     id="namedview7"
     pagecolor="#ffffff"
     bordercolor="#000000"
     borderopacity="0.25"
     inkscape:showpageshadow="2"
     inkscape:pageopacity="0.0"
     inkscape:pagecheckerboard="0"
     inkscape:deskcolor="#d1d1d1"
     inkscape:document-units="px"
     showgrid="false"
     inkscape:zoom="2"
     inkscape:cx="173.75"
     inkscape:cy="339.5"
     inkscape:window-width="3840"
     inkscape:window-height="2054"
     inkscape:window-x="3829"
     inkscape:window-y="4"
     inkscape:window-maximized="1"
     inkscape:current-layer="g399">
    <inkscape:grid
       type="xygrid"
       id="grid368"
       originx="-7.6508522"
       originy="-4.441449" />
  </sodipodi:namedview>
  <defs
     id="defs2">
    <marker
       style="overflow:visible"
       id="Arrow1"
       refX="0"
       refY="0"
       orient="auto-start-reverse"
       inkscape:stockid="Arrow1"
       markerWidth="4.0606604"
       markerHeight="6.7071066"
       viewBox="0 0 4.0606602 6.7071068"
       inkscape:isstock="true"
       inkscape:collect="always"
       preserveAspectRatio="xMidYMid">
      <path
         style="fill:none;stroke:context-stroke;stroke-width:1;stroke-linecap:butt"
         d="M 3,-3 0,0 3,3"
         id="path5057"
         transform="rotate(180,0.125,0)"
         sodipodi:nodetypes="ccc" />
    </marker>
    <marker
       inkscape:stockid="DimmArrow_Start_n00001"
       orient="auto"
       refY="0"
       refX="0"
       id="DimmArrow_Start_n00001"
       style="overflow:visible">
      <path
         d="M 0,0 -10,1.76327 V -1.76327 Z"
         style="fill:#000000;fill-opacity:1;fill-rule:evenodd;stroke:none;stroke-width:1;stroke-opacity:1"
         transform="rotate(180,-5,0)"
         id="path358" />
    </marker>
    <marker
       inkscape:stockid="DimmArrow_End_n00001"
       orient="auto"
       refY="0"
       refX="0"
       id="DimmArrow_End_n00001"
       style="overflow:visible">
      <path
         d="M 0,0 -10,1.76327 V -1.76327 Z"
         style="fill:#000000;fill-opacity:1;fill-rule:evenodd;stroke:none;stroke-width:1;stroke-opacity:1"
         transform="translate(10)"
         id="path361" />
    </marker>
    <marker
       inkscape:stockid="DimmArrow_Start_n00002"
       orient="auto"
       refY="0"
       refX="0"
       id="DimmArrow_Start_n00002"
       style="overflow:visible">
      <path
         d="M 0,0 -1,0.176327 V -0.176327 Z"
         style="fill:#000000;fill-opacity:1;fill-rule:evenodd;stroke:none;stroke-width:1;stroke-opacity:1"
         transform="matrix(-10,0,0,-10,-10,0)"
         id="path1402" />
    </marker>
    <marker
       inkscape:stockid="DimmArrow_End_n00002"
       orient="auto"
       refY="0"
       refX="0"
       id="DimmArrow_End_n00002"
       style="overflow:visible">
      <path
         d="M 0,0 -1,0.176327 V -0.176327 Z"
         style="fill:#000000;fill-opacity:1;fill-rule:evenodd;stroke:none;stroke-width:1;stroke-opacity:1"
         transform="matrix(10,0,0,10,10,0)"
         id="path1405" />
    </marker>
    <marker
       inkscape:stockid="DimmArrow_Start_n00003"
       orient="auto"
       refY="0"
       refX="0"
       id="DimmArrow_Start_n00003"
       style="overflow:visible">
      <path
         d="M 0,0 -1,0.176327 V -0.176327 Z"
         style="fill:#000000;fill-opacity:1;fill-rule:evenodd;stroke:none;stroke-width:1;stroke-opacity:1"
         transform="matrix(-10,0,0,-10,-10,0)"
         id="path1642" />
    </marker>
    <marker
       inkscape:stockid="DimmArrow_End_n00003"
       orient="auto"
       refY="0"
       refX="0"
       id="DimmArrow_End_n00003"
       style="overflow:visible">
      <path
         d="M 0,0 -1,0.176327 V -0.176327 Z"
         style="fill:#000000;fill-opacity:1;fill-rule:evenodd;stroke:none;stroke-width:1;stroke-opacity:1"
         transform="matrix(10,0,0,10,10,0)"
         id="path1645" />
    </marker>
    <marker
       inkscape:stockid="DimmArrow_Start_n00004"
       orient="auto"
       refY="0"
       refX="0"
       id="DimmArrow_Start_n00004"
       style="overflow:visible">
      <path
         d="M 0,0 -1,0.176327 V -0.176327 Z"
         style="fill:#000000;fill-opacity:1;fill-rule:evenodd;stroke:none;stroke-width:1;stroke-opacity:1"
         transform="matrix(-10,0,0,-10,-10,0)"
         id="path2324" />
    </marker>
    <marker
       inkscape:stockid="DimmArrow_End_n00004"
       orient="auto"
       refY="0"
       refX="0"
       id="DimmArrow_End_n00004"
       style="overflow:visible">
      <path
         d="M 0,0 -1,0.176327 V -0.176327 Z"
         style="fill:#000000;fill-opacity:1;fill-rule:evenodd;stroke:none;stroke-width:1;stroke-opacity:1"
         transform="matrix(10,0,0,10,10,0)"
         id="path2327" />
    </marker>
    <marker
       inkscape:stockid="DimmArrow_Start_n00005"
       orient="auto"
       refY="0"
       refX="0"
       id="DimmArrow_Start_n00005"
       style="overflow:visible">
      <path
         d="M 0,0 -2.5,0.440817 V -0.440817 Z"
         style="fill:#000000;fill-opacity:1;fill-rule:evenodd;stroke:none;stroke-width:1;stroke-opacity:1"
         transform="matrix(-4,0,0,-4,-10,0)"
         id="path2495" />
    </marker>
    <marker
       inkscape:stockid="DimmArrow_End_n00005"
       orient="auto"
       refY="0"
       refX="0"
       id="DimmArrow_End_n00005"
       style="overflow:visible">
      <path
         d="M 0,0 -2.5,0.440817 V -0.440817 Z"
         style="fill:#000000;fill-opacity:1;fill-rule:evenodd;stroke:none;stroke-width:1;stroke-opacity:1"
         transform="matrix(4,0,0,4,10,0)"
         id="path2498" />
    </marker>
    <marker
       inkscape:stockid="DimmArrow_Start_n00006"
       orient="auto"
       refY="0"
       refX="0"
       id="DimmArrow_Start_n00006"
       style="overflow:visible">
      <path
         d="M 0,0 -2.5,0.440817 V -0.440817 Z"
         style="fill:#000000;fill-opacity:1;fill-rule:evenodd;stroke:none;stroke-width:1;stroke-opacity:1"
         transform="matrix(-4,0,0,-4,-10,0)"
         id="path2721" />
    </marker>
    <marker
       inkscape:stockid="DimmArrow_End_n00006"
       orient="auto"
       refY="0"
       refX="0"
       id="DimmArrow_End_n00006"
       style="overflow:visible">
      <path
         d="M 0,0 -2.5,0.440817 V -0.440817 Z"
         style="fill:#000000;fill-opacity:1;fill-rule:evenodd;stroke:none;stroke-width:1;stroke-opacity:1"
         transform="matrix(4,0,0,4,10,0)"
         id="path2724" />
    </marker>
    <marker
       inkscape:stockid="DimmArrow_Start_n00007"
       orient="auto"
       refY="0"
       refX="0"
       id="DimmArrow_Start_n00007"
       style="overflow:visible">
      <path
         d="M 0,0 -2.5,0.440817 V -0.440817 Z"
         style="fill:#000000;fill-opacity:1;fill-rule:evenodd;stroke:none;stroke-width:1;stroke-opacity:1"
         transform="matrix(-4,0,0,-4,-10,0)"
         id="path3869" />
    </marker>
    <marker
       inkscape:stockid="DimmArrow_End_n00007"
       orient="auto"
       refY="0"
       refX="0"
       id="DimmArrow_End_n00007"
       style="overflow:visible">
      <path
         d="M 0,0 -2.5,0.440817 V -0.440817 Z"
         style="fill:#000000;fill-opacity:1;fill-rule:evenodd;stroke:none;stroke-width:1;stroke-opacity:1"
         transform="matrix(4,0,0,4,10,0)"
         id="path3872" />
    </marker>
    <marker
       style="overflow:visible"
       id="Arrow1-3"
       refX="0"
       refY="0"
       orient="auto-start-reverse"
       inkscape:stockid="Arrow1"
       markerWidth="4.0606604"
       markerHeight="6.7071066"
       viewBox="0 0 4.0606602 6.7071068"
       inkscape:isstock="true"
       inkscape:collect="always"
       preserveAspectRatio="xMidYMid">
      <path
         style="fill:none;stroke:context-stroke;stroke-width:1;stroke-linecap:butt"
         d="M 3,-3 0,0 3,3"
         id="path5057-5"
         transform="rotate(180,0.125,0)"
         sodipodi:nodetypes="ccc" />
    </marker>
    <marker
       style="overflow:visible"
       id="Arrow1-3-0"
       refX="0"
       refY="0"
       orient="auto-start-reverse"
       inkscape:stockid="Arrow1"
       markerWidth="4.0606604"
       markerHeight="6.7071066"
       viewBox="0 0 4.0606602 6.7071068"
       inkscape:isstock="true"
       inkscape:collect="always"
       preserveAspectRatio="xMidYMid">
      <path
         style="fill:none;stroke:context-stroke;stroke-width:1;stroke-linecap:butt"
         d="M 3,-3 0,0 3,3"
         id="path5057-5-5"
         transform="rotate(180,0.125,0)"
         sodipodi:nodetypes="ccc" />
    </marker>
    <marker
       inkscape:stockid="DimmArrow_Start_n00008"
       orient="auto"
       refY="0"
       refX="0"
       id="DimmArrow_Start_n00008"
       style="overflow:visible">
      <path
         d="M 0,0 -2.5,0.440817 V -0.440817 Z"
         style="fill:#000000;fill-opacity:1;fill-rule:evenodd;stroke:none;stroke-width:1;stroke-opacity:1"
         transform="matrix(-4,0,0,-4,-10,0)"
         id="path18154" />
    </marker>
    <marker
       inkscape:stockid="DimmArrow_End_n00008"
       orient="auto"
       refY="0"
       refX="0"
       id="DimmArrow_End_n00008"
       style="overflow:visible">
      <path
         d="M 0,0 -2.5,0.440817 V -0.440817 Z"
         style="fill:#000000;fill-opacity:1;fill-rule:evenodd;stroke:none;stroke-width:1;stroke-opacity:1"
         transform="matrix(4,0,0,4,10,0)"
         id="path18157" />
    </marker>
    <marker
       inkscape:stockid="DimmArrow_Start_n00009"
       orient="auto"
       refY="0"
       refX="0"
       id="DimmArrow_Start_n00009"
       style="overflow:visible">
      <path
         d="M 0,0 -2.5,0.440817 V -0.440817 Z"
         style="fill:#000000;fill-opacity:1;fill-rule:evenodd;stroke:none;stroke-width:1;stroke-opacity:1"
         transform="matrix(-4,0,0,-4,-10,0)"
         id="path22156" />
    </marker>
    <marker
       inkscape:stockid="DimmArrow_End_n00009"
       orient="auto"
       refY="0"
       refX="0"
       id="DimmArrow_End_n00009"
       style="overflow:visible">
      <path
         d="M 0,0 -2.5,0.440817 V -0.440817 Z"
         style="fill:#000000;fill-opacity:1;fill-rule:evenodd;stroke:none;stroke-width:1;stroke-opacity:1"
         transform="matrix(4,0,0,4,10,0)"
         id="path22159" />
    </marker>
    <marker
       inkscape:stockid="DimmArrow_Start_n00010"
       orient="auto"
       refY="0"
       refX="0"
       id="DimmArrow_Start_n00010"
       style="overflow:visible">
      <path
         d="M 0,0 -2.5,0.440817 V -0.440817 Z"
         style="fill:#000000;fill-opacity:1;fill-rule:evenodd;stroke:none;stroke-width:1;stroke-opacity:1"
         transform="matrix(-4,0,0,-4,-10,0)"
         id="path22701" />
    </marker>
    <marker
       inkscape:stockid="DimmArrow_End_n00010"
       orient="auto"
       refY="0"
       refX="0"
       id="DimmArrow_End_n00010"
       style="overflow:visible">
      <path
         d="M 0,0 -2.5,0.440817 V -0.440817 Z"
         style="fill:#000000;fill-opacity:1;fill-rule:evenodd;stroke:none;stroke-width:1;stroke-opacity:1"
         transform="matrix(4,0,0,4,10,0)"
         id="path22704" />
    </marker>
    <marker
       inkscape:stockid="DimmArrow_Start_n00011"
       orient="auto"
       refY="0"
       refX="0"
       id="DimmArrow_Start_n00011"
       style="overflow:visible">
      <path
         d="M 0,0 -2.5,0.440817 V -0.440817 Z"
         style="fill:#000000;fill-opacity:1;fill-rule:evenodd;stroke:none;stroke-width:1;stroke-opacity:1"
         transform="matrix(-4,0,0,-4,-10,0)"
         id="path26894" />
    </marker>
    <marker
       inkscape:stockid="DimmArrow_End_n00011"
       orient="auto"
       refY="0"
       refX="0"
       id="DimmArrow_End_n00011"
       style="overflow:visible">
      <path
         d="M 0,0 -2.5,0.440817 V -0.440817 Z"
         style="fill:#000000;fill-opacity:1;fill-rule:evenodd;stroke:none;stroke-width:1;stroke-opacity:1"
         transform="matrix(4,0,0,4,10,0)"
         id="path26897" />
    </marker>
    <marker
       inkscape:stockid="DimmArrow_Start_n00012"
       orient="auto"
       refY="0"
       refX="0"
       id="DimmArrow_Start_n00012"
       style="overflow:visible">
      <path
         d="M 0,0 -2.5,0.440817 V -0.440817 Z"
         style="fill:#000000;fill-opacity:1;fill-rule:evenodd;stroke:none;stroke-width:1;stroke-opacity:1"
         transform="matrix(-4,0,0,-4,-10,0)"
         id="path28456" />
    </marker>
    <marker
       inkscape:stockid="DimmArrow_End_n00012"
       orient="auto"
       refY="0"
       refX="0"
       id="DimmArrow_End_n00012"
       style="overflow:visible">
      <path
         d="M 0,0 -2.5,0.440817 V -0.440817 Z"
         style="fill:#000000;fill-opacity:1;fill-rule:evenodd;stroke:none;stroke-width:1;stroke-opacity:1"
         transform="matrix(4,0,0,4,10,0)"
         id="path28459" />
    </marker>
    <marker
       inkscape:stockid="DimmArrow_Start_n00013"
       orient="auto"
       refY="0"
       refX="0"
       id="DimmArrow_Start_n00013"
       style="overflow:visible">
      <path
         d="M 0,0 -2.5,0.440817 V -0.440817 Z"
         style="fill:#000000;fill-opacity:1;fill-rule:evenodd;stroke:none;stroke-width:1;stroke-opacity:1"
         transform="matrix(-4,0,0,-4,-10,0)"
         id="path29220" />
    </marker>
    <marker
       inkscape:stockid="DimmArrow_End_n00013"
       orient="auto"
       refY="0"
       refX="0"
       id="DimmArrow_End_n00013"
       style="overflow:visible">
      <path
         d="M 0,0 -2.5,0.440817 V -0.440817 Z"
         style="fill:#000000;fill-opacity:1;fill-rule:evenodd;stroke:none;stroke-width:1;stroke-opacity:1"
         transform="matrix(4,0,0,4,10,0)"
         id="path29223" />
    </marker>
    <marker
       inkscape:stockid="DimmArrow_Start_n00014"
       orient="auto"
       refY="0"
       refX="0"
       id="DimmArrow_Start_n00014"
       style="overflow:visible">
      <path
         d="M 0,0 -2.5,0.440817 V -0.440817 Z"
         style="fill:#000000;fill-opacity:1;fill-rule:evenodd;stroke:none;stroke-width:1;stroke-opacity:1"
         transform="matrix(-4,0,0,-4,-10,0)"
         id="path29984" />
    </marker>
    <marker
       inkscape:stockid="DimmArrow_End_n00014"
       orient="auto"
       refY="0"
       refX="0"
       id="DimmArrow_End_n00014"
       style="overflow:visible">
      <path
         d="M 0,0 -2.5,0.440817 V -0.440817 Z"
         style="fill:#000000;fill-opacity:1;fill-rule:evenodd;stroke:none;stroke-width:1;stroke-opacity:1"
         transform="matrix(4,0,0,4,10,0)"
         id="path29987" />
    </marker>
    <marker
       inkscape:stockid="DimmArrow_Start_n00015"
       orient="auto"
       refY="0"
       refX="0"
       id="DimmArrow_Start_n00015"
       style="overflow:visible">
      <path
         d="M 0,0 -2.5,0.440817 V -0.440817 Z"
         style="fill:#000000;fill-opacity:1;fill-rule:evenodd;stroke:none;stroke-width:1;stroke-opacity:1"
         transform="matrix(-4,0,0,-4,-10,0)"
         id="path33814" />
    </marker>
    <marker
       inkscape:stockid="DimmArrow_End_n00015"
       orient="auto"
       refY="0"
       refX="0"
       id="DimmArrow_End_n00015"
       style="overflow:visible">
      <path
         d="M 0,0 -2.5,0.440817 V -0.440817 Z"
         style="fill:#000000;fill-opacity:1;fill-rule:evenodd;stroke:none;stroke-width:1;stroke-opacity:1"
         transform="matrix(4,0,0,4,10,0)"
         id="path33817" />
    </marker>
    <marker
       inkscape:stockid="DimmArrow_Start_n00016"
       orient="auto"
       refY="0"
       refX="0"
       id="DimmArrow_Start_n00016"
       style="overflow:visible">
      <path
         d="M 0,0 -2.5,0.440817 V -0.440817 Z"
         style="fill:#000000;fill-opacity:1;fill-rule:evenodd;stroke:none;stroke-width:1;stroke-opacity:1"
         transform="matrix(-4,0,0,-4,-10,0)"
         id="path34548" />
    </marker>
    <marker
       inkscape:stockid="DimmArrow_End_n00016"
       orient="auto"
       refY="0"
       refX="0"
       id="DimmArrow_End_n00016"
       style="overflow:visible">
      <path
         d="M 0,0 -2.5,0.440817 V -0.440817 Z"
         style="fill:#000000;fill-opacity:1;fill-rule:evenodd;stroke:none;stroke-width:1;stroke-opacity:1"
         transform="matrix(4,0,0,4,10,0)"
         id="path34551" />
    </marker>
    <marker
       inkscape:stockid="DimmArrow_Start_n00017"
       orient="auto"
       refY="0"
       refX="0"
       id="DimmArrow_Start_n00017"
       style="overflow:visible">
      <path
         d="M 0,0 -2.5,0.440817 V -0.440817 Z"
         style="fill:#000000;fill-opacity:1;fill-rule:evenodd;stroke:none;stroke-width:1;stroke-opacity:1"
         transform="matrix(-4,0,0,-4,-10,0)"
         id="path41515" />
    </marker>
    <marker
       inkscape:stockid="DimmArrow_End_n00017"
       orient="auto"
       refY="0"
       refX="0"
       id="DimmArrow_End_n00017"
       style="overflow:visible">
      <path
         d="M 0,0 -2.5,0.440817 V -0.440817 Z"
         style="fill:#000000;fill-opacity:1;fill-rule:evenodd;stroke:none;stroke-width:1;stroke-opacity:1"
         transform="matrix(4,0,0,4,10,0)"
         id="path41518" />
    </marker>
    <marker
       inkscape:stockid="DimmArrow_Start_n00018"
       orient="auto"
       refY="0"
       refX="0"
       id="DimmArrow_Start_n00018"
       style="overflow:visible">
      <path
         d="M 0,0 -2.5,0.440817 V -0.440817 Z"
         style="fill:#000000;fill-opacity:1;fill-rule:evenodd;stroke:none;stroke-width:1;stroke-opacity:1"
         transform="matrix(-4,0,0,-4,-10,0)"
         id="path46732" />
    </marker>
    <marker
       inkscape:stockid="DimmArrow_End_n00018"
       orient="auto"
       refY="0"
       refX="0"
       id="DimmArrow_End_n00018"
       style="overflow:visible">
      <path
         d="M 0,0 -2.5,0.440817 V -0.440817 Z"
         style="fill:#000000;fill-opacity:1;fill-rule:evenodd;stroke:none;stroke-width:1;stroke-opacity:1"
         transform="matrix(4,0,0,4,10,0)"
         id="path46735" />
    </marker>
    <marker
       inkscape:stockid="DimmArrow_Start_n00019"
       orient="auto"
       refY="0"
       refX="0"
       id="DimmArrow_Start_n00019"
       style="overflow:visible">
      <path
         d="M 0,0 -2.5,0.440817 V -0.440817 Z"
         style="fill:#000000;fill-opacity:1;fill-rule:evenodd;stroke:none;stroke-width:1;stroke-opacity:1"
         transform="matrix(-4,0,0,-4,-10,0)"
         id="path48030" />
    </marker>
    <marker
       inkscape:stockid="DimmArrow_End_n00019"
       orient="auto"
       refY="0"
       refX="0"
       id="DimmArrow_End_n00019"
       style="overflow:visible">
      <path
         d="M 0,0 -2.5,0.440817 V -0.440817 Z"
         style="fill:#000000;fill-opacity:1;fill-rule:evenodd;stroke:none;stroke-width:1;stroke-opacity:1"
         transform="matrix(4,0,0,4,10,0)"
         id="path48033" />
    </marker>
    <marker
       inkscape:stockid="DimmArrow_Start_n00020"
       orient="auto"
       refY="0"
       refX="0"
       id="DimmArrow_Start_n00020"
       style="overflow:visible">
      <path
         d="M 0,0 -2.5,0.440817 V -0.440817 Z"
         style="fill:#000000;fill-opacity:1;fill-rule:evenodd;stroke:none;stroke-width:1;stroke-opacity:1"
         transform="matrix(-4,0,0,-4,-10,0)"
         id="path50356" />
    </marker>
    <marker
       inkscape:stockid="DimmArrow_End_n00020"
       orient="auto"
       refY="0"
       refX="0"
       id="DimmArrow_End_n00020"
       style="overflow:visible">
      <path
         d="M 0,0 -2.5,0.440817 V -0.440817 Z"
         style="fill:#000000;fill-opacity:1;fill-rule:evenodd;stroke:none;stroke-width:1;stroke-opacity:1"
         transform="matrix(4,0,0,4,10,0)"
         id="path50359" />
    </marker>
    <marker
       inkscape:stockid="DimmArrow_Start_n00021"
       orient="auto"
       refY="0"
       refX="0"
       id="DimmArrow_Start_n00021"
       style="overflow:visible">
      <path
         d="M 0,0 -2.5,0.440817 V -0.440817 Z"
         style="fill:#000000;fill-opacity:1;fill-rule:evenodd;stroke:none;stroke-width:1;stroke-opacity:1"
         transform="matrix(-4,0,0,-4,-10,0)"
         id="path55219" />
    </marker>
    <marker
       inkscape:stockid="DimmArrow_End_n00021"
       orient="auto"
       refY="0"
       refX="0"
       id="DimmArrow_End_n00021"
       style="overflow:visible">
      <path
         d="M 0,0 -2.5,0.440817 V -0.440817 Z"
         style="fill:#000000;fill-opacity:1;fill-rule:evenodd;stroke:none;stroke-width:1;stroke-opacity:1"
         transform="matrix(4,0,0,4,10,0)"
         id="path55222" />
    </marker>
    <marker
       inkscape:stockid="DimmArrow_Start_n00022"
       orient="auto"
       refY="0"
       refX="0"
       id="DimmArrow_Start_n00022"
       style="overflow:visible">
      <path
         d="M 0,0 -2.5,0.440817 V -0.440817 Z"
         style="fill:#000000;fill-opacity:1;fill-rule:evenodd;stroke:none;stroke-width:1;stroke-opacity:1"
         transform="matrix(-4,0,0,-4,-10,0)"
         id="path12949" />
    </marker>
    <marker
       inkscape:stockid="DimmArrow_End_n00022"
       orient="auto"
       refY="0"
       refX="0"
       id="DimmArrow_End_n00022"
       style="overflow:visible">
      <path
         d="M 0,0 -2.5,0.440817 V -0.440817 Z"
         style="fill:#000000;fill-opacity:1;fill-rule:evenodd;stroke:none;stroke-width:1;stroke-opacity:1"
         transform="matrix(4,0,0,4,10,0)"
         id="path12952" />
    </marker>
    <marker
       inkscape:stockid="DimmArrow_Start_n00023"
       orient="auto"
       refY="0"
       refX="0"
       id="DimmArrow_Start_n00023"
       style="overflow:visible">
      <path
         d="M 0,0 -2.5,0.440817 V -0.440817 Z"
         style="fill:#000000;fill-opacity:1;fill-rule:evenodd;stroke:none;stroke-width:1;stroke-opacity:1"
         transform="matrix(-4,0,0,-4,-10,0)"
         id="path14660" />
    </marker>
    <marker
       inkscape:stockid="DimmArrow_End_n00023"
       orient="auto"
       refY="0"
       refX="0"
       id="DimmArrow_End_n00023"
       style="overflow:visible">
      <path
         d="M 0,0 -2.5,0.440817 V -0.440817 Z"
         style="fill:#000000;fill-opacity:1;fill-rule:evenodd;stroke:none;stroke-width:1;stroke-opacity:1"
         transform="matrix(4,0,0,4,10,0)"
         id="path14663" />
    </marker>
    <marker
       inkscape:stockid="DimmArrow_Start_n00024"
       orient="auto"
       refY="0"
       refX="0"
       id="DimmArrow_Start_n00024"
       style="overflow:visible">
      <path
         d="M 0,0 -2.5,0.440817 V -0.440817 Z"
         style="fill:#000000;fill-opacity:1;fill-rule:evenodd;stroke:none;stroke-width:1;stroke-opacity:1"
         transform="matrix(-4,0,0,-4,-10,0)"
         id="path18348" />
    </marker>
    <marker
       inkscape:stockid="DimmArrow_End_n00024"
       orient="auto"
       refY="0"
       refX="0"
       id="DimmArrow_End_n00024"
       style="overflow:visible">
      <path
         d="M 0,0 -2.5,0.440817 V -0.440817 Z"
         style="fill:#000000;fill-opacity:1;fill-rule:evenodd;stroke:none;stroke-width:1;stroke-opacity:1"
         transform="matrix(4,0,0,4,10,0)"
         id="path18351" />
    </marker>
    <marker
       inkscape:stockid="DimmArrow_Start_n00025"
       orient="auto"
       refY="0"
       refX="0"
       id="DimmArrow_Start_n00025"
       style="overflow:visible">
      <path
         d="M 0,0 -2.5,0.440817 V -0.440817 Z"
         style="fill:#000000;fill-opacity:1;fill-rule:evenodd;stroke:none;stroke-width:1;stroke-opacity:1"
         transform="matrix(-4,0,0,-4,-10,0)"
         id="path20654" />
    </marker>
    <marker
       inkscape:stockid="DimmArrow_End_n00025"
       orient="auto"
       refY="0"
       refX="0"
       id="DimmArrow_End_n00025"
       style="overflow:visible">
      <path
         d="M 0,0 -2.5,0.440817 V -0.440817 Z"
         style="fill:#000000;fill-opacity:1;fill-rule:evenodd;stroke:none;stroke-width:1;stroke-opacity:1"
         transform="matrix(4,0,0,4,10,0)"
         id="path20657" />
    </marker>
  </defs>
  <g
     inkscape:label="Layer 1"
     inkscape:groupmode="layer"
     id="g399"
     transform="translate(-38.150101,-27.313752)">
    <path
       style="fill:#2a0bff;stroke:#c9c9c9;stroke-width:0.3;stroke-linecap:round;stroke-miterlimit:3;stroke-dasharray:2.4, 2.4;stroke-dashoffset:0"
       d="M 45.004172,40.123878 H 84.69167"
       id="path926" />
    <g
       inkscape:label="Dim"
       id="g1441"
       transform="matrix(3,0,0,3,-129.62083,-102.75112)">
      <path
         inkscape:label="none"
         style="fill:none;fill-opacity:1;stroke:#000000;stroke-width:0.1;stroke-linecap:round;stroke-linejoin:round;stroke-dasharray:none;stroke-opacity:1"
         d="m 58.208333,47.224999 v -2.4"
         id="path1415" />
      <path
         inkscape:label="none"
         style="fill:none;fill-opacity:1;stroke:#000000;stroke-width:0.1;stroke-linecap:round;stroke-linejoin:round;stroke-dasharray:none;stroke-opacity:1"
         d="m 71.437499,47.224999 v -2.4"
         id="path1417" />
      <path
         inkscape:label="dim"
         style="fill:none;fill-opacity:1;stroke:#000000;stroke-width:0.1;stroke-linecap:round;stroke-linejoin:round;stroke-dasharray:none;stroke-opacity:1;marker-start:url(#DimmArrow_Start_n00002);marker-end:url(#DimmArrow_End_n00002)"
         d="M 59.208333,45.224999 H 70.437499"
         id="path1419" />
      <g
         inkscape:label="Layer 1"
         inkscape:groupmode="layer"
         id="layer1"
         transform="matrix(0.110599,0,0,0.110599,20.583335,-17.845405)">
        <g
           transform="matrix(1.33333,0,0,1.33333,391.634,553.354)"
           ns2:version="1.8.2"
           ns2:texconverter="pdflatex"
           ns2:pdfconverter="inkscape"
           ns2:text=" \\noindent $\\sqrt{3}$"
           ns2:preamble="C:\Users\USER\AppData\Roaming\inkscape\extensions\inkscapeMadeEasy\basicLatexPackages.tex"
           ns2:scale="1.0"
           ns2:alignment="middle center"
           ns2:stroke-to-path="0"
           ns2:inkscapeversion="1.0.1"
           ns2:jacobian_sqrt="1.33333"
           id="g1438">
          <defs
             id="id-80b36894-7671-42ab-8711-2ad2f25dbd48">
            <g
               id="id-33139352-a5e8-4546-b9d4-4f11209aa8b9">
              <g
                 id="id-cd5d7676-7fa7-4caa-a96d-44d1ded9cd96" />
              <g
                 id="id-29c40af3-4e42-47fd-b1e8-3cc008aedeac">
                <path
                   d="m 3.875,8.515625 -1.75,-3.875 C 2.046875,4.484375 2,4.484375 1.96875,4.484375 c 0,0 -0.0625,0 -0.171875,0.078125 l -0.9375,0.71875 c -0.125,0.109375 -0.125,0.125 -0.125,0.15625 0,0.0625 0.015625,0.109375 0.09375,0.109375 0.0625,0 0.234375,-0.140625 0.34375,-0.21875 C 1.21875,5.28125 1.375,5.171875 1.484375,5.09375 l 1.96875,4.3125 C 3.515625,9.5625 3.5625,9.5625 3.65625,9.5625 c 0.15625,0 0.1875,-0.046875 0.25,-0.1875 L 8.4375,0 C 8.5,-0.140625 8.5,-0.171875 8.5,-0.203125 8.5,-0.296875 8.421875,-0.40625 8.296875,-0.40625 c -0.078125,0 -0.140625,0.0625 -0.21875,0.21875 z m 0,0"
                   id="id-742d7022-9e98-4aa2-98b4-4cf44bb227e2" />
              </g>
              <g
                 id="id-8f700e18-dbda-44c3-949e-9c1ee4b7b949" />
              <g
                 id="id-ae05f6e5-c5c9-4081-a4ce-4aaec182c2c3">
                <path
                   d="m 2.890625,-3.515625 c 0.8125,-0.265625 1.390625,-0.953125 1.390625,-1.75 0,-0.8125 -0.875,-1.375 -1.828125,-1.375 -1,0 -1.765625,0.59375 -1.765625,1.359375 0,0.328125 0.21875,0.515625 0.515625,0.515625 0.296875,0 0.5,-0.21875 0.5,-0.515625 0,-0.484375 -0.46875,-0.484375 -0.609375,-0.484375 0.296875,-0.5 0.953125,-0.625 1.3125,-0.625 0.421875,0 0.96875,0.21875 0.96875,1.109375 0,0.125 -0.03125,0.703125 -0.28125,1.140625 C 2.796875,-3.65625 2.453125,-3.625 2.203125,-3.625 2.125,-3.609375 1.890625,-3.59375 1.8125,-3.59375 c -0.078125,0.015625 -0.140625,0.03125 -0.140625,0.125 0,0.109375 0.0625,0.109375 0.234375,0.109375 h 0.4375 c 0.8125,0 1.1875,0.671875 1.1875,1.65625 0,1.359375 -0.6875,1.640625 -1.125,1.640625 -0.4375,0 -1.1875,-0.171875 -1.53125,-0.75 0.34375,0.046875 0.65625,-0.171875 0.65625,-0.546875 0,-0.359375 -0.265625,-0.5625 -0.546875,-0.5625 -0.25,0 -0.5625,0.140625 -0.5625,0.578125 0,0.90625 0.921875,1.5625 2.015625,1.5625 1.21875,0 2.125,-0.90625 2.125,-1.921875 0,-0.8125 -0.640625,-1.59375 -1.671875,-1.8125 z m 0,0"
                   id="id-739174a6-dffe-4c3d-b093-9e10efefb355" />
              </g>
            </g>
          </defs>
          <g
             fill="#000000"
             fill-opacity="1"
             id="id-46dd9170-134d-49c4-bddb-0cba676b6ea6"
             transform="translate(-134.502,-126.117)">
            <g
               transform="translate(133.768,126.523)"
               id="g1430">
              <path
                 d="m 3.875,8.515625 -1.75,-3.875 C 2.046875,4.484375 2,4.484375 1.96875,4.484375 c 0,0 -0.0625,0 -0.171875,0.078125 l -0.9375,0.71875 c -0.125,0.109375 -0.125,0.125 -0.125,0.15625 0,0.0625 0.015625,0.109375 0.09375,0.109375 0.0625,0 0.234375,-0.140625 0.34375,-0.21875 C 1.21875,5.28125 1.375,5.171875 1.484375,5.09375 l 1.96875,4.3125 C 3.515625,9.5625 3.5625,9.5625 3.65625,9.5625 c 0.15625,0 0.1875,-0.046875 0.25,-0.1875 L 8.4375,0 C 8.5,-0.140625 8.5,-0.171875 8.5,-0.203125 8.5,-0.296875 8.421875,-0.40625 8.296875,-0.40625 c -0.078125,0 -0.140625,0.0625 -0.21875,0.21875 z m 0,0"
                 id="id-7c8cf52f-c7ad-4eb2-973a-4c442d1a3d97" />
            </g>
          </g>
          <path
             fill="none"
             stroke-width="0.398"
             stroke-linecap="butt"
             stroke-linejoin="miter"
             stroke="#000000"
             stroke-opacity="1"
             stroke-miterlimit="10"
             d="M 7.5679321,0.20746613 H 12.548401"
             id="id-9f931948-1f51-4df8-8e29-7d240463dfe5" />
          <g
             fill="#000000"
             fill-opacity="1"
             id="id-5ef50af1-84d0-481c-abfd-f764e3d90245"
             transform="translate(-134.502,-126.117)">
            <g
               transform="translate(142.071,134.765)"
               id="g1435">
              <path
                 d="m 2.890625,-3.515625 c 0.8125,-0.265625 1.390625,-0.953125 1.390625,-1.75 0,-0.8125 -0.875,-1.375 -1.828125,-1.375 -1,0 -1.765625,0.59375 -1.765625,1.359375 0,0.328125 0.21875,0.515625 0.515625,0.515625 0.296875,0 0.5,-0.21875 0.5,-0.515625 0,-0.484375 -0.46875,-0.484375 -0.609375,-0.484375 0.296875,-0.5 0.953125,-0.625 1.3125,-0.625 0.421875,0 0.96875,0.21875 0.96875,1.109375 0,0.125 -0.03125,0.703125 -0.28125,1.140625 C 2.796875,-3.65625 2.453125,-3.625 2.203125,-3.625 2.125,-3.609375 1.890625,-3.59375 1.8125,-3.59375 c -0.078125,0.015625 -0.140625,0.03125 -0.140625,0.125 0,0.109375 0.0625,0.109375 0.234375,0.109375 h 0.4375 c 0.8125,0 1.1875,0.671875 1.1875,1.65625 0,1.359375 -0.6875,1.640625 -1.125,1.640625 -0.4375,0 -1.1875,-0.171875 -1.53125,-0.75 0.34375,0.046875 0.65625,-0.171875 0.65625,-0.546875 0,-0.359375 -0.265625,-0.5625 -0.546875,-0.5625 -0.25,0 -0.5625,0.140625 -0.5625,0.578125 0,0.90625 0.921875,1.5625 2.015625,1.5625 1.21875,0 2.125,-0.90625 2.125,-1.921875 0,-0.8125 -0.640625,-1.59375 -1.671875,-1.8125 z m 0,0"
                 id="id-c54b6622-eb1c-4acf-afa1-3ad4417480d5" />
            </g>
          </g>
        </g>
      </g>
    </g>
    <path
       style="fill:#2a0bff;stroke:#c9c9c9;stroke-width:0.44771;stroke-linecap:round;stroke-miterlimit:3;stroke-dasharray:1.79084, 1.79084;stroke-dashoffset:0"
       d="M 65.362053,118.89554 84.688241,40.123878"
       id="path926-5-9-0"
       inkscape:transform-center-x="9.6592796"
       inkscape:transform-center-y="39.291223" />
    <path
       style="fill:#2a0bff;stroke:#c9c9c9;stroke-width:0.44785;stroke-linecap:round;stroke-miterlimit:3;stroke-dasharray:1.7914, 1.7914;stroke-dashoffset:0"
       d="M 64.421752,118.89547 45.072811,40.167398"
       id="path926-5-9"
       inkscape:transform-center-x="-9.6706517"
       inkscape:transform-center-y="39.26948" />
    <path
       style="fill:#ff110b;stroke:#c9c9c9;stroke-width:0.447029;stroke-linecap:round;stroke-miterlimit:3;stroke-dasharray:1.78812, 1.78812;stroke-dashoffset:0"
       d="M 64.914683,116.35496 V 40.177851"
       id="path2477" />
    <circle
       style="fill:#ff110b;fill-opacity:1;stroke:#c9c9c9;stroke-width:0;stroke-linecap:round;stroke-miterlimit:3;stroke-dasharray:none;stroke-dashoffset:0"
       id="path1878-8"
       cx="64.888199"
       cy="118.64554"
       r="0.96390384" />
    <path
       style="fill:#ff110b;stroke:#c9c9c9;stroke-width:0;stroke-linecap:round;stroke-miterlimit:3;stroke-dasharray:none"
       d="M 64.914683,40.123878 H 84.69167"
       id="path1783" />
    <g
       inkscape:label="Dim"
       id="g2549">
      <path
         inkscape:label="arc"
         style="fill:none;fill-opacity:1;stroke:#000000;stroke-width:0.25;stroke-linecap:round;stroke-linejoin:round;stroke-dasharray:none;stroke-opacity:1;marker-start:url(#DimmArrow_Start_n00005);marker-end:url(#DimmArrow_End_n00005)"
         sodipodi:type="arc"
         sodipodi:rx="40.361641"
         sodipodi:ry="40.361641"
         sodipodi:cx="64.91468"
         sodipodi:cy="120.90114"
         sodipodi:start="4.5333361"
         sodipodi:end="4.650449"
         d="m 57.726366,81.184766 a 40.361641,40.361641 0 0 1 4.689913,-0.567868"
         sodipodi:arc-type="arc"
         id="path2534"
         sodipodi:open="true" />
      <g
         inkscape:label="Layer 1"
         inkscape:groupmode="layer"
         id="g2547"
         transform="matrix(0.27449314,-0.03323646,0.03323646,0.27449314,-68.813639,-61.866058)">
        <g
           transform="matrix(1.33333,0,0,1.33333,397.26,555.24)"
           ns2:version="1.8.2"
           ns2:texconverter="pdflatex"
           ns2:pdfconverter="inkscape"
           ns2:text=" \\noindent $\\theta$"
           ns2:preamble="C:\Users\USER\AppData\Roaming\inkscape\extensions\inkscapeMadeEasy\basicLatexPackages.tex"
           ns2:scale="1.0"
           ns2:alignment="middle center"
           ns2:stroke-to-path="0"
           ns2:inkscapeversion="1.0.1"
           ns2:jacobian_sqrt="1.33333"
           id="g2545">
          <defs
             id="id-c1b17663-1e0a-474c-a729-8115abf7207b">
            <g
               id="id-67a73f1f-b535-4bcf-a275-ce428df949e9">
              <g
                 id="id-2da343b4-f4a0-466b-b1a8-43bc04c161f6" />
              <g
                 id="id-d3b2f22b-9ec6-4c28-a1a4-f7482c1bf507">
                <path
                   d="m 4.53125,-4.984375 c 0,-0.65625 -0.171875,-2.046875 -1.1875,-2.046875 -1.390625,0 -2.921875,2.8125 -2.921875,5.09375 0,0.9375 0.28125,2.046875 1.1875,2.046875 1.40625,0 2.921875,-2.859375 2.921875,-5.09375 z M 1.46875,-3.625 C 1.640625,-4.25 1.84375,-5.046875 2.25,-5.765625 2.515625,-6.25 2.875,-6.8125 3.328125,-6.8125 c 0.484375,0 0.546875,0.640625 0.546875,1.203125 0,0.5 -0.078125,1 -0.3125,1.984375 z m 2,0.328125 C 3.359375,-2.84375 3.15625,-2 2.765625,-1.28125 c -0.34375,0.6875 -0.71875,1.171875 -1.15625,1.171875 -0.328125,0 -0.53125,-0.296875 -0.53125,-1.21875 0,-0.421875 0.0625,-1 0.3125,-1.96875 z m 0,0"
                   id="id-36ac4d97-1a9d-4a52-a8c3-9cde05c44a8d" />
              </g>
            </g>
          </defs>
          <g
             fill="#000000"
             fill-opacity="1"
             id="id-bf7fdf21-d727-45d4-af9f-84ac67884173"
             transform="translate(-134.19,-127.734)">
            <g
               transform="translate(133.768,134.765)"
               id="g2542">
              <path
                 d="m 4.53125,-4.984375 c 0,-0.65625 -0.171875,-2.046875 -1.1875,-2.046875 -1.390625,0 -2.921875,2.8125 -2.921875,5.09375 0,0.9375 0.28125,2.046875 1.1875,2.046875 1.40625,0 2.921875,-2.859375 2.921875,-5.09375 z M 1.46875,-3.625 C 1.640625,-4.25 1.84375,-5.046875 2.25,-5.765625 2.515625,-6.25 2.875,-6.8125 3.328125,-6.8125 c 0.484375,0 0.546875,0.640625 0.546875,1.203125 0,0.5 -0.078125,1 -0.3125,1.984375 z m 2,0.328125 C 3.359375,-2.84375 3.15625,-2 2.765625,-1.28125 c -0.34375,0.6875 -0.71875,1.171875 -1.15625,1.171875 -0.328125,0 -0.53125,-0.296875 -0.53125,-1.21875 0,-0.421875 0.0625,-1 0.3125,-1.96875 z m 0,0"
                 id="id-a713ce60-08dc-4969-b968-d22cc2361b3f" />
            </g>
          </g>
        </g>
      </g>
    </g>
    <g
       inkscape:label="Dim"
       id="g2788">
      <path
         inkscape:label="arc"
         style="fill:none;fill-opacity:1;stroke:#000000;stroke-width:0.25;stroke-linecap:round;stroke-linejoin:round;stroke-dasharray:none;stroke-opacity:1;marker-start:url(#DimmArrow_Start_n00006);marker-end:url(#DimmArrow_End_n00006)"
         sodipodi:type="arc"
         sodipodi:rx="40.361641"
         sodipodi:ry="40.361641"
         sodipodi:cx="64.91468"
         sodipodi:cy="120.90114"
         sodipodi:start="4.5333361"
         sodipodi:end="4.650449"
         d="m 57.726366,81.184766 a 40.361641,40.361641 0 0 1 4.689913,-0.567868"
         sodipodi:arc-type="arc"
         id="path2773"
         sodipodi:open="true" />
      <g
         inkscape:label="Layer 1"
         inkscape:groupmode="layer"
         id="g2786"
         transform="matrix(0.27449314,-0.03323646,0.03323646,0.27449314,-68.813639,-61.866058)">
        <g
           transform="matrix(1.33333,0,0,1.33333,397.26,555.24)"
           ns2:version="1.8.2"
           ns2:texconverter="pdflatex"
           ns2:pdfconverter="inkscape"
           ns2:text=" \\noindent $\\theta$"
           ns2:preamble="C:\Users\USER\AppData\Roaming\inkscape\extensions\inkscapeMadeEasy\basicLatexPackages.tex"
           ns2:scale="1.0"
           ns2:alignment="middle center"
           ns2:stroke-to-path="0"
           ns2:inkscapeversion="1.0.1"
           ns2:jacobian_sqrt="1.33333"
           id="g2784">
          <defs
             id="id-fc3c0016-3402-4cdb-9009-20a05d9aa39b">
            <g
               id="id-da45d85a-a50e-449a-ad86-abcc59caea04">
              <g
                 id="id-ccd5d844-0bb0-40f8-95de-23a42e8a8703" />
              <g
                 id="id-d6b20b75-bdb6-42cd-8384-8148868d241a">
                <path
                   d="m 4.53125,-4.984375 c 0,-0.65625 -0.171875,-2.046875 -1.1875,-2.046875 -1.390625,0 -2.921875,2.8125 -2.921875,5.09375 0,0.9375 0.28125,2.046875 1.1875,2.046875 1.40625,0 2.921875,-2.859375 2.921875,-5.09375 z M 1.46875,-3.625 C 1.640625,-4.25 1.84375,-5.046875 2.25,-5.765625 2.515625,-6.25 2.875,-6.8125 3.328125,-6.8125 c 0.484375,0 0.546875,0.640625 0.546875,1.203125 0,0.5 -0.078125,1 -0.3125,1.984375 z m 2,0.328125 C 3.359375,-2.84375 3.15625,-2 2.765625,-1.28125 c -0.34375,0.6875 -0.71875,1.171875 -1.15625,1.171875 -0.328125,0 -0.53125,-0.296875 -0.53125,-1.21875 0,-0.421875 0.0625,-1 0.3125,-1.96875 z m 0,0"
                   id="id-821ad656-6ad3-4633-93e7-67dc53cda11b" />
              </g>
            </g>
          </defs>
          <g
             fill="#000000"
             fill-opacity="1"
             id="id-f0df6d41-e81b-4e14-a64c-bb927f81259a"
             transform="translate(-134.19,-127.734)">
            <g
               transform="translate(133.768,134.765)"
               id="g2781">
              <path
                 d="m 4.53125,-4.984375 c 0,-0.65625 -0.171875,-2.046875 -1.1875,-2.046875 -1.390625,0 -2.921875,2.8125 -2.921875,5.09375 0,0.9375 0.28125,2.046875 1.1875,2.046875 1.40625,0 2.921875,-2.859375 2.921875,-5.09375 z M 1.46875,-3.625 C 1.640625,-4.25 1.84375,-5.046875 2.25,-5.765625 2.515625,-6.25 2.875,-6.8125 3.328125,-6.8125 c 0.484375,0 0.546875,0.640625 0.546875,1.203125 0,0.5 -0.078125,1 -0.3125,1.984375 z m 2,0.328125 C 3.359375,-2.84375 3.15625,-2 2.765625,-1.28125 c -0.34375,0.6875 -0.71875,1.171875 -1.15625,1.171875 -0.328125,0 -0.53125,-0.296875 -0.53125,-1.21875 0,-0.421875 0.0625,-1 0.3125,-1.96875 z m 0,0"
                 id="id-627e4c69-a9aa-46b5-8627-8b2b618d0efb" />
            </g>
          </g>
        </g>
      </g>
    </g>
    <g
       inkscape:label="Dim"
       id="g3949">
      <path
         inkscape:label="arc"
         style="fill:none;fill-opacity:1;stroke:#000000;stroke-width:0.25;stroke-linecap:round;stroke-linejoin:round;stroke-dasharray:none;stroke-opacity:1;marker-start:url(#DimmArrow_Start_n00007);marker-end:url(#DimmArrow_End_n00007)"
         sodipodi:type="arc"
         sodipodi:rx="40.270561"
         sodipodi:ry="40.270561"
         sodipodi:cx="64.91468"
         sodipodi:cy="120.71898"
         sodipodi:start="4.7744691"
         sodipodi:end="4.8909011"
         d="m 67.413076,80.525993 a 40.270561,40.270561 0 0 1 4.652268,0.562365"
         sodipodi:arc-type="arc"
         id="path3934"
         sodipodi:open="true" />
      <g
         inkscape:label="Layer 1"
         inkscape:groupmode="layer"
         id="g3947"
         transform="matrix(0.27449979,0.03318146,-0.03318146,0.27449979,-21.381489,-88.57534)">
        <g
           transform="matrix(1.33333,0,0,1.33333,397.26,555.24)"
           ns2:version="1.8.2"
           ns2:texconverter="pdflatex"
           ns2:pdfconverter="inkscape"
           ns2:text=" \\noindent $\\theta$"
           ns2:preamble="C:\Users\USER\AppData\Roaming\inkscape\extensions\inkscapeMadeEasy\basicLatexPackages.tex"
           ns2:scale="1.0"
           ns2:alignment="middle center"
           ns2:stroke-to-path="0"
           ns2:inkscapeversion="1.0.1"
           ns2:jacobian_sqrt="1.33333"
           id="g3945">
          <defs
             id="id-638b2c8c-4522-4cdf-bd69-cdfe0b6c49d5">
            <g
               id="id-5926de6f-1319-4f8f-9cfd-74dc64532127">
              <g
                 id="id-6c150bc6-40dc-4520-8518-42c18d07709f" />
              <g
                 id="id-3ccaeaed-1265-40e9-8794-f353c1157b52">
                <path
                   d="m 4.53125,-4.984375 c 0,-0.65625 -0.171875,-2.046875 -1.1875,-2.046875 -1.390625,0 -2.921875,2.8125 -2.921875,5.09375 0,0.9375 0.28125,2.046875 1.1875,2.046875 1.40625,0 2.921875,-2.859375 2.921875,-5.09375 z M 1.46875,-3.625 C 1.640625,-4.25 1.84375,-5.046875 2.25,-5.765625 2.515625,-6.25 2.875,-6.8125 3.328125,-6.8125 c 0.484375,0 0.546875,0.640625 0.546875,1.203125 0,0.5 -0.078125,1 -0.3125,1.984375 z m 2,0.328125 C 3.359375,-2.84375 3.15625,-2 2.765625,-1.28125 c -0.34375,0.6875 -0.71875,1.171875 -1.15625,1.171875 -0.328125,0 -0.53125,-0.296875 -0.53125,-1.21875 0,-0.421875 0.0625,-1 0.3125,-1.96875 z m 0,0"
                   id="id-597fd9f6-a2e1-4e73-9a47-ff8f728d65b8" />
              </g>
            </g>
          </defs>
          <g
             fill="#000000"
             fill-opacity="1"
             id="id-f696e1ac-aa4c-4c53-8044-e4d35ab64ade"
             transform="translate(-134.19,-127.734)">
            <g
               transform="translate(133.768,134.765)"
               id="g3942">
              <path
                 d="m 4.53125,-4.984375 c 0,-0.65625 -0.171875,-2.046875 -1.1875,-2.046875 -1.390625,0 -2.921875,2.8125 -2.921875,5.09375 0,0.9375 0.28125,2.046875 1.1875,2.046875 1.40625,0 2.921875,-2.859375 2.921875,-5.09375 z M 1.46875,-3.625 C 1.640625,-4.25 1.84375,-5.046875 2.25,-5.765625 2.515625,-6.25 2.875,-6.8125 3.328125,-6.8125 c 0.484375,0 0.546875,0.640625 0.546875,1.203125 0,0.5 -0.078125,1 -0.3125,1.984375 z m 2,0.328125 C 3.359375,-2.84375 3.15625,-2 2.765625,-1.28125 c -0.34375,0.6875 -0.71875,1.171875 -1.15625,1.171875 -0.328125,0 -0.53125,-0.296875 -0.53125,-1.21875 0,-0.421875 0.0625,-1 0.3125,-1.96875 z m 0,0"
                 id="id-a30223c3-589a-48f3-905c-93bcb9b4a1ea" />
            </g>
          </g>
        </g>
      </g>
    </g>
    <path
       style="fill:#0b64ff;fill-opacity:1;stroke:#ab82ff;stroke-width:0.420113;stroke-linecap:round;stroke-miterlimit:3;stroke-dasharray:15.7348, 15.7348;stroke-dashoffset:0;stroke-opacity:1;marker-end:url(#Arrow1-3)"
       d="m 68.332025,106.69125 -3.22899,13.25246"
       id="path4841-6" />
    <path
       style="fill:#0b64ff;fill-opacity:1;stroke:#ab82ff;stroke-width:0.420113;stroke-linecap:round;stroke-miterlimit:3;stroke-dasharray:15.7348, 15.7348;stroke-dashoffset:0;stroke-opacity:1;marker-end:url(#Arrow1-3-0)"
       d="m 61.458084,106.71335 3.22899,13.25246"
       id="path4841-6-3" />
    <path
       style="fill:#0b64ff;fill-opacity:1;stroke:#f882ff;stroke-width:0.593965;stroke-linecap:round;stroke-miterlimit:3;stroke-dasharray:none;stroke-dashoffset:0;stroke-opacity:1;marker-end:url(#Arrow1)"
       d="M 64.878669,94.048159 V 119.82457"
       id="path13726" />
    <g
       inkscape:label="Layer 1"
       inkscape:groupmode="layer"
       id="g27128"
       transform="matrix(0.276498,0,0,0.276498,-48.580133,-50.034254)" />
    <g
       inkscape:label="Dim"
       id="g50508"
       transform="translate(0,0.75000003)">
      <path
         inkscape:label="none"
         style="fill:none;fill-opacity:1;stroke:#000000;stroke-width:0.25;stroke-linecap:round;stroke-linejoin:round;stroke-dasharray:none;stroke-opacity:1"
         d="m 44.10171,40.406065 -5.826609,1.432001"
         id="path50489" />
      <path
         inkscape:label="none"
         style="fill:none;fill-opacity:1;stroke:#000000;stroke-width:0.25;stroke-linecap:round;stroke-linejoin:round;stroke-dasharray:none;stroke-opacity:1"
         d="m 63.450651,119.13414 -5.826609,1.432"
         id="path50491" />
      <path
         inkscape:label="dim"
         style="fill:none;fill-opacity:1;stroke:#000000;stroke-width:0.25;stroke-linecap:round;stroke-linejoin:round;stroke-dasharray:none;stroke-opacity:1;marker-start:url(#DimmArrow_Start_n00020);marker-end:url(#DimmArrow_End_n00020)"
         d="M 39.842869,44.027153 57.998476,117.89972"
         id="path50493" />
      <g
         inkscape:label="Layer 1"
         inkscape:groupmode="layer"
         id="g50506"
         transform="matrix(0.276498,0,0,0.276498,-65.014027,-74.071392)">
        <g
           transform="matrix(1.33333,0,0,1.33333,397.302,556.99)"
           ns2:version="1.8.2"
           ns2:texconverter="pdflatex"
           ns2:pdfconverter="inkscape"
           ns2:text=" \\noindent $r$"
           ns2:preamble="C:\Users\USER\AppData\Roaming\inkscape\extensions\inkscapeMadeEasy\basicLatexPackages.tex"
           ns2:scale="1.0"
           ns2:alignment="middle center"
           ns2:stroke-to-path="0"
           ns2:inkscapeversion="1.0.1"
           ns2:jacobian_sqrt="1.33333"
           id="g50504">
          <defs
             id="id-b840c3da-61df-416f-92cf-b390ca8b7302">
            <g
               id="id-6a47c758-dc86-4c7b-b33e-1693fb9dd629">
              <g
                 id="id-4ba7481d-2a6b-4b22-a87f-ff447b6fbd16" />
              <g
                 id="id-582ae875-f9c5-436f-bded-0a7aec313718">
                <path
                   d="m 0.875,-0.59375 c -0.03125,0.15625 -0.09375,0.390625 -0.09375,0.4375 0,0.171875 0.140625,0.265625 0.296875,0.265625 0.125,0 0.296875,-0.078125 0.375,-0.28125 C 1.46875,-0.203125 1.796875,-1.5625 1.84375,-1.75 c 0.078125,-0.328125 0.265625,-1.015625 0.3125,-1.296875 0.046875,-0.125 0.328125,-0.59375 0.5625,-0.8125 0.078125,-0.0625 0.375,-0.328125 0.796875,-0.328125 0.265625,0 0.40625,0.125 0.421875,0.125 -0.296875,0.046875 -0.515625,0.28125 -0.515625,0.546875 0,0.15625 0.109375,0.34375 0.375,0.34375 0.265625,0 0.546875,-0.234375 0.546875,-0.59375 0,-0.34375 -0.3125,-0.640625 -0.828125,-0.640625 C 2.875,-4.40625 2.4375,-3.921875 2.25,-3.640625 2.15625,-4.09375 1.796875,-4.40625 1.328125,-4.40625 0.875,-4.40625 0.6875,-4.015625 0.59375,-3.84375 0.421875,-3.5 0.296875,-2.90625 0.296875,-2.875 c 0,0.109375 0.09375,0.109375 0.109375,0.109375 0.109375,0 0.109375,-0.015625 0.171875,-0.234375 0.171875,-0.703125 0.375,-1.1875 0.734375,-1.1875 0.15625,0 0.296875,0.078125 0.296875,0.453125 0,0.21875 -0.03125,0.328125 -0.15625,0.84375 z m 0,0"
                   id="id-e2c47005-5804-4556-b1ee-8fc284d36cde" />
              </g>
            </g>
          </defs>
          <g
             fill="#000000"
             fill-opacity="1"
             id="id-01d9ca2a-3ede-44f6-a420-0a44bda859d5"
             transform="translate(-134.065,-130.359)">
            <g
               transform="translate(133.768,134.765)"
               id="g50501">
              <path
                 d="m 0.875,-0.59375 c -0.03125,0.15625 -0.09375,0.390625 -0.09375,0.4375 0,0.171875 0.140625,0.265625 0.296875,0.265625 0.125,0 0.296875,-0.078125 0.375,-0.28125 C 1.46875,-0.203125 1.796875,-1.5625 1.84375,-1.75 c 0.078125,-0.328125 0.265625,-1.015625 0.3125,-1.296875 0.046875,-0.125 0.328125,-0.59375 0.5625,-0.8125 0.078125,-0.0625 0.375,-0.328125 0.796875,-0.328125 0.265625,0 0.40625,0.125 0.421875,0.125 -0.296875,0.046875 -0.515625,0.28125 -0.515625,0.546875 0,0.15625 0.109375,0.34375 0.375,0.34375 0.265625,0 0.546875,-0.234375 0.546875,-0.59375 0,-0.34375 -0.3125,-0.640625 -0.828125,-0.640625 C 2.875,-4.40625 2.4375,-3.921875 2.25,-3.640625 2.15625,-4.09375 1.796875,-4.40625 1.328125,-4.40625 0.875,-4.40625 0.6875,-4.015625 0.59375,-3.84375 0.421875,-3.5 0.296875,-2.90625 0.296875,-2.875 c 0,0.109375 0.09375,0.109375 0.109375,0.109375 0.109375,0 0.109375,-0.015625 0.171875,-0.234375 0.171875,-0.703125 0.375,-1.1875 0.734375,-1.1875 0.15625,0 0.296875,0.078125 0.296875,0.453125 0,0.21875 -0.03125,0.328125 -0.15625,0.84375 z m 0,0"
                 id="id-0b14f62c-8f35-4251-b9c3-084a6e9fcc38" />
            </g>
          </g>
        </g>
      </g>
    </g>
    <circle
       style="fill:#ff110b;fill-opacity:1;stroke:#c9c9c9;stroke-width:0;stroke-linecap:round;stroke-miterlimit:3;stroke-dasharray:none;stroke-dashoffset:0"
       id="path1878-0"
       cx="84.84166"
       cy="40.27388"
       r="0.96390384" />
    <circle
       style="fill:#ff110b;fill-opacity:1;stroke:#c9c9c9;stroke-width:0;stroke-linecap:round;stroke-miterlimit:3;stroke-dasharray:none;stroke-dashoffset:0"
       id="path1878"
       cx="44.779167"
       cy="40.256096"
       r="0.96390384" />
    <g
       inkscape:label="Layer 1"
       inkscape:groupmode="layer"
       id="g55461"
       transform="matrix(0.276498,0,0,0.276498,-40.933055,-50.034254)" />
    <path
       inkscape:label="none"
       style="fill:none;fill-opacity:1;stroke:#000000;stroke-width:0.25;stroke-linecap:round;stroke-linejoin:round;stroke-dasharray:none;stroke-opacity:1"
       d="m 63.878669,119.82457 h -6"
       id="path14786" />
    <g
       inkscape:label="Layer 1"
       inkscape:groupmode="layer"
       id="g14855"
       transform="matrix(0.276498,0,0,0.276498,-42.769555,-48.891033)" />
    <g
       inkscape:label="Dim"
       id="g18566">
      <path
         inkscape:label="none"
         style="fill:none;fill-opacity:1;stroke:#000000;stroke-width:0.25;stroke-linecap:round;stroke-linejoin:round;stroke-dasharray:none;stroke-opacity:1"
         d="m 66.074611,120.18044 5.829458,1.42036"
         id="path18495" />
      <path
         inkscape:label="none"
         style="fill:none;fill-opacity:1;stroke:#000000;stroke-width:0.25;stroke-linecap:round;stroke-linejoin:round;stroke-dasharray:none;stroke-opacity:1"
         d="m 69.303601,106.92798 5.829458,1.42036"
         id="path18497" />
      <path
         inkscape:label="dim"
         style="fill:none;fill-opacity:1;stroke:#000000;stroke-width:0.25;stroke-linecap:round;stroke-linejoin:round;stroke-dasharray:none;stroke-opacity:1;marker-start:url(#DimmArrow_Start_n00024);marker-end:url(#DimmArrow_End_n00024)"
         d="m 71.524309,118.93513 2.045357,-8.39458"
         id="path18499" />
      <g
         inkscape:label="Layer 1"
         inkscape:groupmode="layer"
         id="g18564"
         transform="matrix(0.276498,0,0,0.276498,-31.027466,-42.851507)">
        <g
           transform="matrix(1.33333,0,0,1.33333,383.964,547.77)"
           ns2:version="1.8.2"
           ns2:texconverter="pdflatex"
           ns2:pdfconverter="inkscape"
           ns2:text=" \\noindent $\\left|\\vec{F}(r)\\right|$"
           ns2:preamble="C:\Users\USER\AppData\Roaming\inkscape\extensions\inkscapeMadeEasy\basicLatexPackages.tex"
           ns2:scale="1.0"
           ns2:alignment="middle center"
           ns2:stroke-to-path="0"
           ns2:inkscapeversion="1.0.1"
           ns2:jacobian_sqrt="1.33333"
           id="g18562">
          <defs
             id="id-2a5d6788-832a-43c7-b4c4-0fffd90eb6f9">
            <g
               id="id-3f410e43-a0d6-4126-9a6f-442505f59fbe">
              <g
                 id="id-c12f6d1c-17eb-4865-85db-d4f206c599a3" />
              <g
                 id="id-bfbbe73c-275b-4619-a974-a1f002e6cad1">
                <path
                   d="m 1.453125,5.828125 c 0,0.15625 0,0.359375 0.203125,0.359375 C 1.875,6.1875 1.875,5.984375 1.875,5.828125 V 0.15625 c 0,-0.15625 0,-0.359375 -0.203125,-0.359375 -0.21875,0 -0.21875,0.1875 -0.21875,0.359375 z m 0,0"
                   id="id-c56091a2-6482-477b-9eb2-9d81ba235ba7" />
              </g>
              <g
                 id="id-1598070f-5798-4333-836d-74e8e7c9c3fc" />
              <g
                 id="id-831d9bbf-9beb-43d6-a7f4-dfb04fc8a88f">
                <path
                   d="m 5.359375,-5.9375 c -0.140625,0.140625 -0.46875,0.421875 -0.46875,0.59375 0,0.09375 0.09375,0.203125 0.1875,0.203125 0.09375,0 0.140625,-0.078125 0.203125,-0.140625 C 5.390625,-5.421875 5.625,-5.703125 6.0625,-5.921875 6.125,-5.96875 6.234375,-6.015625 6.234375,-6.125 6.234375,-6.234375 6.15625,-6.28125 6.09375,-6.328125 5.875,-6.484375 5.765625,-6.65625 5.6875,-6.890625 5.65625,-6.984375 5.625,-7.125 5.484375,-7.125 c -0.140625,0 -0.203125,0.140625 -0.203125,0.21875 0,0.046875 0.078125,0.359375 0.234375,0.578125 H 2.15625 c -0.15625,0 -0.34375,0 -0.34375,0.203125 0,0.1875 0.1875,0.1875 0.34375,0.1875 z m 0,0"
                   id="id-a94bc1b7-a5ac-4f6f-84b9-bbcb2aed1875" />
              </g>
              <g
                 id="id-4d80de2c-91ea-49b6-b767-f620df22366d">
                <path
                   d="m 3.015625,-3.234375 h 0.96875 c 0.75,0 0.828125,0.15625 0.828125,0.4375 0,0.078125 0,0.1875 -0.0625,0.5 C 4.71875,-2.25 4.71875,-2.21875 4.71875,-2.1875 c 0,0.078125 0.0625,0.109375 0.109375,0.109375 0.109375,0 0.109375,-0.03125 0.15625,-0.203125 L 5.53125,-4.453125 C 5.5625,-4.5625 5.5625,-4.578125 5.5625,-4.609375 5.5625,-4.625 5.546875,-4.71875 5.4375,-4.71875 5.34375,-4.71875 5.328125,-4.671875 5.296875,-4.5 5.078125,-3.734375 4.859375,-3.546875 4,-3.546875 H 3.09375 l 0.640625,-2.53125 C 3.828125,-6.4375 3.84375,-6.46875 4.28125,-6.46875 h 1.3125 c 1.21875,0 1.453125,0.328125 1.453125,1.09375 0,0.234375 0,0.265625 -0.03125,0.546875 C 7,-4.703125 7,-4.6875 7,-4.65625 c 0,0.046875 0.03125,0.125 0.125,0.125 0.109375,0 0.109375,-0.0625 0.125,-0.25 L 7.453125,-6.515625 C 7.484375,-6.78125 7.4375,-6.78125 7.1875,-6.78125 H 2.296875 c -0.1875,0 -0.296875,0 -0.296875,0.203125 0,0.109375 0.09375,0.109375 0.28125,0.109375 0.375,0 0.65625,0 0.65625,0.171875 0,0.046875 0,0.0625 -0.0625,0.25 L 1.5625,-0.78125 c -0.09375,0.390625 -0.109375,0.46875 -0.90625,0.46875 -0.171875,0 -0.28125,0 -0.28125,0.1875 C 0.375,0 0.5,0 0.53125,0 0.8125,0 1.5625,-0.03125 1.84375,-0.03125 2.171875,-0.03125 3,0 3.328125,0 3.421875,0 3.53125,0 3.53125,-0.1875 3.53125,-0.265625 3.484375,-0.296875 3.484375,-0.296875 3.453125,-0.3125 3.421875,-0.3125 3.203125,-0.3125 c -0.21875,0 -0.265625,0 -0.515625,-0.015625 -0.296875,-0.03125 -0.328125,-0.078125 -0.328125,-0.203125 0,-0.015625 0,-0.078125 0.046875,-0.21875 z m 0,0"
                   id="id-085a4590-25de-4eb6-aa2c-1e4062b77744" />
              </g>
              <g
                 id="id-4efc119a-fd2a-484d-bfb3-81cfcbf7916c">
                <path
                   d="m 0.875,-0.59375 c -0.03125,0.15625 -0.09375,0.390625 -0.09375,0.4375 0,0.171875 0.140625,0.265625 0.296875,0.265625 0.125,0 0.296875,-0.078125 0.375,-0.28125 C 1.46875,-0.203125 1.796875,-1.5625 1.84375,-1.75 c 0.078125,-0.328125 0.265625,-1.015625 0.3125,-1.296875 0.046875,-0.125 0.328125,-0.59375 0.5625,-0.8125 0.078125,-0.0625 0.375,-0.328125 0.796875,-0.328125 0.265625,0 0.40625,0.125 0.421875,0.125 -0.296875,0.046875 -0.515625,0.28125 -0.515625,0.546875 0,0.15625 0.109375,0.34375 0.375,0.34375 0.265625,0 0.546875,-0.234375 0.546875,-0.59375 0,-0.34375 -0.3125,-0.640625 -0.828125,-0.640625 C 2.875,-4.40625 2.4375,-3.921875 2.25,-3.640625 2.15625,-4.09375 1.796875,-4.40625 1.328125,-4.40625 0.875,-4.40625 0.6875,-4.015625 0.59375,-3.84375 0.421875,-3.5 0.296875,-2.90625 0.296875,-2.875 c 0,0.109375 0.09375,0.109375 0.109375,0.109375 0.109375,0 0.109375,-0.015625 0.171875,-0.234375 0.171875,-0.703125 0.375,-1.1875 0.734375,-1.1875 0.15625,0 0.296875,0.078125 0.296875,0.453125 0,0.21875 -0.03125,0.328125 -0.15625,0.84375 z m 0,0"
                   id="id-d3a0ee03-32ca-452e-8ca6-80c54c495aa2" />
              </g>
              <g
                 id="id-08eb191a-1649-4277-b33e-79f75901c943" />
              <g
                 id="id-73805181-1f1d-43ac-8d34-6a876355e5c5">
                <path
                   d="m 3.296875,2.390625 c 0,-0.03125 0,-0.046875 -0.171875,-0.21875 C 1.890625,0.921875 1.5625,-0.96875 1.5625,-2.5 c 0,-1.734375 0.375,-3.46875 1.609375,-4.703125 0.125,-0.125 0.125,-0.140625 0.125,-0.171875 0,-0.078125 -0.03125,-0.109375 -0.09375,-0.109375 -0.109375,0 -1,0.6875 -1.59375,1.953125 -0.5,1.09375 -0.625,2.203125 -0.625,3.03125 0,0.78125 0.109375,1.984375 0.65625,3.125 C 2.25,1.84375 3.09375,2.5 3.203125,2.5 c 0.0625,0 0.09375,-0.03125 0.09375,-0.109375 z m 0,0"
                   id="id-8d5f1cdb-8aaa-4920-aa23-17fcdb2ce5ac" />
              </g>
              <g
                 id="id-37e7b7af-aa5c-41b6-ab67-93ce5e7835b1">
                <path
                   d="m 2.875,-2.5 c 0,-0.765625 -0.109375,-1.96875 -0.65625,-3.109375 -0.59375,-1.21875 -1.453125,-1.875 -1.546875,-1.875 -0.0625,0 -0.109375,0.046875 -0.109375,0.109375 0,0.03125 0,0.046875 0.1875,0.234375 0.984375,0.984375 1.546875,2.5625 1.546875,4.640625 0,1.71875 -0.359375,3.46875 -1.59375,4.71875 C 0.5625,2.34375 0.5625,2.359375 0.5625,2.390625 0.5625,2.453125 0.609375,2.5 0.671875,2.5 0.765625,2.5 1.671875,1.8125 2.25,0.546875 2.765625,-0.546875 2.875,-1.65625 2.875,-2.5 Z m 0,0"
                   id="id-f3cf1811-555d-4aa6-9112-985f94b14b17" />
              </g>
            </g>
          </defs>
          <g
             fill="#000000"
             fill-opacity="1"
             id="id-4e72780e-d90e-45f8-bfc7-53575a38772b"
             transform="translate(-135.221,-124.599)">
            <g
               transform="translate(133.768,124.802)"
               id="g18519">
              <path
                 d="m 1.453125,5.828125 c 0,0.15625 0,0.359375 0.203125,0.359375 C 1.875,6.1875 1.875,5.984375 1.875,5.828125 V 0.15625 c 0,-0.15625 0,-0.359375 -0.203125,-0.359375 -0.21875,0 -0.21875,0.1875 -0.21875,0.359375 z m 0,0"
                 id="id-6d00a3dd-4b0f-4dfe-81d4-50228fd56690" />
            </g>
          </g>
          <g
             fill="#000000"
             fill-opacity="1"
             id="id-751e15bc-b203-4f64-b752-7b7242021e51"
             transform="translate(-135.221,-124.599)">
            <g
               transform="translate(133.768,130.78)"
               id="g18523">
              <path
                 d="m 1.453125,5.828125 c 0,0.15625 0,0.359375 0.203125,0.359375 C 1.875,6.1875 1.875,5.984375 1.875,5.828125 V 0.15625 c 0,-0.15625 0,-0.359375 -0.203125,-0.359375 -0.21875,0 -0.21875,0.1875 -0.21875,0.359375 z m 0,0"
                 id="id-34f86a46-3191-4629-ac1e-2762ed5938e8" />
            </g>
          </g>
          <g
             fill="#000000"
             fill-opacity="1"
             id="id-aebe0f45-ce9d-44eb-9c79-3b3cfca48c08"
             transform="translate(-135.221,-124.599)">
            <g
               transform="translate(133.768,136.757)"
               id="g18527">
              <path
                 d="m 1.453125,5.828125 c 0,0.15625 0,0.359375 0.203125,0.359375 C 1.875,6.1875 1.875,5.984375 1.875,5.828125 V 0.15625 c 0,-0.15625 0,-0.359375 -0.203125,-0.359375 -0.21875,0 -0.21875,0.1875 -0.21875,0.359375 z m 0,0"
                 id="id-8622ae49-6244-45fc-b393-3c8f6814dd11" />
            </g>
          </g>
          <g
             fill="#000000"
             fill-opacity="1"
             id="id-fcaaf795-6f7b-46e4-8ad7-437d8086037c"
             transform="translate(-135.221,-124.599)">
            <g
               transform="translate(138.558,133.741)"
               id="g18531">
              <path
                 d="m 5.359375,-5.9375 c -0.140625,0.140625 -0.46875,0.421875 -0.46875,0.59375 0,0.09375 0.09375,0.203125 0.1875,0.203125 0.09375,0 0.140625,-0.078125 0.203125,-0.140625 C 5.390625,-5.421875 5.625,-5.703125 6.0625,-5.921875 6.125,-5.96875 6.234375,-6.015625 6.234375,-6.125 6.234375,-6.234375 6.15625,-6.28125 6.09375,-6.328125 5.875,-6.484375 5.765625,-6.65625 5.6875,-6.890625 5.65625,-6.984375 5.625,-7.125 5.484375,-7.125 c -0.140625,0 -0.203125,0.140625 -0.203125,0.21875 0,0.046875 0.078125,0.359375 0.234375,0.578125 H 2.15625 c -0.15625,0 -0.34375,0 -0.34375,0.203125 0,0.1875 0.1875,0.1875 0.34375,0.1875 z m 0,0"
                 id="id-192a8f0a-a732-460d-b54a-ae2456a3c69a" />
            </g>
          </g>
          <g
             fill="#000000"
             fill-opacity="1"
             id="id-adb28bae-12ef-4b19-9188-5b1357ecdcc8"
             transform="translate(-135.221,-124.599)">
            <g
               transform="translate(137.089,136.259)"
               id="g18535">
              <path
                 d="m 3.015625,-3.234375 h 0.96875 c 0.75,0 0.828125,0.15625 0.828125,0.4375 0,0.078125 0,0.1875 -0.0625,0.5 C 4.71875,-2.25 4.71875,-2.21875 4.71875,-2.1875 c 0,0.078125 0.0625,0.109375 0.109375,0.109375 0.109375,0 0.109375,-0.03125 0.15625,-0.203125 L 5.53125,-4.453125 C 5.5625,-4.5625 5.5625,-4.578125 5.5625,-4.609375 5.5625,-4.625 5.546875,-4.71875 5.4375,-4.71875 5.34375,-4.71875 5.328125,-4.671875 5.296875,-4.5 5.078125,-3.734375 4.859375,-3.546875 4,-3.546875 H 3.09375 l 0.640625,-2.53125 C 3.828125,-6.4375 3.84375,-6.46875 4.28125,-6.46875 h 1.3125 c 1.21875,0 1.453125,0.328125 1.453125,1.09375 0,0.234375 0,0.265625 -0.03125,0.546875 C 7,-4.703125 7,-4.6875 7,-4.65625 c 0,0.046875 0.03125,0.125 0.125,0.125 0.109375,0 0.109375,-0.0625 0.125,-0.25 L 7.453125,-6.515625 C 7.484375,-6.78125 7.4375,-6.78125 7.1875,-6.78125 H 2.296875 c -0.1875,0 -0.296875,0 -0.296875,0.203125 0,0.109375 0.09375,0.109375 0.28125,0.109375 0.375,0 0.65625,0 0.65625,0.171875 0,0.046875 0,0.0625 -0.0625,0.25 L 1.5625,-0.78125 c -0.09375,0.390625 -0.109375,0.46875 -0.90625,0.46875 -0.171875,0 -0.28125,0 -0.28125,0.1875 C 0.375,0 0.5,0 0.53125,0 0.8125,0 1.5625,-0.03125 1.84375,-0.03125 2.171875,-0.03125 3,0 3.328125,0 3.421875,0 3.53125,0 3.53125,-0.1875 3.53125,-0.265625 3.484375,-0.296875 3.484375,-0.296875 3.453125,-0.3125 3.421875,-0.3125 3.203125,-0.3125 c -0.21875,0 -0.265625,0 -0.515625,-0.015625 -0.296875,-0.03125 -0.328125,-0.078125 -0.328125,-0.203125 0,-0.015625 0,-0.078125 0.046875,-0.21875 z m 0,0"
                 id="id-d3618c6e-dcb0-4eae-ac70-caade8a4e77a" />
            </g>
          </g>
          <g
             fill="#000000"
             fill-opacity="1"
             id="id-7d97f7bf-0239-481d-a383-448948b27d32"
             transform="translate(-135.221,-124.599)">
            <g
               transform="translate(144.879,136.259)"
               id="g18539">
              <path
                 d="m 3.296875,2.390625 c 0,-0.03125 0,-0.046875 -0.171875,-0.21875 C 1.890625,0.921875 1.5625,-0.96875 1.5625,-2.5 c 0,-1.734375 0.375,-3.46875 1.609375,-4.703125 0.125,-0.125 0.125,-0.140625 0.125,-0.171875 0,-0.078125 -0.03125,-0.109375 -0.09375,-0.109375 -0.109375,0 -1,0.6875 -1.59375,1.953125 -0.5,1.09375 -0.625,2.203125 -0.625,3.03125 0,0.78125 0.109375,1.984375 0.65625,3.125 C 2.25,1.84375 3.09375,2.5 3.203125,2.5 c 0.0625,0 0.09375,-0.03125 0.09375,-0.109375 z m 0,0"
                 id="id-e25071a7-6cde-4bc4-b74c-716fc08c6c02" />
            </g>
          </g>
          <g
             fill="#000000"
             fill-opacity="1"
             id="id-18e70f61-7e5a-4f55-8186-c7904c1c06e0"
             transform="translate(-135.221,-124.599)">
            <g
               transform="translate(148.754,136.259)"
               id="g18543">
              <path
                 d="m 0.875,-0.59375 c -0.03125,0.15625 -0.09375,0.390625 -0.09375,0.4375 0,0.171875 0.140625,0.265625 0.296875,0.265625 0.125,0 0.296875,-0.078125 0.375,-0.28125 C 1.46875,-0.203125 1.796875,-1.5625 1.84375,-1.75 c 0.078125,-0.328125 0.265625,-1.015625 0.3125,-1.296875 0.046875,-0.125 0.328125,-0.59375 0.5625,-0.8125 0.078125,-0.0625 0.375,-0.328125 0.796875,-0.328125 0.265625,0 0.40625,0.125 0.421875,0.125 -0.296875,0.046875 -0.515625,0.28125 -0.515625,0.546875 0,0.15625 0.109375,0.34375 0.375,0.34375 0.265625,0 0.546875,-0.234375 0.546875,-0.59375 0,-0.34375 -0.3125,-0.640625 -0.828125,-0.640625 C 2.875,-4.40625 2.4375,-3.921875 2.25,-3.640625 2.15625,-4.09375 1.796875,-4.40625 1.328125,-4.40625 0.875,-4.40625 0.6875,-4.015625 0.59375,-3.84375 0.421875,-3.5 0.296875,-2.90625 0.296875,-2.875 c 0,0.109375 0.09375,0.109375 0.109375,0.109375 0.109375,0 0.109375,-0.015625 0.171875,-0.234375 0.171875,-0.703125 0.375,-1.1875 0.734375,-1.1875 0.15625,0 0.296875,0.078125 0.296875,0.453125 0,0.21875 -0.03125,0.328125 -0.15625,0.84375 z m 0,0"
                 id="id-5733c7c0-50d7-4f30-9be9-2113b2fb2e0d" />
            </g>
          </g>
          <g
             fill="#000000"
             fill-opacity="1"
             id="id-02c791b4-5756-4999-8f7c-09e7ad3ff522"
             transform="translate(-135.221,-124.599)">
            <g
               transform="translate(153.525,136.259)"
               id="g18547">
              <path
                 d="m 2.875,-2.5 c 0,-0.765625 -0.109375,-1.96875 -0.65625,-3.109375 -0.59375,-1.21875 -1.453125,-1.875 -1.546875,-1.875 -0.0625,0 -0.109375,0.046875 -0.109375,0.109375 0,0.03125 0,0.046875 0.1875,0.234375 0.984375,0.984375 1.546875,2.5625 1.546875,4.640625 0,1.71875 -0.359375,3.46875 -1.59375,4.71875 C 0.5625,2.34375 0.5625,2.359375 0.5625,2.390625 0.5625,2.453125 0.609375,2.5 0.671875,2.5 0.765625,2.5 1.671875,1.8125 2.25,0.546875 2.765625,-0.546875 2.875,-1.65625 2.875,-2.5 Z m 0,0"
                 id="id-909605ea-1270-4b1e-9c54-9056ca97abb3" />
            </g>
          </g>
          <g
             fill="#000000"
             fill-opacity="1"
             id="id-d04819e3-7a6f-4efa-bd9d-184148d87c03"
             transform="translate(-135.221,-124.599)">
            <g
               transform="translate(157.4,124.802)"
               id="g18551">
              <path
                 d="m 1.453125,5.828125 c 0,0.15625 0,0.359375 0.203125,0.359375 C 1.875,6.1875 1.875,5.984375 1.875,5.828125 V 0.15625 c 0,-0.15625 0,-0.359375 -0.203125,-0.359375 -0.21875,0 -0.21875,0.1875 -0.21875,0.359375 z m 0,0"
                 id="id-f67c46f1-8404-4c22-af4a-ad3f7f4dffe7" />
            </g>
          </g>
          <g
             fill="#000000"
             fill-opacity="1"
             id="id-a3af6879-b4e2-4b53-b998-14b19b4e3928"
             transform="translate(-135.221,-124.599)">
            <g
               transform="translate(157.4,130.78)"
               id="g18555">
              <path
                 d="m 1.453125,5.828125 c 0,0.15625 0,0.359375 0.203125,0.359375 C 1.875,6.1875 1.875,5.984375 1.875,5.828125 V 0.15625 c 0,-0.15625 0,-0.359375 -0.203125,-0.359375 -0.21875,0 -0.21875,0.1875 -0.21875,0.359375 z m 0,0"
                 id="id-62784c5f-de48-4636-b79d-1852ccfadc68" />
            </g>
          </g>
          <g
             fill="#000000"
             fill-opacity="1"
             id="id-814f15d2-c025-46ca-9108-88c527e49f58"
             transform="translate(-135.221,-124.599)">
            <g
               transform="translate(157.4,136.757)"
               id="g18559">
              <path
                 d="m 1.453125,5.828125 c 0,0.15625 0,0.359375 0.203125,0.359375 C 1.875,6.1875 1.875,5.984375 1.875,5.828125 V 0.15625 c 0,-0.15625 0,-0.359375 -0.203125,-0.359375 -0.21875,0 -0.21875,0.1875 -0.21875,0.359375 z m 0,0"
                 id="id-1b8a2aba-a1ca-41be-a8f0-6147ea428008" />
            </g>
          </g>
        </g>
      </g>
    </g>
    <path
       inkscape:label="none"
       style="fill:none;fill-opacity:1;stroke:#000000;stroke-width:0.25;stroke-linecap:round;stroke-linejoin:round;stroke-dasharray:none;stroke-opacity:1"
       d="m 63.878669,119.82457 h -6"
       id="path20803" />
    <path
       inkscape:label="none"
       style="fill:none;fill-opacity:1;stroke:#000000;stroke-width:0.25;stroke-linecap:round;stroke-linejoin:round;stroke-dasharray:none;stroke-opacity:1"
       d="m 63.878669,94.048159 h -6"
       id="path20805" />
    <path
       inkscape:label="dim"
       style="fill:none;fill-opacity:1;stroke:#000000;stroke-width:0.25;stroke-linecap:round;stroke-linejoin:round;stroke-dasharray:none;stroke-opacity:1;marker-start:url(#DimmArrow_Start_n00025);marker-end:url(#DimmArrow_End_n00025)"
       d="M 58.878669,117.32457 V 96.548159"
       id="path20807" />
    <g
       inkscape:label="Layer 1"
       inkscape:groupmode="layer"
       id="g20899"
       transform="matrix(0.276498,0,0,0.276498,-40.933055,-50.034254)">
      <g
         transform="matrix(1.33333,0,0,1.33333,370.02702,531.49494)"
         ns2:version="1.8.2"
         ns2:texconverter="pdflatex"
         ns2:pdfconverter="inkscape"
         ns2:text=" \\noindent $2\\left|\\vec{F}(r)\\right|cos\\theta$"
         ns2:preamble="C:\Users\USER\AppData\Roaming\inkscape\extensions\inkscapeMadeEasy\basicLatexPackages.tex"
         ns2:scale="1.0"
         ns2:alignment="middle center"
         ns2:stroke-to-path="0"
         ns2:inkscapeversion="1.0.1"
         ns2:jacobian_sqrt="1.33333"
         id="g20897">
        <defs
           id="id-fb5411a4-70d6-4c45-89f2-951bf215fdfd">
          <g
             id="id-77b7d26a-460a-42ad-b187-d534b257bd9f">
            <g
               id="id-9111c2b9-16f3-4e1e-bf04-dc5cb07d5f3b" />
            <g
               id="id-fcecb152-c797-48bb-96b8-b7b49c134e90">
              <path
                 d="m 1.265625,-0.765625 1.0625,-1.03125 c 1.546875,-1.375 2.140625,-1.90625 2.140625,-2.90625 0,-1.140625 -0.890625,-1.9375 -2.109375,-1.9375 -1.125,0 -1.859375,0.921875 -1.859375,1.8125 0,0.546875 0.5,0.546875 0.53125,0.546875 0.171875,0 0.515625,-0.109375 0.515625,-0.53125 0,-0.25 -0.1875,-0.515625 -0.53125,-0.515625 -0.078125,0 -0.09375,0 -0.125,0.015625 0.21875,-0.65625 0.765625,-1.015625 1.34375,-1.015625 0.90625,0 1.328125,0.8125 1.328125,1.625 C 3.5625,-3.90625 3.078125,-3.125 2.515625,-2.5 l -1.90625,2.125 C 0.5,-0.265625 0.5,-0.234375 0.5,0 H 4.203125 L 4.46875,-1.734375 H 4.234375 C 4.171875,-1.4375 4.109375,-1 4,-0.84375 3.9375,-0.765625 3.28125,-0.765625 3.0625,-0.765625 Z m 0,0"
                 id="id-450aee8c-b4bf-4674-9b1c-035a94f5358f" />
            </g>
            <g
               id="id-091b248c-790e-4222-a773-ab56933a7f08">
              <path
                 d="m 3.296875,2.390625 c 0,-0.03125 0,-0.046875 -0.171875,-0.21875 C 1.890625,0.921875 1.5625,-0.96875 1.5625,-2.5 c 0,-1.734375 0.375,-3.46875 1.609375,-4.703125 0.125,-0.125 0.125,-0.140625 0.125,-0.171875 0,-0.078125 -0.03125,-0.109375 -0.09375,-0.109375 -0.109375,0 -1,0.6875 -1.59375,1.953125 -0.5,1.09375 -0.625,2.203125 -0.625,3.03125 0,0.78125 0.109375,1.984375 0.65625,3.125 C 2.25,1.84375 3.09375,2.5 3.203125,2.5 c 0.0625,0 0.09375,-0.03125 0.09375,-0.109375 z m 0,0"
                 id="id-23f9f136-91d0-4d4d-9f82-aa9760a7b80b" />
            </g>
            <g
               id="id-3320ab67-f0c7-4390-b384-59ff79803177">
              <path
                 d="m 2.875,-2.5 c 0,-0.765625 -0.109375,-1.96875 -0.65625,-3.109375 -0.59375,-1.21875 -1.453125,-1.875 -1.546875,-1.875 -0.0625,0 -0.109375,0.046875 -0.109375,0.109375 0,0.03125 0,0.046875 0.1875,0.234375 0.984375,0.984375 1.546875,2.5625 1.546875,4.640625 0,1.71875 -0.359375,3.46875 -1.59375,4.71875 C 0.5625,2.34375 0.5625,2.359375 0.5625,2.390625 0.5625,2.453125 0.609375,2.5 0.671875,2.5 0.765625,2.5 1.671875,1.8125 2.25,0.546875 2.765625,-0.546875 2.875,-1.65625 2.875,-2.5 Z m 0,0"
                 id="id-36186e99-17a0-4b08-b65c-7a6e1f9ee119" />
            </g>
            <g
               id="id-aeaef8f8-03bc-4da9-b5e2-2a1076c7576f" />
            <g
               id="id-98946f78-1482-4021-b98f-821bd4952f55">
              <path
                 d="m 1.453125,5.828125 c 0,0.15625 0,0.359375 0.203125,0.359375 C 1.875,6.1875 1.875,5.984375 1.875,5.828125 V 0.15625 c 0,-0.15625 0,-0.359375 -0.203125,-0.359375 -0.21875,0 -0.21875,0.1875 -0.21875,0.359375 z m 0,0"
                 id="id-d8688a0b-43e1-4dae-bd8a-3fecbd326ad4" />
            </g>
            <g
               id="id-6f047673-470b-4285-bf21-3b9cbbb84e5e" />
            <g
               id="id-bb5ca420-de21-4fa3-93a4-16247ec7feee">
              <path
                 d="m 5.359375,-5.9375 c -0.140625,0.140625 -0.46875,0.421875 -0.46875,0.59375 0,0.09375 0.09375,0.203125 0.1875,0.203125 0.09375,0 0.140625,-0.078125 0.203125,-0.140625 C 5.390625,-5.421875 5.625,-5.703125 6.0625,-5.921875 6.125,-5.96875 6.234375,-6.015625 6.234375,-6.125 6.234375,-6.234375 6.15625,-6.28125 6.09375,-6.328125 5.875,-6.484375 5.765625,-6.65625 5.6875,-6.890625 5.65625,-6.984375 5.625,-7.125 5.484375,-7.125 c -0.140625,0 -0.203125,0.140625 -0.203125,0.21875 0,0.046875 0.078125,0.359375 0.234375,0.578125 H 2.15625 c -0.15625,0 -0.34375,0 -0.34375,0.203125 0,0.1875 0.1875,0.1875 0.34375,0.1875 z m 0,0"
                 id="id-c49ea5ad-3379-4f75-99fa-a13553b51b6c" />
            </g>
            <g
               id="id-c8d08866-bdde-4d50-83f8-57cbb796b96a">
              <path
                 d="m 3.015625,-3.234375 h 0.96875 c 0.75,0 0.828125,0.15625 0.828125,0.4375 0,0.078125 0,0.1875 -0.0625,0.5 C 4.71875,-2.25 4.71875,-2.21875 4.71875,-2.1875 c 0,0.078125 0.0625,0.109375 0.109375,0.109375 0.109375,0 0.109375,-0.03125 0.15625,-0.203125 L 5.53125,-4.453125 C 5.5625,-4.5625 5.5625,-4.578125 5.5625,-4.609375 5.5625,-4.625 5.546875,-4.71875 5.4375,-4.71875 5.34375,-4.71875 5.328125,-4.671875 5.296875,-4.5 5.078125,-3.734375 4.859375,-3.546875 4,-3.546875 H 3.09375 l 0.640625,-2.53125 C 3.828125,-6.4375 3.84375,-6.46875 4.28125,-6.46875 h 1.3125 c 1.21875,0 1.453125,0.328125 1.453125,1.09375 0,0.234375 0,0.265625 -0.03125,0.546875 C 7,-4.703125 7,-4.6875 7,-4.65625 c 0,0.046875 0.03125,0.125 0.125,0.125 0.109375,0 0.109375,-0.0625 0.125,-0.25 L 7.453125,-6.515625 C 7.484375,-6.78125 7.4375,-6.78125 7.1875,-6.78125 H 2.296875 c -0.1875,0 -0.296875,0 -0.296875,0.203125 0,0.109375 0.09375,0.109375 0.28125,0.109375 0.375,0 0.65625,0 0.65625,0.171875 0,0.046875 0,0.0625 -0.0625,0.25 L 1.5625,-0.78125 c -0.09375,0.390625 -0.109375,0.46875 -0.90625,0.46875 -0.171875,0 -0.28125,0 -0.28125,0.1875 C 0.375,0 0.5,0 0.53125,0 0.8125,0 1.5625,-0.03125 1.84375,-0.03125 2.171875,-0.03125 3,0 3.328125,0 3.421875,0 3.53125,0 3.53125,-0.1875 3.53125,-0.265625 3.484375,-0.296875 3.484375,-0.296875 3.453125,-0.3125 3.421875,-0.3125 3.203125,-0.3125 c -0.21875,0 -0.265625,0 -0.515625,-0.015625 -0.296875,-0.03125 -0.328125,-0.078125 -0.328125,-0.203125 0,-0.015625 0,-0.078125 0.046875,-0.21875 z m 0,0"
                 id="id-978b5228-731a-46b9-98b6-a290bb1eaa38" />
            </g>
            <g
               id="id-343f8e6b-9319-4cb0-8311-80fdc4cac37f">
              <path
                 d="m 0.875,-0.59375 c -0.03125,0.15625 -0.09375,0.390625 -0.09375,0.4375 0,0.171875 0.140625,0.265625 0.296875,0.265625 0.125,0 0.296875,-0.078125 0.375,-0.28125 C 1.46875,-0.203125 1.796875,-1.5625 1.84375,-1.75 c 0.078125,-0.328125 0.265625,-1.015625 0.3125,-1.296875 0.046875,-0.125 0.328125,-0.59375 0.5625,-0.8125 0.078125,-0.0625 0.375,-0.328125 0.796875,-0.328125 0.265625,0 0.40625,0.125 0.421875,0.125 -0.296875,0.046875 -0.515625,0.28125 -0.515625,0.546875 0,0.15625 0.109375,0.34375 0.375,0.34375 0.265625,0 0.546875,-0.234375 0.546875,-0.59375 0,-0.34375 -0.3125,-0.640625 -0.828125,-0.640625 C 2.875,-4.40625 2.4375,-3.921875 2.25,-3.640625 2.15625,-4.09375 1.796875,-4.40625 1.328125,-4.40625 0.875,-4.40625 0.6875,-4.015625 0.59375,-3.84375 0.421875,-3.5 0.296875,-2.90625 0.296875,-2.875 c 0,0.109375 0.09375,0.109375 0.109375,0.109375 0.109375,0 0.109375,-0.015625 0.171875,-0.234375 0.171875,-0.703125 0.375,-1.1875 0.734375,-1.1875 0.15625,0 0.296875,0.078125 0.296875,0.453125 0,0.21875 -0.03125,0.328125 -0.15625,0.84375 z m 0,0"
                 id="id-e3f887b4-1ae0-4bea-bf29-3de1127db083" />
            </g>
            <g
               id="id-acfd97b3-7b0d-45a0-bafe-a5e9fd986464">
              <path
                 d="m 3.953125,-3.78125 c -0.171875,0 -0.296875,0 -0.4375,0.125 -0.171875,0.15625 -0.1875,0.328125 -0.1875,0.390625 0,0.25 0.1875,0.359375 0.375,0.359375 0.28125,0 0.546875,-0.25 0.546875,-0.640625 0,-0.484375 -0.46875,-0.859375 -1.171875,-0.859375 -1.34375,0 -2.671875,1.421875 -2.671875,2.828125 0,0.90625 0.578125,1.6875 1.625,1.6875 1.421875,0 2.25,-1.0625 2.25,-1.171875 0,-0.0625 -0.046875,-0.140625 -0.109375,-0.140625 -0.0625,0 -0.078125,0.03125 -0.140625,0.109375 -0.78125,0.984375 -1.875,0.984375 -1.984375,0.984375 -0.625,0 -0.90625,-0.484375 -0.90625,-1.09375 0,-0.40625 0.203125,-1.375 0.546875,-1.984375 0.3125,-0.578125 0.859375,-1 1.40625,-1 0.328125,0 0.71875,0.125 0.859375,0.40625 z m 0,0"
                 id="id-a15785db-2902-4780-923c-fc23c89c07bb" />
            </g>
            <g
               id="id-bf726626-31be-425f-a756-f47df4cc136c">
              <path
                 d="m 4.671875,-2.71875 c 0,-1.046875 -0.6875,-1.6875 -1.59375,-1.6875 -1.328125,0 -2.671875,1.421875 -2.671875,2.828125 0,0.984375 0.671875,1.6875 1.59375,1.6875 1.328125,0 2.671875,-1.375 2.671875,-2.828125 z m -2.65625,2.609375 c -0.4375,0 -0.875,-0.3125 -0.875,-1.09375 0,-0.484375 0.265625,-1.5625 0.578125,-2.0625 0.5,-0.765625 1.078125,-0.921875 1.359375,-0.921875 0.578125,0 0.875,0.484375 0.875,1.078125 0,0.390625 -0.203125,1.4375 -0.578125,2.078125 -0.359375,0.578125 -0.90625,0.921875 -1.359375,0.921875 z m 0,0"
                 id="id-95f49c9f-14ce-4b67-9456-a65e8abd4271" />
            </g>
            <g
               id="id-fd5d905d-a176-4ed2-ac20-880733c756e3">
              <path
                 d="M 3.890625,-3.734375 C 3.625,-3.71875 3.421875,-3.5 3.421875,-3.28125 c 0,0.140625 0.09375,0.296875 0.3125,0.296875 0.21875,0 0.453125,-0.171875 0.453125,-0.5625 C 4.1875,-4 3.765625,-4.40625 3,-4.40625 c -1.3125,0 -1.6875,1.015625 -1.6875,1.453125 0,0.78125 0.734375,0.921875 1.03125,0.984375 0.515625,0.109375 1.03125,0.21875 1.03125,0.765625 0,0.25 -0.21875,1.09375 -1.421875,1.09375 -0.140625,0 -0.90625,0 -1.140625,-0.53125 0.390625,0.046875 0.640625,-0.25 0.640625,-0.53125 0,-0.21875 -0.171875,-0.34375 -0.375,-0.34375 -0.265625,0 -0.5625,0.203125 -0.5625,0.65625 0,0.5625 0.578125,0.96875 1.421875,0.96875 1.625,0 2.015625,-1.203125 2.015625,-1.65625 0,-0.359375 -0.1875,-0.609375 -0.3125,-0.71875 -0.265625,-0.28125 -0.5625,-0.34375 -1,-0.421875 -0.359375,-0.078125 -0.75,-0.15625 -0.75,-0.609375 C 1.890625,-3.578125 2.125,-4.1875 3,-4.1875 c 0.25,0 0.75,0.078125 0.890625,0.453125 z m 0,0"
                 id="id-5ffce041-f2c6-4d84-a3d3-f84bafc9ee33" />
            </g>
            <g
               id="id-46a2ad92-a5dd-49cc-9c61-42a72f7626dd">
              <path
                 d="m 4.53125,-4.984375 c 0,-0.65625 -0.171875,-2.046875 -1.1875,-2.046875 -1.390625,0 -2.921875,2.8125 -2.921875,5.09375 0,0.9375 0.28125,2.046875 1.1875,2.046875 1.40625,0 2.921875,-2.859375 2.921875,-5.09375 z M 1.46875,-3.625 C 1.640625,-4.25 1.84375,-5.046875 2.25,-5.765625 2.515625,-6.25 2.875,-6.8125 3.328125,-6.8125 c 0.484375,0 0.546875,0.640625 0.546875,1.203125 0,0.5 -0.078125,1 -0.3125,1.984375 z m 2,0.328125 C 3.359375,-2.84375 3.15625,-2 2.765625,-1.28125 c -0.34375,0.6875 -0.71875,1.171875 -1.15625,1.171875 -0.328125,0 -0.53125,-0.296875 -0.53125,-1.21875 0,-0.421875 0.0625,-1 0.3125,-1.96875 z m 0,0"
                 id="id-d58ae3ea-0775-4436-b3a4-f4a80ff2bdda" />
            </g>
          </g>
        </defs>
        <g
           fill="#000000"
           fill-opacity="1"
           id="id-50f481f5-f741-4e56-8564-5c0d08656ac7"
           transform="translate(-134.268,-124.599)">
          <g
             transform="translate(133.768,136.259)"
             id="g20837">
            <path
               d="m 1.265625,-0.765625 1.0625,-1.03125 c 1.546875,-1.375 2.140625,-1.90625 2.140625,-2.90625 0,-1.140625 -0.890625,-1.9375 -2.109375,-1.9375 -1.125,0 -1.859375,0.921875 -1.859375,1.8125 0,0.546875 0.5,0.546875 0.53125,0.546875 0.171875,0 0.515625,-0.109375 0.515625,-0.53125 0,-0.25 -0.1875,-0.515625 -0.53125,-0.515625 -0.078125,0 -0.09375,0 -0.125,0.015625 0.21875,-0.65625 0.765625,-1.015625 1.34375,-1.015625 0.90625,0 1.328125,0.8125 1.328125,1.625 C 3.5625,-3.90625 3.078125,-3.125 2.515625,-2.5 l -1.90625,2.125 C 0.5,-0.265625 0.5,-0.234375 0.5,0 H 4.203125 L 4.46875,-1.734375 H 4.234375 C 4.171875,-1.4375 4.109375,-1 4,-0.84375 3.9375,-0.765625 3.28125,-0.765625 3.0625,-0.765625 Z m 0,0"
               id="id-84f1b275-135d-460d-9729-fd2d2898cbb5" />
          </g>
        </g>
        <g
           fill="#000000"
           fill-opacity="1"
           id="id-ec180692-8310-48ed-bfde-cede7ec328c4"
           transform="translate(-134.268,-124.599)">
          <g
             transform="translate(140.41,124.802)"
             id="g20841">
            <path
               d="m 1.453125,5.828125 c 0,0.15625 0,0.359375 0.203125,0.359375 C 1.875,6.1875 1.875,5.984375 1.875,5.828125 V 0.15625 c 0,-0.15625 0,-0.359375 -0.203125,-0.359375 -0.21875,0 -0.21875,0.1875 -0.21875,0.359375 z m 0,0"
               id="id-f6543abf-8242-48a3-a03e-0892f372c4e3" />
          </g>
        </g>
        <g
           fill="#000000"
           fill-opacity="1"
           id="id-7cb0e6b2-bb21-45b0-978f-bf3190bcb14d"
           transform="translate(-134.268,-124.599)">
          <g
             transform="translate(140.41,130.78)"
             id="g20845">
            <path
               d="m 1.453125,5.828125 c 0,0.15625 0,0.359375 0.203125,0.359375 C 1.875,6.1875 1.875,5.984375 1.875,5.828125 V 0.15625 c 0,-0.15625 0,-0.359375 -0.203125,-0.359375 -0.21875,0 -0.21875,0.1875 -0.21875,0.359375 z m 0,0"
               id="id-3063bfb8-1280-49aa-a970-ea92e3ebc2c5" />
          </g>
        </g>
        <g
           fill="#000000"
           fill-opacity="1"
           id="id-58d3c22b-ee27-4664-8eab-6058c9060048"
           transform="translate(-134.268,-124.599)">
          <g
             transform="translate(140.41,136.757)"
             id="g20849">
            <path
               d="m 1.453125,5.828125 c 0,0.15625 0,0.359375 0.203125,0.359375 C 1.875,6.1875 1.875,5.984375 1.875,5.828125 V 0.15625 c 0,-0.15625 0,-0.359375 -0.203125,-0.359375 -0.21875,0 -0.21875,0.1875 -0.21875,0.359375 z m 0,0"
               id="id-21798b02-8c88-4ab4-9872-703d1b54d09b" />
          </g>
        </g>
        <g
           fill="#000000"
           fill-opacity="1"
           id="id-d2173678-a247-402e-b398-90a7c66a4b13"
           transform="translate(-134.268,-124.599)">
          <g
             transform="translate(145.199,133.741)"
             id="g20853">
            <path
               d="m 5.359375,-5.9375 c -0.140625,0.140625 -0.46875,0.421875 -0.46875,0.59375 0,0.09375 0.09375,0.203125 0.1875,0.203125 0.09375,0 0.140625,-0.078125 0.203125,-0.140625 C 5.390625,-5.421875 5.625,-5.703125 6.0625,-5.921875 6.125,-5.96875 6.234375,-6.015625 6.234375,-6.125 6.234375,-6.234375 6.15625,-6.28125 6.09375,-6.328125 5.875,-6.484375 5.765625,-6.65625 5.6875,-6.890625 5.65625,-6.984375 5.625,-7.125 5.484375,-7.125 c -0.140625,0 -0.203125,0.140625 -0.203125,0.21875 0,0.046875 0.078125,0.359375 0.234375,0.578125 H 2.15625 c -0.15625,0 -0.34375,0 -0.34375,0.203125 0,0.1875 0.1875,0.1875 0.34375,0.1875 z m 0,0"
               id="id-1802a95b-a275-4830-9a36-017e38b90771" />
          </g>
        </g>
        <g
           fill="#000000"
           fill-opacity="1"
           id="id-40365950-5f9c-49e5-b0a5-8063f3269215"
           transform="translate(-134.268,-124.599)">
          <g
             transform="translate(143.731,136.259)"
             id="g20857">
            <path
               d="m 3.015625,-3.234375 h 0.96875 c 0.75,0 0.828125,0.15625 0.828125,0.4375 0,0.078125 0,0.1875 -0.0625,0.5 C 4.71875,-2.25 4.71875,-2.21875 4.71875,-2.1875 c 0,0.078125 0.0625,0.109375 0.109375,0.109375 0.109375,0 0.109375,-0.03125 0.15625,-0.203125 L 5.53125,-4.453125 C 5.5625,-4.5625 5.5625,-4.578125 5.5625,-4.609375 5.5625,-4.625 5.546875,-4.71875 5.4375,-4.71875 5.34375,-4.71875 5.328125,-4.671875 5.296875,-4.5 5.078125,-3.734375 4.859375,-3.546875 4,-3.546875 H 3.09375 l 0.640625,-2.53125 C 3.828125,-6.4375 3.84375,-6.46875 4.28125,-6.46875 h 1.3125 c 1.21875,0 1.453125,0.328125 1.453125,1.09375 0,0.234375 0,0.265625 -0.03125,0.546875 C 7,-4.703125 7,-4.6875 7,-4.65625 c 0,0.046875 0.03125,0.125 0.125,0.125 0.109375,0 0.109375,-0.0625 0.125,-0.25 L 7.453125,-6.515625 C 7.484375,-6.78125 7.4375,-6.78125 7.1875,-6.78125 H 2.296875 c -0.1875,0 -0.296875,0 -0.296875,0.203125 0,0.109375 0.09375,0.109375 0.28125,0.109375 0.375,0 0.65625,0 0.65625,0.171875 0,0.046875 0,0.0625 -0.0625,0.25 L 1.5625,-0.78125 c -0.09375,0.390625 -0.109375,0.46875 -0.90625,0.46875 -0.171875,0 -0.28125,0 -0.28125,0.1875 C 0.375,0 0.5,0 0.53125,0 0.8125,0 1.5625,-0.03125 1.84375,-0.03125 2.171875,-0.03125 3,0 3.328125,0 3.421875,0 3.53125,0 3.53125,-0.1875 3.53125,-0.265625 3.484375,-0.296875 3.484375,-0.296875 3.453125,-0.3125 3.421875,-0.3125 3.203125,-0.3125 c -0.21875,0 -0.265625,0 -0.515625,-0.015625 -0.296875,-0.03125 -0.328125,-0.078125 -0.328125,-0.203125 0,-0.015625 0,-0.078125 0.046875,-0.21875 z m 0,0"
               id="id-c8c21f50-70bf-473b-8270-4534ba93ae05" />
          </g>
        </g>
        <g
           fill="#000000"
           fill-opacity="1"
           id="id-82212670-f356-4496-91ff-a18083f3fd75"
           transform="translate(-134.268,-124.599)">
          <g
             transform="translate(151.521,136.259)"
             id="g20861">
            <path
               d="m 3.296875,2.390625 c 0,-0.03125 0,-0.046875 -0.171875,-0.21875 C 1.890625,0.921875 1.5625,-0.96875 1.5625,-2.5 c 0,-1.734375 0.375,-3.46875 1.609375,-4.703125 0.125,-0.125 0.125,-0.140625 0.125,-0.171875 0,-0.078125 -0.03125,-0.109375 -0.09375,-0.109375 -0.109375,0 -1,0.6875 -1.59375,1.953125 -0.5,1.09375 -0.625,2.203125 -0.625,3.03125 0,0.78125 0.109375,1.984375 0.65625,3.125 C 2.25,1.84375 3.09375,2.5 3.203125,2.5 c 0.0625,0 0.09375,-0.03125 0.09375,-0.109375 z m 0,0"
               id="id-857fcfba-1ffd-41f8-ad11-438e99f46c9d" />
          </g>
        </g>
        <g
           fill="#000000"
           fill-opacity="1"
           id="id-c3ff51e6-9f05-44a4-8f35-4e49e3167fb6"
           transform="translate(-134.268,-124.599)">
          <g
             transform="translate(155.396,136.259)"
             id="g20865">
            <path
               d="m 0.875,-0.59375 c -0.03125,0.15625 -0.09375,0.390625 -0.09375,0.4375 0,0.171875 0.140625,0.265625 0.296875,0.265625 0.125,0 0.296875,-0.078125 0.375,-0.28125 C 1.46875,-0.203125 1.796875,-1.5625 1.84375,-1.75 c 0.078125,-0.328125 0.265625,-1.015625 0.3125,-1.296875 0.046875,-0.125 0.328125,-0.59375 0.5625,-0.8125 0.078125,-0.0625 0.375,-0.328125 0.796875,-0.328125 0.265625,0 0.40625,0.125 0.421875,0.125 -0.296875,0.046875 -0.515625,0.28125 -0.515625,0.546875 0,0.15625 0.109375,0.34375 0.375,0.34375 0.265625,0 0.546875,-0.234375 0.546875,-0.59375 0,-0.34375 -0.3125,-0.640625 -0.828125,-0.640625 C 2.875,-4.40625 2.4375,-3.921875 2.25,-3.640625 2.15625,-4.09375 1.796875,-4.40625 1.328125,-4.40625 0.875,-4.40625 0.6875,-4.015625 0.59375,-3.84375 0.421875,-3.5 0.296875,-2.90625 0.296875,-2.875 c 0,0.109375 0.09375,0.109375 0.109375,0.109375 0.109375,0 0.109375,-0.015625 0.171875,-0.234375 0.171875,-0.703125 0.375,-1.1875 0.734375,-1.1875 0.15625,0 0.296875,0.078125 0.296875,0.453125 0,0.21875 -0.03125,0.328125 -0.15625,0.84375 z m 0,0"
               id="id-d8406559-cc27-46f7-a177-279c908b8761" />
          </g>
        </g>
        <g
           fill="#000000"
           fill-opacity="1"
           id="id-92d3201d-b7e1-488e-8725-5f8a0053ff45"
           transform="translate(-134.268,-124.599)">
          <g
             transform="translate(160.167,136.259)"
             id="g20869">
            <path
               d="m 2.875,-2.5 c 0,-0.765625 -0.109375,-1.96875 -0.65625,-3.109375 -0.59375,-1.21875 -1.453125,-1.875 -1.546875,-1.875 -0.0625,0 -0.109375,0.046875 -0.109375,0.109375 0,0.03125 0,0.046875 0.1875,0.234375 0.984375,0.984375 1.546875,2.5625 1.546875,4.640625 0,1.71875 -0.359375,3.46875 -1.59375,4.71875 C 0.5625,2.34375 0.5625,2.359375 0.5625,2.390625 0.5625,2.453125 0.609375,2.5 0.671875,2.5 0.765625,2.5 1.671875,1.8125 2.25,0.546875 2.765625,-0.546875 2.875,-1.65625 2.875,-2.5 Z m 0,0"
               id="id-758aacfb-11dc-45a3-af98-8864d0b14a62" />
          </g>
        </g>
        <g
           fill="#000000"
           fill-opacity="1"
           id="id-2a1c32ca-e89c-4dbe-80c2-3ac3aad35bba"
           transform="translate(-134.268,-124.599)">
          <g
             transform="translate(164.041,124.802)"
             id="g20873">
            <path
               d="m 1.453125,5.828125 c 0,0.15625 0,0.359375 0.203125,0.359375 C 1.875,6.1875 1.875,5.984375 1.875,5.828125 V 0.15625 c 0,-0.15625 0,-0.359375 -0.203125,-0.359375 -0.21875,0 -0.21875,0.1875 -0.21875,0.359375 z m 0,0"
               id="id-d22b5ae5-84d5-4cf2-ae58-be44f6b02215" />
          </g>
        </g>
        <g
           fill="#000000"
           fill-opacity="1"
           id="id-e35cac94-58e0-440d-9043-7d9c5b3a3ed3"
           transform="translate(-134.268,-124.599)">
          <g
             transform="translate(164.041,130.78)"
             id="g20877">
            <path
               d="m 1.453125,5.828125 c 0,0.15625 0,0.359375 0.203125,0.359375 C 1.875,6.1875 1.875,5.984375 1.875,5.828125 V 0.15625 c 0,-0.15625 0,-0.359375 -0.203125,-0.359375 -0.21875,0 -0.21875,0.1875 -0.21875,0.359375 z m 0,0"
               id="id-a1500d4f-12c5-4ae0-b3a8-7d8be8d61897" />
          </g>
        </g>
        <g
           fill="#000000"
           fill-opacity="1"
           id="id-5424b60c-62ff-47bf-b267-cb152f576ab2"
           transform="translate(-134.268,-124.599)">
          <g
             transform="translate(164.041,136.757)"
             id="g20881">
            <path
               d="m 1.453125,5.828125 c 0,0.15625 0,0.359375 0.203125,0.359375 C 1.875,6.1875 1.875,5.984375 1.875,5.828125 V 0.15625 c 0,-0.15625 0,-0.359375 -0.203125,-0.359375 -0.21875,0 -0.21875,0.1875 -0.21875,0.359375 z m 0,0"
               id="id-27bdcb37-bb90-45fd-a977-5a4cd32be095" />
          </g>
        </g>
        <g
           fill="#000000"
           fill-opacity="1"
           id="id-131273b2-8c54-4d22-8ddc-db0c1c42f2f5"
           transform="translate(-134.268,-124.599)">
          <g
             transform="translate(169.023,136.259)"
             id="g20885">
            <path
               d="m 3.953125,-3.78125 c -0.171875,0 -0.296875,0 -0.4375,0.125 -0.171875,0.15625 -0.1875,0.328125 -0.1875,0.390625 0,0.25 0.1875,0.359375 0.375,0.359375 0.28125,0 0.546875,-0.25 0.546875,-0.640625 0,-0.484375 -0.46875,-0.859375 -1.171875,-0.859375 -1.34375,0 -2.671875,1.421875 -2.671875,2.828125 0,0.90625 0.578125,1.6875 1.625,1.6875 1.421875,0 2.25,-1.0625 2.25,-1.171875 0,-0.0625 -0.046875,-0.140625 -0.109375,-0.140625 -0.0625,0 -0.078125,0.03125 -0.140625,0.109375 -0.78125,0.984375 -1.875,0.984375 -1.984375,0.984375 -0.625,0 -0.90625,-0.484375 -0.90625,-1.09375 0,-0.40625 0.203125,-1.375 0.546875,-1.984375 0.3125,-0.578125 0.859375,-1 1.40625,-1 0.328125,0 0.71875,0.125 0.859375,0.40625 z m 0,0"
               id="id-2231556d-b5dc-4598-8db5-d45502744a5c" />
          </g>
          <g
             transform="translate(173.335,136.259)"
             id="g20888">
            <path
               d="m 4.671875,-2.71875 c 0,-1.046875 -0.6875,-1.6875 -1.59375,-1.6875 -1.328125,0 -2.671875,1.421875 -2.671875,2.828125 0,0.984375 0.671875,1.6875 1.59375,1.6875 1.328125,0 2.671875,-1.375 2.671875,-2.828125 z m -2.65625,2.609375 c -0.4375,0 -0.875,-0.3125 -0.875,-1.09375 0,-0.484375 0.265625,-1.5625 0.578125,-2.0625 0.5,-0.765625 1.078125,-0.921875 1.359375,-0.921875 0.578125,0 0.875,0.484375 0.875,1.078125 0,0.390625 -0.203125,1.4375 -0.578125,2.078125 -0.359375,0.578125 -0.90625,0.921875 -1.359375,0.921875 z m 0,0"
               id="id-bd2e30da-2e8a-4d5c-9747-9c734ad0089c" />
          </g>
          <g
             transform="translate(178.164,136.259)"
             id="g20891">
            <path
               d="M 3.890625,-3.734375 C 3.625,-3.71875 3.421875,-3.5 3.421875,-3.28125 c 0,0.140625 0.09375,0.296875 0.3125,0.296875 0.21875,0 0.453125,-0.171875 0.453125,-0.5625 C 4.1875,-4 3.765625,-4.40625 3,-4.40625 c -1.3125,0 -1.6875,1.015625 -1.6875,1.453125 0,0.78125 0.734375,0.921875 1.03125,0.984375 0.515625,0.109375 1.03125,0.21875 1.03125,0.765625 0,0.25 -0.21875,1.09375 -1.421875,1.09375 -0.140625,0 -0.90625,0 -1.140625,-0.53125 0.390625,0.046875 0.640625,-0.25 0.640625,-0.53125 0,-0.21875 -0.171875,-0.34375 -0.375,-0.34375 -0.265625,0 -0.5625,0.203125 -0.5625,0.65625 0,0.5625 0.578125,0.96875 1.421875,0.96875 1.625,0 2.015625,-1.203125 2.015625,-1.65625 0,-0.359375 -0.1875,-0.609375 -0.3125,-0.71875 -0.265625,-0.28125 -0.5625,-0.34375 -1,-0.421875 -0.359375,-0.078125 -0.75,-0.15625 -0.75,-0.609375 C 1.890625,-3.578125 2.125,-4.1875 3,-4.1875 c 0.25,0 0.75,0.078125 0.890625,0.453125 z m 0,0"
               id="id-153fbf05-275f-47d6-9010-a47b67e294f8" />
          </g>
          <g
             transform="translate(182.834,136.259)"
             id="g20894">
            <path
               d="m 4.53125,-4.984375 c 0,-0.65625 -0.171875,-2.046875 -1.1875,-2.046875 -1.390625,0 -2.921875,2.8125 -2.921875,5.09375 0,0.9375 0.28125,2.046875 1.1875,2.046875 1.40625,0 2.921875,-2.859375 2.921875,-5.09375 z M 1.46875,-3.625 C 1.640625,-4.25 1.84375,-5.046875 2.25,-5.765625 2.515625,-6.25 2.875,-6.8125 3.328125,-6.8125 c 0.484375,0 0.546875,0.640625 0.546875,1.203125 0,0.5 -0.078125,1 -0.3125,1.984375 z m 2,0.328125 C 3.359375,-2.84375 3.15625,-2 2.765625,-1.28125 c -0.34375,0.6875 -0.71875,1.171875 -1.15625,1.171875 -0.328125,0 -0.53125,-0.296875 -0.53125,-1.21875 0,-0.421875 0.0625,-1 0.3125,-1.96875 z m 0,0"
               id="id-b59b7ec8-3d88-4bf9-8da2-b631ed49f08d" />
          </g>
        </g>
      </g>
    </g>
  </g>
</svg>
