<svg width="1370" height="777" xmlns="http://www.w3.org/2000/svg" xmlns:xlink="http://www.w3.org/1999/xlink" overflow="hidden"><defs><clipPath id="clip0"><rect x="910" y="579" width="1370" height="777"/></clipPath></defs><g clip-path="url(#clip0)" transform="translate(-910 -579)"><path d="M910 1150.85 2201.49 1150.85 2201.49 1153.15 910 1153.15ZM2196.91 1138.25 2224.41 1152 2196.91 1165.75Z"/><path d="M1.14583-6.34617e-07 1.14618 628.693-1.14549 628.693-1.14583 6.34617e-07ZM13.7503 624.11 0.000360892 651.61-13.7497 624.11Z" transform="matrix(1 0 0 -1 1491 1315.61)"/><rect x="1191.5" y="916.5" width="607" height="235" stroke="#000000" stroke-width="4.58333" stroke-miterlimit="8" fill="none"/><path d="M2255.8 1173.61C2258.45 1173.61 2260.73 1173.83 2262.65 1174.26L2261.07 1181.15 2257.5 1181.15C2257.12 1179.61 2256.63 1178.5 2256.02 1177.83 2255.42 1177.15 2254.52 1176.81 2253.33 1176.81 2251.79 1176.81 2250.48 1177.24 2249.42 1178.09 2248.35 1178.94 2247.44 1180.21 2246.68 1181.88 2245.93 1183.56 2245.22 1185.81 2244.57 1188.65L2243.56 1193.07 2253.98 1193.07 2253.08 1197.16 2242.63 1197.16 2235.09 1232.5C2233.85 1238.36 2231.94 1242.73 2229.38 1245.61 2226.81 1248.49 2223.58 1249.93 2219.69 1249.93 2218.56 1249.93 2217.66 1249.86 2217.02 1249.72L2217.7 1246.16C2217.97 1246.24 2218.61 1246.28 2219.61 1246.28 2220.83 1246.28 2221.87 1245.97 2222.73 1245.35 2223.59 1244.72 2224.4 1243.64 2225.14 1242.1 2225.88 1240.56 2226.57 1238.43 2227.19 1235.7L2235.9 1197.16 2229.05 1197.16 2229.66 1194.36C2231.47 1194.25 2232.77 1194.11 2233.57 1193.92 2234.37 1193.73 2234.99 1193.44 2235.44 1193.07 2235.88 1192.69 2236.26 1192.19 2236.57 1191.59 2236.88 1190.98 2237.28 1189.86 2237.77 1188.24 2239.2 1183.38 2241.41 1179.73 2244.39 1177.28 2247.38 1174.84 2251.18 1173.61 2255.8 1173.61Z" fill-rule="evenodd"/><text fill="#000000" fill-opacity="0" font-family="Arial,Arial_MSFontService,sans-serif" font-size="76.313" x="2217.02" y="1240.39">𝑓</text><path d="M1543.44 1179.41C1540.53 1179.41 1537.8 1180.45 1535.28 1182.53 1532.75 1184.61 1530.54 1187.58 1528.63 1191.44 1526.73 1195.31 1525.25 1199.55 1524.19 1204.17 1523.14 1208.79 1522.61 1212.87 1522.61 1216.41 1522.61 1224.76 1525.65 1228.93 1531.73 1228.93 1535.43 1228.93 1538.83 1227.23 1541.93 1223.83 1545.02 1220.42 1547.55 1215.65 1549.52 1209.5 1551.5 1203.35 1552.48 1197.46 1552.48 1191.81 1552.48 1183.54 1549.47 1179.41 1543.44 1179.41ZM1543.89 1175.84C1549.11 1175.84 1553.12 1177.35 1555.95 1180.38 1558.77 1183.41 1560.18 1187.78 1560.18 1193.51 1560.18 1197.7 1559.47 1202.41 1558.03 1207.64 1556.6 1212.86 1554.53 1217.39 1551.81 1221.21 1549.1 1225.04 1546 1227.87 1542.51 1229.72 1539.03 1231.57 1535.38 1232.5 1531.57 1232.5 1526.14 1232.5 1522.02 1230.99 1519.21 1227.96 1516.4 1224.93 1514.99 1220.61 1514.99 1214.99 1514.99 1210.94 1515.68 1206.36 1517.04 1201.25 1518.41 1196.15 1520.38 1191.64 1522.96 1187.74 1525.54 1183.83 1528.62 1180.87 1532.2 1178.86 1535.78 1176.85 1539.68 1175.84 1543.89 1175.84Z" fill-rule="evenodd"/><text fill="#000000" fill-opacity="0" font-family="Arial,Arial_MSFontService,sans-serif" font-size="56.6572" x="1514.99" y="1225.42">𝑂</text><path d="M1546.38 605.049 1562.59 605.049 1562.14 607.035C1561.11 607.251 1560.38 607.495 1559.93 607.765 1559.49 608.035 1559.09 608.44 1558.74 608.981 1558.39 609.521 1558.02 610.365 1557.64 611.514 1557.26 612.662 1556.79 614.533 1556.22 617.127L1553.47 629.528 1575.23 629.528 1577.99 617.086C1578.23 615.978 1578.44 614.796 1578.62 613.54 1578.79 612.284 1578.88 611.291 1578.88 610.561 1578.88 609.291 1578.56 608.406 1577.93 607.907 1577.29 607.407 1576.28 607.116 1574.91 607.035L1575.35 605.049 1591.56 605.049 1591.12 607.035C1590.09 607.251 1589.35 607.495 1588.91 607.765 1588.46 608.035 1588.06 608.44 1587.71 608.981 1587.36 609.521 1587 610.365 1586.62 611.514 1586.24 612.662 1585.77 614.533 1585.2 617.127L1578.27 648.576C1577.92 650.17 1577.69 651.433 1577.58 652.365 1577.47 653.297 1577.42 654.142 1577.42 654.898 1577.42 656.114 1577.72 656.972 1578.33 657.472 1578.94 657.971 1579.96 658.275 1581.39 658.383L1580.95 660.369 1564.73 660.369 1565.18 658.383C1566.21 658.221 1566.98 657.958 1567.49 657.593 1568 657.228 1568.44 656.722 1568.79 656.073 1569.14 655.425 1569.46 654.635 1569.76 653.703 1570.06 652.77 1570.5 650.967 1571.1 648.292L1574.42 633.257 1552.66 633.257 1549.29 648.576C1549 649.927 1548.78 651.041 1548.65 651.919 1548.51 652.797 1548.44 653.79 1548.44 654.898 1548.44 656.06 1548.71 656.897 1549.25 657.411 1549.79 657.924 1550.85 658.248 1552.41 658.383L1551.97 660.369 1535.76 660.369 1536.2 658.383C1537.23 658.221 1538 657.958 1538.51 657.593 1539.03 657.228 1539.46 656.722 1539.81 656.073 1540.16 655.425 1540.49 654.635 1540.78 653.703 1541.08 652.77 1541.53 650.967 1542.12 648.292L1549.01 617.086C1549.25 615.978 1549.46 614.796 1549.64 613.54 1549.81 612.284 1549.9 611.291 1549.9 610.561 1549.9 609.291 1549.58 608.406 1548.95 607.907 1548.31 607.407 1547.31 607.116 1545.93 607.035Z" fill-rule="evenodd"/><text fill="#000000" fill-opacity="0" font-family="Arial,Arial_MSFontService,sans-serif" font-size="55.3198" x="1535.76" y="653.454">𝐻</text><path d="M1627.82 601.807 1628.92 604.928C1622.6 607.008 1617.92 611.068 1614.88 617.106 1611.84 623.145 1610.32 630.73 1610.32 639.862 1610.32 649.319 1611.84 657.114 1614.88 663.247 1617.92 669.38 1622.56 673.487 1628.8 675.567L1627.82 678.688C1619.91 676.607 1613.84 672.129 1609.63 665.253 1605.41 658.377 1603.3 650.048 1603.3 640.268 1603.3 630.514 1605.42 622.186 1609.65 615.283 1613.88 608.38 1619.93 603.888 1627.82 601.807Z" fill-rule="evenodd"/><text fill="#000000" fill-opacity="0" font-family="Arial,Arial_MSFontService,sans-serif" font-size="76.8804" x="1603.3" y="669.078">(</text><path d="M1668.56 602.172C1671.21 602.172 1673.49 602.388 1675.41 602.82L1673.83 609.71 1670.26 609.71C1669.89 608.17 1669.39 607.062 1668.78 606.387 1668.18 605.711 1667.28 605.374 1666.09 605.374 1664.55 605.374 1663.25 605.799 1662.18 606.65 1661.11 607.501 1660.2 608.765 1659.44 610.44 1658.69 612.115 1657.98 614.371 1657.34 617.208L1656.32 621.625 1666.74 621.625 1665.85 625.718 1655.39 625.718 1647.85 661.058C1646.61 666.921 1644.7 671.291 1642.14 674.169 1639.57 677.046 1636.34 678.485 1632.45 678.485 1631.32 678.485 1630.43 678.417 1629.78 678.282L1630.47 674.716C1630.74 674.797 1631.37 674.838 1632.37 674.838 1633.59 674.838 1634.63 674.527 1635.49 673.905 1636.36 673.284 1637.16 672.203 1637.9 670.663 1638.65 669.123 1639.33 666.989 1639.95 664.26L1648.66 625.718 1641.81 625.718 1642.42 622.922C1644.23 622.814 1645.54 622.665 1646.33 622.476 1647.13 622.287 1647.75 622.003 1648.2 621.625 1648.64 621.247 1649.02 620.754 1649.33 620.146 1649.64 619.538 1650.04 618.424 1650.53 616.802 1651.96 611.939 1654.17 608.285 1657.15 605.84 1660.14 603.395 1663.94 602.172 1668.56 602.172Z" fill-rule="evenodd"/><text fill="#000000" fill-opacity="0" font-family="Arial,Arial_MSFontService,sans-serif" font-size="76.313" x="1629.78" y="668.946">𝑓</text><path d="M1680.69 601.807C1688.58 603.888 1694.63 608.38 1698.86 615.283 1703.09 622.186 1705.21 630.514 1705.21 640.268 1705.21 650.048 1703.1 658.377 1698.88 665.253 1694.67 672.129 1688.6 676.607 1680.69 678.688L1679.71 675.567C1685.95 673.487 1690.59 669.38 1693.63 663.247 1696.67 657.114 1698.19 649.319 1698.19 639.862 1698.19 630.73 1696.68 623.145 1693.65 617.106 1690.63 611.068 1685.94 607.008 1679.59 604.928Z" fill-rule="evenodd"/><text fill="#000000" fill-opacity="0" font-family="Arial,Arial_MSFontService,sans-serif" font-size="76.8804" x="1679.59" y="669.078">)</text><path d="M1537.95 839.315 1540.18 839.315C1540.02 841.908 1539.94 845.502 1539.94 850.095L1539.94 884.705C1539.94 886.272 1540.03 887.454 1540.2 888.251 1540.38 889.048 1540.69 889.697 1541.13 890.197 1541.58 890.696 1542.22 891.088 1543.06 891.372 1543.9 891.656 1544.95 891.872 1546.22 892.02 1547.49 892.169 1549.16 892.27 1551.25 892.324L1551.25 895.283 1521.3 895.283 1521.3 892.324C1524.29 892.189 1526.44 892.007 1527.72 891.777 1529 891.548 1529.98 891.203 1530.66 890.744 1531.33 890.284 1531.83 889.636 1532.14 888.798 1532.45 887.961 1532.6 886.596 1532.6 884.705L1532.6 851.838C1532.6 850.757 1532.41 849.966 1532.04 849.467 1531.66 848.967 1531.1 848.717 1530.37 848.717 1529.51 848.717 1528.28 849.163 1526.69 850.054 1525.09 850.946 1523.12 852.175 1520.77 853.742L1518.99 850.622Z" fill-rule="evenodd"/><text fill="#000000" fill-opacity="0" font-family="Arial,Arial_MSFontService,sans-serif" font-size="55.9683" x="1518.99" y="888.287">1</text><path d="M1799.95 1162.39 1802.18 1162.39C1802.02 1164.98 1801.93 1168.58 1801.93 1173.17L1801.93 1207.78C1801.93 1209.35 1802.02 1210.53 1802.2 1211.33 1802.37 1212.12 1802.68 1212.77 1803.13 1213.27 1803.58 1213.77 1804.22 1214.16 1805.06 1214.45 1805.89 1214.73 1806.95 1214.95 1808.22 1215.1 1809.49 1215.24 1811.16 1215.35 1813.24 1215.4L1813.24 1218.36 1783.29 1218.36 1783.29 1215.4C1786.29 1215.26 1788.43 1215.08 1789.72 1214.85 1791 1214.62 1791.98 1214.28 1792.65 1213.82 1793.33 1213.36 1793.82 1212.71 1794.13 1211.87 1794.44 1211.04 1794.6 1209.67 1794.6 1207.78L1794.6 1174.91C1794.6 1173.83 1794.41 1173.04 1794.03 1172.54 1793.65 1172.04 1793.1 1171.79 1792.37 1171.79 1791.51 1171.79 1790.28 1172.24 1788.68 1173.13 1787.09 1174.02 1785.12 1175.25 1782.77 1176.82L1780.98 1173.7Z" fill-rule="evenodd"/><text fill="#000000" fill-opacity="0" font-family="Arial,Arial_MSFontService,sans-serif" font-size="55.9683" x="1780.98" y="1211.36">1</text><path d="M1761.14 1280.02C1766.16 1280.02 1769.96 1281.12 1772.53 1283.32 1775.09 1285.53 1776.38 1288.72 1776.38 1292.91 1776.38 1294.34 1776.23 1295.66 1775.95 1296.86 1775.67 1298.06 1775.22 1299.25 1774.61 1300.43 1774.01 1301.6 1773.19 1302.86 1772.16 1304.22 1771.14 1305.57 1770 1306.94 1768.76 1308.33 1767.51 1309.72 1765.37 1312.04 1762.31 1315.28 1757.18 1320.71 1753.41 1325.45 1751.01 1329.5L1766.29 1329.5C1767.61 1329.5 1768.68 1329.42 1769.49 1329.26 1770.3 1329.1 1770.95 1328.83 1771.43 1328.45 1771.92 1328.07 1772.3 1327.58 1772.59 1326.97 1772.87 1326.36 1773.23 1325.43 1773.66 1324.16L1777.11 1324.16 1776.42 1335.99 1743.06 1335.99 1743.06 1334.04C1744.22 1331.21 1745.79 1328.3 1747.76 1325.33 1749.74 1322.36 1752.53 1318.86 1756.15 1314.83 1759.29 1311.38 1761.54 1308.75 1762.92 1306.97 1764.43 1305.03 1765.56 1303.34 1766.31 1301.93 1767.05 1300.51 1767.58 1299.17 1767.91 1297.91 1768.23 1296.66 1768.39 1295.39 1768.39 1294.12 1768.39 1292.1 1768.07 1290.31 1767.42 1288.75 1766.77 1287.2 1765.78 1285.98 1764.44 1285.09 1763.1 1284.2 1761.42 1283.75 1759.4 1283.75 1754.34 1283.75 1750.94 1286.56 1749.18 1292.18L1744.28 1292.18 1744.28 1284.4C1747.55 1282.86 1750.61 1281.74 1753.46 1281.05 1756.31 1280.37 1758.87 1280.02 1761.14 1280.02Z" fill-rule="evenodd"/><text fill="#000000" fill-opacity="0" font-family="Arial,Arial_MSFontService,sans-serif" font-size="55.9683" x="1743.06" y="1328.99">2</text><path d="M1789.54 1280.67 1831.86 1280.67 1828.69 1294.93 1824.8 1294.93C1824.8 1292.31 1824.74 1290.35 1824.6 1289.04 1824.47 1287.73 1824.21 1286.73 1823.83 1286.04 1823.45 1285.35 1822.99 1284.88 1822.43 1284.62 1821.88 1284.36 1820.9 1284.24 1819.49 1284.24L1813.5 1284.24 1804.7 1324.2C1804.46 1325.25 1804.29 1326.09 1804.2 1326.71 1804.1 1327.33 1804.02 1327.98 1803.95 1328.67 1803.88 1329.36 1803.85 1329.98 1803.85 1330.52 1803.85 1331.36 1803.99 1332.01 1804.26 1332.48 1804.53 1332.96 1804.93 1333.3 1805.47 1333.52 1806.01 1333.73 1806.94 1333.9 1808.27 1334L1807.82 1335.99 1790.76 1335.99 1791.21 1334C1792.29 1333.84 1793.08 1333.62 1793.6 1333.35 1794.11 1333.08 1794.56 1332.67 1794.96 1332.1 1795.35 1331.53 1795.74 1330.64 1796.13 1329.42 1796.52 1328.21 1796.99 1326.37 1797.53 1323.91L1806.2 1284.24 1801.05 1284.24C1799.38 1284.24 1798.04 1284.48 1797.04 1284.97 1796.04 1285.45 1795.04 1286.36 1794.04 1287.68 1793.04 1289 1791.83 1291.22 1790.4 1294.33L1786.51 1294.33Z" fill-rule="evenodd"/><text fill="#000000" fill-opacity="0" font-family="Arial,Arial_MSFontService,sans-serif" font-size="55.3198" x="1786.51" y="1329.07">𝑇</text><path d="M1839.36 1322.42C1841.28 1322.42 1843.06 1322.54 1844.67 1322.78 1846.29 1323.02 1847.87 1323.37 1849.39 1323.82L1847.96 1330.55 1845.31 1330.55C1845.1 1328.77 1844.5 1327.45 1843.54 1326.59 1842.58 1325.74 1841.08 1325.31 1839.06 1325.31 1838.24 1325.31 1837.49 1325.42 1836.8 1325.64 1836.1 1325.86 1835.5 1326.16 1835.01 1326.55 1834.51 1326.93 1834.12 1327.4 1833.85 1327.93 1833.57 1328.47 1833.43 1329.05 1833.43 1329.69 1833.43 1330.27 1833.5 1330.79 1833.64 1331.27 1833.78 1331.74 1834.05 1332.21 1834.46 1332.67 1834.86 1333.12 1835.44 1333.6 1836.18 1334.1 1836.93 1334.59 1837.91 1335.16 1839.12 1335.8 1840.39 1336.49 1841.45 1337.16 1842.29 1337.79 1843.13 1338.43 1843.8 1339.07 1844.3 1339.73 1844.8 1340.38 1845.14 1341.08 1845.34 1341.83 1845.54 1342.57 1845.64 1343.4 1845.64 1344.31 1845.64 1345.72 1845.35 1346.99 1844.78 1348.11 1844.2 1349.23 1843.4 1350.18 1842.36 1350.96 1841.33 1351.73 1840.12 1352.33 1838.72 1352.74 1837.32 1353.16 1835.78 1353.37 1834.11 1353.37 1832.29 1353.37 1830.49 1353.25 1828.72 1353.01 1826.96 1352.77 1825.09 1352.37 1823.12 1351.79L1824.67 1345 1827.26 1345C1827.36 1346.85 1827.94 1348.23 1829.01 1349.15 1830.07 1350.08 1831.71 1350.54 1833.94 1350.54 1835.92 1350.54 1837.49 1350.11 1838.63 1349.26 1839.77 1348.4 1840.34 1347.21 1840.34 1345.68 1840.34 1344.99 1840.27 1344.39 1840.13 1343.88 1839.99 1343.38 1839.72 1342.89 1839.31 1342.44 1838.9 1341.98 1838.35 1341.51 1837.64 1341.02 1836.94 1340.54 1836.02 1339.98 1834.89 1339.34 1833.72 1338.68 1832.71 1338.04 1831.87 1337.4 1831.02 1336.77 1830.33 1336.12 1829.78 1335.47 1829.23 1334.81 1828.83 1334.13 1828.57 1333.41 1828.32 1332.7 1828.19 1331.93 1828.19 1331.12 1828.19 1329.87 1828.45 1328.71 1828.98 1327.65 1829.5 1326.59 1830.25 1325.67 1831.23 1324.89 1832.2 1324.12 1833.37 1323.51 1834.74 1323.08 1836.11 1322.64 1837.65 1322.42 1839.36 1322.42Z" fill-rule="evenodd"/><text fill="#000000" fill-opacity="0" font-family="Arial,Arial_MSFontService,sans-serif" font-size="30.9468" x="1823.12" y="1349.5">𝑠</text><path d="M1737.78 1254.8 1767.28 1254.8 1796.78 1254.8 1826.28 1254.8 1855.78 1254.8 1855.78 1259.8 1826.28 1259.8 1796.78 1259.8 1767.28 1259.8 1737.78 1259.8Z" fill-rule="evenodd"/><path d="M1144.53 1191.93 1194.46 1191.93 1194.46 1197.32 1144.53 1197.32Z" fill-rule="evenodd"/><text fill="#000000" fill-opacity="0" font-family="Arial,Arial_MSFontService,sans-serif" font-size="5.39014" x="1144.53" y="1196.65">−</text><path d="M1226.55 1162.39 1228.78 1162.39C1228.62 1164.98 1228.54 1168.58 1228.54 1173.17L1228.54 1207.78C1228.54 1209.35 1228.62 1210.53 1228.8 1211.33 1228.98 1212.12 1229.29 1212.77 1229.73 1213.27 1230.18 1213.77 1230.82 1214.16 1231.66 1214.45 1232.5 1214.73 1233.55 1214.95 1234.82 1215.1 1236.09 1215.24 1237.76 1215.35 1239.84 1215.4L1239.84 1218.36 1209.89 1218.36 1209.89 1215.4C1212.89 1215.26 1215.03 1215.08 1216.32 1214.85 1217.6 1214.62 1218.58 1214.28 1219.26 1213.82 1219.93 1213.36 1220.43 1212.71 1220.74 1211.87 1221.05 1211.04 1221.2 1209.67 1221.2 1207.78L1221.2 1174.91C1221.2 1173.83 1221.01 1173.04 1220.63 1172.54 1220.26 1172.04 1219.7 1171.79 1218.97 1171.79 1218.11 1171.79 1216.88 1172.24 1215.28 1173.13 1213.69 1174.02 1211.72 1175.25 1209.37 1176.82L1207.58 1173.7Z" fill-rule="evenodd"/><text fill="#000000" fill-opacity="0" font-family="Arial,Arial_MSFontService,sans-serif" font-size="55.9683" x="1207.58" y="1211.36">1</text><path d="M1156.8 1280.02C1161.83 1280.02 1165.62 1281.12 1168.19 1283.32 1170.76 1285.53 1172.04 1288.72 1172.04 1292.91 1172.04 1294.34 1171.9 1295.66 1171.62 1296.86 1171.33 1298.06 1170.89 1299.25 1170.28 1300.43 1169.67 1301.6 1168.85 1302.86 1167.83 1304.22 1166.8 1305.57 1165.67 1306.94 1164.42 1308.33 1163.18 1309.72 1161.03 1312.04 1157.98 1315.28 1152.85 1320.71 1149.08 1325.45 1146.67 1329.5L1161.95 1329.5C1163.27 1329.5 1164.34 1329.42 1165.15 1329.26 1165.96 1329.1 1166.61 1328.83 1167.1 1328.45 1167.58 1328.07 1167.97 1327.58 1168.25 1326.97 1168.54 1326.36 1168.89 1325.43 1169.33 1324.16L1172.77 1324.16 1172.08 1335.99 1138.73 1335.99 1138.73 1334.04C1139.89 1331.21 1141.46 1328.3 1143.43 1325.33 1145.4 1322.36 1148.2 1318.86 1151.82 1314.83 1154.95 1311.38 1157.21 1308.75 1158.59 1306.97 1160.1 1305.03 1161.23 1303.34 1161.97 1301.93 1162.71 1300.51 1163.25 1299.17 1163.57 1297.91 1163.9 1296.66 1164.06 1295.39 1164.06 1294.12 1164.06 1292.1 1163.73 1290.31 1163.08 1288.75 1162.44 1287.2 1161.44 1285.98 1160.11 1285.09 1158.77 1284.2 1157.09 1283.75 1155.06 1283.75 1150.01 1283.75 1146.6 1286.56 1144.85 1292.18L1139.94 1292.18 1139.94 1284.4C1143.21 1282.86 1146.27 1281.74 1149.12 1281.05 1151.97 1280.37 1154.53 1280.02 1156.8 1280.02Z" fill-rule="evenodd"/><text fill="#000000" fill-opacity="0" font-family="Arial,Arial_MSFontService,sans-serif" font-size="55.9683" x="1138.73" y="1328.99">2</text><path d="M1185.21 1280.67 1227.52 1280.67 1224.36 1294.93 1220.47 1294.93C1220.47 1292.31 1220.4 1290.35 1220.27 1289.04 1220.13 1287.73 1219.87 1286.73 1219.5 1286.04 1219.12 1285.35 1218.65 1284.88 1218.1 1284.62 1217.54 1284.36 1216.56 1284.24 1215.16 1284.24L1209.16 1284.24 1200.37 1324.2C1200.12 1325.25 1199.95 1326.09 1199.86 1326.71 1199.77 1327.33 1199.68 1327.98 1199.62 1328.67 1199.55 1329.36 1199.52 1329.98 1199.52 1330.52 1199.52 1331.36 1199.65 1332.01 1199.92 1332.48 1200.19 1332.96 1200.6 1333.3 1201.14 1333.52 1201.68 1333.73 1202.61 1333.9 1203.93 1334L1203.49 1335.99 1186.43 1335.99 1186.87 1334C1187.95 1333.84 1188.75 1333.62 1189.26 1333.35 1189.78 1333.08 1190.23 1332.67 1190.62 1332.1 1191.01 1331.53 1191.4 1330.64 1191.8 1329.42 1192.19 1328.21 1192.65 1326.37 1193.19 1323.91L1201.87 1284.24 1196.72 1284.24C1195.04 1284.24 1193.71 1284.48 1192.71 1284.97 1191.71 1285.45 1190.71 1286.36 1189.71 1287.68 1188.71 1289 1187.49 1291.22 1186.06 1294.33L1182.17 1294.33Z" fill-rule="evenodd"/><text fill="#000000" fill-opacity="0" font-family="Arial,Arial_MSFontService,sans-serif" font-size="55.3198" x="1182.17" y="1329.07">𝑇</text><path d="M1235.02 1322.42C1236.95 1322.42 1238.72 1322.54 1240.34 1322.78 1241.96 1323.02 1243.53 1323.37 1245.06 1323.82L1243.63 1330.55 1240.98 1330.55C1240.76 1328.77 1240.17 1327.45 1239.21 1326.59 1238.24 1325.74 1236.75 1325.31 1234.72 1325.31 1233.91 1325.31 1233.15 1325.42 1232.46 1325.64 1231.77 1325.86 1231.17 1326.16 1230.67 1326.55 1230.18 1326.93 1229.79 1327.4 1229.51 1327.93 1229.23 1328.47 1229.09 1329.05 1229.09 1329.69 1229.09 1330.27 1229.16 1330.79 1229.3 1331.27 1229.44 1331.74 1229.71 1332.21 1230.12 1332.67 1230.53 1333.12 1231.1 1333.6 1231.85 1334.1 1232.59 1334.59 1233.57 1335.16 1234.78 1335.8 1236.05 1336.49 1237.11 1337.16 1237.96 1337.79 1238.8 1338.43 1239.47 1339.07 1239.97 1339.73 1240.46 1340.38 1240.81 1341.08 1241.01 1341.83 1241.21 1342.57 1241.31 1343.4 1241.31 1344.31 1241.31 1345.72 1241.02 1346.99 1240.44 1348.11 1239.87 1349.23 1239.06 1350.18 1238.03 1350.96 1237 1351.73 1235.78 1352.33 1234.38 1352.74 1232.98 1353.16 1231.45 1353.37 1229.78 1353.37 1227.95 1353.37 1226.16 1353.25 1224.39 1353.01 1222.62 1352.77 1220.75 1352.37 1218.79 1351.79L1220.34 1345 1222.93 1345C1223.03 1346.85 1223.61 1348.23 1224.67 1349.15 1225.73 1350.08 1227.38 1350.54 1229.6 1350.54 1231.59 1350.54 1233.15 1350.11 1234.29 1349.26 1235.43 1348.4 1236 1347.21 1236 1345.68 1236 1344.99 1235.93 1344.39 1235.8 1343.88 1235.66 1343.38 1235.38 1342.89 1234.98 1342.44 1234.57 1341.98 1234.01 1341.51 1233.31 1341.02 1232.6 1340.54 1231.69 1339.98 1230.55 1339.34 1229.38 1338.68 1228.37 1338.04 1227.53 1337.4 1226.69 1336.77 1225.99 1336.12 1225.45 1335.47 1224.9 1334.81 1224.5 1334.13 1224.24 1333.41 1223.98 1332.7 1223.85 1331.93 1223.85 1331.12 1223.85 1329.87 1224.12 1328.71 1224.64 1327.65 1225.17 1326.59 1225.92 1325.67 1226.89 1324.89 1227.86 1324.12 1229.03 1323.51 1230.4 1323.08 1231.77 1322.64 1233.31 1322.42 1235.02 1322.42Z" fill-rule="evenodd"/><text fill="#000000" fill-opacity="0" font-family="Arial,Arial_MSFontService,sans-serif" font-size="30.9468" x="1218.79" y="1349.5">𝑠</text><path d="M1133.44 1254.8 1162.94 1254.8 1192.44 1254.8 1221.94 1254.8 1251.44 1254.8 1251.44 1259.8 1221.94 1259.8 1192.44 1259.8 1162.94 1259.8 1133.44 1259.8Z" fill-rule="evenodd"/></g></svg>