<svg width="2202" height="499" xmlns="http://www.w3.org/2000/svg" xmlns:xlink="http://www.w3.org/1999/xlink" overflow="hidden"><defs><clipPath id="clip0"><rect x="491" y="366" width="2202" height="499"/></clipPath></defs><g clip-path="url(#clip0)" transform="translate(-491 -366)"><text font-family="Malgun Gothic,Malgun Gothic_MSFontService,sans-serif" font-weight="400" font-size="83" transform="matrix(1 0 0 1 770.192 581)">0101<tspan fill="#FF0000" font-size="83" x="181.042" y="0">000</tspan></text><path d="M720.951 497.817C753.69 538.512 751.264 594.805 715.532 623.551" stroke="#4472C4" stroke-width="2.29167" stroke-miterlimit="8" fill="none" fill-rule="evenodd"/><path d="M721 498 1169.5 499.767" stroke="#4472C4" stroke-width="2.29167" stroke-miterlimit="8" fill="none" fill-rule="evenodd"/><text font-family="Malgun Gothic,Malgun Gothic_MSFontService,sans-serif" font-weight="400" font-size="83" transform="matrix(1 0 0 1 541.415 588)">1011<tspan font-size="83" x="408.373" y="-115">1</tspan><tspan font-size="83" x="271.815" y="92">1011</tspan></text><path d="M721 695 1169.5 696.767" stroke="#4472C4" stroke-width="2.29167" stroke-miterlimit="8" fill="none" fill-rule="evenodd"/><text font-family="Malgun Gothic,Malgun Gothic_MSFontService,sans-serif" font-weight="400" font-size="83" transform="matrix(1 0 0 1 949.788 797)">100</text><path d="M0.0892463-1.14235 8.17212-0.510878 16.3298 1.33734 24.2768 4.32543 32.0789 8.32161 39.5548 13.2633 46.765 19.1454 53.5242 25.7781 59.8351 33.0988 65.7018 41.1104 70.9374 49.6261 75.5414 58.6449 79.451 68.1036 82.6047 77.8169 84.9397 87.7879 86.3918 97.953 86.8972 108.188 86.392 118.419 85.0039 128.577 82.796 138.544 79.7681 148.322 75.9837 157.719 71.5082 166.733 66.465 175.307 60.9123 183.257 54.789 190.643 48.2802 197.278 41.3823 203.1 34.103 208.081 25.7681 211.369 24.9272 209.237 33.142 205.997 32.9155 206.117 40.0405 201.242 39.9484 201.312 46.7609 195.562 46.682 195.635 53.1195 189.073 53.0554 189.144 59.1179 181.831 59.0606 181.906 64.5606 174.031 64.5124 174.107 69.5124 165.607 69.4737 165.678 73.9112 156.74 73.8746 156.822 77.6246 147.509 77.5929 147.599 80.5929 137.911 80.5688 138.002 82.7563 128.127 82.7397 128.22 84.1147 118.157 84.1056 118.256 84.6056 108.131 84.6056 108.244 84.1056 98.119 84.1157 98.2245 82.6782 88.162 82.6968 88.2613 80.3843 78.3863 80.4102 78.4788 77.2852 68.8538 77.3161 68.9377 73.4411 59.5627 73.4794 59.646 68.917 50.7085 68.9614 50.7876 63.7739 42.3501 63.8255 42.427 58.013 34.4895 58.0696 34.5607 51.8196 27.3107 51.885 27.3803 45.1975 20.8178 45.2757 20.8879 38.1507 15.0754 38.2432 15.1434 30.8681 10.2684 30.9776 10.3323 23.2901 6.39484 23.4092 6.44752 15.5967 3.51002 15.7468 3.55501 7.74681 1.74251 7.91075 1.76735-0.0892463 1.14235ZM33.4103 222.347 3.25 216.375 26.1241 195.83Z" fill="#4472C4" transform="matrix(1 0 0 -1 1121 766.361)"/><path d="M1272.5 606 1451.5 606 1451.5 582.5 1498.5 629.5 1451.5 676.5 1451.5 653 1272.5 653Z" stroke="#2F528F" stroke-width="4.58333" stroke-miterlimit="8" fill="#4472C4" fill-rule="evenodd"/><text font-family="Malgun Gothic,Malgun Gothic_MSFontService,sans-serif" font-weight="400" font-size="83" transform="matrix(1 0 0 1 1583.23 661)">0101100</text><path d="M1982.5 608 2161.5 608 2161.5 584.5 2208.5 631.5 2161.5 678.5 2161.5 655 1982.5 655Z" stroke="#2F528F" stroke-width="4.58333" stroke-miterlimit="8" fill="#4472C4" fill-rule="evenodd"/><text font-family="Malgun Gothic,Malgun Gothic_MSFontService,sans-serif" font-weight="400" font-size="83" transform="matrix(1 0 0 1 2293.85 663)">0011010</text></g></svg>