<svg width="1315" height="661" xmlns="http://www.w3.org/2000/svg" xmlns:xlink="http://www.w3.org/1999/xlink" xml:space="preserve" overflow="hidden"><g transform="translate(-859 -630)"><path d="M859.5 1059.06 2087.77 1059.06 2087.77 1065.94 859.5 1065.94ZM2083.19 1048.75 2110.69 1062.5 2083.19 1076.25Z"/><path d="M3.4375-2.45367e-06 3.43784 482.679-3.43716 482.679-3.4375 2.45367e-06ZM13.7503 478.096 0.000360892 505.596-13.7497 478.096Z" transform="matrix(1 0 0 -1 1464.5 1164.1)"/><path d="M859.5 907.5 2097.43 907.5" stroke="#000000" stroke-width="6.875" stroke-miterlimit="8" fill="none" fill-rule="evenodd"/><path d="M2149.56 1105.91C2152.21 1105.91 2154.49 1106.13 2156.41 1106.56L2154.83 1113.45 2151.27 1113.45C2150.89 1111.91 2150.39 1110.8 2149.79 1110.12 2149.18 1109.45 2148.28 1109.11 2147.09 1109.11 2145.55 1109.11 2144.25 1109.54 2143.18 1110.39 2142.11 1111.24 2141.2 1112.5 2140.44 1114.18 2139.69 1115.85 2138.99 1118.11 2138.34 1120.94L2137.32 1125.36 2147.74 1125.36 2146.85 1129.46 2136.39 1129.46 2128.85 1164.8C2127.61 1170.66 2125.71 1175.03 2123.14 1177.91 2120.57 1180.78 2117.34 1182.22 2113.45 1182.22 2112.32 1182.22 2111.43 1182.15 2110.78 1182.02L2111.47 1178.45C2111.74 1178.53 2112.37 1178.57 2113.37 1178.57 2114.59 1178.57 2115.63 1178.26 2116.49 1177.64 2117.36 1177.02 2118.16 1175.94 2118.9 1174.4 2119.65 1172.86 2120.33 1170.73 2120.95 1168L2129.66 1129.46 2122.82 1129.46 2123.42 1126.66C2125.23 1126.55 2126.54 1126.4 2127.33 1126.21 2128.13 1126.02 2128.75 1125.74 2129.2 1125.36 2129.64 1124.98 2130.02 1124.49 2130.33 1123.88 2130.64 1123.28 2131.04 1122.16 2131.53 1120.54 2132.96 1115.68 2135.17 1112.02 2138.15 1109.58 2141.14 1107.13 2144.94 1105.91 2149.56 1105.91Z" fill-rule="evenodd"/><text fill="#000000" fill-opacity="0" font-family="Arial,Arial_MSFontService,sans-serif" font-size="76.313" x="2110.78" y="1172.68">𝑓</text><path d="M1525.29 804.202 1527.52 804.202C1527.36 806.796 1527.28 810.389 1527.28 814.983L1527.28 849.593C1527.28 851.16 1527.37 852.342 1527.54 853.139 1527.72 853.936 1528.03 854.585 1528.48 855.084 1528.92 855.584 1529.56 855.976 1530.4 856.26 1531.24 856.543 1532.29 856.759 1533.56 856.908 1534.83 857.057 1536.51 857.158 1538.59 857.212L1538.59 860.171 1508.64 860.171 1508.64 857.212C1511.64 857.077 1513.78 856.895 1515.06 856.665 1516.34 856.435 1517.32 856.091 1518 855.631 1518.67 855.172 1519.17 854.524 1519.48 853.686 1519.79 852.849 1519.94 851.484 1519.94 849.593L1519.94 816.725C1519.94 815.644 1519.76 814.854 1519.38 814.354 1519 813.855 1518.45 813.605 1517.72 813.605 1516.85 813.605 1515.62 814.05 1514.03 814.942 1512.43 815.834 1510.46 817.063 1508.11 818.63L1506.33 815.509Z" fill-rule="evenodd"/><text fill="#000000" fill-opacity="0" font-family="Arial,Arial_MSFontService,sans-serif" font-size="55.9683" x="1506.33" y="853.174">1</text><path d="M1577.5 911.5 1577.5 1062.16" stroke="#000000" stroke-width="6.875" stroke-miterlimit="8" stroke-dasharray="6.875 6.875" fill="none" fill-rule="evenodd"/><path d="M1690.5 911.5 1690.5 1062.16" stroke="#000000" stroke-width="6.875" stroke-miterlimit="8" stroke-dasharray="6.875 6.875" fill="none" fill-rule="evenodd"/><path d="M1803.5 911.5 1803.5 1062.16" stroke="#000000" stroke-width="6.875" stroke-miterlimit="8" stroke-dasharray="6.875 6.875" fill="none" fill-rule="evenodd"/><path d="M1916.5 911.5 1916.5 1062.16" stroke="#000000" stroke-width="6.875" stroke-miterlimit="8" stroke-dasharray="6.875 6.875" fill="none" fill-rule="evenodd"/><path d="M2028.5 911.5 2028.5 1062.16" stroke="#000000" stroke-width="6.875" stroke-miterlimit="8" stroke-dasharray="6.875 6.875" fill="none" fill-rule="evenodd"/><path d="M1013.5 911.5 1013.5 1062.16" stroke="#000000" stroke-width="6.875" stroke-miterlimit="8" stroke-dasharray="6.875 6.875" fill="none" fill-rule="evenodd"/><path d="M1126.5 911.5 1126.5 1062.16" stroke="#000000" stroke-width="6.875" stroke-miterlimit="8" stroke-dasharray="6.875 6.875" fill="none" fill-rule="evenodd"/><path d="M1239.5 911.5 1239.5 1062.16" stroke="#000000" stroke-width="6.875" stroke-miterlimit="8" stroke-dasharray="6.875 6.875" fill="none" fill-rule="evenodd"/><path d="M1352.5 911.5 1352.5 1062.16" stroke="#000000" stroke-width="6.875" stroke-miterlimit="8" stroke-dasharray="6.875 6.875" fill="none" fill-rule="evenodd"/><path d="M1464.5 911.5 1464.5 1062.16" stroke="#000000" stroke-width="6.875" stroke-miterlimit="8" fill="none" fill-rule="evenodd"/><path d="M1580.03 1093.56 1582.25 1093.56C1582.09 1096.15 1582.01 1099.75 1582.01 1104.34L1582.01 1138.95C1582.01 1140.52 1582.1 1141.7 1582.27 1142.5 1582.45 1143.29 1582.76 1143.94 1583.21 1144.44 1583.65 1144.94 1584.29 1145.33 1585.13 1145.62 1585.97 1145.9 1587.02 1146.12 1588.29 1146.27 1589.56 1146.41 1591.24 1146.52 1593.32 1146.57L1593.32 1149.53 1563.37 1149.53 1563.37 1146.57C1566.37 1146.43 1568.51 1146.25 1569.79 1146.02 1571.08 1145.79 1572.05 1145.45 1572.73 1144.99 1573.41 1144.53 1573.9 1143.88 1574.21 1143.04 1574.52 1142.21 1574.68 1140.84 1574.68 1138.95L1574.68 1106.08C1574.68 1105 1574.49 1104.21 1574.11 1103.71 1573.73 1103.21 1573.18 1102.96 1572.45 1102.96 1571.58 1102.96 1570.35 1103.41 1568.76 1104.3 1567.16 1105.19 1565.19 1106.42 1562.84 1107.99L1561.06 1104.87Z" fill-rule="evenodd"/><text fill="#000000" fill-opacity="0" font-family="Arial,Arial_MSFontService,sans-serif" font-size="55.9683" x="1561.06" y="1142.53">1</text><path d="M1546.7 1211.84 1589.02 1211.84 1585.85 1226.11 1581.96 1226.11C1581.96 1223.48 1581.9 1221.52 1581.76 1220.21 1581.63 1218.9 1581.37 1217.9 1580.99 1217.21 1580.61 1216.52 1580.15 1216.05 1579.59 1215.79 1579.04 1215.53 1578.06 1215.41 1576.65 1215.41L1570.66 1215.41 1561.86 1255.37C1561.62 1256.42 1561.45 1257.26 1561.36 1257.88 1561.26 1258.5 1561.18 1259.16 1561.11 1259.84 1561.04 1260.53 1561.01 1261.15 1561.01 1261.69 1561.01 1262.53 1561.15 1263.18 1561.42 1263.65 1561.69 1264.13 1562.09 1264.47 1562.63 1264.69 1563.17 1264.9 1564.1 1265.07 1565.43 1265.17L1564.98 1267.16 1547.92 1267.16 1548.37 1265.17C1549.45 1265.01 1550.24 1264.8 1550.76 1264.53 1551.27 1264.26 1551.72 1263.84 1552.11 1263.27 1552.51 1262.7 1552.9 1261.81 1553.29 1260.59 1553.68 1259.38 1554.15 1257.54 1554.69 1255.08L1563.36 1215.41 1558.21 1215.41C1556.54 1215.41 1555.2 1215.65 1554.2 1216.14 1553.2 1216.62 1552.2 1217.53 1551.2 1218.85 1550.2 1220.17 1548.99 1222.39 1547.56 1225.5L1543.66 1225.5Z" fill-rule="evenodd"/><text fill="#000000" fill-opacity="0" font-family="Arial,Arial_MSFontService,sans-serif" font-size="55.3198" x="1543.66" y="1260.24">𝑇</text><path d="M1596.52 1253.59C1598.44 1253.59 1600.21 1253.71 1601.83 1253.95 1603.45 1254.19 1605.02 1254.54 1606.55 1254.99L1605.12 1261.72 1602.47 1261.72C1602.25 1259.94 1601.66 1258.62 1600.7 1257.76 1599.74 1256.91 1598.24 1256.48 1596.22 1256.48 1595.4 1256.48 1594.65 1256.59 1593.95 1256.81 1593.26 1257.03 1592.66 1257.33 1592.17 1257.72 1591.67 1258.11 1591.28 1258.57 1591.01 1259.1 1590.73 1259.64 1590.59 1260.22 1590.59 1260.86 1590.59 1261.44 1590.66 1261.96 1590.8 1262.44 1590.94 1262.92 1591.21 1263.38 1591.62 1263.84 1592.02 1264.3 1592.6 1264.77 1593.34 1265.27 1594.09 1265.77 1595.07 1266.33 1596.28 1266.97 1597.55 1267.66 1598.61 1268.33 1599.45 1268.96 1600.29 1269.6 1600.96 1270.24 1601.46 1270.9 1601.96 1271.55 1602.3 1272.25 1602.5 1273 1602.7 1273.74 1602.8 1274.57 1602.8 1275.48 1602.8 1276.89 1602.51 1278.16 1601.94 1279.28 1601.36 1280.4 1600.56 1281.35 1599.52 1282.13 1598.49 1282.9 1597.28 1283.5 1595.88 1283.91 1594.48 1284.33 1592.94 1284.54 1591.27 1284.54 1589.45 1284.54 1587.65 1284.42 1585.88 1284.18 1584.12 1283.94 1582.25 1283.54 1580.28 1282.96L1581.83 1276.17 1584.42 1276.17C1584.52 1278.02 1585.1 1279.4 1586.17 1280.32 1587.23 1281.25 1588.87 1281.71 1591.1 1281.71 1593.08 1281.71 1594.64 1281.28 1595.79 1280.43 1596.93 1279.58 1597.5 1278.38 1597.5 1276.85 1597.5 1276.16 1597.43 1275.56 1597.29 1275.05 1597.15 1274.55 1596.88 1274.07 1596.47 1273.61 1596.06 1273.15 1595.51 1272.68 1594.8 1272.19 1594.1 1271.71 1593.18 1271.15 1592.05 1270.51 1590.88 1269.86 1589.87 1269.21 1589.03 1268.57 1588.18 1267.94 1587.49 1267.29 1586.94 1266.64 1586.39 1265.98 1585.99 1265.3 1585.73 1264.58 1585.48 1263.87 1585.35 1263.1 1585.35 1262.29 1585.35 1261.04 1585.61 1259.88 1586.14 1258.82 1586.66 1257.76 1587.41 1256.84 1588.38 1256.06 1589.36 1255.29 1590.53 1254.68 1591.9 1254.25 1593.27 1253.81 1594.81 1253.59 1596.52 1253.59Z" fill-rule="evenodd"/><text fill="#000000" fill-opacity="0" font-family="Arial,Arial_MSFontService,sans-serif" font-size="30.9468" x="1580.28" y="1280.67">𝑠</text><path d="M1541.1 1185.97 1559.1 1185.97 1577.1 1185.97 1595.1 1185.97 1613.1 1185.97 1613.1 1190.97 1595.1 1190.97 1577.1 1190.97 1559.1 1190.97 1541.1 1190.97Z" fill-rule="evenodd"/><path d="M1689.49 1093.29C1694.51 1093.29 1698.31 1094.4 1700.88 1096.6 1703.44 1098.8 1704.73 1101.99 1704.73 1106.18 1704.73 1107.61 1704.59 1108.93 1704.3 1110.13 1704.02 1111.34 1703.57 1112.52 1702.96 1113.7 1702.36 1114.88 1701.54 1116.14 1700.51 1117.49 1699.49 1118.84 1698.35 1120.21 1697.11 1121.6 1695.87 1122.99 1693.72 1125.31 1690.66 1128.55 1685.53 1133.98 1681.76 1138.73 1679.36 1142.78L1694.64 1142.78C1695.96 1142.78 1697.03 1142.7 1697.84 1142.53 1698.65 1142.37 1699.3 1142.1 1699.78 1141.72 1700.27 1141.35 1700.65 1140.85 1700.94 1140.25 1701.22 1139.64 1701.58 1138.7 1702.01 1137.43L1705.46 1137.43 1704.77 1149.26 1671.41 1149.26 1671.41 1147.32C1672.58 1144.48 1674.14 1141.58 1676.11 1138.6 1678.09 1135.63 1680.88 1132.13 1684.5 1128.11 1687.64 1124.65 1689.89 1122.03 1691.27 1120.24 1692.79 1118.3 1693.91 1116.62 1694.66 1115.2 1695.4 1113.78 1695.93 1112.44 1696.26 1111.19 1696.58 1109.93 1696.74 1108.67 1696.74 1107.4 1696.74 1105.37 1696.42 1103.58 1695.77 1102.03 1695.12 1100.47 1694.13 1099.25 1692.79 1098.36 1691.45 1097.47 1689.77 1097.02 1687.75 1097.02 1682.69 1097.02 1679.29 1099.83 1677.53 1105.45L1672.63 1105.45 1672.63 1097.67C1675.9 1096.13 1678.96 1095.02 1681.81 1094.33 1684.66 1093.64 1687.22 1093.29 1689.49 1093.29Z" fill-rule="evenodd"/><text fill="#000000" fill-opacity="0" font-family="Arial,Arial_MSFontService,sans-serif" font-size="55.9683" x="1671.41" y="1142.27">2</text><path d="M1659.05 1211.57 1701.36 1211.57 1698.19 1225.84 1694.3 1225.84C1694.3 1223.22 1694.24 1221.25 1694.1 1219.94 1693.97 1218.63 1693.71 1217.63 1693.33 1216.94 1692.95 1216.25 1692.49 1215.78 1691.93 1215.53 1691.38 1215.27 1690.4 1215.14 1689 1215.14L1683 1215.14 1674.2 1255.1C1673.96 1256.15 1673.79 1256.99 1673.7 1257.61 1673.6 1258.23 1673.52 1258.89 1673.45 1259.58 1673.39 1260.27 1673.35 1260.88 1673.35 1261.42 1673.35 1262.26 1673.49 1262.92 1673.76 1263.39 1674.03 1263.86 1674.43 1264.21 1674.97 1264.42 1675.51 1264.64 1676.45 1264.8 1677.77 1264.91L1677.32 1266.89 1660.26 1266.89 1660.71 1264.91C1661.79 1264.75 1662.58 1264.53 1663.1 1264.26 1663.61 1263.99 1664.06 1263.57 1664.46 1263 1664.85 1262.44 1665.24 1261.54 1665.63 1260.33 1666.02 1259.11 1666.49 1257.28 1667.03 1254.82L1675.7 1215.14 1670.56 1215.14C1668.88 1215.14 1667.54 1215.38 1666.54 1215.87 1665.54 1216.36 1664.54 1217.26 1663.54 1218.59 1662.54 1219.91 1661.33 1222.12 1659.9 1225.23L1656.01 1225.23Z" fill-rule="evenodd"/><text fill="#000000" fill-opacity="0" font-family="Arial,Arial_MSFontService,sans-serif" font-size="55.3198" x="1656.01" y="1259.98">𝑇</text><path d="M1708.86 1253.33C1710.78 1253.33 1712.56 1253.45 1714.17 1253.68 1715.79 1253.92 1717.37 1254.27 1718.89 1254.73L1717.47 1261.46 1714.81 1261.46C1714.6 1259.67 1714.01 1258.35 1713.04 1257.5 1712.08 1256.64 1710.58 1256.22 1708.56 1256.22 1707.75 1256.22 1706.99 1256.33 1706.3 1256.54 1705.6 1256.76 1705.01 1257.06 1704.51 1257.45 1704.01 1257.84 1703.62 1258.3 1703.35 1258.84 1703.07 1259.37 1702.93 1259.96 1702.93 1260.59 1702.93 1261.17 1703 1261.7 1703.14 1262.17 1703.28 1262.65 1703.55 1263.12 1703.96 1263.57 1704.36 1264.03 1704.94 1264.51 1705.69 1265 1706.43 1265.5 1707.41 1266.06 1708.62 1266.7 1709.89 1267.4 1710.95 1268.06 1711.79 1268.7 1712.64 1269.33 1713.31 1269.98 1713.8 1270.63 1714.3 1271.29 1714.65 1271.99 1714.84 1272.73 1715.04 1273.48 1715.14 1274.31 1715.14 1275.22 1715.14 1276.63 1714.85 1277.89 1714.28 1279.02 1713.7 1280.14 1712.9 1281.09 1711.87 1281.86 1710.83 1282.64 1709.62 1283.23 1708.22 1283.65 1706.82 1284.07 1705.28 1284.27 1703.62 1284.27 1701.79 1284.27 1699.99 1284.15 1698.22 1283.92 1696.46 1283.68 1694.59 1283.27 1692.62 1282.69L1694.17 1275.9 1696.76 1275.9C1696.86 1277.75 1697.44 1279.14 1698.51 1280.06 1699.57 1280.98 1701.21 1281.44 1703.44 1281.44 1705.42 1281.44 1706.99 1281.02 1708.13 1280.16 1709.27 1279.31 1709.84 1278.12 1709.84 1276.59 1709.84 1275.89 1709.77 1275.29 1709.63 1274.79 1709.49 1274.28 1709.22 1273.8 1708.81 1273.34 1708.41 1272.89 1707.85 1272.41 1707.14 1271.93 1706.44 1271.44 1705.52 1270.88 1704.39 1270.24 1703.22 1269.59 1702.21 1268.94 1701.37 1268.31 1700.52 1267.67 1699.83 1267.03 1699.28 1266.37 1698.74 1265.72 1698.33 1265.03 1698.08 1264.32 1697.82 1263.6 1697.69 1262.84 1697.69 1262.02 1697.69 1260.77 1697.95 1259.62 1698.48 1258.55 1699 1257.49 1699.75 1256.57 1700.73 1255.8 1701.7 1255.02 1702.87 1254.42 1704.24 1253.98 1705.61 1253.55 1707.15 1253.33 1708.86 1253.33Z" fill-rule="evenodd"/><text fill="#000000" fill-opacity="0" font-family="Arial,Arial_MSFontService,sans-serif" font-size="30.9468" x="1692.62" y="1280.41">𝑠</text><path d="M1653.44 1185.7 1671.44 1185.7 1689.44 1185.7 1707.44 1185.7 1725.44 1185.7 1725.44 1190.7 1707.44 1190.7 1689.44 1190.7 1671.44 1190.7 1653.44 1190.7Z" fill-rule="evenodd"/><path d="M1801.67 1093.29C1804.72 1093.29 1807.4 1093.77 1809.69 1094.71 1811.99 1095.66 1813.75 1097.02 1814.96 1098.79 1816.18 1100.56 1816.79 1102.67 1816.79 1105.13 1816.79 1107.42 1816.33 1109.44 1815.41 1111.19 1814.49 1112.93 1813.2 1114.45 1811.54 1115.75 1809.88 1117.04 1807.72 1118.31 1805.07 1119.56L1805.07 1119.92C1806.72 1120.22 1808.31 1120.72 1809.83 1121.44 1811.36 1122.16 1812.72 1123.08 1813.91 1124.22 1815.1 1125.35 1816.05 1126.71 1816.76 1128.29 1817.48 1129.87 1817.84 1131.67 1817.84 1133.7 1817.84 1136.83 1817.16 1139.62 1815.79 1142.05 1814.43 1144.48 1812.34 1146.4 1809.53 1147.8 1806.72 1149.21 1803.3 1149.91 1799.28 1149.91 1796.95 1149.91 1794.45 1149.65 1791.76 1149.12 1789.07 1148.59 1786.61 1147.9 1784.36 1147.03L1784.36 1138.44 1789.23 1138.44C1790.17 1141.25 1791.42 1143.29 1792.98 1144.56 1794.53 1145.83 1796.64 1146.47 1799.32 1146.47 1802.83 1146.47 1805.48 1145.51 1807.28 1143.59 1809.08 1141.67 1809.98 1138.83 1809.98 1135.08 1809.98 1131.13 1808.79 1128.12 1806.41 1126.04 1804.03 1123.96 1800.55 1122.92 1795.95 1122.92L1792.31 1122.92 1792.31 1119.35C1795.95 1119.14 1799.03 1118.43 1801.53 1117.25 1804.03 1116.06 1805.88 1114.53 1807.1 1112.67 1808.31 1110.8 1808.92 1108.71 1808.92 1106.38 1808.92 1103.39 1808.13 1101.08 1806.53 1099.45 1804.94 1097.83 1802.61 1097.02 1799.56 1097.02 1797.02 1097.02 1794.95 1097.71 1793.36 1099.09 1791.77 1100.47 1790.59 1102.57 1789.83 1105.41L1784.97 1105.41 1784.97 1097.71C1788.11 1096.23 1791.04 1095.12 1793.77 1094.39 1796.49 1093.66 1799.13 1093.29 1801.67 1093.29Z" fill-rule="evenodd"/><text fill="#000000" fill-opacity="0" font-family="Arial,Arial_MSFontService,sans-serif" font-size="56.6167" x="1784.36" y="1142.83">3</text><path d="M1771.39 1211.57 1813.7 1211.57 1810.54 1225.84 1806.65 1225.84C1806.65 1223.22 1806.58 1221.25 1806.44 1219.94 1806.31 1218.63 1806.05 1217.63 1805.67 1216.94 1805.29 1216.25 1804.83 1215.78 1804.27 1215.53 1803.72 1215.27 1802.74 1215.14 1801.34 1215.14L1795.34 1215.14 1786.54 1255.1C1786.3 1256.15 1786.13 1256.99 1786.04 1257.61 1785.94 1258.23 1785.86 1258.89 1785.79 1259.58 1785.73 1260.27 1785.69 1260.88 1785.69 1261.42 1785.69 1262.26 1785.83 1262.92 1786.1 1263.39 1786.37 1263.86 1786.77 1264.21 1787.31 1264.42 1787.85 1264.64 1788.79 1264.8 1790.11 1264.91L1789.66 1266.89 1772.6 1266.89 1773.05 1264.91C1774.13 1264.75 1774.93 1264.53 1775.44 1264.26 1775.95 1263.99 1776.41 1263.57 1776.8 1263 1777.19 1262.44 1777.58 1261.54 1777.97 1260.33 1778.36 1259.11 1778.83 1257.28 1779.37 1254.82L1788.04 1215.14 1782.9 1215.14C1781.22 1215.14 1779.88 1215.38 1778.88 1215.87 1777.88 1216.36 1776.89 1217.26 1775.89 1218.59 1774.89 1219.91 1773.67 1222.12 1772.24 1225.23L1768.35 1225.23Z" fill-rule="evenodd"/><text fill="#000000" fill-opacity="0" font-family="Arial,Arial_MSFontService,sans-serif" font-size="55.3198" x="1768.35" y="1259.98">𝑇</text><path d="M1821.2 1253.33C1823.12 1253.33 1824.9 1253.45 1826.52 1253.68 1828.13 1253.92 1829.71 1254.27 1831.24 1254.73L1829.81 1261.46 1827.16 1261.46C1826.94 1259.67 1826.35 1258.35 1825.38 1257.5 1824.42 1256.64 1822.93 1256.22 1820.9 1256.22 1820.09 1256.22 1819.33 1256.33 1818.64 1256.54 1817.94 1256.76 1817.35 1257.06 1816.85 1257.45 1816.35 1257.84 1815.97 1258.3 1815.69 1258.84 1815.41 1259.37 1815.27 1259.96 1815.27 1260.59 1815.27 1261.17 1815.34 1261.7 1815.48 1262.17 1815.62 1262.65 1815.89 1263.12 1816.3 1263.57 1816.71 1264.03 1817.28 1264.51 1818.03 1265 1818.77 1265.5 1819.75 1266.06 1820.96 1266.7 1822.23 1267.4 1823.29 1268.06 1824.13 1268.7 1824.98 1269.33 1825.65 1269.98 1826.14 1270.63 1826.64 1271.29 1826.99 1271.99 1827.19 1272.73 1827.38 1273.48 1827.48 1274.31 1827.48 1275.22 1827.48 1276.63 1827.2 1277.89 1826.62 1279.02 1826.04 1280.14 1825.24 1281.09 1824.21 1281.86 1823.17 1282.64 1821.96 1283.23 1820.56 1283.65 1819.16 1284.07 1817.62 1284.27 1815.96 1284.27 1814.13 1284.27 1812.33 1284.15 1810.57 1283.92 1808.8 1283.68 1806.93 1283.27 1804.97 1282.69L1806.51 1275.9 1809.11 1275.9C1809.21 1277.75 1809.79 1279.14 1810.85 1280.06 1811.91 1280.98 1813.55 1281.44 1815.78 1281.44 1817.76 1281.44 1819.33 1281.02 1820.47 1280.16 1821.61 1279.31 1822.18 1278.12 1822.18 1276.59 1822.18 1275.89 1822.11 1275.29 1821.97 1274.79 1821.83 1274.28 1821.56 1273.8 1821.15 1273.34 1820.75 1272.89 1820.19 1272.41 1819.49 1271.93 1818.78 1271.44 1817.86 1270.88 1816.73 1270.24 1815.56 1269.59 1814.55 1268.94 1813.71 1268.31 1812.86 1267.67 1812.17 1267.03 1811.62 1266.37 1811.08 1265.72 1810.67 1265.03 1810.42 1264.32 1810.16 1263.6 1810.03 1262.84 1810.03 1262.02 1810.03 1260.77 1810.29 1259.62 1810.82 1258.55 1811.34 1257.49 1812.09 1256.57 1813.07 1255.8 1814.04 1255.02 1815.21 1254.42 1816.58 1253.98 1817.95 1253.55 1819.49 1253.33 1821.2 1253.33Z" fill-rule="evenodd"/><text fill="#000000" fill-opacity="0" font-family="Arial,Arial_MSFontService,sans-serif" font-size="30.9468" x="1804.97" y="1280.41">𝑠</text><path d="M1765.78 1185.7 1783.78 1185.7 1801.78 1185.7 1819.78 1185.7 1837.78 1185.7 1837.78 1190.7 1819.78 1190.7 1801.78 1190.7 1783.78 1190.7 1765.78 1190.7Z" fill-rule="evenodd"/><path d="M1916.98 1103 1901.14 1128.17 1901.14 1128.74 1916.98 1128.74 1916.98 1118.65C1916.98 1116.11 1917.02 1113.26 1917.11 1110.12 1917.19 1106.97 1917.28 1104.6 1917.39 1103ZM1918.16 1093.84 1923.96 1093.84 1923.96 1128.74 1924.81 1128.74C1926.37 1128.74 1927.49 1128.62 1928.17 1128.39 1928.85 1128.16 1929.41 1127.76 1929.85 1127.18 1930.3 1126.6 1930.71 1125.64 1931.09 1124.32L1934.17 1124.32 1933.68 1132.67 1923.96 1132.67 1923.96 1139.32C1923.96 1141.13 1924.02 1142.45 1924.14 1143.29 1924.26 1144.12 1924.46 1144.79 1924.75 1145.27 1925.03 1145.76 1925.45 1146.16 1926 1146.49 1926.56 1146.81 1927.45 1147.14 1928.7 1147.46L1928.7 1149.45 1912.24 1149.45 1912.24 1147.46C1913.92 1147.03 1915.04 1146.55 1915.61 1146.02 1916.17 1145.5 1916.55 1144.75 1916.72 1143.77 1916.9 1142.8 1916.98 1141.32 1916.98 1139.32L1916.98 1132.67 1894.45 1132.67 1894.45 1129.63Z" fill-rule="evenodd"/><text fill="#000000" fill-opacity="0" font-family="Arial,Arial_MSFontService,sans-serif" font-size="55.6035" x="1894.45" y="1142.5">4</text><path d="M1884.19 1211.76 1926.5 1211.76 1923.34 1226.02 1919.45 1226.02C1919.45 1223.4 1919.38 1221.44 1919.25 1220.13 1919.11 1218.82 1918.85 1217.82 1918.48 1217.13 1918.1 1216.44 1917.63 1215.97 1917.08 1215.71 1916.52 1215.45 1915.55 1215.33 1914.14 1215.33L1908.14 1215.33 1899.35 1255.29C1899.1 1256.34 1898.94 1257.18 1898.84 1257.8 1898.75 1258.42 1898.67 1259.07 1898.6 1259.76 1898.53 1260.45 1898.5 1261.07 1898.5 1261.61 1898.5 1262.45 1898.63 1263.1 1898.9 1263.57 1899.17 1264.05 1899.58 1264.39 1900.12 1264.61 1900.66 1264.82 1901.59 1264.98 1902.91 1265.09L1902.47 1267.08 1885.41 1267.08 1885.85 1265.09C1886.93 1264.93 1887.73 1264.71 1888.24 1264.44 1888.76 1264.17 1889.21 1263.76 1889.6 1263.19 1889.99 1262.62 1890.38 1261.73 1890.78 1260.51 1891.17 1259.3 1891.63 1257.46 1892.17 1255L1900.85 1215.33 1895.7 1215.33C1894.03 1215.33 1892.69 1215.57 1891.69 1216.05 1890.69 1216.54 1889.69 1217.45 1888.69 1218.77 1887.69 1220.09 1886.47 1222.31 1885.04 1225.42L1881.15 1225.42Z" fill-rule="evenodd"/><text fill="#000000" fill-opacity="0" font-family="Arial,Arial_MSFontService,sans-serif" font-size="55.3198" x="1881.15" y="1260.16">𝑇</text><path d="M1934 1253.51C1935.93 1253.51 1937.7 1253.63 1939.32 1253.87 1940.94 1254.11 1942.51 1254.46 1944.04 1254.91L1942.61 1261.64 1939.96 1261.64C1939.74 1259.86 1939.15 1258.54 1938.19 1257.68 1937.22 1256.83 1935.73 1256.4 1933.7 1256.4 1932.89 1256.4 1932.14 1256.51 1931.44 1256.73 1930.75 1256.95 1930.15 1257.25 1929.65 1257.64 1929.16 1258.02 1928.77 1258.49 1928.49 1259.02 1928.21 1259.56 1928.07 1260.14 1928.07 1260.78 1928.07 1261.36 1928.14 1261.88 1928.28 1262.36 1928.42 1262.83 1928.7 1263.3 1929.1 1263.76 1929.51 1264.21 1930.09 1264.69 1930.83 1265.19 1931.57 1265.68 1932.55 1266.25 1933.76 1266.89 1935.03 1267.58 1936.09 1268.25 1936.94 1268.88 1937.78 1269.52 1938.45 1270.16 1938.95 1270.82 1939.44 1271.47 1939.79 1272.17 1939.99 1272.92 1940.19 1273.66 1940.29 1274.49 1940.29 1275.4 1940.29 1276.81 1940 1278.08 1939.42 1279.2 1938.85 1280.32 1938.04 1281.27 1937.01 1282.05 1935.98 1282.82 1934.76 1283.42 1933.36 1283.83 1931.96 1284.25 1930.43 1284.46 1928.76 1284.46 1926.93 1284.46 1925.14 1284.34 1923.37 1284.1 1921.6 1283.86 1919.74 1283.46 1917.77 1282.88L1919.32 1276.09 1921.91 1276.09C1922.01 1277.94 1922.59 1279.32 1923.65 1280.24 1924.71 1281.17 1926.36 1281.63 1928.58 1281.63 1930.57 1281.63 1932.13 1281.2 1933.27 1280.35 1934.41 1279.49 1934.99 1278.3 1934.99 1276.77 1934.99 1276.08 1934.92 1275.48 1934.78 1274.97 1934.64 1274.47 1934.36 1273.98 1933.96 1273.53 1933.55 1273.07 1932.99 1272.6 1932.29 1272.11 1931.58 1271.63 1930.67 1271.07 1929.53 1270.43 1928.36 1269.77 1927.36 1269.13 1926.51 1268.49 1925.67 1267.86 1924.97 1267.21 1924.43 1266.56 1923.88 1265.9 1923.48 1265.22 1923.22 1264.5 1922.96 1263.79 1922.83 1263.02 1922.83 1262.21 1922.83 1260.96 1923.1 1259.8 1923.62 1258.74 1924.15 1257.68 1924.9 1256.76 1925.87 1255.98 1926.84 1255.21 1928.02 1254.6 1929.39 1254.17 1930.76 1253.73 1932.29 1253.51 1934 1253.51Z" fill-rule="evenodd"/><text fill="#000000" fill-opacity="0" font-family="Arial,Arial_MSFontService,sans-serif" font-size="30.9468" x="1917.77" y="1280.59">𝑠</text><path d="M1878.59 1185.89 1896.59 1185.89 1914.59 1185.89 1932.59 1185.89 1950.59 1185.89 1950.59 1190.89 1932.59 1190.89 1914.59 1190.89 1896.59 1190.89 1878.59 1190.89Z" fill-rule="evenodd"/><path d="M2041.75 1088.96 2044.91 1088.96 2044.3 1098.36 2021 1098.36 2021 1116.15C2022.4 1115.56 2023.93 1115.11 2025.58 1114.81 2027.23 1114.52 2028.87 1114.37 2030.52 1114.37 2033.74 1114.37 2036.59 1115.02 2039.07 1116.33 2041.56 1117.64 2043.48 1119.51 2044.83 1121.93 2046.18 1124.34 2046.85 1127.15 2046.85 1130.34 2046.85 1133.96 2046.1 1137.06 2044.59 1139.66 2043.07 1142.25 2040.88 1144.22 2038.02 1145.57 2035.16 1146.93 2031.76 1147.6 2027.85 1147.6 2023.17 1147.6 2018.28 1146.64 2013.18 1144.72L2013.18 1136.13 2018.08 1136.13C2018.89 1138.89 2020.11 1140.91 2021.75 1142.21 2023.38 1143.51 2025.5 1144.16 2028.09 1144.16 2031.68 1144.16 2034.4 1143.08 2036.24 1140.91 2038.07 1138.75 2038.99 1135.52 2038.99 1131.23 2038.99 1128.36 2038.51 1125.99 2037.53 1124.12 2036.56 1122.24 2035.25 1120.88 2033.6 1120.04 2031.95 1119.2 2030.04 1118.79 2027.85 1118.79 2026.01 1118.79 2024.43 1118.9 2023.11 1119.13 2021.78 1119.36 2020.36 1119.72 2018.85 1120.2L2015.61 1118.3 2015.61 1091.63 2037.94 1091.63C2038.86 1091.63 2039.52 1091.56 2039.92 1091.41 2040.33 1091.26 2040.65 1091.03 2040.9 1090.72 2041.14 1090.41 2041.42 1089.82 2041.75 1088.96Z" fill-rule="evenodd"/><text fill="#000000" fill-opacity="0" font-family="Arial,Arial_MSFontService,sans-serif" font-size="58.6431" x="2013.18" y="1140.27">5</text><path d="M1999.96 1209.26 2042.27 1209.26 2039.11 1223.53 2035.22 1223.53C2035.22 1220.91 2035.15 1218.94 2035.01 1217.63 2034.88 1216.32 2034.62 1215.32 2034.24 1214.63 2033.86 1213.94 2033.4 1213.47 2032.85 1213.22 2032.29 1212.96 2031.31 1212.83 2029.91 1212.83L2023.91 1212.83 2015.11 1252.79C2014.87 1253.84 2014.7 1254.68 2014.61 1255.3 2014.51 1255.92 2014.43 1256.58 2014.36 1257.27 2014.3 1257.96 2014.26 1258.57 2014.26 1259.11 2014.26 1259.95 2014.4 1260.61 2014.67 1261.08 2014.94 1261.55 2015.34 1261.9 2015.88 1262.11 2016.42 1262.33 2017.36 1262.49 2018.68 1262.6L2018.23 1264.58 2001.17 1264.58 2001.62 1262.6C2002.7 1262.44 2003.5 1262.22 2004.01 1261.95 2004.52 1261.68 2004.98 1261.26 2005.37 1260.69 2005.76 1260.13 2006.15 1259.23 2006.54 1258.02 2006.93 1256.8 2007.4 1254.96 2007.94 1252.51L2016.61 1212.83 2011.47 1212.83C2009.79 1212.83 2008.45 1213.07 2007.45 1213.56 2006.46 1214.05 2005.46 1214.95 2004.46 1216.27 2003.46 1217.6 2002.24 1219.81 2000.81 1222.92L1996.92 1222.92Z" fill-rule="evenodd"/><text fill="#000000" fill-opacity="0" font-family="Arial,Arial_MSFontService,sans-serif" font-size="55.3198" x="1996.92" y="1257.67">𝑇</text><path d="M2049.77 1251.02C2051.7 1251.02 2053.47 1251.14 2055.09 1251.37 2056.7 1251.61 2058.28 1251.96 2059.81 1252.42L2058.38 1259.15 2055.73 1259.15C2055.51 1257.36 2054.92 1256.04 2053.95 1255.19 2052.99 1254.33 2051.5 1253.91 2049.47 1253.91 2048.66 1253.91 2047.9 1254.02 2047.21 1254.23 2046.51 1254.45 2045.92 1254.75 2045.42 1255.14 2044.92 1255.53 2044.54 1255.99 2044.26 1256.53 2043.98 1257.06 2043.84 1257.65 2043.84 1258.28 2043.84 1258.86 2043.91 1259.39 2044.05 1259.86 2044.19 1260.34 2044.46 1260.81 2044.87 1261.26 2045.28 1261.72 2045.85 1262.2 2046.6 1262.69 2047.34 1263.19 2048.32 1263.75 2049.53 1264.39 2050.8 1265.09 2051.86 1265.75 2052.7 1266.39 2053.55 1267.02 2054.22 1267.67 2054.71 1268.32 2055.21 1268.98 2055.56 1269.68 2055.76 1270.42 2055.95 1271.17 2056.05 1272 2056.05 1272.91 2056.05 1274.32 2055.77 1275.58 2055.19 1276.71 2054.61 1277.83 2053.81 1278.78 2052.78 1279.55 2051.74 1280.33 2050.53 1280.92 2049.13 1281.34 2047.73 1281.75 2046.19 1281.96 2044.53 1281.96 2042.7 1281.96 2040.9 1281.84 2039.14 1281.61 2037.37 1281.37 2035.5 1280.96 2033.54 1280.38L2035.08 1273.59 2037.68 1273.59C2037.78 1275.44 2038.36 1276.83 2039.42 1277.75 2040.48 1278.67 2042.12 1279.13 2044.35 1279.13 2046.33 1279.13 2047.9 1278.71 2049.04 1277.85 2050.18 1277 2050.75 1275.81 2050.75 1274.28 2050.75 1273.58 2050.68 1272.98 2050.54 1272.48 2050.4 1271.97 2050.13 1271.49 2049.72 1271.03 2049.32 1270.58 2048.76 1270.1 2048.06 1269.62 2047.35 1269.13 2046.43 1268.57 2045.3 1267.93 2044.13 1267.28 2043.12 1266.63 2042.28 1266 2041.43 1265.36 2040.74 1264.72 2040.19 1264.06 2039.65 1263.41 2039.24 1262.72 2038.99 1262.01 2038.73 1261.29 2038.6 1260.53 2038.6 1259.71 2038.6 1258.46 2038.86 1257.31 2039.39 1256.24 2039.92 1255.18 2040.66 1254.26 2041.64 1253.49 2042.61 1252.71 2043.78 1252.11 2045.15 1251.67 2046.52 1251.23 2048.06 1251.02 2049.77 1251.02Z" fill-rule="evenodd"/><text fill="#000000" fill-opacity="0" font-family="Arial,Arial_MSFontService,sans-serif" font-size="30.9468" x="2033.54" y="1278.09">𝑠</text><path d="M1994.35 1183.4 2012.35 1183.4 2030.35 1183.4 2048.35 1183.4 2066.35 1183.4 2066.35 1188.4 2048.35 1188.4 2030.35 1188.4 2012.35 1188.4 1994.35 1188.4Z" fill-rule="evenodd"/><path d="M875.978 1123.83 925.908 1123.83 925.908 1129.22 875.978 1129.22Z" fill-rule="evenodd"/><text fill="#000000" fill-opacity="0" font-family="Arial,Arial_MSFontService,sans-serif" font-size="5.39014" x="875.978" y="1128.54">−</text><path d="M966.465 1092.25 969.626 1092.25 969.018 1101.66 945.715 1101.66 945.715 1119.45C947.12 1118.85 948.647 1118.41 950.295 1118.11 951.943 1117.81 953.591 1117.67 955.239 1117.67 958.454 1117.67 961.305 1118.32 963.79 1119.63 966.276 1120.94 968.194 1122.81 969.545 1125.22 970.896 1127.64 971.572 1130.45 971.572 1133.63 971.572 1137.25 970.815 1140.36 969.302 1142.95 967.789 1145.55 965.601 1147.52 962.737 1148.87 959.873 1150.22 956.482 1150.9 952.564 1150.9 947.89 1150.9 943 1149.94 937.893 1148.02L937.893 1139.43 942.797 1139.43C943.608 1142.18 944.83 1144.21 946.465 1145.51 948.1 1146.8 950.214 1147.45 952.807 1147.45 956.401 1147.45 959.116 1146.37 960.953 1144.21 962.791 1142.05 963.709 1138.82 963.709 1134.52 963.709 1131.66 963.223 1129.29 962.25 1127.41 961.278 1125.53 959.967 1124.18 958.319 1123.34 956.671 1122.5 954.753 1122.08 952.564 1122.08 950.727 1122.08 949.147 1122.2 947.823 1122.43 946.499 1122.66 945.08 1123.02 943.567 1123.5L940.325 1121.6 940.325 1094.93 962.656 1094.93C963.574 1094.93 964.236 1094.86 964.641 1094.71 965.047 1094.56 965.371 1094.33 965.614 1094.02 965.857 1093.71 966.141 1093.12 966.465 1092.25Z" fill-rule="evenodd"/><text fill="#000000" fill-opacity="0" font-family="Arial,Arial_MSFontService,sans-serif" font-size="58.6431" x="937.893" y="1143.57">5</text><path d="M893.737 1212.56 936.047 1212.56 932.886 1226.83 928.995 1226.83C928.995 1224.21 928.928 1222.24 928.793 1220.93 928.658 1219.62 928.401 1218.62 928.023 1217.93 927.645 1217.24 927.178 1216.77 926.625 1216.51 926.071 1216.26 925.091 1216.13 923.686 1216.13L917.688 1216.13 908.894 1256.09C908.651 1257.14 908.482 1257.98 908.387 1258.6 908.293 1259.22 908.212 1259.88 908.144 1260.57 908.077 1261.25 908.043 1261.87 908.043 1262.41 908.043 1263.25 908.178 1263.9 908.448 1264.38 908.718 1264.85 909.124 1265.19 909.664 1265.41 910.204 1265.62 911.136 1265.79 912.46 1265.89L912.014 1267.88 894.952 1267.88 895.398 1265.89C896.479 1265.73 897.276 1265.52 897.789 1265.25 898.303 1264.98 898.755 1264.56 899.147 1263.99 899.539 1263.42 899.931 1262.53 900.322 1261.32 900.714 1260.1 901.18 1258.26 901.721 1255.8L910.393 1216.13 905.246 1216.13C903.571 1216.13 902.234 1216.37 901.234 1216.86 900.234 1217.34 899.235 1218.25 898.235 1219.57 897.235 1220.9 896.02 1223.11 894.588 1226.22L890.697 1226.22Z" fill-rule="evenodd"/><text fill="#000000" fill-opacity="0" font-family="Arial,Arial_MSFontService,sans-serif" font-size="55.3198" x="890.697" y="1260.97">𝑇</text><path d="M943.548 1254.31C945.474 1254.31 947.247 1254.43 948.865 1254.67 950.483 1254.91 952.057 1255.26 953.586 1255.71L952.156 1262.45 949.505 1262.45C949.287 1260.66 948.696 1259.34 947.733 1258.48 946.77 1257.63 945.276 1257.2 943.251 1257.2 942.436 1257.2 941.682 1257.31 940.987 1257.53 940.292 1257.75 939.696 1258.05 939.2 1258.44 938.703 1258.83 938.316 1259.29 938.038 1259.82 937.76 1260.36 937.621 1260.95 937.621 1261.58 937.621 1262.16 937.691 1262.68 937.83 1263.16 937.969 1263.64 938.242 1264.1 938.649 1264.56 939.056 1265.02 939.632 1265.49 940.376 1265.99 941.121 1266.49 942.099 1267.05 943.31 1267.69 944.581 1268.38 945.638 1269.05 946.482 1269.68 947.326 1270.32 947.996 1270.96 948.493 1271.62 948.989 1272.27 949.337 1272.97 949.535 1273.72 949.734 1274.46 949.833 1275.29 949.833 1276.21 949.833 1277.62 949.545 1278.88 948.969 1280 948.393 1281.13 947.589 1282.07 946.557 1282.85 945.524 1283.62 944.308 1284.22 942.908 1284.64 941.508 1285.05 939.974 1285.26 938.306 1285.26 936.479 1285.26 934.682 1285.14 932.915 1284.9 931.148 1284.66 929.281 1284.26 927.315 1283.68L928.864 1276.89 931.456 1276.89C931.555 1278.74 932.136 1280.12 933.198 1281.05 934.26 1281.97 935.904 1282.43 938.128 1282.43 940.113 1282.43 941.677 1282 942.819 1281.15 943.96 1280.3 944.531 1279.1 944.531 1277.58 944.531 1276.88 944.462 1276.28 944.323 1275.77 944.184 1275.27 943.911 1274.79 943.504 1274.33 943.097 1273.87 942.541 1273.4 941.836 1272.91 941.131 1272.43 940.212 1271.87 939.081 1271.23 937.909 1270.58 936.901 1269.93 936.057 1269.3 935.214 1268.66 934.519 1268.01 933.972 1267.36 933.426 1266.7 933.024 1266.02 932.766 1265.3 932.508 1264.59 932.379 1263.83 932.379 1263.01 932.379 1261.76 932.642 1260.6 933.168 1259.54 933.694 1258.48 934.444 1257.56 935.417 1256.79 936.39 1256.01 937.562 1255.41 938.932 1254.97 940.302 1254.53 941.841 1254.31 943.548 1254.31Z" fill-rule="evenodd"/><text fill="#000000" fill-opacity="0" font-family="Arial,Arial_MSFontService,sans-serif" font-size="30.9468" x="927.315" y="1281.39">𝑠</text><path d="M869.939 1186.7 977.939 1186.7 977.939 1191.7 869.939 1191.7Z" fill-rule="evenodd"/><path d="M988.319 1123.02 1038.25 1123.02 1038.25 1128.41 988.319 1128.41Z" fill-rule="evenodd"/><text fill="#000000" fill-opacity="0" font-family="Arial,Arial_MSFontService,sans-serif" font-size="5.39014" x="988.319" y="1127.74">−</text><path d="M1069.81 1103 1053.96 1128.17 1053.96 1128.74 1069.81 1128.74 1069.81 1118.65C1069.81 1116.11 1069.85 1113.26 1069.93 1110.12 1070.01 1106.97 1070.11 1104.6 1070.21 1103ZM1070.98 1093.84 1076.78 1093.84 1076.78 1128.74 1077.63 1128.74C1079.2 1128.74 1080.32 1128.62 1080.99 1128.39 1081.67 1128.16 1082.23 1127.76 1082.68 1127.18 1083.12 1126.6 1083.53 1125.64 1083.91 1124.32L1086.99 1124.32 1086.51 1132.67 1076.78 1132.67 1076.78 1139.32C1076.78 1141.13 1076.84 1142.45 1076.96 1143.29 1077.08 1144.12 1077.29 1144.79 1077.57 1145.27 1077.85 1145.76 1078.27 1146.16 1078.83 1146.49 1079.38 1146.81 1080.28 1147.14 1081.52 1147.46L1081.52 1149.45 1065.07 1149.45 1065.07 1147.46C1066.74 1147.03 1067.86 1146.55 1068.43 1146.02 1069 1145.5 1069.37 1144.75 1069.55 1143.77 1069.72 1142.8 1069.81 1141.32 1069.81 1139.32L1069.81 1132.67 1047.28 1132.67 1047.28 1129.63Z" fill-rule="evenodd"/><text fill="#000000" fill-opacity="0" font-family="Arial,Arial_MSFontService,sans-serif" font-size="55.6035" x="1047.28" y="1142.5">4</text><path d="M1006.08 1211.76 1048.39 1211.76 1045.23 1226.02 1041.34 1226.02C1041.34 1223.4 1041.27 1221.44 1041.13 1220.13 1041 1218.82 1040.74 1217.82 1040.36 1217.13 1039.99 1216.44 1039.52 1215.97 1038.97 1215.71 1038.41 1215.45 1037.43 1215.33 1036.03 1215.33L1030.03 1215.33 1021.23 1255.29C1020.99 1256.34 1020.82 1257.18 1020.73 1257.8 1020.63 1258.42 1020.55 1259.07 1020.49 1259.76 1020.42 1260.45 1020.38 1261.07 1020.38 1261.61 1020.38 1262.45 1020.52 1263.1 1020.79 1263.57 1021.06 1264.05 1021.46 1264.39 1022.01 1264.61 1022.55 1264.82 1023.48 1264.98 1024.8 1265.09L1024.36 1267.08 1007.29 1267.08 1007.74 1265.09C1008.82 1264.93 1009.62 1264.71 1010.13 1264.44 1010.64 1264.17 1011.1 1263.76 1011.49 1263.19 1011.88 1262.62 1012.27 1261.73 1012.66 1260.51 1013.06 1259.3 1013.52 1257.46 1014.06 1255L1022.73 1215.33 1017.59 1215.33C1015.91 1215.33 1014.58 1215.57 1013.58 1216.05 1012.58 1216.54 1011.58 1217.45 1010.58 1218.77 1009.58 1220.09 1008.36 1222.31 1006.93 1225.42L1003.04 1225.42Z" fill-rule="evenodd"/><text fill="#000000" fill-opacity="0" font-family="Arial,Arial_MSFontService,sans-serif" font-size="55.3198" x="1003.04" y="1260.16">𝑇</text><path d="M1055.89 1253.51C1057.82 1253.51 1059.59 1253.63 1061.21 1253.87 1062.82 1254.11 1064.4 1254.46 1065.93 1254.91L1064.5 1261.64 1061.85 1261.64C1061.63 1259.86 1061.04 1258.54 1060.07 1257.68 1059.11 1256.83 1057.62 1256.4 1055.59 1256.4 1054.78 1256.4 1054.02 1256.51 1053.33 1256.73 1052.63 1256.95 1052.04 1257.25 1051.54 1257.64 1051.04 1258.02 1050.66 1258.49 1050.38 1259.02 1050.1 1259.56 1049.96 1260.14 1049.96 1260.78 1049.96 1261.36 1050.03 1261.88 1050.17 1262.36 1050.31 1262.83 1050.58 1263.3 1050.99 1263.76 1051.4 1264.21 1051.97 1264.69 1052.72 1265.19 1053.46 1265.68 1054.44 1266.25 1055.65 1266.89 1056.92 1267.58 1057.98 1268.25 1058.82 1268.88 1059.67 1269.52 1060.34 1270.16 1060.83 1270.82 1061.33 1271.47 1061.68 1272.17 1061.88 1272.92 1062.07 1273.66 1062.17 1274.49 1062.17 1275.4 1062.17 1276.81 1061.89 1278.08 1061.31 1279.2 1060.73 1280.32 1059.93 1281.27 1058.9 1282.05 1057.87 1282.82 1056.65 1283.42 1055.25 1283.83 1053.85 1284.25 1052.32 1284.46 1050.65 1284.46 1048.82 1284.46 1047.02 1284.34 1045.26 1284.1 1043.49 1283.86 1041.62 1283.46 1039.66 1282.88L1041.21 1276.09 1043.8 1276.09C1043.9 1277.94 1044.48 1279.32 1045.54 1280.24 1046.6 1281.17 1048.24 1281.63 1050.47 1281.63 1052.45 1281.63 1054.02 1281.2 1055.16 1280.35 1056.3 1279.49 1056.87 1278.3 1056.87 1276.77 1056.87 1276.08 1056.8 1275.48 1056.66 1274.97 1056.52 1274.47 1056.25 1273.98 1055.84 1273.53 1055.44 1273.07 1054.88 1272.6 1054.18 1272.11 1053.47 1271.63 1052.55 1271.07 1051.42 1270.43 1050.25 1269.77 1049.24 1269.13 1048.4 1268.49 1047.55 1267.86 1046.86 1267.21 1046.31 1266.56 1045.77 1265.9 1045.37 1265.22 1045.11 1264.5 1044.85 1263.79 1044.72 1263.02 1044.72 1262.21 1044.72 1260.96 1044.98 1259.8 1045.51 1258.74 1046.04 1257.68 1046.79 1256.76 1047.76 1255.98 1048.73 1255.21 1049.9 1254.6 1051.27 1254.17 1052.64 1253.73 1054.18 1253.51 1055.89 1253.51Z" fill-rule="evenodd"/><text fill="#000000" fill-opacity="0" font-family="Arial,Arial_MSFontService,sans-serif" font-size="30.9468" x="1039.66" y="1280.59">𝑠</text><path d="M982.28 1185.89 1090.28 1185.89 1090.28 1190.89 982.28 1190.89Z" fill-rule="evenodd"/><path d="M1100.66 1122.84 1150.59 1122.84 1150.59 1128.23 1100.66 1128.23Z" fill-rule="evenodd"/><text fill="#000000" fill-opacity="0" font-family="Arial,Arial_MSFontService,sans-serif" font-size="5.39014" x="1100.66" y="1127.55">−</text><path d="M1179.64 1093.29C1182.69 1093.29 1185.37 1093.77 1187.66 1094.71 1189.96 1095.66 1191.72 1097.02 1192.93 1098.79 1194.15 1100.56 1194.75 1102.67 1194.75 1105.13 1194.75 1107.42 1194.3 1109.44 1193.38 1111.19 1192.46 1112.93 1191.17 1114.45 1189.51 1115.75 1187.84 1117.04 1185.69 1118.31 1183.04 1119.56L1183.04 1119.92C1184.69 1120.22 1186.28 1120.72 1187.8 1121.44 1189.33 1122.16 1190.69 1123.08 1191.88 1124.22 1193.07 1125.35 1194.02 1126.71 1194.73 1128.29 1195.45 1129.87 1195.81 1131.67 1195.81 1133.7 1195.81 1136.83 1195.13 1139.62 1193.76 1142.05 1192.4 1144.48 1190.31 1146.4 1187.5 1147.8 1184.69 1149.21 1181.27 1149.91 1177.25 1149.91 1174.92 1149.91 1172.42 1149.65 1169.73 1149.12 1167.04 1148.59 1164.58 1147.9 1162.33 1147.03L1162.33 1138.44 1167.2 1138.44C1168.14 1141.25 1169.39 1143.29 1170.94 1144.56 1172.5 1145.83 1174.61 1146.47 1177.29 1146.47 1180.8 1146.47 1183.45 1145.51 1185.25 1143.59 1187.05 1141.67 1187.95 1138.83 1187.95 1135.08 1187.95 1131.13 1186.76 1128.12 1184.38 1126.04 1182 1123.96 1178.52 1122.92 1173.92 1122.92L1170.28 1122.92 1170.28 1119.35C1173.92 1119.14 1177 1118.43 1179.5 1117.25 1182 1116.06 1183.85 1114.53 1185.07 1112.67 1186.28 1110.8 1186.89 1108.71 1186.89 1106.38 1186.89 1103.39 1186.1 1101.08 1184.5 1099.45 1182.91 1097.83 1180.58 1097.02 1177.53 1097.02 1174.99 1097.02 1172.92 1097.71 1171.33 1099.09 1169.74 1100.47 1168.56 1102.57 1167.8 1105.41L1162.94 1105.41 1162.94 1097.71C1166.07 1096.23 1169.01 1095.12 1171.74 1094.39 1174.46 1093.66 1177.1 1093.29 1179.64 1093.29Z" fill-rule="evenodd"/><text fill="#000000" fill-opacity="0" font-family="Arial,Arial_MSFontService,sans-serif" font-size="56.6167" x="1162.33" y="1142.83">3</text><path d="M1118.42 1211.57 1160.73 1211.57 1157.57 1225.84 1153.68 1225.84C1153.68 1223.22 1153.61 1221.25 1153.48 1219.94 1153.34 1218.63 1153.08 1217.63 1152.71 1216.94 1152.33 1216.25 1151.86 1215.78 1151.31 1215.53 1150.75 1215.27 1149.77 1215.14 1148.37 1215.14L1142.37 1215.14 1133.58 1255.1C1133.33 1256.15 1133.16 1256.99 1133.07 1257.61 1132.98 1258.23 1132.89 1258.89 1132.83 1259.58 1132.76 1260.27 1132.73 1260.88 1132.73 1261.42 1132.73 1262.26 1132.86 1262.92 1133.13 1263.39 1133.4 1263.86 1133.81 1264.21 1134.35 1264.42 1134.89 1264.64 1135.82 1264.8 1137.14 1264.91L1136.7 1266.89 1119.64 1266.89 1120.08 1264.91C1121.16 1264.75 1121.96 1264.53 1122.47 1264.26 1122.99 1263.99 1123.44 1263.57 1123.83 1263 1124.22 1262.44 1124.61 1261.54 1125 1260.33 1125.4 1259.11 1125.86 1257.28 1126.4 1254.82L1135.08 1215.14 1129.93 1215.14C1128.25 1215.14 1126.92 1215.38 1125.92 1215.87 1124.92 1216.36 1123.92 1217.26 1122.92 1218.59 1121.92 1219.91 1120.7 1222.12 1119.27 1225.23L1115.38 1225.23Z" fill-rule="evenodd"/><text fill="#000000" fill-opacity="0" font-family="Arial,Arial_MSFontService,sans-serif" font-size="55.3198" x="1115.38" y="1259.98">𝑇</text><path d="M1168.23 1253.33C1170.16 1253.33 1171.93 1253.45 1173.55 1253.68 1175.17 1253.92 1176.74 1254.27 1178.27 1254.73L1176.84 1261.46 1174.19 1261.46C1173.97 1259.67 1173.38 1258.35 1172.42 1257.5 1171.45 1256.64 1169.96 1256.22 1167.93 1256.22 1167.12 1256.22 1166.36 1256.33 1165.67 1256.54 1164.97 1256.76 1164.38 1257.06 1163.88 1257.45 1163.39 1257.84 1163 1258.3 1162.72 1258.84 1162.44 1259.37 1162.3 1259.96 1162.3 1260.59 1162.3 1261.17 1162.37 1261.7 1162.51 1262.17 1162.65 1262.65 1162.92 1263.12 1163.33 1263.57 1163.74 1264.03 1164.31 1264.51 1165.06 1265 1165.8 1265.5 1166.78 1266.06 1167.99 1266.7 1169.26 1267.4 1170.32 1268.06 1171.16 1268.7 1172.01 1269.33 1172.68 1269.98 1173.18 1270.63 1173.67 1271.29 1174.02 1271.99 1174.22 1272.73 1174.42 1273.48 1174.52 1274.31 1174.52 1275.22 1174.52 1276.63 1174.23 1277.89 1173.65 1279.02 1173.08 1280.14 1172.27 1281.09 1171.24 1281.86 1170.21 1282.64 1168.99 1283.23 1167.59 1283.65 1166.19 1284.07 1164.66 1284.27 1162.99 1284.27 1161.16 1284.27 1159.36 1284.15 1157.6 1283.92 1155.83 1283.68 1153.96 1283.27 1152 1282.69L1153.55 1275.9 1156.14 1275.9C1156.24 1277.75 1156.82 1279.14 1157.88 1280.06 1158.94 1280.98 1160.59 1281.44 1162.81 1281.44 1164.8 1281.44 1166.36 1281.02 1167.5 1280.16 1168.64 1279.31 1169.21 1278.12 1169.21 1276.59 1169.21 1275.89 1169.14 1275.29 1169.01 1274.79 1168.87 1274.28 1168.59 1273.8 1168.19 1273.34 1167.78 1272.89 1167.22 1272.41 1166.52 1271.93 1165.81 1271.44 1164.9 1270.88 1163.76 1270.24 1162.59 1269.59 1161.58 1268.94 1160.74 1268.31 1159.9 1267.67 1159.2 1267.03 1158.66 1266.37 1158.11 1265.72 1157.71 1265.03 1157.45 1264.32 1157.19 1263.6 1157.06 1262.84 1157.06 1262.02 1157.06 1260.77 1157.32 1259.62 1157.85 1258.55 1158.38 1257.49 1159.13 1256.57 1160.1 1255.8 1161.07 1255.02 1162.24 1254.42 1163.61 1253.98 1164.98 1253.55 1166.52 1253.33 1168.23 1253.33Z" fill-rule="evenodd"/><text fill="#000000" fill-opacity="0" font-family="Arial,Arial_MSFontService,sans-serif" font-size="30.9468" x="1152" y="1280.41">𝑠</text><path d="M1094.62 1185.7 1202.62 1185.7 1202.62 1190.7 1094.62 1190.7Z" fill-rule="evenodd"/><path d="M1213.46 1122.84 1263.39 1122.84 1263.39 1128.23 1213.46 1128.23Z" fill-rule="evenodd"/><text fill="#000000" fill-opacity="0" font-family="Arial,Arial_MSFontService,sans-serif" font-size="5.39014" x="1213.46" y="1127.55">−</text><path d="M1292.6 1093.29C1297.63 1093.29 1301.42 1094.4 1303.99 1096.6 1306.56 1098.8 1307.84 1101.99 1307.84 1106.18 1307.84 1107.61 1307.7 1108.93 1307.42 1110.13 1307.13 1111.34 1306.69 1112.52 1306.08 1113.7 1305.47 1114.88 1304.65 1116.14 1303.63 1117.49 1302.6 1118.84 1301.47 1120.21 1300.22 1121.6 1298.98 1122.99 1296.83 1125.31 1293.78 1128.55 1288.65 1133.98 1284.88 1138.73 1282.47 1142.78L1297.75 1142.78C1299.07 1142.78 1300.14 1142.7 1300.95 1142.53 1301.76 1142.37 1302.41 1142.1 1302.9 1141.72 1303.38 1141.35 1303.77 1140.85 1304.05 1140.25 1304.34 1139.64 1304.69 1138.7 1305.13 1137.43L1308.57 1137.43 1307.88 1149.26 1274.53 1149.26 1274.53 1147.32C1275.69 1144.48 1277.26 1141.58 1279.23 1138.6 1281.2 1135.63 1284 1132.13 1287.62 1128.11 1290.75 1124.65 1293.01 1122.03 1294.39 1120.24 1295.9 1118.3 1297.03 1116.62 1297.77 1115.2 1298.51 1113.78 1299.05 1112.44 1299.37 1111.19 1299.7 1109.93 1299.86 1108.67 1299.86 1107.4 1299.86 1105.37 1299.53 1103.58 1298.89 1102.03 1298.24 1100.47 1297.24 1099.25 1295.91 1098.36 1294.57 1097.47 1292.89 1097.02 1290.86 1097.02 1285.81 1097.02 1282.4 1099.83 1280.65 1105.45L1275.74 1105.45 1275.74 1097.67C1279.01 1096.13 1282.07 1095.02 1284.92 1094.33 1287.77 1093.64 1290.33 1093.29 1292.6 1093.29Z" fill-rule="evenodd"/><text fill="#000000" fill-opacity="0" font-family="Arial,Arial_MSFontService,sans-serif" font-size="55.9683" x="1274.53" y="1142.27">2</text><path d="M1231.22 1211.57 1273.53 1211.57 1270.37 1225.84 1266.48 1225.84C1266.48 1223.22 1266.41 1221.25 1266.28 1219.94 1266.14 1218.63 1265.89 1217.63 1265.51 1216.94 1265.13 1216.25 1264.66 1215.78 1264.11 1215.53 1263.56 1215.27 1262.58 1215.14 1261.17 1215.14L1255.17 1215.14 1246.38 1255.1C1246.14 1256.15 1245.97 1256.99 1245.87 1257.61 1245.78 1258.23 1245.7 1258.89 1245.63 1259.58 1245.56 1260.27 1245.53 1260.88 1245.53 1261.42 1245.53 1262.26 1245.66 1262.92 1245.93 1263.39 1246.2 1263.86 1246.61 1264.21 1247.15 1264.42 1247.69 1264.64 1248.62 1264.8 1249.95 1264.91L1249.5 1266.89 1232.44 1266.89 1232.88 1264.91C1233.96 1264.75 1234.76 1264.53 1235.28 1264.26 1235.79 1263.99 1236.24 1263.57 1236.63 1263 1237.02 1262.44 1237.42 1261.54 1237.81 1260.33 1238.2 1259.11 1238.67 1257.28 1239.21 1254.82L1247.88 1215.14 1242.73 1215.14C1241.06 1215.14 1239.72 1215.38 1238.72 1215.87 1237.72 1216.36 1236.72 1217.26 1235.72 1218.59 1234.72 1219.91 1233.51 1222.12 1232.07 1225.23L1228.18 1225.23Z" fill-rule="evenodd"/><text fill="#000000" fill-opacity="0" font-family="Arial,Arial_MSFontService,sans-serif" font-size="55.3198" x="1228.18" y="1259.98">𝑇</text><path d="M1281.03 1253.33C1282.96 1253.33 1284.73 1253.45 1286.35 1253.68 1287.97 1253.92 1289.54 1254.27 1291.07 1254.73L1289.64 1261.46 1286.99 1261.46C1286.77 1259.67 1286.18 1258.35 1285.22 1257.5 1284.26 1256.64 1282.76 1256.22 1280.74 1256.22 1279.92 1256.22 1279.17 1256.33 1278.47 1256.54 1277.78 1256.76 1277.18 1257.06 1276.69 1257.45 1276.19 1257.84 1275.8 1258.3 1275.52 1258.84 1275.25 1259.37 1275.11 1259.96 1275.11 1260.59 1275.11 1261.17 1275.18 1261.7 1275.32 1262.17 1275.45 1262.65 1275.73 1263.12 1276.13 1263.57 1276.54 1264.03 1277.12 1264.51 1277.86 1265 1278.61 1265.5 1279.58 1266.06 1280.8 1266.7 1282.07 1267.4 1283.12 1268.06 1283.97 1268.7 1284.81 1269.33 1285.48 1269.98 1285.98 1270.63 1286.48 1271.29 1286.82 1271.99 1287.02 1272.73 1287.22 1273.48 1287.32 1274.31 1287.32 1275.22 1287.32 1276.63 1287.03 1277.89 1286.46 1279.02 1285.88 1280.14 1285.08 1281.09 1284.04 1281.86 1283.01 1282.64 1281.79 1283.23 1280.39 1283.65 1278.99 1284.07 1277.46 1284.27 1275.79 1284.27 1273.97 1284.27 1272.17 1284.15 1270.4 1283.92 1268.63 1283.68 1266.77 1283.27 1264.8 1282.69L1266.35 1275.9 1268.94 1275.9C1269.04 1277.75 1269.62 1279.14 1270.68 1280.06 1271.75 1280.98 1273.39 1281.44 1275.61 1281.44 1277.6 1281.44 1279.16 1281.02 1280.3 1280.16 1281.45 1279.31 1282.02 1278.12 1282.02 1276.59 1282.02 1275.89 1281.95 1275.29 1281.81 1274.79 1281.67 1274.28 1281.4 1273.8 1280.99 1273.34 1280.58 1272.89 1280.03 1272.41 1279.32 1271.93 1278.62 1271.44 1277.7 1270.88 1276.57 1270.24 1275.4 1269.59 1274.39 1268.94 1273.54 1268.31 1272.7 1267.67 1272 1267.03 1271.46 1266.37 1270.91 1265.72 1270.51 1265.03 1270.25 1264.32 1269.99 1263.6 1269.86 1262.84 1269.86 1262.02 1269.86 1260.77 1270.13 1259.62 1270.65 1258.55 1271.18 1257.49 1271.93 1256.57 1272.9 1255.8 1273.88 1255.02 1275.05 1254.42 1276.42 1253.98 1277.79 1253.55 1279.33 1253.33 1281.03 1253.33Z" fill-rule="evenodd"/><text fill="#000000" fill-opacity="0" font-family="Arial,Arial_MSFontService,sans-serif" font-size="30.9468" x="1264.8" y="1280.41">𝑠</text><path d="M1207.43 1185.7 1315.43 1185.7 1315.43 1190.7 1207.43 1190.7Z" fill-rule="evenodd"/><path d="M1329.23 1122.84 1379.16 1122.84 1379.16 1128.23 1329.23 1128.23Z" fill-rule="evenodd"/><text fill="#000000" fill-opacity="0" font-family="Arial,Arial_MSFontService,sans-serif" font-size="5.39014" x="1329.23" y="1127.55">−</text><path d="M1411.25 1093.29 1413.48 1093.29C1413.31 1095.89 1413.23 1099.48 1413.23 1104.07L1413.23 1138.68C1413.23 1140.25 1413.32 1141.43 1413.5 1142.23 1413.67 1143.03 1413.98 1143.68 1414.43 1144.18 1414.87 1144.68 1415.52 1145.07 1416.35 1145.35 1417.19 1145.64 1418.25 1145.85 1419.52 1146 1420.79 1146.15 1422.46 1146.25 1424.54 1146.3L1424.54 1149.26 1394.59 1149.26 1394.59 1146.3C1397.59 1146.17 1399.73 1145.99 1401.01 1145.76 1402.3 1145.53 1403.28 1145.18 1403.95 1144.72 1404.63 1144.26 1405.12 1143.62 1405.43 1142.78 1405.74 1141.94 1405.9 1140.58 1405.9 1138.68L1405.9 1105.82C1405.9 1104.74 1405.71 1103.95 1405.33 1103.45 1404.95 1102.95 1404.4 1102.7 1403.67 1102.7 1402.8 1102.7 1401.58 1103.14 1399.98 1104.03 1398.39 1104.93 1396.41 1106.15 1394.06 1107.72L1392.28 1104.6Z" fill-rule="evenodd"/><text fill="#000000" fill-opacity="0" font-family="Arial,Arial_MSFontService,sans-serif" font-size="55.9683" x="1392.28" y="1142.27">1</text><path d="M1346.99 1211.57 1389.3 1211.57 1386.14 1225.84 1382.25 1225.84C1382.25 1223.22 1382.18 1221.25 1382.05 1219.94 1381.91 1218.63 1381.65 1217.63 1381.28 1216.94 1380.9 1216.25 1380.43 1215.78 1379.88 1215.53 1379.32 1215.27 1378.34 1215.14 1376.94 1215.14L1370.94 1215.14 1362.15 1255.1C1361.9 1256.15 1361.73 1256.99 1361.64 1257.61 1361.55 1258.23 1361.46 1258.89 1361.4 1259.58 1361.33 1260.27 1361.3 1260.88 1361.3 1261.42 1361.3 1262.26 1361.43 1262.92 1361.7 1263.39 1361.97 1263.86 1362.38 1264.21 1362.92 1264.42 1363.46 1264.64 1364.39 1264.8 1365.71 1264.91L1365.27 1266.89 1348.21 1266.89 1348.65 1264.91C1349.73 1264.75 1350.53 1264.53 1351.04 1264.26 1351.56 1263.99 1352.01 1263.57 1352.4 1263 1352.79 1262.44 1353.18 1261.54 1353.57 1260.33 1353.97 1259.11 1354.43 1257.28 1354.97 1254.82L1363.65 1215.14 1358.5 1215.14C1356.82 1215.14 1355.49 1215.38 1354.49 1215.87 1353.49 1216.36 1352.49 1217.26 1351.49 1218.59 1350.49 1219.91 1349.27 1222.12 1347.84 1225.23L1343.95 1225.23Z" fill-rule="evenodd"/><text fill="#000000" fill-opacity="0" font-family="Arial,Arial_MSFontService,sans-serif" font-size="55.3198" x="1343.95" y="1259.98">𝑇</text><path d="M1396.8 1253.33C1398.73 1253.33 1400.5 1253.45 1402.12 1253.68 1403.74 1253.92 1405.31 1254.27 1406.84 1254.73L1405.41 1261.46 1402.76 1261.46C1402.54 1259.67 1401.95 1258.35 1400.99 1257.5 1400.02 1256.64 1398.53 1256.22 1396.5 1256.22 1395.69 1256.22 1394.93 1256.33 1394.24 1256.54 1393.54 1256.76 1392.95 1257.06 1392.45 1257.45 1391.96 1257.84 1391.57 1258.3 1391.29 1258.84 1391.01 1259.37 1390.87 1259.96 1390.87 1260.59 1390.87 1261.17 1390.94 1261.7 1391.08 1262.17 1391.22 1262.65 1391.49 1263.12 1391.9 1263.57 1392.31 1264.03 1392.88 1264.51 1393.63 1265 1394.37 1265.5 1395.35 1266.06 1396.56 1266.7 1397.83 1267.4 1398.89 1268.06 1399.73 1268.7 1400.58 1269.33 1401.25 1269.98 1401.75 1270.63 1402.24 1271.29 1402.59 1271.99 1402.79 1272.73 1402.99 1273.48 1403.09 1274.31 1403.09 1275.22 1403.09 1276.63 1402.8 1277.89 1402.22 1279.02 1401.65 1280.14 1400.84 1281.09 1399.81 1281.86 1398.78 1282.64 1397.56 1283.23 1396.16 1283.65 1394.76 1284.07 1393.23 1284.27 1391.56 1284.27 1389.73 1284.27 1387.93 1284.15 1386.17 1283.92 1384.4 1283.68 1382.53 1283.27 1380.57 1282.69L1382.12 1275.9 1384.71 1275.9C1384.81 1277.75 1385.39 1279.14 1386.45 1280.06 1387.51 1280.98 1389.16 1281.44 1391.38 1281.44 1393.37 1281.44 1394.93 1281.02 1396.07 1280.16 1397.21 1279.31 1397.78 1278.12 1397.78 1276.59 1397.78 1275.89 1397.71 1275.29 1397.58 1274.79 1397.44 1274.28 1397.16 1273.8 1396.76 1273.34 1396.35 1272.89 1395.79 1272.41 1395.09 1271.93 1394.38 1271.44 1393.47 1270.88 1392.33 1270.24 1391.16 1269.59 1390.15 1268.94 1389.31 1268.31 1388.47 1267.67 1387.77 1267.03 1387.23 1266.37 1386.68 1265.72 1386.28 1265.03 1386.02 1264.32 1385.76 1263.6 1385.63 1262.84 1385.63 1262.02 1385.63 1260.77 1385.89 1259.62 1386.42 1258.55 1386.95 1257.49 1387.7 1256.57 1388.67 1255.8 1389.64 1255.02 1390.81 1254.42 1392.18 1253.98 1393.55 1253.55 1395.09 1253.33 1396.8 1253.33Z" fill-rule="evenodd"/><text fill="#000000" fill-opacity="0" font-family="Arial,Arial_MSFontService,sans-serif" font-size="30.9468" x="1380.57" y="1280.41">𝑠</text><path d="M1323.19 1185.7 1431.19 1185.7 1431.19 1190.7 1323.19 1190.7Z" fill-rule="evenodd"/><path d="M906.5 911.5 906.5 1062.16" stroke="#000000" stroke-width="6.875" stroke-miterlimit="8" stroke-dasharray="6.875 6.875" fill="none" fill-rule="evenodd"/><path d="M1500.06 1073.89C1497.14 1073.89 1494.42 1074.93 1491.9 1077.01 1489.37 1079.09 1487.15 1082.07 1485.25 1085.93 1483.34 1089.79 1481.86 1094.03 1480.81 1098.65 1479.76 1103.27 1479.23 1107.35 1479.23 1110.89 1479.23 1119.24 1482.27 1123.42 1488.35 1123.42 1492.05 1123.42 1495.45 1121.71 1498.54 1118.31 1501.64 1114.91 1504.17 1110.13 1506.14 1103.98 1508.11 1097.84 1509.1 1091.94 1509.1 1086.29 1509.1 1078.03 1506.09 1073.89 1500.06 1073.89ZM1500.51 1070.33C1505.72 1070.33 1509.74 1071.84 1512.56 1074.86 1515.39 1077.89 1516.8 1082.27 1516.8 1088 1516.8 1092.18 1516.08 1096.89 1514.65 1102.12 1513.22 1107.35 1511.15 1111.87 1508.43 1115.7 1505.71 1119.52 1502.61 1122.36 1499.13 1124.21 1495.64 1126.06 1492 1126.98 1488.19 1126.98 1482.76 1126.98 1478.64 1125.47 1475.83 1122.44 1473.02 1119.42 1471.61 1115.09 1471.61 1109.48 1471.61 1105.42 1472.29 1100.84 1473.66 1095.74 1475.02 1090.63 1476.99 1086.12 1479.57 1082.22 1482.15 1078.32 1485.23 1075.36 1488.81 1073.35 1492.39 1071.33 1496.29 1070.33 1500.51 1070.33Z" fill-rule="evenodd"/><text fill="#000000" fill-opacity="0" font-family="Arial,Arial_MSFontService,sans-serif" font-size="56.6572" x="1471.61" y="1119.9">𝑂</text></g></svg>