<svg width="1203" height="1019" xmlns="http://www.w3.org/2000/svg" xmlns:xlink="http://www.w3.org/1999/xlink" xml:space="preserve" overflow="hidden"><g transform="translate(-632 -912)"><path d="M662.693 1805.59C663.53 1805.59 664.266 1805.68 664.901 1805.87 665.536 1806.06 666.097 1806.35 666.583 1806.74 667.07 1807.14 667.502 1807.64 667.88 1808.26 668.258 1808.89 668.623 1809.73 668.974 1810.8 669.326 1811.86 669.657 1813.19 669.967 1814.77 670.278 1816.35 670.555 1817.99 670.798 1819.69L671.203 1819.69C673.797 1816.05 675.763 1813.38 677.1 1811.69 678.438 1810 679.565 1808.74 680.484 1807.92 681.403 1807.1 682.288 1806.52 683.139 1806.18 683.99 1805.84 685.118 1805.67 686.523 1805.67 687.793 1805.67 688.833 1805.83 689.643 1806.16L688.022 1813.49 685.185 1813.49C685.023 1812.36 684.55 1811.79 683.767 1811.79 683.524 1811.79 683.267 1811.83 682.997 1811.91 682.727 1811.99 682.396 1812.17 682.004 1812.44 681.612 1812.71 681.038 1813.24 680.281 1814.02 679.525 1814.8 678.674 1815.76 677.728 1816.9 676.783 1818.03 675.81 1819.22 674.81 1820.46L672.054 1823.91C672.541 1826.5 673 1828.74 673.432 1830.64 673.865 1832.53 674.25 1834.1 674.587 1835.36 674.925 1836.61 675.222 1837.61 675.479 1838.34 675.736 1839.07 676.013 1839.61 676.31 1839.98 676.607 1840.34 676.911 1840.6 677.222 1840.75 677.532 1840.9 677.89 1840.97 678.296 1840.97 679.025 1840.97 679.734 1840.69 680.423 1840.12 681.112 1839.55 682.105 1838.27 683.402 1836.27L686.036 1838.01C684.145 1840.82 682.436 1842.8 680.91 1843.95 679.383 1845.1 677.566 1845.67 675.459 1845.67 674.297 1845.67 673.311 1845.46 672.5 1845.04 671.69 1844.62 670.987 1843.96 670.393 1843.04 669.798 1842.12 669.272 1840.69 668.812 1838.74 667.975 1835.28 667.461 1832.64 667.272 1830.8L666.867 1830.8C664.003 1834.82 661.875 1837.71 660.484 1839.47 659.092 1841.23 657.944 1842.52 657.039 1843.36 656.134 1844.2 655.256 1844.79 654.405 1845.12 653.554 1845.46 652.426 1845.63 651.021 1845.63 649.751 1845.63 648.711 1845.47 647.9 1845.14L649.521 1837.81 652.358 1837.81C652.52 1838.94 652.993 1839.51 653.777 1839.51 654.155 1839.51 654.553 1839.41 654.972 1839.21 655.391 1839 655.992 1838.52 656.776 1837.75 657.559 1836.98 658.64 1835.77 660.018 1834.12 661.396 1832.47 663.395 1830 666.016 1826.7 665.611 1824.57 665.192 1822.52 664.76 1820.54 664.327 1818.57 663.881 1816.73 663.422 1815.03 662.963 1813.33 662.585 1812.22 662.287 1811.69 661.99 1811.16 661.673 1810.8 661.335 1810.6 660.997 1810.39 660.572 1810.29 660.058 1810.29 659.491 1810.29 658.978 1810.42 658.518 1810.68 658.059 1810.93 657.559 1811.38 657.019 1812.01 656.478 1812.65 655.762 1813.64 654.871 1814.99L652.237 1813.25C653.939 1810.68 655.573 1808.76 657.14 1807.49 658.707 1806.22 660.558 1805.59 662.693 1805.59Z" fill-rule="evenodd"/><text fill="#000000" fill-opacity="0" font-family="Arial,Arial_MSFontService,sans-serif" font-size="40.0815" x="647.9" y="1840.66">洧논</text><path d="M716.297 1821.87 718.978 1821.87 718.561 1829.07 701.107 1829.07 701.107 1840.72C702.159 1840.36 703.311 1840.07 704.562 1839.86 705.813 1839.64 707.074 1839.53 708.344 1839.53 710.171 1839.53 711.824 1839.78 713.304 1840.29 714.783 1840.79 716.054 1841.52 717.116 1842.46 718.179 1843.41 719.003 1844.55 719.588 1845.89 720.174 1847.23 720.467 1848.73 720.467 1850.4 720.467 1852.31 720.139 1854 719.484 1855.49 718.829 1856.98 717.891 1858.25 716.669 1859.29 715.448 1860.33 713.959 1861.13 712.202 1861.67 710.444 1862.22 708.464 1862.49 706.26 1862.49 704.512 1862.49 702.725 1862.32 700.898 1861.99 699.071 1861.65 697.175 1861.15 695.209 1860.5L695.209 1853.88 699.022 1853.88C699.617 1855.89 700.511 1857.32 701.702 1858.19 702.894 1859.05 704.462 1859.48 706.408 1859.48 709.01 1859.48 710.976 1858.81 712.306 1857.46 713.636 1856.11 714.302 1853.99 714.302 1851.11 714.302 1848.35 713.597 1846.3 712.187 1844.96 710.777 1843.62 708.801 1842.95 706.26 1842.95 705.584 1842.95 704.974 1842.96 704.428 1842.98 703.882 1843 703.341 1843.05 702.804 1843.13 702.268 1843.21 701.737 1843.32 701.211 1843.46 700.685 1843.6 700.094 1843.76 699.439 1843.94L696.996 1842.6 696.996 1823.86 713.497 1823.86C713.974 1823.84 714.356 1823.81 714.644 1823.77 714.932 1823.73 715.165 1823.64 715.344 1823.5 715.523 1823.36 715.682 1823.17 715.821 1822.92 715.96 1822.67 716.118 1822.32 716.297 1821.87Z" fill-rule="evenodd"/><text fill="#000000" fill-opacity="0" font-family="Arial,Arial_MSFontService,sans-serif" font-size="40.627" x="695.209" y="1857.41">5</text><path d="M662.693 1595.98C663.53 1595.98 664.266 1596.07 664.901 1596.26 665.536 1596.45 666.097 1596.74 666.583 1597.13 667.07 1597.52 667.502 1598.03 667.88 1598.65 668.258 1599.27 668.623 1600.12 668.974 1601.18 669.326 1602.25 669.657 1603.57 669.967 1605.16 670.278 1606.74 670.555 1608.38 670.798 1610.08L671.203 1610.08C673.797 1606.43 675.763 1603.76 677.1 1602.08 678.438 1600.39 679.565 1599.13 680.484 1598.31 681.403 1597.48 682.288 1596.9 683.139 1596.56 683.99 1596.23 685.118 1596.06 686.523 1596.06 687.793 1596.06 688.833 1596.22 689.643 1596.54L688.022 1603.88 685.185 1603.88C685.023 1602.74 684.55 1602.18 683.767 1602.18 683.524 1602.18 683.267 1602.22 682.997 1602.3 682.727 1602.38 682.396 1602.56 682.004 1602.83 681.612 1603.1 681.038 1603.62 680.281 1604.41 679.525 1605.19 678.674 1606.15 677.728 1607.28 676.783 1608.42 675.81 1609.61 674.81 1610.85L672.054 1614.29C672.541 1616.89 673 1619.13 673.432 1621.02 673.865 1622.91 674.25 1624.49 674.587 1625.74 674.925 1627 675.222 1627.99 675.479 1628.72 675.736 1629.45 676.013 1630 676.31 1630.36 676.607 1630.73 676.911 1630.98 677.222 1631.13 677.532 1631.28 677.89 1631.36 678.296 1631.36 679.025 1631.36 679.734 1631.07 680.423 1630.51 681.112 1629.94 682.105 1628.65 683.402 1626.66L686.036 1628.4C684.145 1631.21 682.436 1633.19 680.91 1634.34 679.383 1635.48 677.566 1636.06 675.459 1636.06 674.297 1636.06 673.311 1635.85 672.5 1635.43 671.69 1635.01 670.987 1634.34 670.393 1633.42 669.798 1632.5 669.272 1631.07 668.812 1629.13 667.975 1625.67 667.461 1623.02 667.272 1621.18L666.867 1621.18C664.003 1625.21 661.875 1628.1 660.484 1629.86 659.092 1631.61 657.944 1632.91 657.039 1633.75 656.134 1634.59 655.256 1635.17 654.405 1635.51 653.554 1635.85 652.426 1636.02 651.021 1636.02 649.751 1636.02 648.711 1635.85 647.9 1635.53L649.521 1628.2 652.358 1628.2C652.52 1629.33 652.993 1629.9 653.777 1629.9 654.155 1629.9 654.553 1629.8 654.972 1629.59 655.391 1629.39 655.992 1628.9 656.776 1628.13 657.559 1627.36 658.64 1626.16 660.018 1624.51 661.396 1622.86 663.395 1620.39 666.016 1617.09 665.611 1614.96 665.192 1612.9 664.76 1610.93 664.327 1608.96 663.881 1607.12 663.422 1605.42 662.963 1603.72 662.585 1602.6 662.287 1602.08 661.99 1601.55 661.673 1601.18 661.335 1600.98 660.997 1600.78 660.572 1600.68 660.058 1600.68 659.491 1600.68 658.978 1600.81 658.518 1601.06 658.059 1601.32 657.559 1601.76 657.019 1602.4 656.478 1603.03 655.762 1604.03 654.871 1605.38L652.237 1603.64C653.939 1601.07 655.573 1599.15 657.14 1597.88 658.707 1596.61 660.558 1595.98 662.693 1595.98Z" fill-rule="evenodd"/><text fill="#000000" fill-opacity="0" font-family="Arial,Arial_MSFontService,sans-serif" font-size="40.0815" x="647.9" y="1631.05">洧논</text><path d="M709.178 1621.07C707.272 1623.83 705.371 1626.57 703.475 1629.29 701.578 1632.01 699.667 1634.74 697.741 1637.48L697.741 1637.84 709.178 1637.84 709.178 1631.85C709.178 1631.17 709.188 1630.34 709.208 1629.35 709.228 1628.36 709.253 1627.35 709.283 1626.32 709.312 1625.3 709.347 1624.33 709.387 1623.41 709.427 1622.48 709.466 1621.7 709.506 1621.07ZM710.042 1614.1 714.778 1614.1 714.778 1637.84 715.314 1637.84C716.128 1637.84 716.789 1637.8 717.295 1637.72 717.801 1637.64 718.208 1637.47 718.516 1637.23 718.824 1636.98 719.082 1636.63 719.291 1636.18 719.499 1635.74 719.722 1635.16 719.961 1634.44L722.492 1634.44C722.433 1635.53 722.368 1636.62 722.299 1637.69 722.229 1638.76 722.165 1639.85 722.105 1640.96L714.778 1640.96 714.778 1644.87C714.778 1646.02 714.803 1646.91 714.853 1647.55 714.902 1648.18 715.051 1648.68 715.299 1649.04 715.548 1649.39 715.915 1649.66 716.401 1649.84 716.888 1650.02 717.568 1650.23 718.442 1650.47L718.442 1652.25 705.574 1652.25 705.574 1650.47C706.17 1650.31 706.677 1650.16 707.094 1650.03 707.51 1649.9 707.858 1649.76 708.136 1649.59 708.414 1649.42 708.617 1649.22 708.747 1648.99 708.876 1648.76 708.975 1648.48 709.044 1648.13 709.114 1647.78 709.154 1647.34 709.164 1646.82 709.174 1646.29 709.178 1645.64 709.178 1644.87L709.178 1640.96 692.409 1640.96 692.409 1638.61C695.368 1634.5 698.307 1630.42 701.226 1626.35 704.145 1622.29 707.084 1618.21 710.042 1614.1Z" fill-rule="evenodd"/><text fill="#000000" fill-opacity="0" font-family="Arial,Arial_MSFontService,sans-serif" font-size="38.1548" x="692.409" y="1647.48">4</text><path d="M662.693 1386.36C663.53 1386.36 664.266 1386.46 664.901 1386.65 665.536 1386.83 666.097 1387.13 666.583 1387.52 667.07 1387.91 667.502 1388.42 667.88 1389.04 668.258 1389.66 668.623 1390.5 668.974 1391.57 669.326 1392.64 669.657 1393.96 669.967 1395.54 670.278 1397.12 670.555 1398.76 670.798 1400.47L671.203 1400.47C673.797 1396.82 675.763 1394.15 677.1 1392.46 678.438 1390.77 679.565 1389.52 680.484 1388.69 681.403 1387.87 682.288 1387.29 683.139 1386.95 683.99 1386.61 685.118 1386.44 686.523 1386.44 687.793 1386.44 688.833 1386.61 689.643 1386.93L688.022 1394.27 685.185 1394.27C685.023 1393.13 684.55 1392.56 683.767 1392.56 683.524 1392.56 683.267 1392.6 682.997 1392.68 682.727 1392.77 682.396 1392.94 682.004 1393.21 681.612 1393.48 681.038 1394.01 680.281 1394.79 679.525 1395.58 678.674 1396.53 677.728 1397.67 676.783 1398.8 675.81 1399.99 674.81 1401.24L672.054 1404.68C672.541 1407.27 673 1409.52 673.432 1411.41 673.865 1413.3 674.25 1414.87 674.587 1416.13 674.925 1417.39 675.222 1418.38 675.479 1419.11 675.736 1419.84 676.013 1420.38 676.31 1420.75 676.607 1421.11 676.911 1421.37 677.222 1421.52 677.532 1421.67 677.89 1421.74 678.296 1421.74 679.025 1421.74 679.734 1421.46 680.423 1420.89 681.112 1420.32 682.105 1419.04 683.402 1417.04L686.036 1418.78C684.145 1421.59 682.436 1423.57 680.91 1424.72 679.383 1425.87 677.566 1426.44 675.459 1426.44 674.297 1426.44 673.311 1426.23 672.5 1425.82 671.69 1425.4 670.987 1424.73 670.393 1423.81 669.798 1422.89 669.272 1421.46 668.812 1419.51 667.975 1416.06 667.461 1413.41 667.272 1411.57L666.867 1411.57C664.003 1415.6 661.875 1418.49 660.484 1420.24 659.092 1422 657.944 1423.3 657.039 1424.13 656.134 1424.97 655.256 1425.56 654.405 1425.9 653.554 1426.23 652.426 1426.4 651.021 1426.4 649.751 1426.4 648.711 1426.24 647.9 1425.92L649.521 1418.58 652.358 1418.58C652.52 1419.72 652.993 1420.28 653.777 1420.28 654.155 1420.28 654.553 1420.18 654.972 1419.98 655.391 1419.78 655.992 1419.29 656.776 1418.52 657.559 1417.75 658.64 1416.54 660.018 1414.89 661.396 1413.25 663.395 1410.77 666.016 1407.48 665.611 1405.34 665.192 1403.29 664.76 1401.32 664.327 1399.34 663.881 1397.51 663.422 1395.81 662.963 1394.1 662.585 1392.99 662.287 1392.46 661.99 1391.93 661.673 1391.57 661.335 1391.37 660.997 1391.16 660.572 1391.06 660.058 1391.06 659.491 1391.06 658.978 1391.19 658.518 1391.45 658.059 1391.71 657.559 1392.15 657.019 1392.79 656.478 1393.42 655.762 1394.41 654.871 1395.76L652.237 1394.02C653.939 1391.46 655.573 1389.54 657.14 1388.27 658.707 1387 660.558 1386.36 662.693 1386.36Z" fill-rule="evenodd"/><text fill="#000000" fill-opacity="0" font-family="Arial,Arial_MSFontService,sans-serif" font-size="40.0815" x="647.9" y="1421.43">洧논</text><path d="M707.719 1404.07C709.308 1404.07 710.792 1404.24 712.172 1404.57 713.552 1404.91 714.748 1405.42 715.761 1406.11 716.774 1406.79 717.563 1407.65 718.129 1408.67 718.695 1409.69 718.978 1410.88 718.978 1412.23 718.978 1413.5 718.799 1414.62 718.442 1415.59 718.084 1416.57 717.533 1417.45 716.789 1418.24 716.044 1419.04 715.131 1419.76 714.048 1420.4 712.966 1421.05 711.72 1421.67 710.31 1422.27L710.31 1422.62C711.641 1422.86 712.882 1423.24 714.033 1423.77 715.185 1424.3 716.193 1424.96 717.057 1425.77 717.92 1426.57 718.601 1427.5 719.097 1428.55 719.593 1429.6 719.842 1430.76 719.842 1432.04 719.842 1433.62 719.544 1435.1 718.948 1436.46 718.352 1437.82 717.459 1439 716.267 1439.99 715.076 1440.98 713.607 1441.76 711.859 1442.31 710.112 1442.87 708.066 1443.15 705.723 1443.15 703.877 1443.15 702 1442.96 700.094 1442.59 698.188 1442.23 696.381 1441.75 694.673 1441.15L694.673 1434.72 698.515 1434.72C698.833 1435.71 699.21 1436.56 699.647 1437.26 700.084 1437.97 700.595 1438.54 701.181 1438.99 701.767 1439.44 702.442 1439.76 703.207 1439.96 703.971 1440.16 704.84 1440.26 705.813 1440.26 708.374 1440.26 710.315 1439.65 711.636 1438.42 712.956 1437.2 713.616 1435.35 713.616 1432.87 713.616 1430.23 712.748 1428.23 711.01 1426.87 709.273 1425.51 706.696 1424.83 703.281 1424.83L700.66 1424.83 700.66 1421.97C702.745 1421.87 704.547 1421.58 706.066 1421.09 707.585 1420.6 708.851 1419.97 709.864 1419.2 710.876 1418.42 711.631 1417.52 712.127 1416.49 712.624 1415.46 712.872 1414.35 712.872 1413.18 712.872 1411.28 712.306 1409.77 711.174 1408.67 710.042 1407.57 708.404 1407.02 706.26 1407.02 704.453 1407.02 702.938 1407.51 701.717 1408.51 700.496 1409.5 699.558 1410.98 698.903 1412.94L695.12 1412.94 695.12 1407.08C697.463 1406.08 699.672 1405.33 701.747 1404.83 703.822 1404.32 705.813 1404.07 707.719 1404.07Z" fill-rule="evenodd"/><text fill="#000000" fill-opacity="0" font-family="Arial,Arial_MSFontService,sans-serif" font-size="39.0781" x="694.673" y="1438.26">3</text><path d="M662.693 1175.33C663.53 1175.33 664.266 1175.43 664.901 1175.62 665.536 1175.81 666.097 1176.1 666.583 1176.49 667.07 1176.88 667.502 1177.39 667.88 1178.01 668.258 1178.63 668.623 1179.47 668.974 1180.54 669.326 1181.61 669.657 1182.93 669.967 1184.51 670.278 1186.09 670.555 1187.73 670.798 1189.44L671.203 1189.44C673.797 1185.79 675.763 1183.12 677.1 1181.43 678.438 1179.74 679.565 1178.49 680.484 1177.66 681.403 1176.84 682.288 1176.26 683.139 1175.92 683.99 1175.58 685.118 1175.41 686.523 1175.41 687.793 1175.41 688.833 1175.58 689.643 1175.9L688.022 1183.24 685.185 1183.24C685.023 1182.1 684.55 1181.53 683.767 1181.53 683.524 1181.53 683.267 1181.57 682.997 1181.65 682.727 1181.74 682.396 1181.91 682.004 1182.18 681.612 1182.45 681.038 1182.98 680.281 1183.76 679.525 1184.55 678.674 1185.51 677.728 1186.64 676.783 1187.77 675.81 1188.96 674.81 1190.21L672.054 1193.65C672.541 1196.24 673 1198.49 673.432 1200.38 673.865 1202.27 674.25 1203.84 674.587 1205.1 674.925 1206.36 675.222 1207.35 675.479 1208.08 675.736 1208.81 676.013 1209.36 676.31 1209.72 676.607 1210.08 676.911 1210.34 677.222 1210.49 677.532 1210.64 677.89 1210.71 678.296 1210.71 679.025 1210.71 679.734 1210.43 680.423 1209.86 681.112 1209.29 682.105 1208.01 683.402 1206.01L686.036 1207.75C684.145 1210.56 682.436 1212.54 680.91 1213.69 679.383 1214.84 677.566 1215.41 675.459 1215.41 674.297 1215.41 673.311 1215.2 672.5 1214.79 671.69 1214.37 670.987 1213.7 670.393 1212.78 669.798 1211.86 669.272 1210.43 668.812 1208.48 667.975 1205.03 667.461 1202.38 667.272 1200.54L666.867 1200.54C664.003 1204.57 661.875 1207.46 660.484 1209.21 659.092 1210.97 657.944 1212.27 657.039 1213.1 656.134 1213.94 655.256 1214.53 654.405 1214.87 653.554 1215.2 652.426 1215.37 651.021 1215.37 649.751 1215.37 648.711 1215.21 647.9 1214.89L649.521 1207.55 652.358 1207.55C652.52 1208.69 652.993 1209.25 653.777 1209.25 654.155 1209.25 654.553 1209.15 654.972 1208.95 655.391 1208.75 655.992 1208.26 656.776 1207.49 657.559 1206.72 658.64 1205.51 660.018 1203.86 661.396 1202.22 663.395 1199.74 666.016 1196.45 665.611 1194.31 665.192 1192.26 664.76 1190.29 664.327 1188.31 663.881 1186.48 663.422 1184.78 662.963 1183.07 662.585 1181.96 662.287 1181.43 661.99 1180.91 661.673 1180.54 661.335 1180.34 660.997 1180.14 660.572 1180.03 660.058 1180.03 659.491 1180.03 658.978 1180.16 658.518 1180.42 658.059 1180.68 657.559 1181.12 657.019 1181.76 656.478 1182.39 655.762 1183.38 654.871 1184.73L652.237 1182.99C653.939 1180.43 655.573 1178.51 657.14 1177.24 658.707 1175.97 660.558 1175.33 662.693 1175.33Z" fill-rule="evenodd"/><text fill="#000000" fill-opacity="0" font-family="Arial,Arial_MSFontService,sans-serif" font-size="40.0815" x="647.9" y="1210.4">洧논</text><path d="M707.779 1193.04C709.844 1193.04 711.606 1193.27 713.065 1193.74 714.525 1194.2 715.711 1194.83 716.625 1195.63 717.538 1196.42 718.198 1197.38 718.605 1198.49 719.013 1199.6 719.216 1200.8 719.216 1202.09 719.216 1202.87 719.161 1203.59 719.052 1204.25 718.943 1204.92 718.754 1205.57 718.486 1206.22 718.218 1206.86 717.866 1207.51 717.429 1208.17 716.992 1208.82 716.446 1209.52 715.791 1210.25 715.294 1210.89 714.649 1211.62 713.855 1212.46 713.06 1213.29 712.192 1214.19 711.249 1215.14 710.305 1216.09 709.317 1217.08 708.285 1218.12 707.252 1219.15 706.25 1220.17 705.277 1221.18 704.304 1222.2 703.41 1223.18 702.596 1224.13 701.782 1225.09 701.117 1225.96 700.6 1226.75L711.621 1226.75C712.554 1226.75 713.299 1226.72 713.855 1226.65 714.411 1226.58 714.872 1226.43 715.24 1226.19 715.607 1225.95 715.92 1225.59 716.178 1225.1 716.436 1224.61 716.734 1223.94 717.072 1223.09L719.842 1223.09C719.742 1224.5 719.648 1225.92 719.559 1227.35 719.469 1228.78 719.375 1230.2 719.276 1231.61L694.048 1231.61 694.048 1230.06C694.524 1228.99 695.08 1227.93 695.716 1226.89 696.351 1225.85 697.066 1224.79 697.86 1223.72 698.654 1222.64 699.558 1221.54 700.571 1220.4 701.583 1219.25 702.705 1218.07 703.936 1216.84 705.803 1214.97 707.322 1213.38 708.493 1212.06 709.665 1210.74 710.588 1209.56 711.263 1208.53 711.939 1207.49 712.4 1206.54 712.648 1205.67 712.897 1204.79 713.021 1203.86 713.021 1202.87 713.021 1201.85 712.877 1200.92 712.589 1200.07 712.301 1199.21 711.889 1198.49 711.353 1197.89 710.817 1197.3 710.137 1196.83 709.312 1196.49 708.488 1196.16 707.54 1195.99 706.468 1195.99 704.621 1195.99 703.073 1196.49 701.822 1197.49 700.571 1198.49 699.598 1199.95 698.903 1201.85L695.001 1201.85 695.001 1196.05C697.542 1194.99 699.881 1194.23 702.015 1193.75 704.15 1193.28 706.071 1193.04 707.779 1193.04Z" fill-rule="evenodd"/><text fill="#000000" fill-opacity="0" font-family="Arial,Arial_MSFontService,sans-serif" font-size="38.5718" x="694.048" y="1226.79">2</text><path d="M662.784 962.178C663.622 962.178 664.358 962.273 664.993 962.462 665.628 962.651 666.189 962.942 666.675 963.333 667.161 963.725 667.594 964.232 667.972 964.853 668.35 965.475 668.715 966.319 669.066 967.386 669.417 968.453 669.748 969.777 670.059 971.358 670.37 972.938 670.647 974.58 670.89 976.282L671.295 976.282C673.889 972.634 675.854 969.966 677.192 968.278 678.529 966.589 679.657 965.333 680.576 964.509 681.494 963.685 682.379 963.104 683.23 962.766 684.081 962.428 685.209 962.259 686.614 962.259 687.884 962.259 688.924 962.422 689.735 962.746L688.114 970.081 685.277 970.081C685.115 968.946 684.642 968.379 683.858 968.379 683.615 968.379 683.359 968.42 683.088 968.501 682.818 968.582 682.487 968.757 682.096 969.027 681.704 969.298 681.13 969.825 680.373 970.608 679.617 971.392 678.766 972.351 677.82 973.485 676.874 974.62 675.902 975.809 674.902 977.052L672.146 980.497C672.632 983.09 673.092 985.333 673.524 987.224 673.956 989.116 674.341 990.689 674.679 991.946 675.017 993.202 675.314 994.195 675.571 994.924 675.827 995.654 676.104 996.201 676.401 996.566 676.699 996.931 677.003 997.187 677.313 997.336 677.624 997.484 677.982 997.559 678.387 997.559 679.117 997.559 679.826 997.275 680.515 996.708 681.204 996.14 682.197 994.857 683.494 992.858L686.128 994.6C684.237 997.41 682.528 999.389 681.001 1000.54 679.475 1001.69 677.658 1002.26 675.55 1002.26 674.389 1002.26 673.402 1002.05 672.592 1001.63 671.781 1001.21 671.079 1000.54 670.484 999.626 669.89 998.707 669.363 997.275 668.904 995.33 668.066 991.871 667.553 989.224 667.364 987.386L666.959 987.386C664.095 991.412 661.967 994.303 660.576 996.059 659.184 997.815 658.036 999.112 657.131 999.95 656.226 1000.79 655.347 1001.38 654.496 1001.71 653.645 1002.05 652.517 1002.22 651.112 1002.22 649.843 1002.22 648.802 1002.06 647.992 1001.73L649.613 994.398 652.45 994.398C652.612 995.532 653.085 996.1 653.868 996.1 654.246 996.1 654.645 995.998 655.064 995.796 655.483 995.593 656.084 995.107 656.867 994.337 657.651 993.567 658.732 992.358 660.109 990.71 661.487 989.061 663.487 986.589 666.107 983.293 665.702 981.159 665.283 979.105 664.851 977.133 664.419 975.161 663.973 973.323 663.514 971.621 663.054 969.919 662.676 968.805 662.379 968.278 662.082 967.751 661.764 967.386 661.427 967.183 661.089 966.981 660.663 966.88 660.15 966.88 659.583 966.88 659.069 967.008 658.61 967.265 658.151 967.521 657.651 967.967 657.11 968.602 656.57 969.237 655.854 970.23 654.962 971.581L652.328 969.838C654.03 967.271 655.665 965.353 657.232 964.083 658.799 962.813 660.65 962.178 662.784 962.178Z" fill-rule="evenodd"/><text fill="#000000" fill-opacity="0" font-family="Arial,Arial_MSFontService,sans-serif" font-size="40.0815" x="647.992" y="997.25">洧논</text><path d="M708.291 980.092 710.108 980.092C710.069 981.184 710.039 982.162 710.019 983.026 709.999 983.89 709.984 984.728 709.974 985.543 709.964 986.357 709.959 987.161 709.959 987.955L709.959 1010.59C709.959 1011.21 709.979 1011.74 710.019 1012.19 710.059 1012.63 710.123 1013.01 710.213 1013.32 710.302 1013.63 710.421 1013.89 710.57 1014.11 710.719 1014.33 710.893 1014.51 711.091 1014.67 711.329 1014.91 711.647 1015.09 712.044 1015.22 712.441 1015.35 712.948 1015.46 713.563 1015.55 714.179 1015.64 714.919 1015.71 715.782 1015.76 716.646 1015.81 717.684 1015.84 718.895 1015.86L718.895 1018.46 695.275 1018.46 695.275 1015.86C696.447 1015.82 697.44 1015.78 698.254 1015.73 699.068 1015.68 699.763 1015.61 700.339 1015.52 700.915 1015.43 701.376 1015.33 701.724 1015.22 702.071 1015.11 702.374 1014.98 702.632 1014.82 702.91 1014.64 703.148 1014.45 703.347 1014.24 703.546 1014.03 703.704 1013.77 703.824 1013.45 703.943 1013.13 704.037 1012.75 704.107 1012.29 704.176 1011.83 704.211 1011.27 704.211 1010.59L704.211 989.236C704.211 988.462 704.062 987.915 703.764 987.598 703.466 987.28 703.039 987.121 702.483 987.121 701.868 987.121 700.954 987.439 699.743 988.074 698.532 988.71 696.963 989.653 695.037 990.904 694.779 990.447 694.541 989.991 694.322 989.534 694.104 989.077 693.875 988.61 693.637 988.134 696.099 986.784 698.537 985.438 700.949 984.098 703.362 982.758 705.809 981.422 708.291 980.092Z" fill-rule="evenodd"/><text fill="#000000" fill-opacity="0" font-family="Arial,Arial_MSFontService,sans-serif" font-size="38.3633" x="693.637" y="1013.66">1</text><text font-family="Malgun Gothic,Malgun Gothic_MSFontService,sans-serif" font-weight="400" font-size="83" transform="matrix(1 0 0 1 785.06 1863)">0</text><text font-family="Malgun Gothic,Malgun Gothic_MSFontService,sans-serif" font-weight="400" font-size="83" transform="matrix(1 0 0 1 785.06 1652)">1</text><path d="M0 0 196.867 144.385" stroke="#4472C4" stroke-width="2.29167" stroke-miterlimit="8" fill="none" fill-rule="evenodd" transform="matrix(1 0 0 -1 887 1832.39)"/><path d="M887 1604 1083.87 1687.31" stroke="#4472C4" stroke-width="2.29167" stroke-miterlimit="8" fill="none" fill-rule="evenodd"/><text font-family="Malgun Gothic,Malgun Gothic_MSFontService,sans-serif" font-weight="400" font-size="83" transform="matrix(1 0 0 1 1116.48 1728)">0</text><text font-family="Malgun Gothic,Malgun Gothic_MSFontService,sans-serif" font-weight="400" font-size="83" transform="matrix(1 0 0 1 783.644 1442)">1</text><path d="M0 0 161.459 157.21" stroke="#4472C4" stroke-width="2.29167" stroke-miterlimit="8" fill="none" fill-rule="evenodd" transform="matrix(1 0 0 -1 1201 1670.21)"/><path d="M1362.88 1512.64 887 1422" stroke="#4472C4" stroke-width="2.29167" stroke-miterlimit="8" fill="none" fill-rule="evenodd"/><text font-family="Malgun Gothic,Malgun Gothic_MSFontService,sans-serif" font-weight="400" font-size="83" transform="matrix(1 0 0 1 1426.65 1542)">0</text><text font-family="Malgun Gothic,Malgun Gothic_MSFontService,sans-serif" font-weight="400" font-size="83" transform="matrix(1 0 0 1 783.644 1231)">1</text><text font-family="Malgun Gothic,Malgun Gothic_MSFontService,sans-serif" font-weight="400" font-size="83" transform="matrix(1 0 0 1 786.477 1018)">1</text><path d="M901 1200 1636.06 1323.85" stroke="#4472C4" stroke-width="2.29167" stroke-miterlimit="8" fill="none" fill-rule="evenodd"/><path d="M0 0 131.717 153.825" stroke="#4472C4" stroke-width="2.29167" stroke-miterlimit="8" fill="none" fill-rule="evenodd" transform="matrix(-1 0 0 1 1635.72 1324)"/><text font-family="Malgun Gothic,Malgun Gothic_MSFontService,sans-serif" font-weight="400" font-size="83" transform="matrix(1 0 0 1 1691.5 1355)">0</text><path d="M887 987 1833.09 1155.46" stroke="#4472C4" stroke-width="2.29167" stroke-miterlimit="8" fill="none" fill-rule="evenodd"/><path d="M0 0 76.4807 124.635" stroke="#4472C4" stroke-width="2.29167" stroke-miterlimit="8" fill="none" fill-rule="evenodd" transform="matrix(-1 0 0 1 1832.48 1156)"/></g></svg>