<?xml version="1.0" encoding="UTF-8" standalone="no"?>
<!-- Created with Inkscape (http://www.inkscape.org/) -->

<svg
   width="77.064575mm"
   height="95.203484mm"
   viewBox="0 0 77.064574 95.203484"
   version="1.1"
   id="svg5"
   xml:space="preserve"
   xmlns:inkscape="http://www.inkscape.org/namespaces/inkscape"
   xmlns:sodipodi="http://sodipodi.sourceforge.net/DTD/sodipodi-0.dtd"
   xmlns="http://www.w3.org/2000/svg"
   xmlns:svg="http://www.w3.org/2000/svg"><sodipodi:namedview
     id="namedview7"
     pagecolor="#ffffff"
     bordercolor="#000000"
     borderopacity="0.25"
     inkscape:showpageshadow="2"
     inkscape:pageopacity="0.0"
     inkscape:pagecheckerboard="0"
     inkscape:deskcolor="#d1d1d1"
     inkscape:document-units="mm"
     showgrid="false" /><defs
     id="defs2" /><g
     id="g1232"
     transform="matrix(0.35277776,0,0,0.35277775,-4.2436743,-3.8281898)"><text
       xml:space="preserve"
       transform="translate(11.203125,47.25)"
       style="font-variant:normal;font-weight:normal;font-size:18px;font-family:'Malgun Gothic';-inkscape-font-specification:MalgunGothic;writing-mode:lr-tb;fill:#000000;fill-opacity:1;fill-rule:nonzero;stroke:none"
       id="text1246"><tspan
         x="0"
         y="0"
         id="tspan1234">a</tspan><tspan
         x="0"
         y="77.999992"
         id="tspan1236">b</tspan><tspan
         x="0"
         y="155.25"
         id="tspan1238">c</tspan><tspan
         x="0"
         y="233.24998"
         id="tspan1240">d</tspan><tspan
         x="23.124996"
         y="213.75"
         id="tspan1242">1</tspan><tspan
         x="23.124996"
         y="140.99998"
         id="tspan1244">0</tspan></text><path
       d="m 107.613,231.434 -75.754,-33.079 0.2,-0.457 75.754,33.075 z m -75.941,-30.161 -4.297,-5.148 6.699,-0.348 z"
       style="fill:#4472c4;fill-opacity:1;fill-rule:nonzero;stroke:none"
       id="path1248" /><path
       d="m 107.445,231.156 -73.558,40.442 0.238,0.437 73.559,-40.441 z m -74.007,37.547 -3.813,5.52 6.703,-0.262 z"
       style="fill:#4472c4;fill-opacity:1;fill-rule:nonzero;stroke:none"
       id="path1250" /><path
       d="m 167.426,147.449 -132.961,-28.047 0.105,-0.488 132.957,28.047 z m -132.551,-25.152 -5.25,-4.172 6.488,-1.695 z"
       style="fill:#4472c4;fill-opacity:1;fill-rule:nonzero;stroke:none"
       id="path1252" /><path
       d="m 167.207,147.23 -56.883,79.852 0.406,0.289 56.883,-79.851 z m -58.543,77.442 -1.039,6.629 5.926,-3.149 z"
       style="fill:#4472c4;fill-opacity:1;fill-rule:nonzero;stroke:none"
       id="path1254" /><text
       xml:space="preserve"
       transform="translate(108.89844,213)"
       style="font-variant:normal;font-weight:normal;font-size:18px;font-family:'Malgun Gothic';-inkscape-font-specification:MalgunGothic;writing-mode:lr-tb;fill:#000000;fill-opacity:1;fill-rule:nonzero;stroke:none"
       id="text1260"><tspan
         x="0"
         y="0"
         id="tspan1256">1</tspan><tspan
         x="-74.789062"
         y="-104.99999"
         id="tspan1258">0</tspan></text><path
       d="M 229.988,84.559 32.957,41.438 33.063,40.949 230.098,84.07 Z M 33.344,44.34 28.125,40.125 34.629,38.477 Z"
       style="fill:#4472c4;fill-opacity:1;fill-rule:nonzero;stroke:none"
       id="path1262" /><path
       d="m 230.129,84.199 -59.149,59.281 0.352,0.352 59.148,-59.281 z m -60.391,56.629 -2.113,6.367 6.363,-2.129 z"
       style="fill:#4472c4;fill-opacity:1;fill-rule:nonzero;stroke:none"
       id="path1264" /><text
       xml:space="preserve"
       transform="translate(35.210938,24)"
       style="font-variant:normal;font-weight:normal;font-size:18px;font-family:'Malgun Gothic';-inkscape-font-specification:MalgunGothic;writing-mode:lr-tb;fill:#000000;fill-opacity:1;fill-rule:nonzero;stroke:none"
       id="text1270"><tspan
         x="0"
         y="0"
         id="tspan1266">0</tspan><tspan
         x="126.98438"
         y="98.249992"
         id="tspan1268">1</tspan></text></g></svg>
