<?xml version="1.0" encoding="UTF-8" standalone="no"?>
<!-- Created with Inkscape (http://www.inkscape.org/) -->

<svg
   width="350.75198mm"
   height="151.35831mm"
   viewBox="0 0 350.75198 151.3583"
   version="1.1"
   id="svg5"
   sodipodi:docname="prob24.svg"
   inkscape:version="1.2.2 (732a01da63, 2022-12-09)"
   xmlns:inkscape="http://www.inkscape.org/namespaces/inkscape"
   xmlns:sodipodi="http://sodipodi.sourceforge.net/DTD/sodipodi-0.dtd"
   xmlns="http://www.w3.org/2000/svg"
   xmlns:svg="http://www.w3.org/2000/svg"
   xmlns:ns1="http://www.iki.fi/pav/software/textext/">
  <sodipodi:namedview
     id="namedview7"
     pagecolor="#ffffff"
     bordercolor="#000000"
     borderopacity="0.25"
     inkscape:showpageshadow="2"
     inkscape:pageopacity="0.0"
     inkscape:pagecheckerboard="0"
     inkscape:deskcolor="#d1d1d1"
     inkscape:document-units="mm"
     showgrid="false"
     inkscape:zoom="0.64693624"
     inkscape:cx="413.48742"
     inkscape:cy="146.846"
     inkscape:window-width="3840"
     inkscape:window-height="2054"
     inkscape:window-x="3829"
     inkscape:window-y="-11"
     inkscape:window-maximized="1"
     inkscape:current-layer="svg5" />
  <defs
     id="defs2">
    <marker
       inkscape:stockid="ArrowAxisStart"
       orient="auto"
       refY="0"
       refX="0"
       id="ArrowAxisStart"
       style="overflow:visible">
      <path
         d="M 0,0 5,-5 -12.5,0 5,5 Z"
         style="fill:#000000;fill-opacity:1;fill-rule:evenodd;stroke:#000000;stroke-width:1;stroke-opacity:1"
         transform="matrix(0.4,0,0,0.4,3.5272,0)"
         id="path17662" />
    </marker>
    <marker
       inkscape:stockid="ArrowAxisEnd"
       orient="auto"
       refY="0"
       refX="0"
       id="ArrowAxisEnd"
       style="overflow:visible">
      <path
         d="M 0,0 5,-5 -12.5,0 5,5 Z"
         style="fill:#000000;fill-opacity:1;fill-rule:evenodd;stroke:#000000;stroke-width:1;stroke-opacity:1"
         transform="matrix(-0.4,0,0,-0.4,-3.5272,0)"
         id="path17665" />
    </marker>
  </defs>
  <g
     inkscape:label="Layer 1"
     inkscape:groupmode="layer"
     id="layer1"
     transform="translate(92.449289,151.93205)" />
  <g
     inkscape:label="Plot"
     transform="translate(202.44928,301.93206)"
     id="g4091">
    <g
       inkscape:label="Axis"
       id="g4089" />
  </g>
  <g
     inkscape:label="PlotData"
     id="g8887"
     transform="translate(-67.471251,146.28803)">
    <g
       inkscape:label="Plot"
       transform="translate(70,110)"
       id="g8883">
      <g
         inkscape:label="Ticks"
         id="g8862">
        <g
           inkscape:label="Layer 1"
           inkscape:groupmode="layer"
           id="g8273"
           transform="matrix(1.105994,0,0,1.105994,-436.18411,-608.04948)" />
        <g
           inkscape:label="Layer 1"
           inkscape:groupmode="layer"
           id="g8303"
           transform="matrix(1.105994,0,0,1.105994,-404.24221,-608.04948)" />
        <g
           inkscape:label="Layer 1"
           inkscape:groupmode="layer"
           id="g8320"
           transform="matrix(1.105994,0,0,1.105994,-347.94195,-608.21096)" />
        <g
           inkscape:label="Layer 1"
           inkscape:groupmode="layer"
           id="g8350"
           transform="matrix(1.105994,0,0,1.105994,-303.87429,-608.04948)" />
        <g
           inkscape:label="Layer 1"
           inkscape:groupmode="layer"
           id="g8367"
           transform="matrix(1.105994,0,0,1.105994,-248.44868,-608.21096)" />
        <g
           inkscape:label="Layer 1"
           inkscape:groupmode="layer"
           id="g8397"
           transform="matrix(1.105994,0,0,1.105994,-204.16221,-608.04948)" />
        <g
           inkscape:label="Layer 1"
           inkscape:groupmode="layer"
           id="g8414"
           transform="matrix(1.105994,0,0,1.105994,-148.57587,-608.04948)" />
        <g
           inkscape:label="Layer 1"
           inkscape:groupmode="layer"
           id="g8444"
           transform="matrix(1.105994,0,0,1.105994,-104.21972,-608.04948)" />
        <g
           inkscape:label="Layer 1"
           inkscape:groupmode="layer"
           id="g8461"
           transform="matrix(1.105994,0,0,1.105994,-48.772363,-608.12967)" />
        <g
           inkscape:label="Layer 1"
           inkscape:groupmode="layer"
           id="g8491"
           transform="matrix(1.105994,0,0,1.105994,-4.323688,-607.96819)" />
        <g
           inkscape:label="Layer 1"
           inkscape:groupmode="layer"
           id="g8508"
           transform="matrix(1.105994,0,0,1.105994,51.551323,-608.04948)" />
        <g
           inkscape:label="Layer 1"
           inkscape:groupmode="layer"
           id="g8545"
           transform="matrix(1.105994,0,0,1.105994,-509.63428,-608.04948)" />
        <g
           inkscape:label="Layer 1"
           inkscape:groupmode="layer"
           id="g8569"
           transform="matrix(1.105994,0,0,1.105994,-553.70194,-608.21096)" />
        <g
           inkscape:label="Layer 1"
           inkscape:groupmode="layer"
           id="g8606"
           transform="matrix(1.105994,0,0,1.105994,-609.63428,-608.04948)" />
        <g
           inkscape:label="Layer 1"
           inkscape:groupmode="layer"
           id="g8630"
           transform="matrix(1.105994,0,0,1.105994,-653.92074,-608.21096)" />
        <g
           inkscape:label="Layer 1"
           inkscape:groupmode="layer"
           id="g8667"
           transform="matrix(1.105994,0,0,1.105994,-709.63428,-608.04948)" />
        <g
           inkscape:label="Layer 1"
           inkscape:groupmode="layer"
           id="g8691"
           transform="matrix(1.105994,0,0,1.105994,-753.98931,-608.04948)" />
        <g
           inkscape:label="Layer 1"
           inkscape:groupmode="layer"
           id="g8728"
           transform="matrix(1.105994,0,0,1.105994,-809.63428,-608.04948)" />
        <g
           inkscape:label="Layer 1"
           inkscape:groupmode="layer"
           id="g8752"
           transform="matrix(1.105994,0,0,1.105994,-854.08184,-608.12967)" />
        <g
           inkscape:label="Layer 1"
           inkscape:groupmode="layer"
           id="g8789"
           transform="matrix(1.105994,0,0,1.105994,-909.63428,-607.96819)" />
        <g
           inkscape:label="Layer 1"
           inkscape:groupmode="layer"
           id="g8813"
           transform="matrix(1.105994,0,0,1.105994,-953.92074,-608.04948)" />
        <g
           inkscape:label="Layer 1"
           inkscape:groupmode="layer"
           id="g8843"
           transform="matrix(1.105994,0,0,1.105994,-451.06695,-661.33596)" />
        <g
           inkscape:label="Layer 1"
           inkscape:groupmode="layer"
           id="g8860"
           transform="matrix(1.105994,0,0,1.105994,-451.57368,-711.33596)" />
      </g>
    </g>
  </g>
  <g
     inkscape:label="PlotData"
     id="g17180"
     transform="translate(-517.39202,95.644016)">
    <g
       inkscape:label="Plot"
       transform="translate(540)"
       id="g17176">
      <g
         inkscape:label="Ticks"
         id="g17155">
        <path
           inkscape:label="none"
           style="fill:none;fill-opacity:1;stroke:#b2b2b2;stroke-width:1;stroke-linecap:round;stroke-linejoin:round;stroke-dasharray:none;stroke-opacity:1"
           d="M 50,5 V -55"
           id="path17113" />
        <path
           inkscape:label="none"
           style="fill:none;fill-opacity:1;stroke:#b2b2b2;stroke-width:1;stroke-linecap:round;stroke-linejoin:round;stroke-dasharray:none;stroke-opacity:1"
           d="M 100,5 V -55"
           id="path17115" />
        <path
           inkscape:label="none"
           style="fill:none;fill-opacity:1;stroke:#b2b2b2;stroke-width:1;stroke-linecap:round;stroke-linejoin:round;stroke-dasharray:none;stroke-opacity:1"
           d="M 150,5 V -55"
           id="path17117" />
        <path
           inkscape:label="none"
           style="fill:none;fill-opacity:1;stroke:#b2b2b2;stroke-width:1;stroke-linecap:round;stroke-linejoin:round;stroke-dasharray:none;stroke-opacity:1"
           d="M 200,5 V -55"
           id="path17119" />
        <path
           inkscape:label="none"
           style="fill:none;fill-opacity:1;stroke:#b2b2b2;stroke-width:1;stroke-linecap:round;stroke-linejoin:round;stroke-dasharray:none;stroke-opacity:1"
           d="M 250,5 V -55"
           id="path17121" />
        <path
           inkscape:label="none"
           style="fill:none;fill-opacity:1;stroke:#b2b2b2;stroke-width:1;stroke-linecap:round;stroke-linejoin:round;stroke-dasharray:none;stroke-opacity:1"
           d="M 300,5 V -55"
           id="path17123" />
        <g
           inkscape:label="Layer 1"
           inkscape:groupmode="layer"
           id="g17136"
           transform="matrix(1.105994,0,0,1.105994,-451.73423,-619.35709)">
          <g
             transform="matrix(1.33333,0,0,1.33333,397.208,555.427)"
             ns1:version="1.8.2"
             ns1:texconverter="pdflatex"
             ns1:pdfconverter="inkscape"
             ns1:text=" $0$"
             ns1:preamble="C:\Users\user\AppData\Roaming\inkscape\extensions\inkscapeMadeEasy\basicLatexPackages.tex"
             ns1:scale="1.0"
             ns1:alignment="middle center"
             ns1:stroke-to-path="0"
             ns1:inkscapeversion="1.0.1"
             ns1:jacobian_sqrt="1.33333"
             id="g17134">
            <defs
               id="id-e6bbc858-66ff-4da5-a404-bd2038a9a1f1">
              <g
                 id="id-73c3dd91-7622-40dd-9ada-2a03c6d6d873">
                <g
                   id="id-d05a32e4-ace7-4575-998b-b3e206ac0195" />
                <g
                   id="id-de821ad5-e570-4c33-9930-7937bd6ee86e">
                  <path
                     d="m 4.578125,-3.1875 c 0,-0.796875 -0.046875,-1.59375 -0.390625,-2.328125 -0.453125,-0.96875 -1.28125,-1.125 -1.6875,-1.125 -0.609375,0 -1.328125,0.265625 -1.75,1.1875 -0.3125,0.6875 -0.359375,1.46875 -0.359375,2.265625 0,0.75 0.03125,1.640625 0.453125,2.40625 0.421875,0.796875 1.15625,1 1.640625,1 0.53125,0 1.296875,-0.203125 1.734375,-1.15625 0.3125,-0.6875 0.359375,-1.46875 0.359375,-2.25 z M 2.484375,0 C 2.09375,0 1.5,-0.25 1.328125,-1.203125 1.21875,-1.796875 1.21875,-2.71875 1.21875,-3.3125 c 0,-0.640625 0,-1.296875 0.078125,-1.828125 0.1875,-1.1875 0.9375,-1.28125 1.1875,-1.28125 0.328125,0 0.984375,0.1875 1.171875,1.171875 0.109375,0.5625 0.109375,1.3125 0.109375,1.9375 0,0.75 0,1.421875 -0.109375,2.0625 C 3.5,-0.296875 2.9375,0 2.484375,0 Z m 0,0"
                     id="id-97e8d300-82a7-4c0c-a006-0175f822b058" />
                </g>
              </g>
            </defs>
            <g
               fill="#000000"
               fill-opacity="1"
               id="id-f0af6255-a984-4c4c-945c-f80d8d9c9ab1"
               transform="translate(-149.103,-128.124)">
              <g
                 transform="translate(148.712,134.765)"
                 id="g17131">
                <path
                   d="m 4.578125,-3.1875 c 0,-0.796875 -0.046875,-1.59375 -0.390625,-2.328125 -0.453125,-0.96875 -1.28125,-1.125 -1.6875,-1.125 -0.609375,0 -1.328125,0.265625 -1.75,1.1875 -0.3125,0.6875 -0.359375,1.46875 -0.359375,2.265625 0,0.75 0.03125,1.640625 0.453125,2.40625 0.421875,0.796875 1.15625,1 1.640625,1 0.53125,0 1.296875,-0.203125 1.734375,-1.15625 0.3125,-0.6875 0.359375,-1.46875 0.359375,-2.25 z M 2.484375,0 C 2.09375,0 1.5,-0.25 1.328125,-1.203125 1.21875,-1.796875 1.21875,-2.71875 1.21875,-3.3125 c 0,-0.640625 0,-1.296875 0.078125,-1.828125 0.1875,-1.1875 0.9375,-1.28125 1.1875,-1.28125 0.328125,0 0.984375,0.1875 1.171875,1.171875 0.109375,0.5625 0.109375,1.3125 0.109375,1.9375 0,0.75 0,1.421875 -0.109375,2.0625 C 3.5,-0.296875 2.9375,0 2.484375,0 Z m 0,0"
                   id="id-c2be945e-340d-4adb-8ad0-f7dd498a072b" />
              </g>
            </g>
          </g>
        </g>
        <path
           inkscape:label="none"
           style="fill:none;fill-opacity:1;stroke:#b2b2b2;stroke-width:1;stroke-linecap:round;stroke-linejoin:round;stroke-dasharray:none;stroke-opacity:1"
           d="M 0,-50 H 300"
           id="path17138" />
        <path
           inkscape:label="none"
           style="fill:none;fill-opacity:1;stroke:#4c4c4c;stroke-width:1.42857;stroke-linecap:round;stroke-linejoin:round;stroke-dasharray:none;stroke-opacity:1"
           d="m -3.125,-50 h 6.25"
           id="path17140" />
        <g
           inkscape:label="Layer 1"
           inkscape:groupmode="layer"
           id="g17153"
           transform="matrix(1.105994,0,0,1.105994,-451.06695,-669.35727)">
          <g
             transform="matrix(1.33333,0,0,1.33333,397.813,555.573)"
             ns1:version="1.8.2"
             ns1:texconverter="pdflatex"
             ns1:pdfconverter="inkscape"
             ns1:text=" $1$"
             ns1:preamble="C:\Users\user\AppData\Roaming\inkscape\extensions\inkscapeMadeEasy\basicLatexPackages.tex"
             ns1:scale="1.0"
             ns1:alignment="middle center"
             ns1:stroke-to-path="0"
             ns1:inkscapeversion="1.0.1"
             ns1:jacobian_sqrt="1.33333"
             id="g17151">
            <defs
               id="id-44862c5b-e288-4b2a-aec4-63a4329ea5e5">
              <g
                 id="id-65f01603-bf3c-40d0-ac6c-55a09857e6c7">
                <g
                   id="id-08ddd748-4f9e-492e-9b9d-eb85ef19bd2c" />
                <g
                   id="id-36431317-8131-40fa-9ac8-0dbbe8181092">
                  <path
                     d="m 2.9375,-6.375 c 0,-0.25 0,-0.265625 -0.234375,-0.265625 C 2.078125,-6 1.203125,-6 0.890625,-6 v 0.3125 c 0.203125,0 0.78125,0 1.296875,-0.265625 v 5.171875 c 0,0.359375 -0.03125,0.46875 -0.921875,0.46875 h -0.3125 V 0 c 0.34375,-0.03125 1.203125,-0.03125 1.609375,-0.03125 0.390625,0 1.265625,0 1.609375,0.03125 v -0.3125 h -0.3125 c -0.90625,0 -0.921875,-0.109375 -0.921875,-0.46875 z m 0,0"
                     id="id-4c2f779f-c1d5-4216-a7c7-9a7ef11e3f91" />
                </g>
              </g>
            </defs>
            <g
               fill="#000000"
               fill-opacity="1"
               id="id-3f98fecb-02e9-485d-be52-4292e9e23819"
               transform="translate(-149.603,-128.124)">
              <g
                 transform="translate(148.712,134.765)"
                 id="g17148">
                <path
                   d="m 2.9375,-6.375 c 0,-0.25 0,-0.265625 -0.234375,-0.265625 C 2.078125,-6 1.203125,-6 0.890625,-6 v 0.3125 c 0.203125,0 0.78125,0 1.296875,-0.265625 v 5.171875 c 0,0.359375 -0.03125,0.46875 -0.921875,0.46875 h -0.3125 V 0 c 0.34375,-0.03125 1.203125,-0.03125 1.609375,-0.03125 0.390625,0 1.265625,0 1.609375,0.03125 v -0.3125 h -0.3125 c -0.90625,0 -0.921875,-0.109375 -0.921875,-0.46875 z m 0,0"
                   id="id-89205fbf-fab9-4f39-9d98-613b6d00397a" />
              </g>
            </g>
          </g>
        </g>
      </g>
      <g
         inkscape:label="Axis"
         id="g17174">
        <path
           inkscape:label="Xaxis"
           style="fill:none;fill-opacity:1;stroke:#4c4c4c;stroke-width:1.42857;stroke-linecap:round;stroke-linejoin:round;stroke-dasharray:none;stroke-opacity:1;marker-end:url(#ArrowAxisEnd)"
           d="M 0,0 H 325"
           id="path17157" />
        <g
           inkscape:label="Layer 1"
           inkscape:groupmode="layer"
           id="g17170"
           transform="matrix(1.382492,0,0,1.382492,-229.34111,-762.09827)">
          <g
             transform="matrix(1.33333,0,0,1.33333,397.958,555.771)"
             ns1:version="1.8.2"
             ns1:texconverter="pdflatex"
             ns1:pdfconverter="inkscape"
             ns1:text=" $t$"
             ns1:preamble="C:\Users\user\AppData\Roaming\inkscape\extensions\inkscapeMadeEasy\basicLatexPackages.tex"
             ns1:scale="1.0"
             ns1:alignment="middle center"
             ns1:stroke-to-path="0"
             ns1:inkscapeversion="1.0.1"
             ns1:jacobian_sqrt="1.33333"
             id="g17168">
            <defs
               id="id-826cc215-139d-438c-bf22-8121367ea0e1">
              <g
                 id="id-93d41764-4478-44c7-b181-67ffc141d305">
                <g
                   id="id-4858bd16-407e-4f1f-9b60-2054d829423f" />
                <g
                   id="id-c370b61f-b7c1-490a-984a-03cdf9da4c93">
                  <path
                     d="m 2.046875,-3.984375 h 0.9375 c 0.203125,0 0.3125,0 0.3125,-0.203125 0,-0.109375 -0.109375,-0.109375 -0.28125,-0.109375 h -0.875 C 2.5,-5.71875 2.546875,-5.90625 2.546875,-5.96875 c 0,-0.171875 -0.125,-0.265625 -0.296875,-0.265625 -0.03125,0 -0.3125,0 -0.390625,0.359375 L 1.46875,-4.296875 h -0.9375 c -0.203125,0 -0.296875,0 -0.296875,0.1875 0,0.125 0.078125,0.125 0.28125,0.125 h 0.875 C 0.671875,-1.15625 0.625,-0.984375 0.625,-0.8125 0.625,-0.265625 1,0.109375 1.546875,0.109375 2.5625,0.109375 3.125,-1.34375 3.125,-1.421875 3.125,-1.53125 3.046875,-1.53125 3.015625,-1.53125 2.921875,-1.53125 2.90625,-1.5 2.859375,-1.390625 2.4375,-0.34375 1.90625,-0.109375 1.5625,-0.109375 c -0.203125,0 -0.3125,-0.125 -0.3125,-0.453125 0,-0.25 0.03125,-0.3125 0.0625,-0.484375 z m 0,0"
                     id="id-362a65c1-755a-440e-921e-2d8bc87cbd7a" />
                </g>
              </g>
            </defs>
            <g
               fill="#000000"
               fill-opacity="1"
               id="id-27ae618c-245f-4856-9803-19f5ded1fddf"
               transform="translate(-148.946,-128.531)">
              <g
                 transform="translate(148.712,134.765)"
                 id="g17165">
                <path
                   d="m 2.046875,-3.984375 h 0.9375 c 0.203125,0 0.3125,0 0.3125,-0.203125 0,-0.109375 -0.109375,-0.109375 -0.28125,-0.109375 h -0.875 C 2.5,-5.71875 2.546875,-5.90625 2.546875,-5.96875 c 0,-0.171875 -0.125,-0.265625 -0.296875,-0.265625 -0.03125,0 -0.3125,0 -0.390625,0.359375 L 1.46875,-4.296875 h -0.9375 c -0.203125,0 -0.296875,0 -0.296875,0.1875 0,0.125 0.078125,0.125 0.28125,0.125 h 0.875 C 0.671875,-1.15625 0.625,-0.984375 0.625,-0.8125 0.625,-0.265625 1,0.109375 1.546875,0.109375 2.5625,0.109375 3.125,-1.34375 3.125,-1.421875 3.125,-1.53125 3.046875,-1.53125 3.015625,-1.53125 2.921875,-1.53125 2.90625,-1.5 2.859375,-1.390625 2.4375,-0.34375 1.90625,-0.109375 1.5625,-0.109375 c -0.203125,0 -0.3125,-0.125 -0.3125,-0.453125 0,-0.25 0.03125,-0.3125 0.0625,-0.484375 z m 0,0"
                   id="id-468e58a5-2d1d-4126-906a-6b8177c1544b" />
              </g>
            </g>
          </g>
        </g>
        <path
           inkscape:label="Yaxis"
           style="fill:none;fill-opacity:1;stroke:#4c4c4c;stroke-width:1.42857;stroke-linecap:round;stroke-linejoin:round;stroke-dasharray:none;stroke-opacity:1;marker-end:url(#ArrowAxisEnd)"
           d="M 0,5 V -92.5"
           id="path17172" />
      </g>
    </g>
    <path
       inkscape:label="none"
       style="fill:none;fill-opacity:1;stroke:#0000ff;stroke-width:1.66667;stroke-linecap:round;stroke-linejoin:round;stroke-dasharray:none;stroke-opacity:1"
       d="m 540,0 0.3003,-0.15723661 0.3003,-0.15723506 0.3003,-0.15723194 0.3003,-0.15722728 0.3003,-0.15722106 0.3003,-0.15721329 0.3003,-0.15720396 0.3003,-0.1571931 0.3003,-0.1571806 0.3003,-0.1571666 0.3003,-0.1571511 0.3003,-0.157134 0.3003,-0.1571154 0.3003,-0.1570951 0.3003,-0.1570734 0.3003,-0.15705 0.30031,-0.1570252 0.3003,-0.1569988 0.3003,-0.1569707 0.3003,-0.1569413 0.3003,-0.1569102 0.3003,-0.1568775 0.3003,-0.1568434 0.3003,-0.1568076 0.3003,-0.1567704 0.3003,-0.1567315 0.3003,-0.1566911 0.3003,-0.1566492 0.3003,-0.1566057 0.3003,-0.1565607 0.3003,-0.1565141 0.3003,-0.156466 0.3003,-0.1564163 0.3003,-0.1563651 0.3003,-0.1563123 0.3003,-0.156258 0.3003,-0.1562021 0.3003,-0.1561447 0.3003,-0.1560858 0.3003,-0.1560253 0.3003,-0.1559633 0.3003,-0.1558996 0.3003,-0.1558346 0.3003,-0.1557679 0.3003,-0.1556997 0.3003,-0.15563 0.3003,-0.1555586 0.3003,-0.1554859 0.3003,-0.1554115 0.30031,-0.1553356 0.3003,-0.1552582 0.3003,-0.1551792 0.3003,-0.1550987 0.3003,-0.1550167 0.3003,-0.1549331 0.3003,-0.1548481 0.3003,-0.1547614 0.3003,-0.1546732 0.3003,-0.1545835 0.3003,-0.1544924 0.3003,-0.1543996 0.3003,-0.1543053 0.3003,-0.1542095 0.3003,-0.1541122 0.3003,-0.1540137 0.3003,-0.153913 0.3003,-0.153811 0.3003,-0.153707 0.3003,-0.153603 0.3003,-0.153496 0.3003,-0.153389 0.3003,-0.153278 0.3003,-0.153168 0.3003,-0.153056 0.3003,-0.152941 0.3003,-0.152826 0.3003,-0.152708 0.3003,-0.15259 0.3003,-0.15247 0.3003,-0.152349 0.3003,-0.152225 0.3003,-0.152101 0.3003,-0.151974 0.30031,-0.151848 0.3003,-0.151717 0.3003,-0.151588 0.3003,-0.151455 0.3003,-0.151322 0.3003,-0.151186 0.3003,-0.15105 0.3003,-0.150912 0.3003,-0.150772 0.3003,-0.150632 0.3003,-0.150488 0.3003,-0.150345 0.3003,-0.150199 0.3003,-0.150052 0.3003,-0.149903 0.3003,-0.149754 0.3003,-0.149602 0.3003,-0.149449 0.3003,-0.149295 0.3003,-0.149139 0.3003,-0.148981 0.3003,-0.148823 0.3003,-0.148662 0.3003,-0.148501 0.3003,-0.148337 0.3003,-0.148172 0.3003,-0.148007 0.3003,-0.147838 0.3003,-0.14767 0.3003,-0.147499 0.3003,-0.147327 0.3003,-0.147153 0.3003,-0.146978 0.30031,-0.146802 0.3003,-0.146625 0.3003,-0.146445 0.3003,-0.146264 0.3003,-0.146082 0.3003,-0.145898 0.3003,-0.145713 0.3003,-0.145527 0.3003,-0.145339 0.3003,-0.145149 0.3003,-0.144958 0.3003,-0.144767 0.3003,-0.144572 0.3003,-0.144378 0.3003,-0.14418 0.3003,-0.143983 0.3003,-0.143784 0.3003,-0.143582 0.3003,-0.14338 0.3003,-0.143177 0.3003,-0.142972 0.3003,-0.142765 0.3003,-0.142557 0.3003,-0.142348 0.3003,-0.142137 0.3003,-0.141925 0.3003,-0.141711 0.3003,-0.141497 0.3003,-0.14128 0.3003,-0.141062 0.3003,-0.140843 0.3003,-0.140623 0.3003,-0.140401 0.30031,-0.140177 0.3003,-0.139953 0.3003,-0.139727 0.3003,-0.139499 0.3003,-0.139271 0.3003,-0.13904 0.3003,-0.138808 0.3003,-0.138576 0.3003,-0.138341 0.3003,-0.138106 0.3003,-0.137869 0.3003,-0.13763 0.3003,-0.13739 0.3003,-0.137149 0.3003,-0.136907 0.3003,-0.136663 0.3003,-0.136418 0.3003,-0.136171 0.3003,-0.135923 0.3003,-0.135674 0.3003,-0.135423 0.3003,-0.135171 0.3003,-0.134919 0.3003,-0.134663 0.3003,-0.134408 0.3003,-0.13415 0.3003,-0.133892 0.3003,-0.133631 0.3003,-0.133371 0.3003,-0.133108 0.3003,-0.132844 0.3003,-0.132579 0.3003,-0.132313 0.3003,-0.132044 0.30031,-0.131776 0.3003,-0.131505 0.3003,-0.131233 0.3003,-0.130961 0.3003,-0.130686 0.3003,-0.13041 0.3003,-0.130134 0.3003,-0.129855 0.3003,-0.129576 0.3003,-0.129296 0.3003,-0.129013 0.3003,-0.12873 0.3003,-0.128445 0.3003,-0.128159 0.3003,-0.127873 0.3003,-0.127584 0.3003,-0.127294 0.3003,-0.127004 0.3003,-0.126711 0.3003,-0.126418 0.3003,-0.126123 0.3003,-0.125828 0.3003,-0.12553 0.3003,-0.125232 0.3003,-0.124932 0.3003,-0.124631 0.3003,-0.12433 0.3003,-0.124026 0.3003,-0.123721 0.3003,-0.123416 0.3003,-0.123108 0.3003,-0.122801 0.3003,-0.122491 0.30031,-0.12218 0.3003,-0.121869 0.3003,-0.121555 0.3003,-0.121242 0.3003,-0.120925 0.3003,-0.120609 0.3003,-0.120292 0.3003,-0.119972 0.3003,-0.119652 0.3003,-0.119331 0.3003,-0.119008 0.3003,-0.118684 0.3003,-0.11836 0.3003,-0.118033 0.3003,-0.117706 0.3003,-0.117378 0.3003,-0.117048 0.3003,-0.116717 0.3003,-0.116385 0.3003,-0.116053 0.3003,-0.115718 0.3003,-0.115383 0.3003,-0.115046 0.3003,-0.114709 0.3003,-0.114369 0.3003,-0.11403 0.3003,-0.113689 0.3003,-0.113347 0.3003,-0.113004 0.3003,-0.112659 0.3003,-0.112314 0.3003,-0.111967 0.3003,-0.111619 0.30031,-0.111271 0.3003,-0.110921 0.3003,-0.110569 0.3003,-0.110218 0.3003,-0.109864 0.3003,-0.10951 0.3003,-0.109155 0.3003,-0.108798 0.3003,-0.108441 0.3003,-0.108082 0.3003,-0.107723 0.3003,-0.107361 0.3003,-0.107 0.3003,-0.106637 0.3003,-0.106274 0.3003,-0.105908 0.3003,-0.105542 0.3003,-0.105175 0.3003,-0.104807 0.3003,-0.104438 0.3003,-0.104068 0.3003,-0.103697 0.3003,-0.103324 0.3003,-0.102952 0.3003,-0.102577 0.3003,-0.102201 0.3003,-0.101826 0.3003,-0.101448 0.3003,-0.10107 0.3003,-0.10069 0.3003,-0.100311 0.3003,-0.09993 0.3003,-0.09955 0.3003,-0.09916 0.30031,-0.09878 0.3003,-0.09839 0.3003,-0.09801 0.3003,-0.09762 0.3003,-0.09723 0.3003,-0.09684 0.3003,-0.09645 0.3003,-0.09606 0.3003,-0.09567 0.3003,-0.09528 0.3003,-0.09488 0.3003,-0.09449 0.3003,-0.09409 0.3003,-0.0937 0.3003,-0.0933 0.3003,-0.0929 0.3003,-0.0925 0.3003,-0.0921 0.3003,-0.0917 0.3003,-0.0913 0.3003,-0.0909 0.3003,-0.09049 0.3003,-0.09009 0.3003,-0.08968 0.3003,-0.08927 0.3003,-0.08887 0.3003,-0.08846 0.3003,-0.08805 0.3003,-0.08764 0.3003,-0.08723 0.3003,-0.08681 0.3003,-0.0864 0.3003,-0.08599 0.30031,-0.08557 0.3003,-0.08516 0.3003,-0.08474 0.3003,-0.08433 0.3003,-0.08391 0.3003,-0.08349 0.3003,-0.08307 0.3003,-0.08265 0.3003,-0.08223 0.3003,-0.08181 0.3003,-0.08138 0.3003,-0.08096 0.3003,-0.08054 0.3003,-0.08011 0.3003,-0.07969 0.3003,-0.07926 0.3003,-0.07883 0.3003,-0.0784 0.3003,-0.07798 0.3003,-0.07755 0.3003,-0.07711 0.3003,-0.07668 0.3003,-0.07625 0.3003,-0.07582 0.3003,-0.07538 0.3003,-0.07495 0.3003,-0.07452 0.3003,-0.07408 0.3003,-0.07364 0.3003,-0.07321 0.3003,-0.07277 0.3003,-0.07233 0.3003,-0.07189 0.30031,-0.07145 0.3003,-0.07101 0.3003,-0.07057 0.3003,-0.07012 0.3003,-0.06968 0.3003,-0.06924 0.3003,-0.0688 0.3003,-0.06835 0.3003,-0.0679 0.3003,-0.06746 0.3003,-0.06701 0.3003,-0.06656 0.3003,-0.06611 0.3003,-0.06567 0.3003,-0.06522 0.3003,-0.06477 0.3003,-0.06432 0.3003,-0.06386 0.3003,-0.06341 0.3003,-0.06296 0.3003,-0.06251 0.3003,-0.06205 0.3003,-0.0616 0.3003,-0.06114 0.3003,-0.06069 0.3003,-0.06023 0.3003,-0.05977 0.3003,-0.05931 0.3003,-0.05886 0.3003,-0.0584 0.3003,-0.05794 0.3003,-0.05748 0.3003,-0.05702 0.30031,-0.05656 0.3003,-0.05609 0.3003,-0.05563 0.3003,-0.05517 0.3003,-0.05471 0.3003,-0.05424 0.3003,-0.05378 0.3003,-0.05331 0.3003,-0.05285 0.3003,-0.05238 0.3003,-0.05191 0.3003,-0.05145 0.3003,-0.05098 0.3003,-0.05051 0.3003,-0.05004 0.3003,-0.04958 0.3003,-0.04911 0.3003,-0.04864 0.3003,-0.04817 0.3003,-0.04769 0.3003,-0.04722 0.3003,-0.04675 0.3003,-0.04628 0.3003,-0.04581 0.3003,-0.04533 0.3003,-0.04486 0.3003,-0.04438 0.3003,-0.04391 0.3003,-0.04344 0.3003,-0.04296 0.3003,-0.04248 0.3003,-0.04201 0.3003,-0.04153 0.3003,-0.04105 0.30031,-0.04058 0.3003,-0.0401 0.3003,-0.03962 0.3003,-0.03914 0.3003,-0.03866 0.3003,-0.03818 0.3003,-0.0377 0.3003,-0.03722 0.3003,-0.03674 0.3003,-0.03626 0.3003,-0.03578 0.3003,-0.0353 0.3003,-0.03482 0.3003,-0.03433 0.3003,-0.03385 0.3003,-0.03337 0.3003,-0.03289 0.3003,-0.0324 0.3003,-0.03192 0.3003,-0.03143 0.3003,-0.03095 0.3003,-0.03046 0.3003,-0.02998 0.3003,-0.02949 0.3003,-0.02901 0.3003,-0.02852 0.3003,-0.02803 0.3003,-0.02755 0.3003,-0.02706 0.3003,-0.02657 0.3003,-0.02609 0.3003,-0.0256 0.3003,-0.02511 0.30031,-0.02462 0.3003,-0.02413 0.3003,-0.02364 0.3003,-0.02316 0.3003,-0.02267 0.3003,-0.02218 0.3003,-0.02169 0.3003,-0.0212 0.3003,-0.02071 0.3003,-0.02022 0.3003,-0.01973 0.3003,-0.01924 0.3003,-0.01875 0.3003,-0.01825 0.3003,-0.01776 0.3003,-0.01727 0.3003,-0.01678 0.3003,-0.01629 0.3003,-0.0158 0.3003,-0.0153 0.3003,-0.01481 0.3003,-0.01432 0.3003,-0.01383 0.3003,-0.01333 0.3003,-0.01284 0.3003,-0.01235 0.3003,-0.01186 0.3003,-0.01136 0.3003,-0.01087 0.3003,-0.01038 0.3003,-0.0099 0.3003,-0.0094 0.3003,-0.0089 0.30031,-0.0084 0.3003,-0.0079 0.3003,-0.0074 0.3003,-0.0069 0.3003,-0.0064 0.3003,-0.0059 0.3003,-0.0054 0.3003,-0.0049 0.3003,-0.0044 0.3003,-0.004 0.3003,-0.0035 0.3003,-0.003 0.3003,-0.0025 0.3003,-0.002 0.3003,-0.0015 0.3003,-9.89e-4 0.3003,-4.94e-4 h 0.3003 l 0.3003,4.94e-4 0.3003,9.89e-4 0.3003,0.0015 0.3003,0.002 0.3003,0.0025 0.3003,0.003 0.3003,0.0035 0.3003,0.004 0.3003,0.0044 0.3003,0.0049 0.3003,0.0054 0.3003,0.0059 0.3003,0.0064 0.3003,0.0069 0.3003,0.0074 0.3003,0.0079 0.30031,0.0084 0.3003,0.0089 0.3003,0.0094 0.3003,0.0099 0.3003,0.01038 0.3003,0.01087 0.3003,0.01136 0.3003,0.01186 0.3003,0.01235 0.3003,0.01284 0.3003,0.01333 0.3003,0.01383 0.3003,0.01432 0.3003,0.01481 0.3003,0.0153 0.3003,0.0158 0.3003,0.01629 0.3003,0.01678 0.3003,0.01727 0.3003,0.01776 0.3003,0.01825 0.3003,0.01875 0.3003,0.01924 0.3003,0.01973 0.3003,0.02022 0.3003,0.02071 0.3003,0.0212 0.3003,0.02169 0.3003,0.02218 0.3003,0.02267 0.3003,0.02316 0.3003,0.02364 0.3003,0.02413 0.30031,0.02462 0.3003,0.02511 0.3003,0.0256 0.3003,0.02609 0.3003,0.02657 0.3003,0.02706 0.3003,0.02755 0.3003,0.02803 0.3003,0.02852 0.3003,0.02901 0.3003,0.02949 0.3003,0.02998 0.3003,0.03046 0.3003,0.03095 0.3003,0.03143 0.3003,0.03192 0.3003,0.0324 0.3003,0.03289 0.3003,0.03337 0.3003,0.03385 0.3003,0.03433 0.3003,0.03482 0.3003,0.0353 0.3003,0.03578 0.3003,0.03626 0.3003,0.03674 0.3003,0.03722 0.3003,0.0377 0.3003,0.03818 0.3003,0.03866 0.3003,0.03914 0.3003,0.03962 0.3003,0.0401 0.30031,0.04058 0.3003,0.04105 0.3003,0.04153 0.3003,0.04201 0.3003,0.04248 0.3003,0.04296 0.3003,0.04344 0.3003,0.04391 0.3003,0.04438 0.3003,0.04486 0.3003,0.04533 0.3003,0.04581 0.3003,0.04628 0.3003,0.04675 0.3003,0.04722 0.3003,0.04769 0.3003,0.04817 0.3003,0.04864 0.3003,0.04911 0.3003,0.04958 0.3003,0.05004 0.3003,0.05051 0.3003,0.05098 0.3003,0.05145 0.3003,0.05191 0.3003,0.05238 0.3003,0.05285 0.3003,0.05331 0.3003,0.05378 0.3003,0.05424 0.3003,0.05471 0.3003,0.05517 0.3003,0.05563 0.3003,0.05609 0.30031,0.05656 0.3003,0.05702 0.3003,0.05748 0.3003,0.05794 0.3003,0.0584 0.3003,0.05886 0.3003,0.05931 0.3003,0.05977 0.3003,0.06023 0.3003,0.06069 0.3003,0.06114 0.3003,0.0616 0.3003,0.06205 0.3003,0.06251 0.3003,0.06296 0.3003,0.06341 0.3003,0.06386 0.3003,0.06432 0.3003,0.06477 0.3003,0.06522 0.3003,0.06567 0.3003,0.06611 0.3003,0.06656 0.3003,0.06701 0.3003,0.06746 0.3003,0.0679 0.3003,0.06835 0.3003,0.0688 0.3003,0.06924 0.3003,0.06968 0.3003,0.07012 0.3003,0.07057 0.3003,0.07101 0.30031,0.07145 0.3003,0.07189 0.3003,0.07233 0.3003,0.07277 0.3003,0.07321 0.3003,0.07364 0.3003,0.07408 0.3003,0.07452 0.3003,0.07495 0.3003,0.07538 0.3003,0.07582 0.3003,0.07625 0.3003,0.07668 0.3003,0.07711 0.3003,0.07755 0.3003,0.07798 0.3003,0.0784 0.3003,0.07883 0.3003,0.07926 0.3003,0.07969 0.3003,0.08011 0.3003,0.08054 0.3003,0.08096 0.3003,0.08138 0.3003,0.08181 0.3003,0.08223 0.3003,0.08265 0.3003,0.08307 0.3003,0.08349 0.3003,0.08391 0.3003,0.08433 0.3003,0.08474 0.3003,0.08516 0.30031,0.08557 0.3003,0.08599 0.3003,0.0864 0.3003,0.08681 0.3003,0.08723 0.3003,0.08764 0.3003,0.08805 0.3003,0.08846 0.3003,0.08887 0.3003,0.08927 0.3003,0.08968 0.3003,0.09009 0.3003,0.09049 0.3003,0.0909 0.3003,0.0913 0.3003,0.0917 0.3003,0.0921 0.3003,0.0925 0.3003,0.0929 0.3003,0.0933 0.3003,0.0937 0.3003,0.09409 0.3003,0.09449 0.3003,0.09488 0.3003,0.09528 0.3003,0.09567 0.3003,0.09606 0.3003,0.09645 0.3003,0.09684 0.3003,0.09723 0.3003,0.09762 0.3003,0.09801 0.3003,0.09839 0.30031,0.09878 0.3003,0.09916 0.3003,0.09955 0.3003,0.09993 0.3003,0.100311 0.3003,0.10069 0.3003,0.10107 0.3003,0.101448 0.3003,0.101826 0.3003,0.102201 0.3003,0.102577 0.3003,0.102952 0.3003,0.103324 0.3003,0.103697 0.3003,0.104068 0.3003,0.104438 0.3003,0.104807 0.3003,0.105175 0.3003,0.105542 0.3003,0.105908 0.3003,0.106274 0.3003,0.106637 0.3003,0.107 0.3003,0.107361 0.3003,0.107723 0.3003,0.108082 0.3003,0.108441 0.3003,0.108798 0.3003,0.109155 0.3003,0.10951 0.3003,0.109864 0.3003,0.110218 0.3003,0.110569 0.3003,0.110921 0.30031,0.111271 0.3003,0.111619 0.3003,0.111967 0.3003,0.112314 0.3003,0.112659 0.3003,0.113004 0.3003,0.113347 0.3003,0.113689 0.3003,0.11403 0.3003,0.114369 0.3003,0.114709 0.3003,0.115046 0.3003,0.115383 0.3003,0.115718 0.3003,0.116053 0.3003,0.116385 0.3003,0.116717 0.3003,0.117048 0.3003,0.117378 0.3003,0.117706 0.3003,0.118033 0.3003,0.11836 0.3003,0.118684 0.3003,0.119008 0.3003,0.119331 0.3003,0.119652 0.3003,0.119972 0.3003,0.120292 0.3003,0.120609 0.3003,0.120925 0.3003,0.121242 0.3003,0.121555 0.3003,0.121869 0.30031,0.12218 0.3003,0.122491 0.3003,0.122801 0.3003,0.123108 0.3003,0.123416 0.3003,0.123721 0.3003,0.124026 0.3003,0.12433 0.3003,0.124631 0.3003,0.124932 0.3003,0.125232 0.3003,0.12553 0.3003,0.125828 0.3003,0.126123 0.3003,0.126418 0.3003,0.126711 0.3003,0.127004 0.3003,0.127294 0.3003,0.127584 0.3003,0.127873 0.3003,0.128159 0.3003,0.128445 0.3003,0.12873 0.3003,0.129013 0.3003,0.129296 0.3003,0.129576 0.3003,0.129855 0.3003,0.130134 0.3003,0.13041 0.3003,0.130686 0.3003,0.130961 0.3003,0.131233 0.3003,0.131505 0.30031,0.131776 0.3003,0.132044 0.3003,0.132313 0.3003,0.132579 0.3003,0.132844 0.3003,0.133108 0.3003,0.133371 0.3003,0.133631 0.3003,0.133892 0.3003,0.13415 0.3003,0.134408 0.3003,0.134663 0.3003,0.134919 0.3003,0.135171 0.3003,0.135423 0.3003,0.135674 0.3003,0.135923 0.3003,0.136171 0.3003,0.136418 0.3003,0.136663 0.3003,0.136907 0.3003,0.137149 0.3003,0.13739 0.3003,0.13763 0.3003,0.137869 0.3003,0.138106 0.3003,0.138341 0.3003,0.138576 0.3003,0.138808 0.3003,0.13904 0.3003,0.139271 0.3003,0.139499 0.3003,0.139727 0.3003,0.139953 0.30031,0.140177 0.3003,0.140401 0.3003,0.140623 0.3003,0.140843 0.3003,0.141062 0.3003,0.14128 0.3003,0.141497 0.3003,0.141711 0.3003,0.141925 0.3003,0.142137 0.3003,0.142348 0.3003,0.142557 0.3003,0.142765 0.3003,0.142972 0.3003,0.143177 0.3003,0.14338 0.3003,0.143582 0.3003,0.143784 0.3003,0.143983 0.3003,0.14418 0.3003,0.144378 0.3003,0.144572 0.3003,0.144767 0.3003,0.144958 0.3003,0.145149 0.3003,0.145339 0.3003,0.145527 0.3003,0.145713 0.3003,0.145898 0.3003,0.146082 0.3003,0.146264 0.3003,0.146445 0.3003,0.146625 0.30031,0.146802 0.3003,0.146978 0.3003,0.147153 0.3003,0.147327 0.3003,0.147499 0.3003,0.14767 0.3003,0.147838 0.3003,0.148007 0.3003,0.148172 0.3003,0.148337 0.3003,0.148501 0.3003,0.148662 0.3003,0.148823 0.3003,0.148981 0.3003,0.149139 0.3003,0.149295 0.3003,0.149449 0.3003,0.149602 0.3003,0.149754 0.3003,0.149903 0.3003,0.150052 0.3003,0.150199 0.3003,0.150345 0.3003,0.150488 0.3003,0.150632 0.3003,0.150772 0.3003,0.150912 0.3003,0.15105 0.3003,0.151186 0.3003,0.151322 0.3003,0.151455 0.3003,0.151588 0.3003,0.151717 0.30031,0.151848 0.3003,0.151974 0.3003,0.152101 0.3003,0.152225 0.3003,0.152349 0.3003,0.15247 0.3003,0.15259 0.3003,0.152708 0.3003,0.152826 0.3003,0.152941 0.3003,0.153056 0.3003,0.153168 0.3003,0.153278 0.3003,0.153389 0.3003,0.153496 0.3003,0.153603 0.3003,0.153707 0.3003,0.153811 0.3003,0.153913 0.3003,0.1540137 0.3003,0.1541122 0.3003,0.1542095 0.3003,0.1543053 0.3003,0.1543996 0.3003,0.1544924 0.3003,0.1545835 0.3003,0.1546732 0.3003,0.1547614 0.3003,0.1548481 0.3003,0.1549331 0.3003,0.1550167 0.3003,0.1550987 0.3003,0.1551792 0.3003,0.1552582 0.30031,0.1553356 0.3003,0.1554115 0.3003,0.1554859 0.3003,0.1555586 0.3003,0.15563 0.3003,0.1556997 0.3003,0.1557679 0.3003,0.1558346 0.3003,0.1558996 0.3003,0.1559633 0.3003,0.1560253 0.3003,0.1560858 0.3003,0.1561447 0.3003,0.1562021 0.3003,0.156258 0.3003,0.1563123 0.3003,0.1563651 0.3003,0.1564163 0.3003,0.156466 0.3003,0.1565141 0.3003,0.1565607 0.3003,0.1566057 0.3003,0.1566492 0.3003,0.1566911 0.3003,0.1567315 0.3003,0.1567704 0.3003,0.1568076 0.3003,0.1568434 0.3003,0.1568775 0.3003,0.1569102 0.3003,0.1569413 0.3003,0.1569707 0.3003,0.1569988 0.30031,0.1570252 0.3003,0.15705 0.3003,0.1570734 0.3003,0.1570951 0.3003,0.1571154 0.3003,0.157134 0.3003,0.1571511 0.3003,0.1571666 0.3003,0.1571806 0.3003,0.1571931 0.3003,0.15720396 0.3003,0.15721329 0.3003,0.15722106 0.3003,0.15722728 0.3003,0.15723194 0.3003,0.15723506 L 840,0"
       id="path17178" />
  </g>
  <g
     inkscape:label="PlotData"
     id="g17834"
     transform="translate(-517.39202,95.644016)">
    <g
       inkscape:label="Plot"
       transform="translate(540)"
       id="g17830">
      <g
         inkscape:label="Ticks"
         id="g17809">
        <path
           inkscape:label="none"
           style="fill:none;fill-opacity:1;stroke:#b2b2b2;stroke-width:1;stroke-linecap:round;stroke-linejoin:round;stroke-dasharray:none;stroke-opacity:1"
           d="M 50,55 V -55"
           id="path17743" />
        <path
           inkscape:label="none"
           style="fill:none;fill-opacity:1;stroke:#b2b2b2;stroke-width:1;stroke-linecap:round;stroke-linejoin:round;stroke-dasharray:none;stroke-opacity:1"
           d="M 100,55 V -55"
           id="path17745" />
        <path
           inkscape:label="none"
           style="fill:none;fill-opacity:1;stroke:#b2b2b2;stroke-width:1;stroke-linecap:round;stroke-linejoin:round;stroke-dasharray:none;stroke-opacity:1"
           d="M 150,55 V -55"
           id="path17747" />
        <path
           inkscape:label="none"
           style="fill:none;fill-opacity:1;stroke:#b2b2b2;stroke-width:1;stroke-linecap:round;stroke-linejoin:round;stroke-dasharray:none;stroke-opacity:1"
           d="M 200,55 V -55"
           id="path17749" />
        <path
           inkscape:label="none"
           style="fill:none;fill-opacity:1;stroke:#b2b2b2;stroke-width:1;stroke-linecap:round;stroke-linejoin:round;stroke-dasharray:none;stroke-opacity:1"
           d="M 250,55 V -55"
           id="path17751" />
        <path
           inkscape:label="none"
           style="fill:none;fill-opacity:1;stroke:#b2b2b2;stroke-width:1;stroke-linecap:round;stroke-linejoin:round;stroke-dasharray:none;stroke-opacity:1"
           d="M 300,55 V -55"
           id="path17753" />
        <g
           inkscape:label="Layer 1"
           inkscape:groupmode="layer"
           id="g17766"
           transform="matrix(1.105994,0,0,1.105994,-451.73423,-619.35709)">
          <g
             transform="matrix(1.33333,0,0,1.33333,397.208,555.427)"
             ns1:version="1.8.2"
             ns1:texconverter="pdflatex"
             ns1:pdfconverter="inkscape"
             ns1:text=" $0$"
             ns1:preamble="C:\Users\user\AppData\Roaming\inkscape\extensions\inkscapeMadeEasy\basicLatexPackages.tex"
             ns1:scale="1.0"
             ns1:alignment="middle center"
             ns1:stroke-to-path="0"
             ns1:inkscapeversion="1.0.1"
             ns1:jacobian_sqrt="1.33333"
             id="g17764">
            <defs
               id="id-f39c3752-2e8b-4aa9-b648-2463a445f79a">
              <g
                 id="id-1e624944-40cf-45e1-8378-b049aabdaa9a">
                <g
                   id="id-d6b21c4c-1a49-4cfd-9418-81555bd0bf91" />
                <g
                   id="id-26f5f811-eb07-401a-bdb4-39c6e4738e9e">
                  <path
                     d="m 4.578125,-3.1875 c 0,-0.796875 -0.046875,-1.59375 -0.390625,-2.328125 -0.453125,-0.96875 -1.28125,-1.125 -1.6875,-1.125 -0.609375,0 -1.328125,0.265625 -1.75,1.1875 -0.3125,0.6875 -0.359375,1.46875 -0.359375,2.265625 0,0.75 0.03125,1.640625 0.453125,2.40625 0.421875,0.796875 1.15625,1 1.640625,1 0.53125,0 1.296875,-0.203125 1.734375,-1.15625 0.3125,-0.6875 0.359375,-1.46875 0.359375,-2.25 z M 2.484375,0 C 2.09375,0 1.5,-0.25 1.328125,-1.203125 1.21875,-1.796875 1.21875,-2.71875 1.21875,-3.3125 c 0,-0.640625 0,-1.296875 0.078125,-1.828125 0.1875,-1.1875 0.9375,-1.28125 1.1875,-1.28125 0.328125,0 0.984375,0.1875 1.171875,1.171875 0.109375,0.5625 0.109375,1.3125 0.109375,1.9375 0,0.75 0,1.421875 -0.109375,2.0625 C 3.5,-0.296875 2.9375,0 2.484375,0 Z m 0,0"
                     id="id-36d24b8f-2b99-4d51-9459-7395cc23e811" />
                </g>
              </g>
            </defs>
            <g
               fill="#000000"
               fill-opacity="1"
               id="id-b51e41c7-b3c0-4c44-a9d3-bdbb65b7494e"
               transform="translate(-149.103,-128.124)">
              <g
                 transform="translate(148.712,134.765)"
                 id="g17761">
                <path
                   d="m 4.578125,-3.1875 c 0,-0.796875 -0.046875,-1.59375 -0.390625,-2.328125 -0.453125,-0.96875 -1.28125,-1.125 -1.6875,-1.125 -0.609375,0 -1.328125,0.265625 -1.75,1.1875 -0.3125,0.6875 -0.359375,1.46875 -0.359375,2.265625 0,0.75 0.03125,1.640625 0.453125,2.40625 0.421875,0.796875 1.15625,1 1.640625,1 0.53125,0 1.296875,-0.203125 1.734375,-1.15625 0.3125,-0.6875 0.359375,-1.46875 0.359375,-2.25 z M 2.484375,0 C 2.09375,0 1.5,-0.25 1.328125,-1.203125 1.21875,-1.796875 1.21875,-2.71875 1.21875,-3.3125 c 0,-0.640625 0,-1.296875 0.078125,-1.828125 0.1875,-1.1875 0.9375,-1.28125 1.1875,-1.28125 0.328125,0 0.984375,0.1875 1.171875,1.171875 0.109375,0.5625 0.109375,1.3125 0.109375,1.9375 0,0.75 0,1.421875 -0.109375,2.0625 C 3.5,-0.296875 2.9375,0 2.484375,0 Z m 0,0"
                   id="id-ab2e7225-d1a0-4893-ac0a-2f122e5c1fba" />
              </g>
            </g>
          </g>
        </g>
        <path
           inkscape:label="none"
           style="fill:none;fill-opacity:1;stroke:#b2b2b2;stroke-width:1;stroke-linecap:round;stroke-linejoin:round;stroke-dasharray:none;stroke-opacity:1"
           d="M 0,-50 H 300"
           id="path17768" />
        <path
           inkscape:label="none"
           style="fill:none;fill-opacity:1;stroke:#4c4c4c;stroke-width:1.42857;stroke-linecap:round;stroke-linejoin:round;stroke-dasharray:none;stroke-opacity:1"
           d="m -3.125,-50 h 6.25"
           id="path17770" />
        <g
           inkscape:label="Layer 1"
           inkscape:groupmode="layer"
           id="g17783"
           transform="matrix(1.105994,0,0,1.105994,-451.06695,-669.35727)">
          <g
             transform="matrix(1.33333,0,0,1.33333,397.813,555.573)"
             ns1:version="1.8.2"
             ns1:texconverter="pdflatex"
             ns1:pdfconverter="inkscape"
             ns1:text=" $1$"
             ns1:preamble="C:\Users\user\AppData\Roaming\inkscape\extensions\inkscapeMadeEasy\basicLatexPackages.tex"
             ns1:scale="1.0"
             ns1:alignment="middle center"
             ns1:stroke-to-path="0"
             ns1:inkscapeversion="1.0.1"
             ns1:jacobian_sqrt="1.33333"
             id="g17781">
            <defs
               id="id-658d5554-1f49-4fb9-8b06-20394440c5eb">
              <g
                 id="id-dbe33ef3-5f6b-4073-8998-fb1d2377962d">
                <g
                   id="id-818588d4-da5a-49ff-a887-2944549557ba" />
                <g
                   id="id-9ba08177-99d6-4442-be88-1fd266fd276a">
                  <path
                     d="m 2.9375,-6.375 c 0,-0.25 0,-0.265625 -0.234375,-0.265625 C 2.078125,-6 1.203125,-6 0.890625,-6 v 0.3125 c 0.203125,0 0.78125,0 1.296875,-0.265625 v 5.171875 c 0,0.359375 -0.03125,0.46875 -0.921875,0.46875 h -0.3125 V 0 c 0.34375,-0.03125 1.203125,-0.03125 1.609375,-0.03125 0.390625,0 1.265625,0 1.609375,0.03125 v -0.3125 h -0.3125 c -0.90625,0 -0.921875,-0.109375 -0.921875,-0.46875 z m 0,0"
                     id="id-82f1bfda-3c20-4036-9ad6-4f653f31d9a8" />
                </g>
              </g>
            </defs>
            <g
               fill="#000000"
               fill-opacity="1"
               id="id-517477b3-46fa-49f1-a242-ba94b8a79906"
               transform="translate(-149.603,-128.124)">
              <g
                 transform="translate(148.712,134.765)"
                 id="g17778">
                <path
                   d="m 2.9375,-6.375 c 0,-0.25 0,-0.265625 -0.234375,-0.265625 C 2.078125,-6 1.203125,-6 0.890625,-6 v 0.3125 c 0.203125,0 0.78125,0 1.296875,-0.265625 v 5.171875 c 0,0.359375 -0.03125,0.46875 -0.921875,0.46875 h -0.3125 V 0 c 0.34375,-0.03125 1.203125,-0.03125 1.609375,-0.03125 0.390625,0 1.265625,0 1.609375,0.03125 v -0.3125 h -0.3125 c -0.90625,0 -0.921875,-0.109375 -0.921875,-0.46875 z m 0,0"
                   id="id-7b81cca3-b538-431c-b9ea-b4a672461598" />
              </g>
            </g>
          </g>
        </g>
        <path
           inkscape:label="none"
           style="fill:none;fill-opacity:1;stroke:#b2b2b2;stroke-width:1;stroke-linecap:round;stroke-linejoin:round;stroke-dasharray:none;stroke-opacity:1"
           d="M 0,50 H 300"
           id="path17785" />
        <path
           inkscape:label="none"
           style="fill:none;fill-opacity:1;stroke:#4c4c4c;stroke-width:1.42857;stroke-linecap:round;stroke-linejoin:round;stroke-dasharray:none;stroke-opacity:1"
           d="m -3.125,50 h 6.25"
           id="path17787" />
        <g
           inkscape:label="Layer 1"
           inkscape:groupmode="layer"
           id="g17807"
           transform="matrix(1.105994,0,0,1.105994,-456.82694,-569.35727)">
          <g
             transform="matrix(1.33333,0,0,1.33333,392.605,555.573)"
             ns1:version="1.8.2"
             ns1:texconverter="pdflatex"
             ns1:pdfconverter="inkscape"
             ns1:text=" $-1$"
             ns1:preamble="C:\Users\user\AppData\Roaming\inkscape\extensions\inkscapeMadeEasy\basicLatexPackages.tex"
             ns1:scale="1.0"
             ns1:alignment="middle center"
             ns1:stroke-to-path="0"
             ns1:inkscapeversion="1.0.1"
             ns1:jacobian_sqrt="1.33333"
             id="g17805">
            <defs
               id="id-d795cc92-e25f-4032-92cd-bc2386bf9a21">
              <g
                 id="id-2ec5a0f7-2b0f-4e6e-a8ae-904341e99233">
                <g
                   id="id-374b84cb-cc6d-41c1-aeba-cdc7a46387df" />
                <g
                   id="id-cb678ba4-b8b7-4412-af1e-13e1f6927eb4">
                  <path
                     d="m 6.5625,-2.296875 c 0.171875,0 0.359375,0 0.359375,-0.203125 0,-0.1875 -0.1875,-0.1875 -0.359375,-0.1875 H 1.171875 c -0.171875,0 -0.34375,0 -0.34375,0.1875 0,0.203125 0.171875,0.203125 0.34375,0.203125 z m 0,0"
                     id="id-f2470e37-62d5-485a-951c-eff99417c2b4" />
                </g>
                <g
                   id="id-d9cd74c6-4204-4a51-8de9-651c3d54bdd8" />
                <g
                   id="id-219498f9-fcf3-425c-b937-40435366a1ab">
                  <path
                     d="m 2.9375,-6.375 c 0,-0.25 0,-0.265625 -0.234375,-0.265625 C 2.078125,-6 1.203125,-6 0.890625,-6 v 0.3125 c 0.203125,0 0.78125,0 1.296875,-0.265625 v 5.171875 c 0,0.359375 -0.03125,0.46875 -0.921875,0.46875 h -0.3125 V 0 c 0.34375,-0.03125 1.203125,-0.03125 1.609375,-0.03125 0.390625,0 1.265625,0 1.609375,0.03125 v -0.3125 h -0.3125 c -0.90625,0 -0.921875,-0.109375 -0.921875,-0.46875 z m 0,0"
                     id="id-9aed2ecb-4ae0-45c4-b99c-f2446ed42047" />
                </g>
              </g>
            </defs>
            <g
               fill="#000000"
               fill-opacity="1"
               id="id-3c733ae3-a655-46e8-bbbb-bce67a5f810a"
               transform="translate(-149.54,-128.124)">
              <g
                 transform="translate(148.712,134.765)"
                 id="g17798">
                <path
                   d="m 6.5625,-2.296875 c 0.171875,0 0.359375,0 0.359375,-0.203125 0,-0.1875 -0.1875,-0.1875 -0.359375,-0.1875 H 1.171875 c -0.171875,0 -0.34375,0 -0.34375,0.1875 0,0.203125 0.171875,0.203125 0.34375,0.203125 z m 0,0"
                   id="id-3e857452-7ce4-4585-937a-b2f3624f9f18" />
              </g>
            </g>
            <g
               fill="#000000"
               fill-opacity="1"
               id="id-558ec4f9-bd4d-4074-9150-a8239c68beb7"
               transform="translate(-149.54,-128.124)">
              <g
                 transform="translate(156.461,134.765)"
                 id="g17802">
                <path
                   d="m 2.9375,-6.375 c 0,-0.25 0,-0.265625 -0.234375,-0.265625 C 2.078125,-6 1.203125,-6 0.890625,-6 v 0.3125 c 0.203125,0 0.78125,0 1.296875,-0.265625 v 5.171875 c 0,0.359375 -0.03125,0.46875 -0.921875,0.46875 h -0.3125 V 0 c 0.34375,-0.03125 1.203125,-0.03125 1.609375,-0.03125 0.390625,0 1.265625,0 1.609375,0.03125 v -0.3125 h -0.3125 c -0.90625,0 -0.921875,-0.109375 -0.921875,-0.46875 z m 0,0"
                   id="id-14831e73-66fa-4d06-a3cf-eb252c843b54" />
              </g>
            </g>
          </g>
        </g>
      </g>
      <g
         inkscape:label="Axis"
         id="g17828">
        <path
           inkscape:label="Xaxis"
           style="fill:none;fill-opacity:1;stroke:#4c4c4c;stroke-width:1.42857;stroke-linecap:round;stroke-linejoin:round;stroke-dasharray:none;stroke-opacity:1;marker-end:url(#ArrowAxisEnd)"
           d="M 0,0 H 325"
           id="path17811" />
        <g
           inkscape:label="Layer 1"
           inkscape:groupmode="layer"
           id="g17824"
           transform="matrix(1.382492,0,0,1.382492,-229.34111,-762.09827)">
          <g
             transform="matrix(1.33333,0,0,1.33333,397.958,555.771)"
             ns1:version="1.8.2"
             ns1:texconverter="pdflatex"
             ns1:pdfconverter="inkscape"
             ns1:text=" $t$"
             ns1:preamble="C:\Users\user\AppData\Roaming\inkscape\extensions\inkscapeMadeEasy\basicLatexPackages.tex"
             ns1:scale="1.0"
             ns1:alignment="middle center"
             ns1:stroke-to-path="0"
             ns1:inkscapeversion="1.0.1"
             ns1:jacobian_sqrt="1.33333"
             id="g17822">
            <defs
               id="id-91739b10-e455-4380-a956-4a004b96bf21">
              <g
                 id="id-359f8c8c-2108-4394-9d51-17dc527173f2">
                <g
                   id="id-7ed9b85b-15e8-434b-a071-19eaa5546f74" />
                <g
                   id="id-8f0148d1-dda4-4ea3-8c9f-53cf6f5e195b">
                  <path
                     d="m 2.046875,-3.984375 h 0.9375 c 0.203125,0 0.3125,0 0.3125,-0.203125 0,-0.109375 -0.109375,-0.109375 -0.28125,-0.109375 h -0.875 C 2.5,-5.71875 2.546875,-5.90625 2.546875,-5.96875 c 0,-0.171875 -0.125,-0.265625 -0.296875,-0.265625 -0.03125,0 -0.3125,0 -0.390625,0.359375 L 1.46875,-4.296875 h -0.9375 c -0.203125,0 -0.296875,0 -0.296875,0.1875 0,0.125 0.078125,0.125 0.28125,0.125 h 0.875 C 0.671875,-1.15625 0.625,-0.984375 0.625,-0.8125 0.625,-0.265625 1,0.109375 1.546875,0.109375 2.5625,0.109375 3.125,-1.34375 3.125,-1.421875 3.125,-1.53125 3.046875,-1.53125 3.015625,-1.53125 2.921875,-1.53125 2.90625,-1.5 2.859375,-1.390625 2.4375,-0.34375 1.90625,-0.109375 1.5625,-0.109375 c -0.203125,0 -0.3125,-0.125 -0.3125,-0.453125 0,-0.25 0.03125,-0.3125 0.0625,-0.484375 z m 0,0"
                     id="id-ae20e263-fea0-43d7-be13-6ca627dd34f4" />
                </g>
              </g>
            </defs>
            <g
               fill="#000000"
               fill-opacity="1"
               id="id-7a689523-a383-4a41-9f22-db91b2196409"
               transform="translate(-148.946,-128.531)">
              <g
                 transform="translate(148.712,134.765)"
                 id="g17819">
                <path
                   d="m 2.046875,-3.984375 h 0.9375 c 0.203125,0 0.3125,0 0.3125,-0.203125 0,-0.109375 -0.109375,-0.109375 -0.28125,-0.109375 h -0.875 C 2.5,-5.71875 2.546875,-5.90625 2.546875,-5.96875 c 0,-0.171875 -0.125,-0.265625 -0.296875,-0.265625 -0.03125,0 -0.3125,0 -0.390625,0.359375 L 1.46875,-4.296875 h -0.9375 c -0.203125,0 -0.296875,0 -0.296875,0.1875 0,0.125 0.078125,0.125 0.28125,0.125 h 0.875 C 0.671875,-1.15625 0.625,-0.984375 0.625,-0.8125 0.625,-0.265625 1,0.109375 1.546875,0.109375 2.5625,0.109375 3.125,-1.34375 3.125,-1.421875 3.125,-1.53125 3.046875,-1.53125 3.015625,-1.53125 2.921875,-1.53125 2.90625,-1.5 2.859375,-1.390625 2.4375,-0.34375 1.90625,-0.109375 1.5625,-0.109375 c -0.203125,0 -0.3125,-0.125 -0.3125,-0.453125 0,-0.25 0.03125,-0.3125 0.0625,-0.484375 z m 0,0"
                   id="id-3ea4b9f3-2233-4e2c-8c25-3d3ba7874c2e" />
              </g>
            </g>
          </g>
        </g>
        <path
           inkscape:label="Yaxis"
           style="fill:none;fill-opacity:1;stroke:#4c4c4c;stroke-width:1.42857;stroke-linecap:round;stroke-linejoin:round;stroke-dasharray:none;stroke-opacity:1;marker-end:url(#ArrowAxisEnd)"
           d="M 0,55 V -92.5"
           id="path17826" />
      </g>
    </g>
    <path
       inkscape:label="none"
       style="fill:none;fill-opacity:1;stroke:#ff0000;stroke-width:1.66667;stroke-linecap:round;stroke-linejoin:round;stroke-dasharray:none;stroke-opacity:1"
       d="m 540,0 0.3003,-0.31447167 0.3003,-0.31445922 0.3003,-0.31443435 0.3003,-0.31439706 0.3003,-0.3143472 0.3003,-0.3142851 0.3003,-0.3142105 0.3003,-0.3141234 0.3003,-0.314024 0.3003,-0.313912 0.3003,-0.3137877 0.3003,-0.313651 0.3003,-0.3135019 0.3003,-0.3133403 0.3003,-0.3131664 0.3003,-0.3129801 0.30031,-0.3127814 0.3003,-0.3125703 0.3003,-0.3123468 0.3003,-0.3121111 0.3003,-0.3118629 0.3003,-0.3116025 0.3003,-0.3113297 0.3003,-0.3110445 0.3003,-0.3107471 0.3003,-0.3104374 0.3003,-0.3101154 0.3003,-0.3097812 0.3003,-0.3094346 0.3003,-0.3090759 0.3003,-0.3087049 0.3003,-0.3083217 0.3003,-0.3079267 0.3003,-0.307518 0.3003,-0.307099 0.3003,-0.306667 0.3003,-0.306224 0.3003,-0.305767 0.3003,-0.305298 0.3003,-0.304819 0.3003,-0.304326 0.3003,-0.303822 0.3003,-0.303305 0.3003,-0.302777 0.3003,-0.302236 0.3003,-0.301684 0.3003,-0.30112 0.3003,-0.300544 0.3003,-0.299955 0.30031,-0.299356 0.3003,-0.298744 0.3003,-0.29812 0.3003,-0.297485 0.3003,-0.296838 0.3003,-0.296179 0.3003,-0.295508 0.3003,-0.294826 0.3003,-0.294131 0.3003,-0.293427 0.3003,-0.292709 0.3003,-0.29198 0.3003,-0.29124 0.3003,-0.290488 0.3003,-0.289725 0.3003,-0.28895 0.3003,-0.288163 0.3003,-0.287366 0.3003,-0.286557 0.3003,-0.285737 0.3003,-0.284905 0.3003,-0.284062 0.3003,-0.283208 0.3003,-0.282342 0.3003,-0.281466 0.3003,-0.280578 0.3003,-0.27968 0.3003,-0.27877 0.3003,-0.277848 0.3003,-0.276917 0.3003,-0.275975 0.3003,-0.27502 0.3003,-0.274056 0.3003,-0.273081 0.30031,-0.272094 0.3003,-0.271097 0.3003,-0.27009 0.3003,-0.269071 0.3003,-0.268042 0.3003,-0.267002 0.3003,-0.265952 0.3003,-0.264892 0.3003,-0.26382 0.3003,-0.262738 0.3003,-0.261647 0.3003,-0.260544 0.3003,-0.259431 0.3003,-0.258309 0.3003,-0.257175 0.3003,-0.256032 0.3003,-0.254878 0.3003,-0.253715 0.3003,-0.252541 0.3003,-0.251358 0.3003,-0.250164 0.3003,-0.248961 0.3003,-0.247747 0.3003,-0.246524 0.3003,-0.245292 0.3003,-0.244049 0.3003,-0.242797 0.3003,-0.241534 0.3003,-0.240264 0.3003,-0.238983 0.3003,-0.237692 0.3003,-0.236393 0.3003,-0.235084 0.30031,-0.233765 0.3003,-0.232438 0.3003,-0.231101 0.3003,-0.229755 0.3003,-0.228399 0.3003,-0.227036 0.3003,-0.225663 0.3003,-0.224281 0.3003,-0.22289 0.3003,-0.22149 0.3003,-0.220082 0.3003,-0.218665 0.3003,-0.217239 0.3003,-0.215805 0.3003,-0.214361 0.3003,-0.212911 0.3003,-0.21145 0.3003,-0.209982 0.3003,-0.208506 0.3003,-0.207021 0.3003,-0.205529 0.3003,-0.204027 0.3003,-0.202518 0.3003,-0.201001 0.3003,-0.199475 0.3003,-0.197943 0.3003,-0.196402 0.3003,-0.194854 0.3003,-0.193297 0.3003,-0.191733 0.3003,-0.190162 0.3003,-0.188583 0.3003,-0.186996 0.30031,-0.185402 0.3003,-0.183801 0.3003,-0.182193 0.3003,-0.180577 0.3003,-0.178954 0.3003,-0.177324 0.3003,-0.175687 0.3003,-0.174043 0.3003,-0.172393 0.3003,-0.170735 0.3003,-0.16907 0.3003,-0.1674 0.3003,-0.165722 0.3003,-0.164038 0.3003,-0.162347 0.3003,-0.160649 0.3003,-0.158947 0.3003,-0.157236 0.3003,-0.155521 0.3003,-0.153798 0.3003,-0.152071 0.3003,-0.150336 0.3003,-0.148596 0.3003,-0.146849 0.3003,-0.145098 0.3003,-0.143341 0.3003,-0.141577 0.3003,-0.139808 0.3003,-0.138034 0.3003,-0.136253 0.3003,-0.134469 0.3003,-0.132678 0.3003,-0.130882 0.3003,-0.129081 0.30031,-0.127275 0.3003,-0.125464 0.3003,-0.123648 0.3003,-0.121827 0.3003,-0.120001 0.3003,-0.11817 0.3003,-0.116336 0.3003,-0.114495 0.3003,-0.112651 0.3003,-0.110802 0.3003,-0.108949 0.3003,-0.107091 0.3003,-0.10523 0.3003,-0.103364 0.3003,-0.101493 0.3003,-0.09962 0.3003,-0.09774 0.3003,-0.09586 0.3003,-0.09397 0.3003,-0.09208 0.3003,-0.09019 0.3003,-0.08829 0.3003,-0.0864 0.3003,-0.08449 0.3003,-0.08259 0.3003,-0.08067 0.3003,-0.07876 0.3003,-0.07685 0.3003,-0.07493 0.3003,-0.073 0.3003,-0.07108 0.3003,-0.06915 0.3003,-0.06722 0.30031,-0.06529 0.3003,-0.06335 0.3003,-0.06141 0.3003,-0.05947 0.3003,-0.05753 0.3003,-0.05558 0.3003,-0.05363 0.3003,-0.05168 0.3003,-0.04973 0.3003,-0.04778 0.3003,-0.04582 0.3003,-0.04386 0.3003,-0.0419 0.3003,-0.03994 0.3003,-0.03798 0.3003,-0.03602 0.3003,-0.03405 0.3003,-0.03208 0.3003,-0.03012 0.3003,-0.02815 0.3003,-0.02618 0.3003,-0.0242 0.3003,-0.02223 0.3003,-0.02026 0.3003,-0.01828 0.3003,-0.01631 0.3003,-0.01433 0.3003,-0.01236 0.3003,-0.01038 0.3003,-0.0084 0.3003,-0.0064 0.3003,-0.0044 0.3003,-0.0025 0.30031,-4.94e-4 0.3003,0.0015 0.3003,0.0035 0.3003,0.0054 0.3003,0.0074 0.3003,0.0094 0.3003,0.01137 0.3003,0.01335 0.3003,0.01532 0.3003,0.0173 0.3003,0.01927 0.3003,0.02125 0.3003,0.02322 0.3003,0.02519 0.3003,0.02716 0.3003,0.02913 0.3003,0.0311 0.3003,0.03307 0.3003,0.03503 0.3003,0.037 0.3003,0.03896 0.3003,0.04093 0.3003,0.04288 0.3003,0.04484 0.3003,0.0468 0.3003,0.04875 0.3003,0.05071 0.3003,0.05266 0.3003,0.05461 0.3003,0.05655 0.3003,0.0585 0.3003,0.06044 0.3003,0.06238 0.3003,0.06432 0.30031,0.06625 0.3003,0.06818 0.3003,0.07012 0.3003,0.07204 0.3003,0.07397 0.3003,0.07589 0.3003,0.0778 0.3003,0.07972 0.3003,0.08163 0.3003,0.08354 0.3003,0.08544 0.3003,0.08735 0.3003,0.08924 0.3003,0.09114 0.3003,0.09303 0.3003,0.09492 0.3003,0.0968 0.3003,0.09868 0.3003,0.100558 0.3003,0.102429 0.3003,0.104297 0.3003,0.106161 0.3003,0.108021 0.3003,0.109876 0.3003,0.111727 0.3003,0.113574 0.3003,0.115415 0.3003,0.117254 0.3003,0.119086 0.3003,0.120915 0.3003,0.122737 0.3003,0.124557 0.3003,0.12637 0.30031,0.128179 0.3003,0.129982 0.3003,0.131781 0.3003,0.133574 0.3003,0.135362 0.3003,0.137144 0.3003,0.138922 0.3003,0.140693 0.3003,0.142459 0.3003,0.14422 0.3003,0.145975 0.3003,0.147723 0.3003,0.149467 0.3003,0.151204 0.3003,0.152935 0.3003,0.15466 0.3003,0.15638 0.3003,0.158092 0.3003,0.159799 0.3003,0.161499 0.3003,0.163193 0.3003,0.164881 0.3003,0.166561 0.3003,0.168236 0.3003,0.169904 0.3003,0.171565 0.3003,0.173218 0.3003,0.174866 0.3003,0.176507 0.3003,0.17814 0.3003,0.179766 0.3003,0.181386 0.3003,0.182998 0.30031,0.184602 0.3003,0.1862 0.3003,0.187791 0.3003,0.189373 0.3003,0.190948 0.3003,0.192517 0.3003,0.194076 0.3003,0.195629 0.3003,0.197173 0.3003,0.19871 0.3003,0.20024 0.3003,0.20176 0.3003,0.203274 0.3003,0.204778 0.3003,0.206276 0.3003,0.207765 0.3003,0.209245 0.3003,0.210717 0.3003,0.212182 0.3003,0.213637 0.3003,0.215084 0.3003,0.216523 0.3003,0.217953 0.3003,0.219374 0.3003,0.220787 0.3003,0.222192 0.3003,0.223586 0.3003,0.224973 0.3003,0.226351 0.3003,0.227719 0.3003,0.229078 0.3003,0.230429 0.3003,0.231771 0.30031,0.233102 0.3003,0.234426 0.3003,0.235739 0.3003,0.237044 0.3003,0.238339 0.3003,0.239624 0.3003,0.240901 0.3003,0.242167 0.3003,0.243424 0.3003,0.244671 0.3003,0.245909 0.3003,0.247137 0.3003,0.248356 0.3003,0.249563 0.3003,0.250762 0.3003,0.251951 0.3003,0.253129 0.3003,0.254298 0.3003,0.255457 0.3003,0.256604 0.3003,0.257743 0.3003,0.258872 0.3003,0.259989 0.3003,0.261096 0.3003,0.262194 0.3003,0.263281 0.3003,0.264357 0.3003,0.265423 0.3003,0.266479 0.3003,0.267523 0.3003,0.268558 0.3003,0.269582 0.3003,0.270594 0.3003,0.271597 0.30031,0.272589 0.3003,0.27357 0.3003,0.274539 0.3003,0.275499 0.3003,0.276447 0.3003,0.277384 0.3003,0.278311 0.3003,0.279226 0.3003,0.28013 0.3003,0.281024 0.3003,0.281905 0.3003,0.282777 0.3003,0.283636 0.3003,0.284485 0.3003,0.285322 0.3003,0.286149 0.3003,0.286962 0.3003,0.287767 0.3003,0.288558 0.3003,0.289339 0.3003,0.290107 0.3003,0.290866 0.3003,0.291611 0.3003,0.292346 0.3003,0.29307 0.3003,0.29378 0.3003,0.29448 0.3003,0.295169 0.3003,0.295845 0.3003,0.296509 0.3003,0.297163 0.3003,0.297804 0.3003,0.298434 0.30031,0.299051 0.3003,0.299657 0.3003,0.300251 0.3003,0.300833 0.3003,0.301404 0.3003,0.301962 0.3003,0.302508 0.3003,0.303043 0.3003,0.303565 0.3003,0.304075 0.3003,0.304574 0.3003,0.30506 0.3003,0.305534 0.3003,0.305997 0.3003,0.306446 0.3003,0.306885 0.3003,0.30731 0.3003,0.307724 0.3003,0.3081259 0.3003,0.3085148 0.3003,0.308892 0.3003,0.3092567 0.3003,0.3096095 0.3003,0.3099498 0.3003,0.3102779 0.3003,0.3105938 0.3003,0.3108974 0.3003,0.3111886 0.3003,0.3114676 0.3003,0.3117342 0.3003,0.3119886 0.3003,0.3122305 0.3003,0.3124601 0.30031,0.3126774 0.3003,0.3128823 0.3003,0.3130748 0.3003,0.3132549 0.3003,0.3134226 0.3003,0.313578 0.3003,0.3137209 0.3003,0.3138515 0.3003,0.3139695 0.3003,0.3140752 0.3003,0.3141685 0.3003,0.3142494 0.3003,0.3143177 0.3003,0.3143737 0.3003,0.31441725 0.3003,0.31444834 0.3003,0.314467 0.3003,0.31447322 0.3003,0.314467 0.3003,0.31444834 0.3003,0.31441725 0.3003,0.3143737 0.3003,0.3143177 0.3003,0.3142494 0.3003,0.3141685 0.3003,0.3140752 0.3003,0.3139695 0.3003,0.3138515 0.3003,0.3137209 0.3003,0.313578 0.3003,0.3134226 0.3003,0.3132549 0.3003,0.3130748 0.3003,0.3128823 0.30031,0.3126774 0.3003,0.3124601 0.3003,0.3122305 0.3003,0.3119886 0.3003,0.3117342 0.3003,0.3114676 0.3003,0.3111886 0.3003,0.3108974 0.3003,0.3105938 0.3003,0.3102779 0.3003,0.3099498 0.3003,0.3096095 0.3003,0.3092567 0.3003,0.308892 0.3003,0.3085148 0.3003,0.3081259 0.3003,0.307724 0.3003,0.30731 0.3003,0.306885 0.3003,0.306446 0.3003,0.305997 0.3003,0.305534 0.3003,0.30506 0.3003,0.304574 0.3003,0.304075 0.3003,0.303565 0.3003,0.303043 0.3003,0.302508 0.3003,0.301962 0.3003,0.301404 0.3003,0.300833 0.3003,0.300251 0.3003,0.299657 0.30031,0.299051 0.3003,0.298434 0.3003,0.297804 0.3003,0.297163 0.3003,0.296509 0.3003,0.295845 0.3003,0.295169 0.3003,0.29448 0.3003,0.29378 0.3003,0.29307 0.3003,0.292346 0.3003,0.291611 0.3003,0.290866 0.3003,0.290107 0.3003,0.289339 0.3003,0.288558 0.3003,0.287767 0.3003,0.286962 0.3003,0.286149 0.3003,0.285322 0.3003,0.284485 0.3003,0.283636 0.3003,0.282777 0.3003,0.281905 0.3003,0.281024 0.3003,0.28013 0.3003,0.279226 0.3003,0.278311 0.3003,0.277384 0.3003,0.276447 0.3003,0.275499 0.3003,0.274539 0.3003,0.27357 0.30031,0.272589 0.3003,0.271597 0.3003,0.270594 0.3003,0.269582 0.3003,0.268558 0.3003,0.267523 0.3003,0.266479 0.3003,0.265423 0.3003,0.264357 0.3003,0.263281 0.3003,0.262194 0.3003,0.261096 0.3003,0.259989 0.3003,0.258872 0.3003,0.257743 0.3003,0.256604 0.3003,0.255457 0.3003,0.254298 0.3003,0.253129 0.3003,0.251951 0.3003,0.250762 0.3003,0.249563 0.3003,0.248356 0.3003,0.247137 0.3003,0.245909 0.3003,0.244671 0.3003,0.243424 0.3003,0.242167 0.3003,0.240901 0.3003,0.239624 0.3003,0.238339 0.3003,0.237044 0.3003,0.235739 0.3003,0.234426 0.30031,0.233102 0.3003,0.231771 0.3003,0.230429 0.3003,0.229078 0.3003,0.227719 0.3003,0.226351 0.3003,0.224973 0.3003,0.223586 0.3003,0.222192 0.3003,0.220787 0.3003,0.219374 0.3003,0.217953 0.3003,0.216523 0.3003,0.215084 0.3003,0.213637 0.3003,0.212182 0.3003,0.210717 0.3003,0.209245 0.3003,0.207765 0.3003,0.206276 0.3003,0.204778 0.3003,0.203274 0.3003,0.20176 0.3003,0.20024 0.3003,0.19871 0.3003,0.197173 0.3003,0.195629 0.3003,0.194076 0.3003,0.192517 0.3003,0.190948 0.3003,0.189373 0.3003,0.187791 0.3003,0.1862 0.30031,0.184602 0.3003,0.182998 0.3003,0.181386 0.3003,0.179766 0.3003,0.17814 0.3003,0.176507 0.3003,0.174866 0.3003,0.173218 0.3003,0.171565 0.3003,0.169904 0.3003,0.168236 0.3003,0.166561 0.3003,0.164881 0.3003,0.163193 0.3003,0.161499 0.3003,0.159799 0.3003,0.158092 0.3003,0.15638 0.3003,0.15466 0.3003,0.152935 0.3003,0.151204 0.3003,0.149467 0.3003,0.147723 0.3003,0.145975 0.3003,0.14422 0.3003,0.142459 0.3003,0.140693 0.3003,0.138922 0.3003,0.137144 0.3003,0.135362 0.3003,0.133574 0.3003,0.131781 0.3003,0.129982 0.30031,0.128179 0.3003,0.12637 0.3003,0.124557 0.3003,0.122737 0.3003,0.120915 0.3003,0.119086 0.3003,0.117254 0.3003,0.115415 0.3003,0.113574 0.3003,0.111727 0.3003,0.109876 0.3003,0.108021 0.3003,0.106161 0.3003,0.104297 0.3003,0.102429 0.3003,0.100558 0.3003,0.09868 0.3003,0.0968 0.3003,0.09492 0.3003,0.09303 0.3003,0.09114 0.3003,0.08924 0.3003,0.08735 0.3003,0.08544 0.3003,0.08354 0.3003,0.08163 0.3003,0.07972 0.3003,0.0778 0.3003,0.07589 0.3003,0.07397 0.3003,0.07204 0.3003,0.07012 0.3003,0.06818 0.30031,0.06625 0.3003,0.06432 0.3003,0.06238 0.3003,0.06044 0.3003,0.0585 0.3003,0.05655 0.3003,0.05461 0.3003,0.05266 0.3003,0.05071 0.3003,0.04875 0.3003,0.0468 0.3003,0.04484 0.3003,0.04288 0.3003,0.04093 0.3003,0.03896 0.3003,0.037 0.3003,0.03503 0.3003,0.03307 0.3003,0.0311 0.3003,0.02913 0.3003,0.02716 0.3003,0.02519 0.3003,0.02322 0.3003,0.02125 0.3003,0.01927 0.3003,0.0173 0.3003,0.01532 0.3003,0.01335 0.3003,0.01137 0.3003,0.0094 0.3003,0.0074 0.3003,0.0054 0.3003,0.0035 0.3003,0.0015 0.30031,-4.94e-4 0.3003,-0.0025 0.3003,-0.0044 0.3003,-0.0064 0.3003,-0.0084 0.3003,-0.01038 0.3003,-0.01236 0.3003,-0.01433 0.3003,-0.01631 0.3003,-0.01828 0.3003,-0.02026 0.3003,-0.02223 0.3003,-0.0242 0.3003,-0.02618 0.3003,-0.02815 0.3003,-0.03012 0.3003,-0.03208 0.3003,-0.03405 0.3003,-0.03602 0.3003,-0.03798 0.3003,-0.03994 0.3003,-0.0419 0.3003,-0.04386 0.3003,-0.04582 0.3003,-0.04778 0.3003,-0.04973 0.3003,-0.05168 0.3003,-0.05363 0.3003,-0.05558 0.3003,-0.05753 0.3003,-0.05947 0.3003,-0.06141 0.3003,-0.06335 0.30031,-0.06529 0.3003,-0.06722 0.3003,-0.06915 0.3003,-0.07108 0.3003,-0.073 0.3003,-0.07493 0.3003,-0.07685 0.3003,-0.07876 0.3003,-0.08067 0.3003,-0.08259 0.3003,-0.08449 0.3003,-0.0864 0.3003,-0.08829 0.3003,-0.09019 0.3003,-0.09208 0.3003,-0.09397 0.3003,-0.09586 0.3003,-0.09774 0.3003,-0.09962 0.3003,-0.101493 0.3003,-0.103364 0.3003,-0.10523 0.3003,-0.107091 0.3003,-0.108949 0.3003,-0.110802 0.3003,-0.112651 0.3003,-0.114495 0.3003,-0.116336 0.3003,-0.11817 0.3003,-0.120001 0.3003,-0.121827 0.3003,-0.123648 0.3003,-0.125464 0.30031,-0.127275 0.3003,-0.129081 0.3003,-0.130882 0.3003,-0.132678 0.3003,-0.134469 0.3003,-0.136253 0.3003,-0.138034 0.3003,-0.139808 0.3003,-0.141577 0.3003,-0.143341 0.3003,-0.145098 0.3003,-0.146849 0.3003,-0.148596 0.3003,-0.150336 0.3003,-0.152071 0.3003,-0.153798 0.3003,-0.155521 0.3003,-0.157236 0.3003,-0.158947 0.3003,-0.160649 0.3003,-0.162347 0.3003,-0.164038 0.3003,-0.165722 0.3003,-0.1674 0.3003,-0.16907 0.3003,-0.170735 0.3003,-0.172393 0.3003,-0.174043 0.3003,-0.175687 0.3003,-0.177324 0.3003,-0.178954 0.3003,-0.180577 0.3003,-0.182193 0.3003,-0.183801 0.30031,-0.185402 0.3003,-0.186996 0.3003,-0.188583 0.3003,-0.190162 0.3003,-0.191733 0.3003,-0.193297 0.3003,-0.194854 0.3003,-0.196402 0.3003,-0.197943 0.3003,-0.199475 0.3003,-0.201001 0.3003,-0.202518 0.3003,-0.204027 0.3003,-0.205529 0.3003,-0.207021 0.3003,-0.208506 0.3003,-0.209982 0.3003,-0.21145 0.3003,-0.212911 0.3003,-0.214361 0.3003,-0.215805 0.3003,-0.217239 0.3003,-0.218665 0.3003,-0.220082 0.3003,-0.22149 0.3003,-0.22289 0.3003,-0.224281 0.3003,-0.225663 0.3003,-0.227036 0.3003,-0.228399 0.3003,-0.229755 0.3003,-0.231101 0.3003,-0.232438 0.30031,-0.233765 0.3003,-0.235084 0.3003,-0.236393 0.3003,-0.237692 0.3003,-0.238983 0.3003,-0.240264 0.3003,-0.241534 0.3003,-0.242797 0.3003,-0.244049 0.3003,-0.245292 0.3003,-0.246524 0.3003,-0.247747 0.3003,-0.248961 0.3003,-0.250164 0.3003,-0.251358 0.3003,-0.252541 0.3003,-0.253715 0.3003,-0.254878 0.3003,-0.256032 0.3003,-0.257175 0.3003,-0.258309 0.3003,-0.259431 0.3003,-0.260544 0.3003,-0.261647 0.3003,-0.262738 0.3003,-0.26382 0.3003,-0.264892 0.3003,-0.265952 0.3003,-0.267002 0.3003,-0.268042 0.3003,-0.269071 0.3003,-0.27009 0.3003,-0.271097 0.30031,-0.272094 0.3003,-0.273081 0.3003,-0.274056 0.3003,-0.27502 0.3003,-0.275975 0.3003,-0.276917 0.3003,-0.277848 0.3003,-0.27877 0.3003,-0.27968 0.3003,-0.280578 0.3003,-0.281466 0.3003,-0.282342 0.3003,-0.283208 0.3003,-0.284062 0.3003,-0.284905 0.3003,-0.285737 0.3003,-0.286557 0.3003,-0.287366 0.3003,-0.288163 0.3003,-0.28895 0.3003,-0.289725 0.3003,-0.290488 0.3003,-0.29124 0.3003,-0.29198 0.3003,-0.292709 0.3003,-0.293427 0.3003,-0.294131 0.3003,-0.294826 0.3003,-0.295508 0.3003,-0.296179 0.3003,-0.296838 0.3003,-0.297485 0.3003,-0.29812 0.3003,-0.298744 0.30031,-0.299356 0.3003,-0.299955 0.3003,-0.300544 0.3003,-0.30112 0.3003,-0.301684 0.3003,-0.302236 0.3003,-0.302777 0.3003,-0.303305 0.3003,-0.303822 0.3003,-0.304326 0.3003,-0.304819 0.3003,-0.305298 0.3003,-0.305767 0.3003,-0.306224 0.3003,-0.306667 0.3003,-0.307099 0.3003,-0.307518 0.3003,-0.3079267 0.3003,-0.3083217 0.3003,-0.3087049 0.3003,-0.3090759 0.3003,-0.3094346 0.3003,-0.3097812 0.3003,-0.3101154 0.3003,-0.3104374 0.3003,-0.3107471 0.3003,-0.3110445 0.3003,-0.3113297 0.3003,-0.3116025 0.3003,-0.3118629 0.3003,-0.3121111 0.3003,-0.3123468 0.3003,-0.3125703 0.30031,-0.3127814 0.3003,-0.3129801 0.3003,-0.3131664 0.3003,-0.3133403 0.3003,-0.3135019 0.3003,-0.313651 0.3003,-0.3137877 0.3003,-0.313912 0.3003,-0.314024 0.3003,-0.3141234 0.3003,-0.3142105 0.3003,-0.3142851 0.3003,-0.3143472 0.3003,-0.31439706 0.3003,-0.31443435 0.3003,-0.31445922 L 840,0"
       id="path17832" />
  </g>
  <g
     transform="matrix(1.7399141,0,0,1.7399141,324.96435,79.378262)"
     ns1:version="1.8.2"
     ns1:texconverter="pdflatex"
     ns1:pdfconverter="inkscape"
     ns1:text="$T$"
     ns1:preamble="C:\Users\user\AppData\Roaming\inkscape\extensions\inkscapeMadeEasy\basicLatexPackages.tex"
     ns1:scale="1.0"
     ns1:alignment="middle center"
     ns1:stroke-to-path="0"
     ns1:inkscapeversion="1.2.2"
     ns1:jacobian_sqrt="0.352778"
     id="g18440">
    <defs
       id="id-d12825db-4752-46b5-aa56-8664938e8767">
      <g
         id="id-10de3598-3d8c-4d57-bf80-f0929aedd1f8">
        <g
           id="id-1e1b0ffd-09ae-45fb-9202-4b982ac1c392" />
        <g
           id="id-fe79293b-c5c4-47d5-8588-1dd80986d941">
          <path
             d="m 4.25,-6.046875 c 0.078125,-0.28125 0.109375,-0.34375 0.234375,-0.375 0.09375,-0.015625 0.421875,-0.015625 0.625,-0.015625 1.015625,0 1.453125,0.03125 1.453125,0.8125 0,0.15625 -0.03125,0.546875 -0.078125,0.796875 0,0.046875 -0.03125,0.15625 -0.03125,0.1875 0,0.0625 0.03125,0.140625 0.125,0.140625 0.109375,0 0.125,-0.078125 0.15625,-0.234375 L 7,-6.46875 C 7.015625,-6.515625 7.015625,-6.609375 7.015625,-6.640625 7.015625,-6.75 6.921875,-6.75 6.75,-6.75 H 1.21875 c -0.234375,0 -0.25,0.015625 -0.328125,0.203125 l -0.59375,1.75 c 0,0.015625 -0.0625,0.15625 -0.0625,0.1875 0,0.046875 0.0625,0.109375 0.125,0.109375 0.09375,0 0.109375,-0.0625 0.171875,-0.21875 C 1.0625,-6.265625 1.328125,-6.4375 2.796875,-6.4375 H 3.1875 c 0.28125,0 0.28125,0.03125 0.28125,0.125 0,0.046875 -0.03125,0.171875 -0.046875,0.203125 L 2.09375,-0.78125 C 2,-0.421875 1.96875,-0.3125 0.90625,-0.3125 c -0.359375,0 -0.421875,0 -0.421875,0.1875 C 0.484375,0 0.59375,0 0.65625,0 c 0.265625,0 0.546875,-0.015625 0.8125,-0.015625 0.28125,0 0.578125,-0.015625 0.859375,-0.015625 0.28125,0 0.546875,0.015625 0.828125,0.015625 C 3.4375,-0.015625 3.734375,0 4.015625,0 c 0.09375,0 0.21875,0 0.21875,-0.203125 0,-0.109375 -0.078125,-0.109375 -0.34375,-0.109375 -0.234375,0 -0.375,0 -0.625,-0.015625 -0.296875,-0.03125 -0.375,-0.0625 -0.375,-0.21875 0,-0.015625 0,-0.0625 0.046875,-0.203125 z m 0,0"
             id="id-a7caae79-4a8d-474f-bd2c-74fee094739a" />
        </g>
      </g>
    </defs>
    <g
       fill="#000000"
       fill-opacity="1"
       id="id-c236a201-c2a1-4c31-8655-c0bdaa9457be"
       transform="translate(-148.946,-128.015)">
      <g
         transform="translate(148.712,134.765)"
         id="g18437">
        <path
           d="m 4.25,-6.046875 c 0.078125,-0.28125 0.109375,-0.34375 0.234375,-0.375 0.09375,-0.015625 0.421875,-0.015625 0.625,-0.015625 1.015625,0 1.453125,0.03125 1.453125,0.8125 0,0.15625 -0.03125,0.546875 -0.078125,0.796875 0,0.046875 -0.03125,0.15625 -0.03125,0.1875 0,0.0625 0.03125,0.140625 0.125,0.140625 0.109375,0 0.125,-0.078125 0.15625,-0.234375 L 7,-6.46875 C 7.015625,-6.515625 7.015625,-6.609375 7.015625,-6.640625 7.015625,-6.75 6.921875,-6.75 6.75,-6.75 H 1.21875 c -0.234375,0 -0.25,0.015625 -0.328125,0.203125 l -0.59375,1.75 c 0,0.015625 -0.0625,0.15625 -0.0625,0.1875 0,0.046875 0.0625,0.109375 0.125,0.109375 0.09375,0 0.109375,-0.0625 0.171875,-0.21875 C 1.0625,-6.265625 1.328125,-6.4375 2.796875,-6.4375 H 3.1875 c 0.28125,0 0.28125,0.03125 0.28125,0.125 0,0.046875 -0.03125,0.171875 -0.046875,0.203125 L 2.09375,-0.78125 C 2,-0.421875 1.96875,-0.3125 0.90625,-0.3125 c -0.359375,0 -0.421875,0 -0.421875,0.1875 C 0.484375,0 0.59375,0 0.65625,0 c 0.265625,0 0.546875,-0.015625 0.8125,-0.015625 0.28125,0 0.578125,-0.015625 0.859375,-0.015625 0.28125,0 0.546875,0.015625 0.828125,0.015625 C 3.4375,-0.015625 3.734375,0 4.015625,0 c 0.09375,0 0.21875,0 0.21875,-0.203125 0,-0.109375 -0.078125,-0.109375 -0.34375,-0.109375 -0.234375,0 -0.375,0 -0.625,-0.015625 -0.296875,-0.03125 -0.375,-0.0625 -0.375,-0.21875 0,-0.015625 0,-0.0625 0.046875,-0.203125 z m 0,0"
           id="id-a6dbf3e7-1e25-40e8-95db-dcb60e941c53" />
      </g>
    </g>
  </g>
</svg>
