<?xml version="1.0" encoding="UTF-8" standalone="no"?>
<!-- Created with Inkscape (http://www.inkscape.org/) -->

<svg
   width="203.20001mm"
   height="152.40001mm"
   viewBox="0 0 203.20001 152.40001"
   version="1.1"
   id="svg5"
   xml:space="preserve"
   xmlns:inkscape="http://www.inkscape.org/namespaces/inkscape"
   xmlns:sodipodi="http://sodipodi.sourceforge.net/DTD/sodipodi-0.dtd"
   xmlns="http://www.w3.org/2000/svg"
   xmlns:svg="http://www.w3.org/2000/svg"><sodipodi:namedview
     id="namedview7"
     pagecolor="#ffffff"
     bordercolor="#000000"
     borderopacity="0.25"
     inkscape:showpageshadow="2"
     inkscape:pageopacity="0.0"
     inkscape:pagecheckerboard="0"
     inkscape:deskcolor="#d1d1d1"
     inkscape:document-units="mm"
     showgrid="false" /><defs
     id="defs2"><clipPath
       clipPathUnits="userSpaceOnUse"
       id="clipPath154"><path
         d="M 180,1800 H 5940 V 6120 H 180 Z"
         id="path152" /></clipPath></defs><g
     id="g142"
     transform="matrix(0.03527778,0,0,-0.03527778,-6.3500004,215.90001)"><path
       d="M 180,1800 H 5940 V 6120 H 180 Z"
       style="fill:#ffffff;fill-opacity:1;fill-rule:nonzero;stroke:none"
       id="path144" /><path
       d="M 180,1800 H 5940 V 6120 H 180 Z"
       style="fill:#ffffff;fill-opacity:1;fill-rule:nonzero;stroke:none"
       id="path146" /><g
       id="g148"><g
         id="g150"
         clip-path="url(#clipPath154)"><path
           d="M 928.801,2275.2 H 5392.8 L 928.801,5796"
           style="fill:#ffffff;fill-opacity:1;fill-rule:nonzero;stroke:none"
           id="path156" /><path
           d="M 5392.8,2275.2 V 5796 H 928.801"
           style="fill:#ffffff;fill-opacity:1;fill-rule:nonzero;stroke:none"
           id="path158" /><path
           d="m 928.801,2275.2 v 44.65"
           style="fill:none;stroke:#262626;stroke-width:5;stroke-linecap:butt;stroke-linejoin:miter;stroke-miterlimit:10;stroke-dasharray:none;stroke-opacity:1"
           id="path160" /><path
           d="m 928.801,5796 v -44.65"
           style="fill:none;stroke:#262626;stroke-width:5;stroke-linecap:butt;stroke-linejoin:miter;stroke-miterlimit:10;stroke-dasharray:none;stroke-opacity:1"
           id="path162" /><path
           d="m 1821.6,2275.2 v 44.65"
           style="fill:none;stroke:#262626;stroke-width:5;stroke-linecap:butt;stroke-linejoin:miter;stroke-miterlimit:10;stroke-dasharray:none;stroke-opacity:1"
           id="path164" /><path
           d="m 1821.6,5796 v -44.65"
           style="fill:none;stroke:#262626;stroke-width:5;stroke-linecap:butt;stroke-linejoin:miter;stroke-miterlimit:10;stroke-dasharray:none;stroke-opacity:1"
           id="path166" /><path
           d="m 2714.4,2275.2 v 44.65"
           style="fill:none;stroke:#262626;stroke-width:5;stroke-linecap:butt;stroke-linejoin:miter;stroke-miterlimit:10;stroke-dasharray:none;stroke-opacity:1"
           id="path168" /><path
           d="m 2714.4,5796 v -44.65"
           style="fill:none;stroke:#262626;stroke-width:5;stroke-linecap:butt;stroke-linejoin:miter;stroke-miterlimit:10;stroke-dasharray:none;stroke-opacity:1"
           id="path170" /><path
           d="m 3607.2,2275.2 v 44.65"
           style="fill:none;stroke:#262626;stroke-width:5;stroke-linecap:butt;stroke-linejoin:miter;stroke-miterlimit:10;stroke-dasharray:none;stroke-opacity:1"
           id="path172" /><path
           d="m 3607.2,5796 v -44.65"
           style="fill:none;stroke:#262626;stroke-width:5;stroke-linecap:butt;stroke-linejoin:miter;stroke-miterlimit:10;stroke-dasharray:none;stroke-opacity:1"
           id="path174" /><path
           d="m 4500,2275.2 v 44.65"
           style="fill:none;stroke:#262626;stroke-width:5;stroke-linecap:butt;stroke-linejoin:miter;stroke-miterlimit:10;stroke-dasharray:none;stroke-opacity:1"
           id="path176" /><path
           d="m 4500,5796 v -44.65"
           style="fill:none;stroke:#262626;stroke-width:5;stroke-linecap:butt;stroke-linejoin:miter;stroke-miterlimit:10;stroke-dasharray:none;stroke-opacity:1"
           id="path178" /><path
           d="m 5392.8,2275.2 v 44.65"
           style="fill:none;stroke:#262626;stroke-width:5;stroke-linecap:butt;stroke-linejoin:miter;stroke-miterlimit:10;stroke-dasharray:none;stroke-opacity:1"
           id="path180" /><path
           d="m 5392.8,5796 v -44.65"
           style="fill:none;stroke:#262626;stroke-width:5;stroke-linecap:butt;stroke-linejoin:miter;stroke-miterlimit:10;stroke-dasharray:none;stroke-opacity:1"
           id="path182" /><g
           id="g184"
           transform="scale(10)"><text
             xml:space="preserve"
             transform="matrix(1,0,0,-1,89.8801,212.018)"
             style="font-variant:normal;font-weight:normal;font-size:10px;font-family:Helvetica;-inkscape-font-specification:Helvetica;writing-mode:lr-tb;fill:#262626;fill-opacity:1;fill-rule:nonzero;stroke:none"
             id="text188"><tspan
               x="0 84.780098 90.780098 93.780098 174.0598 180.0598 183.0598 263.3399 269.3399 272.3399 352.62 358.62 361.62003 446.40012"
               y="0"
               sodipodi:role="line"
               id="tspan186">00.20.40.60.81</tspan></text></g><path
           d="M 928.801,2275.2 H 973.48"
           style="fill:none;stroke:#262626;stroke-width:5;stroke-linecap:butt;stroke-linejoin:miter;stroke-miterlimit:10;stroke-dasharray:none;stroke-opacity:1"
           id="path190" /><path
           d="m 5392.8,2275.2 h -44.68"
           style="fill:none;stroke:#262626;stroke-width:5;stroke-linecap:butt;stroke-linejoin:miter;stroke-miterlimit:10;stroke-dasharray:none;stroke-opacity:1"
           id="path192" /><path
           d="M 928.801,2979.36 H 973.48"
           style="fill:none;stroke:#262626;stroke-width:5;stroke-linecap:butt;stroke-linejoin:miter;stroke-miterlimit:10;stroke-dasharray:none;stroke-opacity:1"
           id="path194" /><path
           d="m 5392.8,2979.36 h -44.68"
           style="fill:none;stroke:#262626;stroke-width:5;stroke-linecap:butt;stroke-linejoin:miter;stroke-miterlimit:10;stroke-dasharray:none;stroke-opacity:1"
           id="path196" /><path
           d="M 928.801,3683.52 H 973.48"
           style="fill:none;stroke:#262626;stroke-width:5;stroke-linecap:butt;stroke-linejoin:miter;stroke-miterlimit:10;stroke-dasharray:none;stroke-opacity:1"
           id="path198" /><path
           d="m 5392.8,3683.52 h -44.68"
           style="fill:none;stroke:#262626;stroke-width:5;stroke-linecap:butt;stroke-linejoin:miter;stroke-miterlimit:10;stroke-dasharray:none;stroke-opacity:1"
           id="path200" /><path
           d="M 928.801,4387.68 H 973.48"
           style="fill:none;stroke:#262626;stroke-width:5;stroke-linecap:butt;stroke-linejoin:miter;stroke-miterlimit:10;stroke-dasharray:none;stroke-opacity:1"
           id="path202" /><path
           d="m 5392.8,4387.68 h -44.68"
           style="fill:none;stroke:#262626;stroke-width:5;stroke-linecap:butt;stroke-linejoin:miter;stroke-miterlimit:10;stroke-dasharray:none;stroke-opacity:1"
           id="path204" /><path
           d="M 928.801,5091.84 H 973.48"
           style="fill:none;stroke:#262626;stroke-width:5;stroke-linecap:butt;stroke-linejoin:miter;stroke-miterlimit:10;stroke-dasharray:none;stroke-opacity:1"
           id="path206" /><path
           d="m 5392.8,5091.84 h -44.68"
           style="fill:none;stroke:#262626;stroke-width:5;stroke-linecap:butt;stroke-linejoin:miter;stroke-miterlimit:10;stroke-dasharray:none;stroke-opacity:1"
           id="path208" /><path
           d="M 928.801,5796 H 973.48"
           style="fill:none;stroke:#262626;stroke-width:5;stroke-linecap:butt;stroke-linejoin:miter;stroke-miterlimit:10;stroke-dasharray:none;stroke-opacity:1"
           id="path210" /><path
           d="m 5392.8,5796 h -44.68"
           style="fill:none;stroke:#262626;stroke-width:5;stroke-linecap:butt;stroke-linejoin:miter;stroke-miterlimit:10;stroke-dasharray:none;stroke-opacity:1"
           id="path212" /><g
           id="g214"
           transform="scale(10)"><text
             xml:space="preserve"
             transform="matrix(1,0,0,-1,81.8754,223.52)"
             style="font-variant:normal;font-weight:normal;font-size:10px;font-family:Helvetica;-inkscape-font-specification:Helvetica;writing-mode:lr-tb;fill:#262626;fill-opacity:1;fill-rule:nonzero;stroke:none"
             id="text228"><tspan
               x="0"
               y="0"
               id="tspan216">0</tspan><tspan
               x="-9 -3 0"
               y="-70.416"
               sodipodi:role="line"
               id="tspan218">0.2</tspan><tspan
               x="-9 -3 0"
               y="-140.832"
               sodipodi:role="line"
               id="tspan220">0.4</tspan><tspan
               x="-9 -3 0"
               y="-211.248"
               sodipodi:role="line"
               id="tspan222">0.6</tspan><tspan
               x="-9 -3 0"
               y="-281.664"
               sodipodi:role="line"
               id="tspan224">0.8</tspan><tspan
               x="0"
               y="-352.07999"
               id="tspan226">1</tspan></text></g><path
           d="M 928.801,2275.2 H 5392.8"
           style="fill:none;stroke:#262626;stroke-width:5;stroke-linecap:square;stroke-linejoin:miter;stroke-miterlimit:10;stroke-dasharray:160, 0;stroke-dashoffset:0;stroke-opacity:1"
           id="path230" /><path
           d="M 928.801,5796 H 5392.8"
           style="fill:none;stroke:#262626;stroke-width:5;stroke-linecap:square;stroke-linejoin:miter;stroke-miterlimit:10;stroke-dasharray:160, 0;stroke-dashoffset:0;stroke-opacity:1"
           id="path232" /><path
           d="M 928.801,2275.2 V 5796"
           style="fill:none;stroke:#262626;stroke-width:5;stroke-linecap:square;stroke-linejoin:miter;stroke-miterlimit:10;stroke-dasharray:160, 0;stroke-dashoffset:0;stroke-opacity:1"
           id="path234" /><path
           d="M 5392.8,2275.2 V 5796"
           style="fill:none;stroke:#262626;stroke-width:5;stroke-linecap:square;stroke-linejoin:miter;stroke-miterlimit:10;stroke-dasharray:160, 0;stroke-dashoffset:0;stroke-opacity:1"
           id="path236" /><g
           id="g238"
           transform="scale(10)"><text
             xml:space="preserve"
             transform="matrix(1,0,0,-1,251.08,592.6)"
             style="font-variant:normal;font-weight:bold;font-size:11px;font-family:Helvetica;-inkscape-font-specification:Helvetica-Bold;writing-mode:lr-tb;fill:#000000;fill-opacity:1;fill-rule:nonzero;stroke:none"
             id="text242"><tspan
               x="0 8.0000076 11 18.000004 24.000011 28.000008 34.000015 37.000008 43.999996 51 55.000011 59.000008 66.000015 73.000015 79.000023 82.000015 89.000023 96.000023 103.00003 109.00004 113.00005 116.00004 123.00005"
               y="0"
               sodipodi:role="line"
               id="tspan240">Binary Entropy Function</tspan></text></g><path
           d="m 973.891,2562.01 45.089,215.16 45.09,187.79 45.09,169.81 45.09,156.32 45.1,145.43 45.09,136.29 45.09,128.38 45.09,121.39 45.09,115.1 45.09,109.39 45.09,104.14 45.09,99.26 45.09,94.72 45.09,90.44 45.09,86.41 45.1,82.58 45.09,78.94 45.09,75.46 45.09,72.11 45.09,68.89 45.09,65.79 45.09,62.79 45.09,59.89 45.09,57.06 45.09,54.32 45.09,51.64 45.1,49.03 45.09,46.47 45.09,43.97 45.09,41.52 45.09,39.1 45.09,36.74 45.09,34.4 45.09,32.1 45.09,29.84 45.09,27.6 45.09,25.38 45.1,23.19 45.09,21.02 45.09,18.87 45.09,16.73 45.09,14.61 45.09,12.5 45.09,10.4 45.09,8.31 45.09,6.23 45.09,4.15 45.09,2.07 h 45.1 l 45.09,-2.07 45.09,-4.15 45.09,-6.23 45.09,-8.31 45.09,-10.4 45.09,-12.5 45.09,-14.61 45.09,-16.73 45.09,-18.87 45.09,-21.02 45.1,-23.19 45.09,-25.38 45.09,-27.6 45.09,-29.84 45.09,-32.1 45.09,-34.4 45.09,-36.74 45.09,-39.1 45.09,-41.52 45.09,-43.97 45.09,-46.47 45.1,-49.03 45.09,-51.64 45.09,-54.32 45.09,-57.06 45.09,-59.89 45.09,-62.79 45.09,-65.79 45.09,-68.89 45.09,-72.11 45.09,-75.46 45.09,-78.94 45.1,-82.58 45.09,-86.41 45.09,-90.44 45.09,-94.72 45.09,-99.26 45.09,-104.14 45.09,-109.39 45.09,-115.1 45.09,-121.39 45.09,-128.38 45.09,-136.29 45.1,-145.43 45.09,-156.32 45.09,-169.81 45.09,-187.79 45.09,-215.16"
           style="fill:none;stroke:#0072bd;stroke-width:5;stroke-linecap:butt;stroke-linejoin:round;stroke-miterlimit:10;stroke-dasharray:none;stroke-opacity:1"
           id="path244" /></g></g></g></svg>
