<svg width="1030" height="1207" xmlns="http://www.w3.org/2000/svg" xmlns:xlink="http://www.w3.org/1999/xlink" overflow="hidden"><defs><clipPath id="clip0"><rect x="840" y="413" width="1030" height="1207"/></clipPath></defs><g clip-path="url(#clip0)" transform="translate(-840 -413)"><path d="M1.14583-3.89397e-07 1.14619 1039.04-1.14548 1039.04-1.14583 3.89397e-07ZM13.7504 1034.46 0.000360892 1061.96-13.7496 1034.46Z" fill="#4472C4" transform="matrix(1 0 0 -1 988 1619.95)"/><text font-family="Malgun Gothic,Malgun Gothic_MSFontService,sans-serif" font-weight="400" font-size="83" transform="matrix(1 0 0 1 936.158 519)">z</text><path d="M0 0 0.000360892 418.703" stroke="#FF0000" stroke-width="13.75" stroke-miterlimit="8" fill="none" fill-rule="evenodd" transform="matrix(1 0 0 -1 988 1237.7)"/><path d="M988 1080.85 1818.62 1080.85 1818.62 1083.15 988 1083.15ZM1814.03 1068.25 1841.53 1082 1814.03 1095.75Z" fill="#4472C4"/><text font-family="Malgun Gothic,Malgun Gothic_MSFontService,sans-serif" font-weight="400" font-size="83" transform="matrix(1 0 0 1 889.659 1113)">O</text><path d="M1337.5 1082.5C1337.5 1078.08 1341.31 1074.5 1346 1074.5 1350.69 1074.5 1354.5 1078.08 1354.5 1082.5 1354.5 1086.92 1350.69 1090.5 1346 1090.5 1341.31 1090.5 1337.5 1086.92 1337.5 1082.5Z" stroke="#2F528F" stroke-width="4.58333" stroke-miterlimit="8" fill="#4472C4" fill-rule="evenodd"/><path d="M988 819 1354.35 1082.01" stroke="#4472C4" stroke-width="2.29167" stroke-miterlimit="8" fill="none" fill-rule="evenodd"/><path d="M0 0 358.1 147.446" stroke="#4472C4" stroke-width="2.29167" stroke-miterlimit="8" fill="none" fill-rule="evenodd" transform="matrix(1 0 0 -1 988 1237.45)"/><path d="M1029.35 887.821C1026.86 887.821 1024.55 888.929 1022.42 891.144 1020.29 893.36 1018.58 896.359 1017.29 900.141 1016.01 903.924 1015.37 907.801 1015.37 911.773 1015.37 914.502 1015.77 916.528 1016.58 917.852 1017.39 919.176 1018.61 919.838 1020.23 919.838 1022.55 919.838 1024.95 918.473 1027.4 915.744 1029.86 913.016 1032.15 909.22 1034.25 904.356 1034.71 901.546 1034.94 899.061 1034.94 896.899 1034.94 893.819 1034.49 891.536 1033.59 890.05 1032.68 888.564 1031.27 887.821 1029.35 887.821ZM1029.63 884.619C1032.66 884.619 1035.03 885.565 1036.75 887.456 1038.46 889.348 1039.41 892.117 1039.6 895.764L1039.97 895.724 1045.28 885.268 1052.29 885.268 1051.88 887.335C1048.53 891.874 1044.59 897.453 1040.05 904.073 1039.37 909.233 1039.04 912.88 1039.04 915.015 1039.04 916.798 1039.24 918.075 1039.64 918.845 1040.05 919.615 1040.72 920 1041.67 920 1042.43 920 1043.28 919.682 1044.24 919.047 1045.2 918.412 1046.24 917.433 1047.34 916.109L1049.69 918.298C1047.43 920.729 1045.45 922.398 1043.78 923.303 1042.1 924.208 1040.37 924.66 1038.59 924.66 1035 924.66 1033.2 922.04 1033.2 916.798 1033.2 915.636 1033.28 914.353 1033.44 912.948L1033.04 912.948C1030.26 917.109 1027.62 920.101 1025.14 921.925 1022.65 923.749 1019.99 924.66 1017.15 924.66 1015.18 924.66 1013.52 924.093 1012.17 922.958 1010.82 921.824 1009.82 920.317 1009.17 918.44 1008.52 916.562 1008.19 914.515 1008.19 912.3 1008.19 907.463 1009.11 902.877 1010.95 898.541 1012.79 894.204 1015.34 890.8 1018.61 888.328 1021.88 885.856 1025.55 884.619 1029.63 884.619Z" fill-rule="evenodd"/><text fill="#000000" fill-opacity="0" font-family="Arial,Arial_MSFontService,sans-serif" font-size="40.041" x="1008.19" y="919.655">𝛼</text><path d="M1037.13 1132.77C1033.7 1132.77 1030.84 1134.43 1028.54 1137.74 1026.24 1141.05 1024.37 1146.06 1022.91 1152.79L1017.43 1178.2C1017.3 1178.82 1017.23 1179.35 1017.23 1179.78 1017.23 1180.51 1017.4 1181.13 1017.74 1181.65 1018.08 1182.16 1018.58 1182.67 1019.24 1183.17 1019.9 1183.67 1020.76 1184.1 1021.81 1184.46 1022.87 1184.83 1024.2 1185.01 1025.82 1185.01 1028.01 1185.01 1030.01 1184.34 1031.8 1182.98 1033.6 1181.63 1035.01 1179.72 1036.04 1177.23 1037.06 1174.74 1037.58 1171.91 1037.58 1168.72 1037.58 1165.67 1036.73 1163.27 1035.04 1161.55 1033.36 1159.82 1030.94 1158.83 1027.81 1158.59L1028.38 1155.71C1031.3 1155.49 1033.93 1154.66 1036.28 1153.2 1038.63 1151.74 1040.47 1149.83 1041.81 1147.46 1043.15 1145.1 1043.82 1142.51 1043.82 1139.7 1043.82 1137.46 1043.26 1135.74 1042.14 1134.55 1041.02 1133.37 1039.35 1132.77 1037.13 1132.77ZM1037.54 1129.57C1041.7 1129.57 1044.91 1130.49 1047.18 1132.35 1049.45 1134.2 1050.59 1136.82 1050.59 1140.23 1050.59 1141.61 1050.39 1143.1 1050 1144.71 1049.61 1146.31 1048.83 1147.89 1047.67 1149.45 1046.51 1151 1044.89 1152.44 1042.83 1153.76 1040.76 1155.09 1038.23 1156.22 1035.23 1157.17L1035.15 1157.49C1041.58 1159.76 1044.79 1163.99 1044.79 1170.18 1044.79 1173.37 1044.08 1176.35 1042.66 1179.13 1041.24 1181.92 1039.16 1184.13 1036.42 1185.76 1033.68 1187.4 1030.53 1188.21 1026.96 1188.21 1024.66 1188.21 1022.64 1188.03 1020.9 1187.67 1019.16 1187.3 1017.35 1186.67 1015.49 1185.78L1011.15 1204.99 1004.55 1204.99 1016.54 1151.41C1017.62 1146.6 1019.08 1142.62 1020.92 1139.46 1022.76 1136.3 1025.05 1133.86 1027.81 1132.14 1030.57 1130.43 1033.81 1129.57 1037.54 1129.57Z" fill-rule="evenodd"/><text fill="#000000" fill-opacity="0" font-family="Arial,Arial_MSFontService,sans-serif" font-size="75.4214" x="1004.55" y="1195.56">𝛽</text><path d="M1255.59 1049.95C1258.23 1049.95 1260.17 1050.96 1261.38 1052.99 1262.6 1055.02 1263.21 1058.35 1263.21 1063 1263.21 1068.46 1262.95 1074.38 1262.44 1080.75L1262.8 1080.75C1269.37 1069.73 1274.8 1059.68 1279.09 1050.6L1287.56 1050.6 1287.04 1052.54C1284.42 1055.71 1280.58 1060.91 1275.53 1068.15 1270.47 1075.39 1265.76 1082.58 1261.38 1089.71 1260.49 1095.33 1259.36 1100.62 1257.98 1105.6L1251.94 1105.6 1250.76 1103.69C1251.84 1099.45 1253.78 1094.77 1256.56 1089.67 1256.8 1084.56 1256.92 1079.35 1256.92 1074.02 1256.92 1069.51 1256.83 1066.01 1256.64 1063.53 1256.45 1061.04 1256.17 1059.17 1255.81 1057.91 1255.44 1056.66 1255.01 1055.79 1254.51 1055.32 1254.01 1054.85 1253.4 1054.61 1252.67 1054.61 1251.16 1054.61 1249.41 1055.71 1247.44 1057.89L1245.17 1055.62C1246.47 1054.46 1247.47 1053.59 1248.19 1052.99 1248.91 1052.4 1249.65 1051.87 1250.42 1051.41 1251.19 1050.95 1251.99 1050.59 1252.81 1050.34 1253.63 1050.08 1254.56 1049.95 1255.59 1049.95Z" fill-rule="evenodd"/><text fill="#000000" fill-opacity="0" font-family="Arial,Arial_MSFontService,sans-serif" font-size="55.644" x="1245.17" y="1098.64">𝛾</text><path d="M1354.35 1081.97 988 992" stroke="#4472C4" stroke-width="2.29167" stroke-miterlimit="8" fill="none" fill-rule="evenodd"/><text font-family="Malgun Gothic,Malgun Gothic_MSFontService,sans-serif" font-weight="400" font-size="83" transform="matrix(1 0 0 1 895.209 998)">z</text><path d="M1354 1237C1354 1266 1350.08 1289.5 1345.25 1289.5L1179.25 1289.5C1174.42 1289.5 1170.5 1313.01 1170.5 1342 1170.5 1313.01 1166.58 1289.5 1161.75 1289.5L995.749 1289.5C990.917 1289.5 987 1266 987 1237" stroke="#4472C4" stroke-width="2.29167" stroke-miterlimit="8" fill="none" fill-rule="evenodd"/><path d="M1175.45 1386.04C1174.42 1386.04 1173.44 1386.22 1172.51 1386.58 1171.58 1386.95 1170.61 1387.57 1169.59 1388.45 1168.58 1389.33 1167.62 1390.51 1166.7 1391.99 1165.78 1393.48 1164.95 1395.23 1164.22 1397.24 1163.5 1399.26 1162.79 1401.83 1162.12 1404.96L1160.7 1411.49C1160.64 1411.79 1160.58 1412.21 1160.52 1412.76 1160.45 1413.32 1160.42 1413.82 1160.42 1414.28 1160.42 1416.01 1161.12 1417.34 1162.54 1418.28 1163.96 1419.21 1165.85 1419.67 1168.2 1419.67 1170.98 1419.67 1173.44 1418.55 1175.59 1416.29 1177.74 1414.03 1179.41 1410.93 1180.6 1406.97 1181.79 1403.01 1182.38 1399.07 1182.38 1395.16 1182.38 1393.4 1182.2 1391.87 1181.83 1390.56 1181.47 1389.24 1180.77 1388.16 1179.75 1387.31 1178.72 1386.46 1177.29 1386.04 1175.45 1386.04ZM1176.5 1382.83C1179.13 1382.83 1181.44 1383.37 1183.43 1384.44 1185.43 1385.5 1186.95 1387.05 1187.97 1389.08 1189 1391.1 1189.51 1393.59 1189.51 1396.53 1189.51 1401.13 1188.62 1405.48 1186.82 1409.6 1185.02 1413.72 1182.52 1416.97 1179.32 1419.33 1176.12 1421.69 1172.53 1422.88 1168.56 1422.88 1166.72 1422.88 1164.98 1422.71 1163.33 1422.39 1161.68 1422.07 1160.04 1421.51 1158.39 1420.73L1154.17 1439.74 1147.53 1439.74 1155.75 1403.06C1156.73 1398.74 1158.12 1395.11 1159.93 1392.2 1161.74 1389.28 1164.04 1386.99 1166.82 1385.33 1169.6 1383.67 1172.83 1382.83 1176.5 1382.83Z" fill-rule="evenodd"/><text fill="#000000" fill-opacity="0" font-family="Arial,Arial_MSFontService,sans-serif" font-size="56.9004" x="1147.53" y="1432.62">𝜌</text></g></svg>