<svg width="566" height="429" xmlns="http://www.w3.org/2000/svg" xmlns:xlink="http://www.w3.org/1999/xlink" xml:space="preserve" overflow="hidden"><g transform="translate(-1074 -1229)"><path d="M1074.5 1548.06 1588.72 1548.06 1588.72 1554.94 1074.5 1554.94ZM1584.14 1537.75 1611.64 1551.5 1584.14 1565.25Z"/><path d="M1321.35 1657.7 1320.14 1280.43 1327.01 1280.41 1328.22 1657.68ZM1309.84 1285.04 1323.5 1257.5 1337.34 1284.96Z"/><text font-family="Cambria Math,Cambria Math_MSFontService,sans-serif" font-weight="400" font-size="32" transform="matrix(1 0 0 1 1327.7 1585)">𝑂</text><path d="M1450.5 1404.5 1450.5 1555.16" stroke="#000000" stroke-width="6.875" stroke-miterlimit="8" stroke-dasharray="6.875 6.875" fill="none" fill-rule="evenodd"/><path d="M1450.79 1580.25 1451.65 1580.25C1451.58 1581.25 1451.55 1582.63 1451.55 1584.4L1451.55 1597.75C1451.55 1598.35 1451.59 1598.81 1451.65 1599.11 1451.72 1599.42 1451.84 1599.67 1452.01 1599.86 1452.18 1600.06 1452.43 1600.21 1452.75 1600.32 1453.08 1600.43 1453.48 1600.51 1453.97 1600.57 1454.46 1600.62 1455.11 1600.66 1455.91 1600.68L1455.91 1601.83 1444.36 1601.83 1444.36 1600.68C1445.52 1600.63 1446.35 1600.56 1446.84 1600.47 1447.34 1600.39 1447.71 1600.25 1447.97 1600.08 1448.23 1599.9 1448.42 1599.65 1448.54 1599.33 1448.66 1599 1448.72 1598.48 1448.72 1597.75L1448.72 1585.08C1448.72 1584.66 1448.65 1584.35 1448.5 1584.16 1448.36 1583.97 1448.15 1583.87 1447.86 1583.87 1447.53 1583.87 1447.06 1584.04 1446.44 1584.39 1445.83 1584.73 1445.07 1585.21 1444.16 1585.81L1443.47 1584.61Z" fill-rule="evenodd"/><text fill="#000000" fill-opacity="0" font-family="Arial,Arial_MSFontService,sans-serif" font-size="21.5781" x="1443.47" y="1599.13">1</text><path d="M1447.07 1626.26 1463.38 1626.26 1462.16 1631.76 1460.66 1631.76C1460.66 1630.75 1460.64 1629.99 1460.59 1629.49 1460.53 1628.98 1460.43 1628.6 1460.29 1628.33 1460.14 1628.07 1459.96 1627.88 1459.75 1627.79 1459.54 1627.69 1459.16 1627.64 1458.62 1627.64L1456.3 1627.64 1452.91 1643.04C1452.82 1643.45 1452.76 1643.77 1452.72 1644.01 1452.68 1644.25 1452.65 1644.5 1452.62 1644.77 1452.6 1645.04 1452.59 1645.27 1452.59 1645.48 1452.59 1645.8 1452.64 1646.06 1452.74 1646.24 1452.85 1646.42 1453 1646.55 1453.21 1646.64 1453.42 1646.72 1453.78 1646.78 1454.29 1646.82L1454.12 1647.59 1447.54 1647.59 1447.71 1646.82C1448.13 1646.76 1448.43 1646.68 1448.63 1646.57 1448.83 1646.47 1449.01 1646.31 1449.16 1646.09 1449.31 1645.87 1449.46 1645.53 1449.61 1645.06 1449.76 1644.59 1449.94 1643.88 1450.15 1642.93L1453.49 1627.64 1451.51 1627.64C1450.86 1627.64 1450.35 1627.73 1449.96 1627.92 1449.58 1628.11 1449.19 1628.45 1448.8 1628.96 1448.42 1629.48 1447.95 1630.33 1447.4 1631.53L1445.9 1631.53ZM1435.79 1626.01C1437.73 1626.01 1439.19 1626.44 1440.18 1627.29 1441.17 1628.13 1441.66 1629.37 1441.66 1630.98 1441.66 1631.53 1441.61 1632.04 1441.5 1632.5 1441.39 1632.97 1441.22 1633.43 1440.98 1633.88 1440.75 1634.33 1440.43 1634.82 1440.04 1635.34 1439.64 1635.86 1439.21 1636.39 1438.73 1636.93 1438.25 1637.46 1437.42 1638.36 1436.24 1639.61 1434.26 1641.7 1432.81 1643.53 1431.88 1645.09L1437.77 1645.09C1438.28 1645.09 1438.7 1645.06 1439.01 1645 1439.32 1644.93 1439.57 1644.83 1439.76 1644.68 1439.95 1644.54 1440.09 1644.35 1440.2 1644.11 1440.31 1643.88 1440.45 1643.52 1440.62 1643.03L1441.95 1643.03 1441.68 1647.59 1428.82 1647.59 1428.82 1646.84C1429.27 1645.75 1429.87 1644.63 1430.63 1643.48 1431.39 1642.33 1432.47 1640.99 1433.87 1639.43 1435.08 1638.1 1435.95 1637.09 1436.48 1636.4 1437.06 1635.65 1437.49 1635 1437.78 1634.46 1438.07 1633.91 1438.27 1633.39 1438.4 1632.91 1438.52 1632.43 1438.59 1631.94 1438.59 1631.45 1438.59 1630.67 1438.46 1629.98 1438.21 1629.38 1437.96 1628.78 1437.58 1628.31 1437.06 1627.96 1436.55 1627.62 1435.9 1627.45 1435.12 1627.45 1433.17 1627.45 1431.86 1628.53 1431.18 1630.7L1429.29 1630.7 1429.29 1627.7C1430.55 1627.11 1431.73 1626.68 1432.83 1626.41 1433.93 1626.14 1434.91 1626.01 1435.79 1626.01Z" fill-rule="evenodd"/><text fill="#000000" fill-opacity="0" font-family="Arial,Arial_MSFontService,sans-serif" font-size="21.5781" x="1428.82" y="1644.89">2𝑇</text><path d="M1465.76 1642.68C1466.49 1642.68 1467.16 1642.72 1467.77 1642.81 1468.38 1642.9 1468.97 1643.03 1469.55 1643.21L1469.01 1645.74 1468.01 1645.74C1467.93 1645.07 1467.71 1644.57 1467.34 1644.25 1466.98 1643.93 1466.42 1643.77 1465.65 1643.77 1465.35 1643.77 1465.06 1643.81 1464.8 1643.89 1464.54 1643.97 1464.31 1644.09 1464.13 1644.23 1463.94 1644.38 1463.79 1644.55 1463.69 1644.76 1463.58 1644.96 1463.53 1645.18 1463.53 1645.42 1463.53 1645.64 1463.56 1645.83 1463.61 1646.01 1463.66 1646.19 1463.76 1646.37 1463.92 1646.54 1464.07 1646.71 1464.29 1646.89 1464.57 1647.08 1464.85 1647.27 1465.22 1647.48 1465.68 1647.72 1466.15 1647.98 1466.55 1648.23 1466.87 1648.47 1467.19 1648.71 1467.44 1648.96 1467.63 1649.2 1467.82 1649.45 1467.95 1649.71 1468.02 1649.99 1468.1 1650.28 1468.13 1650.59 1468.13 1650.93 1468.13 1651.46 1468.03 1651.94 1467.81 1652.36 1467.59 1652.79 1467.29 1653.14 1466.9 1653.44 1466.51 1653.73 1466.05 1653.95 1465.52 1654.11 1465 1654.27 1464.42 1654.35 1463.79 1654.35 1463.1 1654.35 1462.42 1654.3 1461.76 1654.21 1461.09 1654.12 1460.39 1653.97 1459.64 1653.75L1460.23 1651.19 1461.21 1651.19C1461.24 1651.89 1461.46 1652.41 1461.86 1652.76 1462.26 1653.11 1462.88 1653.28 1463.72 1653.28 1464.47 1653.28 1465.06 1653.12 1465.49 1652.8 1465.92 1652.47 1466.14 1652.03 1466.14 1651.45 1466.14 1651.19 1466.11 1650.96 1466.06 1650.77 1466 1650.58 1465.9 1650.4 1465.75 1650.22 1465.59 1650.05 1465.38 1649.87 1465.12 1649.69 1464.85 1649.51 1464.51 1649.3 1464.08 1649.06 1463.64 1648.81 1463.26 1648.57 1462.94 1648.33 1462.62 1648.09 1462.36 1647.84 1462.15 1647.6 1461.95 1647.35 1461.8 1647.09 1461.7 1646.82 1461.6 1646.55 1461.55 1646.26 1461.55 1645.96 1461.55 1645.49 1461.65 1645.05 1461.85 1644.65 1462.05 1644.25 1462.33 1643.9 1462.7 1643.61 1463.07 1643.32 1463.51 1643.09 1464.02 1642.92 1464.54 1642.76 1465.12 1642.68 1465.76 1642.68Z" fill-rule="evenodd"/><text fill="#000000" fill-opacity="0" font-family="Arial,Arial_MSFontService,sans-serif" font-size="11.6685" x="1459.64" y="1652.89">𝑠</text><path d="M1426.92 1616.13 1442.26 1616.13 1457.59 1616.13 1472.92 1616.13 1472.92 1618.13 1457.59 1618.13 1442.26 1618.13 1426.92 1618.13Z" fill-rule="evenodd"/><path d="M1194.5 1403.5 1194.5 1554.16" stroke="#000000" stroke-width="6.875" stroke-miterlimit="8" stroke-dasharray="6.875 6.875" fill="none" fill-rule="evenodd"/><path d="M1179.22 1589.92 1198.47 1589.92 1198.47 1591.99 1179.22 1591.99Z" fill-rule="evenodd"/><text fill="#000000" fill-opacity="0" font-family="Arial,Arial_MSFontService,sans-serif" font-size="2.07812" x="1179.22" y="1591.73">−</text><path d="M1211.05 1578.53 1211.91 1578.53C1211.85 1579.53 1211.82 1580.91 1211.82 1582.68L1211.82 1596.03C1211.82 1596.63 1211.85 1597.09 1211.92 1597.39 1211.99 1597.7 1212.11 1597.95 1212.28 1598.14 1212.45 1598.34 1212.7 1598.49 1213.02 1598.6 1213.34 1598.71 1213.75 1598.79 1214.24 1598.85 1214.73 1598.9 1215.37 1598.94 1216.18 1598.96L1216.18 1600.1 1204.63 1600.1 1204.63 1598.96C1205.79 1598.91 1206.61 1598.84 1207.11 1598.75 1207.6 1598.66 1207.98 1598.53 1208.24 1598.35 1208.5 1598.18 1208.69 1597.93 1208.81 1597.6 1208.93 1597.28 1208.99 1596.75 1208.99 1596.03L1208.99 1583.35C1208.99 1582.94 1208.92 1582.63 1208.77 1582.44 1208.62 1582.25 1208.41 1582.15 1208.13 1582.15 1207.8 1582.15 1207.32 1582.32 1206.71 1582.67 1206.09 1583.01 1205.33 1583.48 1204.43 1584.09L1203.74 1582.88Z" fill-rule="evenodd"/><text fill="#000000" fill-opacity="0" font-family="Arial,Arial_MSFontService,sans-serif" font-size="21.5781" x="1203.74" y="1597.41">1</text><path d="M1195.3 1624.54 1211.62 1624.54 1210.4 1630.04 1208.9 1630.04C1208.9 1629.03 1208.87 1628.27 1208.82 1627.77 1208.77 1627.26 1208.67 1626.88 1208.52 1626.61 1208.38 1626.34 1208.2 1626.16 1207.98 1626.06 1207.77 1625.96 1207.39 1625.91 1206.85 1625.91L1204.54 1625.91 1201.15 1641.32C1201.05 1641.73 1200.99 1642.05 1200.95 1642.29 1200.92 1642.53 1200.89 1642.78 1200.86 1643.05 1200.83 1643.31 1200.82 1643.55 1200.82 1643.76 1200.82 1644.08 1200.87 1644.33 1200.98 1644.52 1201.08 1644.7 1201.24 1644.83 1201.44 1644.91 1201.65 1645 1202.01 1645.06 1202.52 1645.1L1202.35 1645.87 1195.77 1645.87 1195.94 1645.1C1196.36 1645.04 1196.67 1644.96 1196.87 1644.85 1197.06 1644.75 1197.24 1644.59 1197.39 1644.37 1197.54 1644.15 1197.69 1643.81 1197.84 1643.34 1197.99 1642.87 1198.17 1642.16 1198.38 1641.21L1201.73 1625.91 1199.74 1625.91C1199.1 1625.91 1198.58 1626.01 1198.19 1626.2 1197.81 1626.38 1197.42 1626.73 1197.04 1627.24 1196.65 1627.75 1196.18 1628.61 1195.63 1629.81L1194.13 1629.81ZM1184.02 1624.29C1185.96 1624.29 1187.42 1624.71 1188.41 1625.56 1189.4 1626.41 1189.9 1627.64 1189.9 1629.26 1189.9 1629.81 1189.84 1630.32 1189.73 1630.78 1189.62 1631.25 1189.45 1631.7 1189.22 1632.16 1188.98 1632.61 1188.67 1633.1 1188.27 1633.62 1187.88 1634.14 1187.44 1634.67 1186.96 1635.2 1186.48 1635.74 1185.65 1636.63 1184.48 1637.88 1182.5 1639.98 1181.04 1641.81 1180.12 1643.37L1186.01 1643.37C1186.52 1643.37 1186.93 1643.34 1187.24 1643.27 1187.55 1643.21 1187.8 1643.11 1187.99 1642.96 1188.18 1642.82 1188.33 1642.63 1188.44 1642.39 1188.55 1642.16 1188.68 1641.8 1188.85 1641.31L1190.18 1641.31 1189.91 1645.87 1177.05 1645.87 1177.05 1645.12C1177.5 1644.02 1178.11 1642.9 1178.87 1641.76 1179.63 1640.61 1180.71 1639.26 1182.1 1637.71 1183.31 1636.38 1184.18 1635.37 1184.71 1634.68 1185.29 1633.93 1185.73 1633.28 1186.02 1632.74 1186.3 1632.19 1186.51 1631.67 1186.63 1631.19 1186.76 1630.7 1186.82 1630.22 1186.82 1629.73 1186.82 1628.95 1186.69 1628.26 1186.44 1627.66 1186.19 1627.06 1185.81 1626.59 1185.3 1626.24 1184.78 1625.9 1184.13 1625.73 1183.35 1625.73 1181.4 1625.73 1180.09 1626.81 1179.41 1628.98L1177.52 1628.98 1177.52 1625.98C1178.78 1625.38 1179.96 1624.95 1181.06 1624.69 1182.16 1624.42 1183.15 1624.29 1184.02 1624.29Z" fill-rule="evenodd"/><text fill="#000000" fill-opacity="0" font-family="Arial,Arial_MSFontService,sans-serif" font-size="21.5781" x="1177.05" y="1643.17">2𝑇</text><path d="M1214 1640.96C1214.73 1640.96 1215.39 1641 1216 1641.09 1216.61 1641.18 1217.21 1641.31 1217.78 1641.48L1217.24 1644.02 1216.25 1644.02C1216.16 1643.35 1215.94 1642.85 1215.58 1642.53 1215.21 1642.21 1214.65 1642.05 1213.89 1642.05 1213.58 1642.05 1213.3 1642.09 1213.03 1642.17 1212.77 1642.25 1212.55 1642.37 1212.36 1642.51 1212.17 1642.66 1212.03 1642.83 1211.92 1643.03 1211.82 1643.24 1211.76 1643.46 1211.76 1643.7 1211.76 1643.91 1211.79 1644.11 1211.84 1644.29 1211.9 1644.47 1212 1644.65 1212.15 1644.82 1212.31 1644.99 1212.52 1645.17 1212.8 1645.36 1213.08 1645.55 1213.45 1645.76 1213.91 1646 1214.39 1646.26 1214.79 1646.51 1215.11 1646.75 1215.42 1646.99 1215.68 1647.23 1215.86 1647.48 1216.05 1647.73 1216.18 1647.99 1216.26 1648.27 1216.33 1648.55 1216.37 1648.87 1216.37 1649.21 1216.37 1649.74 1216.26 1650.22 1216.04 1650.64 1215.83 1651.07 1215.52 1651.42 1215.13 1651.71 1214.74 1652.01 1214.29 1652.23 1213.76 1652.39 1213.23 1652.55 1212.65 1652.62 1212.02 1652.62 1211.33 1652.62 1210.66 1652.58 1209.99 1652.49 1209.32 1652.4 1208.62 1652.25 1207.88 1652.03L1208.46 1649.47 1209.44 1649.47C1209.48 1650.16 1209.7 1650.69 1210.1 1651.04 1210.5 1651.38 1211.12 1651.56 1211.96 1651.56 1212.7 1651.56 1213.29 1651.4 1213.72 1651.07 1214.15 1650.75 1214.37 1650.3 1214.37 1649.73 1214.37 1649.46 1214.34 1649.24 1214.29 1649.05 1214.24 1648.86 1214.14 1648.68 1213.98 1648.5 1213.83 1648.33 1213.62 1648.15 1213.35 1647.97 1213.09 1647.79 1212.74 1647.57 1212.31 1647.33 1211.87 1647.09 1211.49 1646.84 1211.17 1646.6 1210.86 1646.37 1210.59 1646.12 1210.39 1645.87 1210.18 1645.63 1210.03 1645.37 1209.93 1645.1 1209.84 1644.83 1209.79 1644.54 1209.79 1644.24 1209.79 1643.76 1209.89 1643.33 1210.09 1642.93 1210.28 1642.53 1210.57 1642.18 1210.93 1641.89 1211.3 1641.6 1211.74 1641.37 1212.26 1641.2 1212.78 1641.04 1213.36 1640.96 1214 1640.96Z" fill-rule="evenodd"/><text fill="#000000" fill-opacity="0" font-family="Arial,Arial_MSFontService,sans-serif" font-size="11.6685" x="1207.88" y="1651.17">𝑠</text><path d="M1175.16 1614.41 1190.49 1614.41 1205.82 1614.41 1221.16 1614.41 1221.16 1616.41 1205.82 1616.41 1190.49 1616.41 1175.16 1616.41Z" fill-rule="evenodd"/><path d="M1325.5 1403.5 1411.92 1403.5" stroke="#000000" stroke-width="6.875" stroke-miterlimit="8" fill="none" fill-rule="evenodd"/><path d="M1411.5 1403.5 1489.14 1551.65" stroke="#000000" stroke-width="6.875" stroke-miterlimit="8" fill="none" fill-rule="evenodd"/><path d="M0 0 86.4225 0.000360892" stroke="#000000" stroke-width="6.875" stroke-miterlimit="8" fill="none" fill-rule="evenodd" transform="matrix(-1 0 0 1 1322.92 1403.5)"/><path d="M0 0 77.6359 148.148" stroke="#000000" stroke-width="6.875" stroke-miterlimit="8" fill="none" fill-rule="evenodd" transform="matrix(-1 0 0 1 1236.14 1403.5)"/><text font-family="Cambria Math,Cambria Math_MSFontService,sans-serif" font-weight="400" font-size="32" transform="matrix(1 0 0 1 1601.91 1596)">𝑓</text><text font-family="Cambria Math,Cambria Math_MSFontService,sans-serif" font-weight="400" font-size="32" transform="matrix(1 0 0 1 1348.68 1269)">𝐻</text><text font-family="Cambria Math,Cambria Math_MSFontService,sans-serif" font-weight="400" font-size="32" transform="matrix(1 0 0 1 1373.11 1269)">(</text><text font-family="Cambria Math,Cambria Math_MSFontService,sans-serif" font-weight="400" font-size="32" transform="matrix(1 0 0 1 1386.29 1269)">𝑓</text><text font-family="Cambria Math,Cambria Math_MSFontService,sans-serif" font-weight="400" font-size="32" transform="matrix(1 0 0 1 1404.99 1269)">)</text><text font-family="Cambria Math,Cambria Math_MSFontService,sans-serif" font-weight="400" font-size="32" transform="matrix(1 0 0 1 1337.19 1389)">1</text><text font-family="Cambria Math,Cambria Math_MSFontService,sans-serif" font-weight="400" font-size="32" transform="matrix(1 0 0 1 1331.86 1468)">0</text><text font-family="Cambria Math,Cambria Math_MSFontService,sans-serif" font-weight="400" font-size="32" transform="matrix(1 0 0 1 1349.62 1468)">.</text><text font-family="Cambria Math,Cambria Math_MSFontService,sans-serif" font-weight="400" font-size="32" transform="matrix(1 0 0 1 1355.93 1468)">5</text><path d="M1159.5 1485.5 1509.02 1485.5" stroke="#000000" stroke-width="6.875" stroke-linecap="square" stroke-miterlimit="8" stroke-dasharray="20.625 6.875" fill="none" fill-rule="evenodd"/></g></svg>