<svg width="1280" height="429" xmlns="http://www.w3.org/2000/svg" xmlns:xlink="http://www.w3.org/1999/xlink" xml:space="preserve" overflow="hidden"><g transform="translate(-859 -736)"><path d="M1354.5 910.5 1391.68 910.5" stroke="#000000" stroke-width="6.875" stroke-linecap="square" stroke-miterlimit="8" stroke-dasharray="20.625 6.875" fill="none" fill-rule="evenodd"/><path d="M1391.5 910.5 1424.9 1058.65" stroke="#000000" stroke-width="6.875" stroke-linecap="square" stroke-miterlimit="8" stroke-dasharray="20.625 6.875" fill="none" fill-rule="evenodd"/><path d="M0 0 37.1809 0.000360892" stroke="#000000" stroke-width="6.875" stroke-linecap="square" stroke-miterlimit="8" stroke-dasharray="20.625 6.875" fill="none" fill-rule="evenodd" transform="matrix(-1 0 0 1 1353.68 910.5)"/><path d="M0 0 33.4006 148.148" stroke="#000000" stroke-width="6.875" stroke-linecap="square" stroke-miterlimit="8" stroke-dasharray="20.625 6.875" fill="none" fill-rule="evenodd" transform="matrix(-1 0 0 1 1316.9 910.5)"/><path d="M1465.5 910.5 1502.68 910.5" stroke="#000000" stroke-width="6.875" stroke-linecap="square" stroke-miterlimit="8" stroke-dasharray="20.625 6.875" fill="none" fill-rule="evenodd"/><path d="M1502.5 910.5 1535.9 1058.65" stroke="#000000" stroke-width="6.875" stroke-linecap="square" stroke-miterlimit="8" stroke-dasharray="20.625 6.875" fill="none" fill-rule="evenodd"/><path d="M0 0 37.1809 0.000360892" stroke="#000000" stroke-width="6.875" stroke-linecap="square" stroke-miterlimit="8" stroke-dasharray="20.625 6.875" fill="none" fill-rule="evenodd" transform="matrix(-1 0 0 1 1464.68 910.5)"/><path d="M0 0 33.4006 148.148" stroke="#000000" stroke-width="6.875" stroke-linecap="square" stroke-miterlimit="8" stroke-dasharray="20.625 6.875" fill="none" fill-rule="evenodd" transform="matrix(-1 0 0 1 1426.9 910.5)"/><path d="M859.5 1059.06 2087.77 1059.06 2087.77 1065.94 859.5 1065.94ZM2083.19 1048.75 2110.69 1062.5 2083.19 1076.25Z"/><path d="M1461.35 1164.7 1460.14 787.427 1467.01 787.405 1468.22 1164.68ZM1449.84 792.044 1463.5 764.5 1477.34 791.956Z"/><text font-family="Cambria Math,Cambria Math_MSFontService,sans-serif" font-weight="400" font-size="32" transform="matrix(1 0 0 1 2102.38 1115)">𝑓</text><path d="M1577.5 911.5 1577.5 1062.16" stroke="#000000" stroke-width="6.875" stroke-miterlimit="8" stroke-dasharray="6.875 6.875" fill="none" fill-rule="evenodd"/><path d="M1690.5 911.5 1690.5 1062.16" stroke="#000000" stroke-width="6.875" stroke-miterlimit="8" stroke-dasharray="6.875 6.875" fill="none" fill-rule="evenodd"/><path d="M1803.5 911.5 1803.5 1062.16" stroke="#000000" stroke-width="6.875" stroke-miterlimit="8" stroke-dasharray="6.875 6.875" fill="none" fill-rule="evenodd"/><path d="M1916.5 911.5 1916.5 1062.16" stroke="#000000" stroke-width="6.875" stroke-miterlimit="8" stroke-dasharray="6.875 6.875" fill="none" fill-rule="evenodd"/><path d="M1013.5 911.5 1013.5 1062.16" stroke="#000000" stroke-width="6.875" stroke-miterlimit="8" stroke-dasharray="6.875 6.875" fill="none" fill-rule="evenodd"/><path d="M1126.5 911.5 1126.5 1062.16" stroke="#000000" stroke-width="6.875" stroke-miterlimit="8" stroke-dasharray="6.875 6.875" fill="none" fill-rule="evenodd"/><path d="M1239.5 911.5 1239.5 1062.16" stroke="#000000" stroke-width="6.875" stroke-miterlimit="8" stroke-dasharray="6.875 6.875" fill="none" fill-rule="evenodd"/><path d="M1352.5 911.5 1352.5 1062.16" stroke="#000000" stroke-width="6.875" stroke-miterlimit="8" stroke-dasharray="6.875 6.875" fill="none" fill-rule="evenodd"/><path d="M1464.5 911.5 1464.5 1062.16" stroke="#000000" stroke-width="6.875" stroke-miterlimit="8" fill="none" fill-rule="evenodd"/><path d="M1577.99 1087.09 1578.85 1087.09C1578.78 1088.09 1578.75 1089.48 1578.75 1091.25L1578.75 1104.59C1578.75 1105.19 1578.79 1105.65 1578.85 1105.96 1578.92 1106.26 1579.04 1106.51 1579.21 1106.71 1579.38 1106.9 1579.63 1107.05 1579.96 1107.16 1580.28 1107.27 1580.68 1107.35 1581.17 1107.41 1581.66 1107.47 1582.31 1107.51 1583.11 1107.53L1583.11 1108.67 1571.56 1108.67 1571.56 1107.53C1572.72 1107.48 1573.55 1107.41 1574.04 1107.32 1574.54 1107.23 1574.91 1107.1 1575.17 1106.92 1575.43 1106.74 1575.62 1106.49 1575.74 1106.17 1575.86 1105.85 1575.92 1105.32 1575.92 1104.59L1575.92 1091.92C1575.92 1091.5 1575.85 1091.2 1575.71 1091 1575.56 1090.81 1575.35 1090.71 1575.06 1090.71 1574.73 1090.71 1574.26 1090.89 1573.64 1091.23 1573.03 1091.57 1572.27 1092.05 1571.36 1092.65L1570.67 1091.45Z" fill-rule="evenodd"/><text fill="#000000" fill-opacity="0" font-family="Arial,Arial_MSFontService,sans-serif" font-size="21.5781" x="1570.67" y="1105.97">1</text><path d="M1565.14 1133.1 1581.45 1133.1 1580.23 1138.6 1578.73 1138.6C1578.73 1137.59 1578.71 1136.84 1578.66 1136.33 1578.6 1135.83 1578.5 1135.44 1578.36 1135.17 1578.21 1134.91 1578.03 1134.73 1577.82 1134.63 1577.61 1134.53 1577.23 1134.48 1576.69 1134.48L1574.37 1134.48 1570.98 1149.89C1570.89 1150.29 1570.82 1150.61 1570.79 1150.85 1570.75 1151.09 1570.72 1151.35 1570.69 1151.61 1570.67 1151.88 1570.66 1152.11 1570.66 1152.32 1570.66 1152.65 1570.71 1152.9 1570.81 1153.08 1570.92 1153.26 1571.07 1153.4 1571.28 1153.48 1571.49 1153.56 1571.85 1153.63 1572.36 1153.67L1572.19 1154.43 1565.61 1154.43 1565.78 1153.67C1566.2 1153.6 1566.5 1153.52 1566.7 1153.42 1566.9 1153.31 1567.07 1153.15 1567.23 1152.93 1567.38 1152.71 1567.53 1152.37 1567.68 1151.9 1567.83 1151.43 1568.01 1150.72 1568.22 1149.78L1571.56 1134.48 1569.58 1134.48C1568.93 1134.48 1568.42 1134.57 1568.03 1134.76 1567.64 1134.95 1567.26 1135.3 1566.87 1135.81 1566.49 1136.32 1566.02 1137.17 1565.47 1138.37L1563.97 1138.37Z" fill-rule="evenodd"/><text fill="#000000" fill-opacity="0" font-family="Arial,Arial_MSFontService,sans-serif" font-size="21.3281" x="1563.97" y="1151.77">𝑇</text><path d="M1584.07 1149.52C1584.8 1149.52 1585.47 1149.57 1586.08 1149.66 1586.69 1149.75 1587.28 1149.88 1587.86 1150.05L1587.32 1152.59 1586.32 1152.59C1586.24 1151.91 1586.01 1151.41 1585.65 1151.09 1585.29 1150.77 1584.73 1150.61 1583.96 1150.61 1583.65 1150.61 1583.37 1150.65 1583.11 1150.73 1582.85 1150.82 1582.62 1150.93 1582.43 1151.08 1582.25 1151.22 1582.1 1151.4 1582 1151.6 1581.89 1151.8 1581.84 1152.02 1581.84 1152.26 1581.84 1152.48 1581.87 1152.68 1581.92 1152.86 1581.97 1153.04 1582.07 1153.21 1582.23 1153.38 1582.38 1153.56 1582.6 1153.74 1582.88 1153.92 1583.16 1154.11 1583.53 1154.32 1583.98 1154.56 1584.46 1154.83 1584.86 1155.08 1585.18 1155.32 1585.5 1155.56 1585.75 1155.8 1585.94 1156.05 1586.13 1156.29 1586.26 1156.56 1586.33 1156.84 1586.41 1157.12 1586.44 1157.43 1586.44 1157.77 1586.44 1158.31 1586.33 1158.78 1586.12 1159.21 1585.9 1159.63 1585.6 1159.99 1585.21 1160.28 1584.82 1160.57 1584.36 1160.8 1583.83 1160.95 1583.3 1161.11 1582.73 1161.19 1582.1 1161.19 1581.41 1161.19 1580.73 1161.14 1580.06 1161.05 1579.4 1160.96 1578.69 1160.81 1577.95 1160.59L1578.54 1158.03 1579.51 1158.03C1579.55 1158.73 1579.77 1159.25 1580.17 1159.6 1580.57 1159.95 1581.19 1160.12 1582.03 1160.12 1582.78 1160.12 1583.37 1159.96 1583.8 1159.64 1584.23 1159.32 1584.44 1158.87 1584.44 1158.29 1584.44 1158.03 1584.42 1157.8 1584.37 1157.61 1584.31 1157.42 1584.21 1157.24 1584.06 1157.07 1583.9 1156.9 1583.69 1156.72 1583.43 1156.53 1583.16 1156.35 1582.82 1156.14 1582.39 1155.9 1581.95 1155.65 1581.57 1155.41 1581.25 1155.17 1580.93 1154.93 1580.67 1154.69 1580.46 1154.44 1580.26 1154.19 1580.11 1153.93 1580.01 1153.66 1579.91 1153.4 1579.86 1153.11 1579.86 1152.8 1579.86 1152.33 1579.96 1151.89 1580.16 1151.49 1580.36 1151.09 1580.64 1150.74 1581.01 1150.45 1581.37 1150.16 1581.82 1149.93 1582.33 1149.77 1582.85 1149.6 1583.43 1149.52 1584.07 1149.52Z" fill-rule="evenodd"/><text fill="#000000" fill-opacity="0" font-family="Arial,Arial_MSFontService,sans-serif" font-size="11.6685" x="1577.95" y="1159.73">𝑠</text><path d="M1563.1 1122.97 1577.1 1122.97 1591.1 1122.97 1591.1 1124.97 1577.1 1124.97 1563.1 1124.97Z" fill-rule="evenodd"/><path d="M1689.22 1086.82C1691.16 1086.82 1692.62 1087.25 1693.61 1088.1 1694.6 1088.95 1695.09 1090.18 1695.09 1091.79 1695.09 1092.34 1695.04 1092.85 1694.93 1093.32 1694.82 1093.78 1694.65 1094.24 1694.41 1094.69 1694.18 1095.14 1693.86 1095.63 1693.47 1096.15 1693.07 1096.67 1692.63 1097.2 1692.16 1097.74 1691.68 1098.27 1690.85 1099.17 1689.67 1100.42 1687.69 1102.51 1686.24 1104.34 1685.31 1105.9L1691.2 1105.9C1691.71 1105.9 1692.12 1105.87 1692.44 1105.81 1692.75 1105.75 1693 1105.64 1693.19 1105.5 1693.37 1105.35 1693.52 1105.16 1693.63 1104.93 1693.74 1104.69 1693.88 1104.33 1694.05 1103.84L1695.37 1103.84 1695.11 1108.4 1682.25 1108.4 1682.25 1107.65C1682.7 1106.56 1683.3 1105.44 1684.06 1104.29 1684.82 1103.15 1685.9 1101.8 1687.3 1100.25 1688.5 1098.91 1689.37 1097.9 1689.91 1097.21 1690.49 1096.46 1690.92 1095.82 1691.21 1095.27 1691.5 1094.72 1691.7 1094.21 1691.83 1093.72 1691.95 1093.24 1692.01 1092.75 1692.01 1092.26 1692.01 1091.48 1691.89 1090.79 1691.64 1090.19 1691.39 1089.59 1691.01 1089.12 1690.49 1088.78 1689.98 1088.43 1689.33 1088.26 1688.55 1088.26 1686.6 1088.26 1685.29 1089.34 1684.61 1091.51L1682.72 1091.51 1682.72 1088.51C1683.98 1087.92 1685.16 1087.49 1686.26 1087.22 1687.36 1086.96 1688.34 1086.82 1689.22 1086.82Z" fill-rule="evenodd"/><text fill="#000000" fill-opacity="0" font-family="Arial,Arial_MSFontService,sans-serif" font-size="21.5781" x="1682.25" y="1105.7">2</text><path d="M1677.48 1132.84 1693.79 1132.84 1692.57 1138.34 1691.07 1138.34C1691.07 1137.33 1691.05 1136.57 1691 1136.07 1690.94 1135.56 1690.85 1135.17 1690.7 1134.91 1690.55 1134.64 1690.37 1134.46 1690.16 1134.36 1689.95 1134.26 1689.57 1134.21 1689.03 1134.21L1686.71 1134.21 1683.32 1149.62C1683.23 1150.03 1683.17 1150.35 1683.13 1150.59 1683.09 1150.83 1683.06 1151.08 1683.04 1151.35 1683.01 1151.61 1683 1151.85 1683 1152.06 1683 1152.38 1683.05 1152.63 1683.15 1152.82 1683.26 1153 1683.41 1153.13 1683.62 1153.21 1683.83 1153.3 1684.19 1153.36 1684.7 1153.4L1684.53 1154.17 1677.95 1154.17 1678.12 1153.4C1678.54 1153.34 1678.85 1153.26 1679.04 1153.15 1679.24 1153.05 1679.42 1152.89 1679.57 1152.67 1679.72 1152.45 1679.87 1152.1 1680.02 1151.64 1680.17 1151.17 1680.35 1150.46 1680.56 1149.51L1683.9 1134.21 1681.92 1134.21C1681.27 1134.21 1680.76 1134.31 1680.37 1134.49 1679.99 1134.68 1679.6 1135.03 1679.21 1135.54 1678.83 1136.05 1678.36 1136.91 1677.81 1138.1L1676.31 1138.1Z" fill-rule="evenodd"/><text fill="#000000" fill-opacity="0" font-family="Arial,Arial_MSFontService,sans-serif" font-size="21.3281" x="1676.31" y="1151.5">𝑇</text><path d="M1696.42 1149.25C1697.14 1149.25 1697.81 1149.3 1698.42 1149.39 1699.03 1149.48 1699.62 1149.61 1700.2 1149.78L1699.66 1152.32 1698.66 1152.32C1698.58 1151.65 1698.36 1151.15 1697.99 1150.83 1697.63 1150.5 1697.07 1150.34 1696.3 1150.34 1696 1150.34 1695.71 1150.39 1695.45 1150.47 1695.19 1150.55 1694.96 1150.66 1694.78 1150.81 1694.59 1150.96 1694.44 1151.13 1694.34 1151.33 1694.23 1151.53 1694.18 1151.76 1694.18 1151.99 1694.18 1152.21 1694.21 1152.41 1694.26 1152.59 1694.31 1152.77 1694.41 1152.95 1694.57 1153.12 1694.72 1153.29 1694.94 1153.47 1695.22 1153.66 1695.5 1153.84 1695.87 1154.06 1696.33 1154.3 1696.8 1154.56 1697.2 1154.81 1697.52 1155.05 1697.84 1155.29 1698.09 1155.53 1698.28 1155.78 1698.47 1156.03 1698.6 1156.29 1698.67 1156.57 1698.75 1156.85 1698.78 1157.16 1698.78 1157.51 1698.78 1158.04 1698.68 1158.52 1698.46 1158.94 1698.24 1159.36 1697.94 1159.72 1697.55 1160.01 1697.16 1160.31 1696.7 1160.53 1696.17 1160.69 1695.65 1160.84 1695.07 1160.92 1694.44 1160.92 1693.75 1160.92 1693.07 1160.88 1692.41 1160.79 1691.74 1160.7 1691.04 1160.54 1690.29 1160.33L1690.88 1157.77 1691.86 1157.77C1691.89 1158.46 1692.11 1158.99 1692.51 1159.33 1692.91 1159.68 1693.53 1159.86 1694.37 1159.86 1695.12 1159.86 1695.71 1159.7 1696.14 1159.37 1696.57 1159.05 1696.79 1158.6 1696.79 1158.03 1696.79 1157.76 1696.76 1157.54 1696.71 1157.35 1696.65 1157.16 1696.55 1156.97 1696.4 1156.8 1696.24 1156.63 1696.04 1156.45 1695.77 1156.27 1695.5 1156.08 1695.16 1155.87 1694.73 1155.63 1694.29 1155.39 1693.91 1155.14 1693.59 1154.9 1693.27 1154.66 1693.01 1154.42 1692.8 1154.17 1692.6 1153.93 1692.45 1153.67 1692.35 1153.4 1692.25 1153.13 1692.2 1152.84 1692.2 1152.53 1692.2 1152.06 1692.3 1151.63 1692.5 1151.23 1692.7 1150.82 1692.98 1150.48 1693.35 1150.19 1693.72 1149.89 1694.16 1149.67 1694.67 1149.5 1695.19 1149.34 1695.77 1149.25 1696.42 1149.25Z" fill-rule="evenodd"/><text fill="#000000" fill-opacity="0" font-family="Arial,Arial_MSFontService,sans-serif" font-size="11.6685" x="1690.29" y="1159.46">𝑠</text><path d="M1675.44 1122.7 1689.44 1122.7 1703.44 1122.7 1703.44 1124.7 1689.44 1124.7 1675.44 1124.7Z" fill-rule="evenodd"/><path d="M1801.5 1086.82C1802.67 1086.82 1803.71 1087.01 1804.59 1087.37 1805.48 1087.74 1806.15 1088.26 1806.62 1088.94 1807.09 1089.62 1807.33 1090.44 1807.33 1091.39 1807.33 1092.27 1807.15 1093.05 1806.79 1093.72 1806.44 1094.39 1805.94 1094.98 1805.3 1095.48 1804.66 1095.98 1803.83 1096.47 1802.81 1096.95L1802.81 1097.09C1803.44 1097.2 1804.06 1097.4 1804.65 1097.68 1805.23 1097.95 1805.76 1098.31 1806.22 1098.75 1806.67 1099.18 1807.04 1099.71 1807.32 1100.32 1807.59 1100.93 1807.73 1101.62 1807.73 1102.4 1807.73 1103.61 1807.47 1104.68 1806.94 1105.62 1806.42 1106.56 1805.61 1107.3 1804.53 1107.84 1803.44 1108.38 1802.13 1108.65 1800.58 1108.65 1799.68 1108.65 1798.71 1108.55 1797.68 1108.35 1796.64 1108.14 1795.69 1107.88 1794.83 1107.54L1794.83 1104.23 1796.7 1104.23C1797.06 1105.31 1797.55 1106.1 1798.15 1106.59 1798.74 1107.08 1799.56 1107.32 1800.59 1107.32 1801.94 1107.32 1802.97 1106.95 1803.66 1106.21 1804.35 1105.47 1804.7 1104.38 1804.7 1102.93 1804.7 1101.41 1804.24 1100.25 1803.33 1099.45 1802.41 1098.65 1801.06 1098.25 1799.29 1098.25L1797.89 1098.25 1797.89 1096.87C1799.29 1096.79 1800.48 1096.52 1801.44 1096.06 1802.41 1095.6 1803.12 1095.01 1803.59 1094.29 1804.06 1093.57 1804.29 1092.77 1804.29 1091.87 1804.29 1090.71 1803.99 1089.82 1803.37 1089.2 1802.76 1088.57 1801.86 1088.26 1800.68 1088.26 1799.71 1088.26 1798.91 1088.53 1798.29 1089.06 1797.68 1089.59 1797.23 1090.4 1796.93 1091.5L1795.06 1091.5 1795.06 1088.53C1796.27 1087.95 1797.4 1087.53 1798.45 1087.25 1799.5 1086.96 1800.52 1086.82 1801.5 1086.82Z" fill-rule="evenodd"/><text fill="#000000" fill-opacity="0" font-family="Arial,Arial_MSFontService,sans-serif" font-size="21.8281" x="1794.83" y="1105.92">3</text><path d="M1789.82 1132.84 1806.13 1132.84 1804.92 1138.34 1803.42 1138.34C1803.42 1137.33 1803.39 1136.57 1803.34 1136.07 1803.29 1135.56 1803.19 1135.17 1803.04 1134.91 1802.89 1134.64 1802.72 1134.46 1802.5 1134.36 1802.29 1134.26 1801.91 1134.21 1801.37 1134.21L1799.06 1134.21 1795.67 1149.62C1795.57 1150.03 1795.51 1150.35 1795.47 1150.59 1795.43 1150.83 1795.4 1151.08 1795.38 1151.35 1795.35 1151.61 1795.34 1151.85 1795.34 1152.06 1795.34 1152.38 1795.39 1152.63 1795.49 1152.82 1795.6 1153 1795.75 1153.13 1795.96 1153.21 1796.17 1153.3 1796.53 1153.36 1797.04 1153.4L1796.87 1154.17 1790.29 1154.17 1790.46 1153.4C1790.88 1153.34 1791.19 1153.26 1791.38 1153.15 1791.58 1153.05 1791.76 1152.89 1791.91 1152.67 1792.06 1152.45 1792.21 1152.1 1792.36 1151.64 1792.51 1151.17 1792.69 1150.46 1792.9 1149.51L1796.24 1134.21 1794.26 1134.21C1793.61 1134.21 1793.1 1134.31 1792.71 1134.49 1792.33 1134.68 1791.94 1135.03 1791.56 1135.54 1791.17 1136.05 1790.7 1136.91 1790.15 1138.1L1788.65 1138.1Z" fill-rule="evenodd"/><text fill="#000000" fill-opacity="0" font-family="Arial,Arial_MSFontService,sans-serif" font-size="21.3281" x="1788.65" y="1151.5">𝑇</text><path d="M1808.76 1149.25C1809.48 1149.25 1810.15 1149.3 1810.76 1149.39 1811.37 1149.48 1811.96 1149.61 1812.54 1149.78L1812 1152.32 1811 1152.32C1810.92 1151.65 1810.7 1151.15 1810.33 1150.83 1809.97 1150.5 1809.41 1150.34 1808.64 1150.34 1808.34 1150.34 1808.05 1150.39 1807.79 1150.47 1807.53 1150.55 1807.3 1150.66 1807.12 1150.81 1806.93 1150.96 1806.78 1151.13 1806.68 1151.33 1806.57 1151.53 1806.52 1151.76 1806.52 1151.99 1806.52 1152.21 1806.55 1152.41 1806.6 1152.59 1806.65 1152.77 1806.76 1152.95 1806.91 1153.12 1807.06 1153.29 1807.28 1153.47 1807.56 1153.66 1807.84 1153.84 1808.21 1154.06 1808.67 1154.3 1809.15 1154.56 1809.54 1154.81 1809.86 1155.05 1810.18 1155.29 1810.43 1155.53 1810.62 1155.78 1810.81 1156.03 1810.94 1156.29 1811.01 1156.57 1811.09 1156.85 1811.13 1157.16 1811.13 1157.51 1811.13 1158.04 1811.02 1158.52 1810.8 1158.94 1810.58 1159.36 1810.28 1159.72 1809.89 1160.01 1809.5 1160.31 1809.04 1160.53 1808.52 1160.69 1807.99 1160.84 1807.41 1160.92 1806.78 1160.92 1806.09 1160.92 1805.41 1160.88 1804.75 1160.79 1804.08 1160.7 1803.38 1160.54 1802.64 1160.33L1803.22 1157.77 1804.2 1157.77C1804.23 1158.46 1804.45 1158.99 1804.85 1159.33 1805.25 1159.68 1805.87 1159.86 1806.71 1159.86 1807.46 1159.86 1808.05 1159.7 1808.48 1159.37 1808.91 1159.05 1809.13 1158.6 1809.13 1158.03 1809.13 1157.76 1809.1 1157.54 1809.05 1157.35 1809 1157.16 1808.89 1156.97 1808.74 1156.8 1808.59 1156.63 1808.38 1156.45 1808.11 1156.27 1807.84 1156.08 1807.5 1155.87 1807.07 1155.63 1806.63 1155.39 1806.25 1155.14 1805.93 1154.9 1805.61 1154.66 1805.35 1154.42 1805.15 1154.17 1804.94 1153.93 1804.79 1153.67 1804.69 1153.4 1804.59 1153.13 1804.55 1152.84 1804.55 1152.53 1804.55 1152.06 1804.64 1151.63 1804.84 1151.23 1805.04 1150.82 1805.32 1150.48 1805.69 1150.19 1806.06 1149.89 1806.5 1149.67 1807.02 1149.5 1807.53 1149.34 1808.11 1149.25 1808.76 1149.25Z" fill-rule="evenodd"/><text fill="#000000" fill-opacity="0" font-family="Arial,Arial_MSFontService,sans-serif" font-size="11.6685" x="1802.64" y="1159.46">𝑠</text><path d="M1787.78 1122.7 1801.78 1122.7 1815.78 1122.7 1815.78 1124.7 1801.78 1124.7 1787.78 1124.7Z" fill-rule="evenodd"/><path d="M1915.27 1089.7 1909.16 1099.4 1909.16 1099.62 1915.27 1099.62 1915.27 1095.73C1915.27 1094.75 1915.28 1093.65 1915.32 1092.44 1915.35 1091.22 1915.38 1090.31 1915.43 1089.7ZM1915.72 1086.16 1917.96 1086.16 1917.96 1099.62 1918.28 1099.62C1918.89 1099.62 1919.32 1099.57 1919.58 1099.48 1919.84 1099.4 1920.06 1099.24 1920.23 1099.02 1920.4 1098.79 1920.56 1098.42 1920.71 1097.91L1921.89 1097.91 1921.71 1101.13 1917.96 1101.13 1917.96 1103.7C1917.96 1104.39 1917.98 1104.9 1918.03 1105.23 1918.07 1105.55 1918.15 1105.8 1918.26 1105.99 1918.37 1106.18 1918.53 1106.34 1918.75 1106.46 1918.96 1106.59 1919.31 1106.71 1919.78 1106.84L1919.78 1107.6 1913.44 1107.6 1913.44 1106.84C1914.09 1106.67 1914.52 1106.48 1914.74 1106.28 1914.96 1106.08 1915.1 1105.79 1915.17 1105.41 1915.24 1105.04 1915.27 1104.47 1915.27 1103.7L1915.27 1101.13 1906.58 1101.13 1906.58 1099.96Z" fill-rule="evenodd"/><text fill="#000000" fill-opacity="0" font-family="Arial,Arial_MSFontService,sans-serif" font-size="21.4375" x="1906.58" y="1104.92">4</text><path d="M1902.63 1132.04 1918.94 1132.04 1917.72 1137.54 1916.22 1137.54C1916.22 1136.53 1916.19 1135.77 1916.14 1135.26 1916.09 1134.76 1915.99 1134.37 1915.84 1134.11 1915.7 1133.84 1915.52 1133.66 1915.31 1133.56 1915.09 1133.46 1914.71 1133.41 1914.17 1133.41L1911.86 1133.41 1908.47 1148.82C1908.38 1149.23 1908.31 1149.55 1908.27 1149.79 1908.24 1150.03 1908.21 1150.28 1908.18 1150.55 1908.15 1150.81 1908.14 1151.05 1908.14 1151.26 1908.14 1151.58 1908.19 1151.83 1908.3 1152.01 1908.4 1152.2 1908.56 1152.33 1908.77 1152.41 1908.97 1152.5 1909.33 1152.56 1909.84 1152.6L1909.67 1153.37 1903.09 1153.37 1903.27 1152.6C1903.68 1152.54 1903.99 1152.45 1904.19 1152.35 1904.39 1152.25 1904.56 1152.09 1904.71 1151.87 1904.86 1151.65 1905.01 1151.3 1905.16 1150.84 1905.32 1150.37 1905.5 1149.66 1905.7 1148.71L1909.05 1133.41 1907.06 1133.41C1906.42 1133.41 1905.9 1133.51 1905.52 1133.69 1905.13 1133.88 1904.75 1134.23 1904.36 1134.74 1903.97 1135.25 1903.51 1136.11 1902.95 1137.3L1901.45 1137.3Z" fill-rule="evenodd"/><text fill="#000000" fill-opacity="0" font-family="Arial,Arial_MSFontService,sans-serif" font-size="21.3281" x="1901.45" y="1150.7">𝑇</text><path d="M1921.56 1148.45C1922.29 1148.45 1922.95 1148.5 1923.56 1148.59 1924.17 1148.68 1924.77 1148.81 1925.34 1148.98L1924.81 1151.52 1923.81 1151.52C1923.72 1150.85 1923.5 1150.35 1923.14 1150.03 1922.77 1149.7 1922.21 1149.54 1921.45 1149.54 1921.14 1149.54 1920.86 1149.58 1920.59 1149.67 1920.33 1149.75 1920.11 1149.86 1919.92 1150.01 1919.73 1150.16 1919.59 1150.33 1919.48 1150.53 1919.38 1150.73 1919.32 1150.95 1919.32 1151.19 1919.32 1151.41 1919.35 1151.61 1919.4 1151.79 1919.46 1151.97 1919.56 1152.15 1919.71 1152.32 1919.87 1152.49 1920.08 1152.67 1920.36 1152.86 1920.64 1153.04 1921.01 1153.26 1921.47 1153.5 1921.95 1153.76 1922.35 1154.01 1922.67 1154.25 1922.98 1154.49 1923.24 1154.73 1923.42 1154.98 1923.61 1155.23 1923.74 1155.49 1923.82 1155.77 1923.89 1156.05 1923.93 1156.36 1923.93 1156.71 1923.93 1157.24 1923.82 1157.72 1923.6 1158.14 1923.39 1158.56 1923.08 1158.92 1922.69 1159.21 1922.3 1159.51 1921.85 1159.73 1921.32 1159.89 1920.79 1160.04 1920.21 1160.12 1919.58 1160.12 1918.89 1160.12 1918.22 1160.08 1917.55 1159.99 1916.88 1159.9 1916.18 1159.74 1915.44 1159.53L1916.02 1156.97 1917 1156.97C1917.04 1157.66 1917.26 1158.19 1917.66 1158.53 1918.06 1158.88 1918.68 1159.06 1919.52 1159.06 1920.26 1159.06 1920.85 1158.89 1921.28 1158.57 1921.72 1158.25 1921.93 1157.8 1921.93 1157.23 1921.93 1156.96 1921.9 1156.74 1921.85 1156.55 1921.8 1156.35 1921.7 1156.17 1921.54 1156 1921.39 1155.83 1921.18 1155.65 1920.91 1155.47 1920.65 1155.28 1920.3 1155.07 1919.88 1154.83 1919.43 1154.59 1919.05 1154.34 1918.74 1154.1 1918.42 1153.86 1918.16 1153.62 1917.95 1153.37 1917.74 1153.13 1917.59 1152.87 1917.49 1152.6 1917.4 1152.33 1917.35 1152.04 1917.35 1151.73 1917.35 1151.26 1917.45 1150.83 1917.65 1150.43 1917.84 1150.02 1918.13 1149.68 1918.49 1149.39 1918.86 1149.09 1919.3 1148.87 1919.82 1148.7 1920.34 1148.54 1920.92 1148.45 1921.56 1148.45Z" fill-rule="evenodd"/><text fill="#000000" fill-opacity="0" font-family="Arial,Arial_MSFontService,sans-serif" font-size="11.6685" x="1915.44" y="1158.66">𝑠</text><path d="M1900.59 1121.89 1914.59 1121.89 1928.59 1121.89 1928.59 1123.89 1914.59 1123.89 1900.59 1123.89Z" fill-rule="evenodd"/><path d="M1002.37 1097.41 1021.62 1097.41 1021.62 1099.49 1002.37 1099.49Z" fill-rule="evenodd"/><text fill="#000000" fill-opacity="0" font-family="Arial,Arial_MSFontService,sans-serif" font-size="2.07812" x="1002.37" y="1099.23">−</text><path d="M1033.99 1089.7 1027.88 1099.4 1027.88 1099.62 1033.99 1099.62 1033.99 1095.73C1033.99 1094.75 1034.01 1093.65 1034.04 1092.44 1034.07 1091.22 1034.11 1090.31 1034.15 1089.7ZM1034.45 1086.16 1036.68 1086.16 1036.68 1099.62 1037.01 1099.62C1037.61 1099.62 1038.05 1099.57 1038.31 1099.48 1038.57 1099.4 1038.78 1099.24 1038.95 1099.02 1039.13 1098.79 1039.29 1098.42 1039.43 1097.91L1040.62 1097.91 1040.43 1101.13 1036.68 1101.13 1036.68 1103.7C1036.68 1104.39 1036.7 1104.9 1036.75 1105.23 1036.8 1105.55 1036.88 1105.8 1036.99 1105.99 1037.1 1106.18 1037.26 1106.34 1037.47 1106.46 1037.68 1106.59 1038.03 1106.71 1038.51 1106.84L1038.51 1107.6 1032.17 1107.6 1032.17 1106.84C1032.81 1106.67 1033.24 1106.48 1033.46 1106.28 1033.68 1106.08 1033.82 1105.79 1033.89 1105.41 1033.96 1105.04 1033.99 1104.47 1033.99 1103.7L1033.99 1101.13 1025.31 1101.13 1025.31 1099.96Z" fill-rule="evenodd"/><text fill="#000000" fill-opacity="0" font-family="Arial,Arial_MSFontService,sans-serif" font-size="21.4375" x="1025.31" y="1104.92">4</text><path d="M1009.32 1132.04 1025.63 1132.04 1024.41 1137.54 1022.91 1137.54C1022.91 1136.53 1022.89 1135.77 1022.83 1135.26 1022.78 1134.76 1022.68 1134.37 1022.54 1134.11 1022.39 1133.84 1022.21 1133.66 1022 1133.56 1021.79 1133.46 1021.41 1133.41 1020.87 1133.41L1018.55 1133.41 1015.16 1148.82C1015.07 1149.23 1015 1149.55 1014.97 1149.79 1014.93 1150.03 1014.9 1150.28 1014.87 1150.55 1014.85 1150.81 1014.83 1151.05 1014.83 1151.26 1014.83 1151.58 1014.89 1151.83 1014.99 1152.01 1015.1 1152.2 1015.25 1152.33 1015.46 1152.41 1015.67 1152.5 1016.03 1152.56 1016.54 1152.6L1016.37 1153.37 1009.79 1153.37 1009.96 1152.6C1010.38 1152.54 1010.68 1152.45 1010.88 1152.35 1011.08 1152.25 1011.25 1152.09 1011.4 1151.87 1011.56 1151.65 1011.71 1151.3 1011.86 1150.84 1012.01 1150.37 1012.19 1149.66 1012.4 1148.71L1015.74 1133.41 1013.76 1133.41C1013.11 1133.41 1012.6 1133.51 1012.21 1133.69 1011.82 1133.88 1011.44 1134.23 1011.05 1134.74 1010.67 1135.25 1010.2 1136.11 1009.65 1137.3L1008.15 1137.3Z" fill-rule="evenodd"/><text fill="#000000" fill-opacity="0" font-family="Arial,Arial_MSFontService,sans-serif" font-size="21.3281" x="1008.15" y="1150.7">𝑇</text><path d="M1028.25 1148.45C1028.98 1148.45 1029.65 1148.5 1030.26 1148.59 1030.87 1148.68 1031.46 1148.81 1032.04 1148.98L1031.5 1151.52 1030.5 1151.52C1030.42 1150.85 1030.19 1150.35 1029.83 1150.03 1029.47 1149.7 1028.9 1149.54 1028.14 1149.54 1027.83 1149.54 1027.55 1149.58 1027.29 1149.67 1027.03 1149.75 1026.8 1149.86 1026.61 1150.01 1026.43 1150.16 1026.28 1150.33 1026.18 1150.53 1026.07 1150.73 1026.02 1150.95 1026.02 1151.19 1026.02 1151.41 1026.04 1151.61 1026.1 1151.79 1026.15 1151.97 1026.25 1152.15 1026.41 1152.32 1026.56 1152.49 1026.78 1152.67 1027.06 1152.86 1027.34 1153.04 1027.71 1153.26 1028.16 1153.5 1028.64 1153.76 1029.04 1154.01 1029.36 1154.25 1029.68 1154.49 1029.93 1154.73 1030.12 1154.98 1030.3 1155.23 1030.44 1155.49 1030.51 1155.77 1030.59 1156.05 1030.62 1156.36 1030.62 1156.71 1030.62 1157.24 1030.51 1157.72 1030.3 1158.14 1030.08 1158.56 1029.78 1158.92 1029.39 1159.21 1029 1159.51 1028.54 1159.73 1028.01 1159.89 1027.48 1160.04 1026.91 1160.12 1026.28 1160.12 1025.59 1160.12 1024.91 1160.08 1024.24 1159.99 1023.58 1159.9 1022.87 1159.74 1022.13 1159.53L1022.72 1156.97 1023.69 1156.97C1023.73 1157.66 1023.95 1158.19 1024.35 1158.53 1024.75 1158.88 1025.37 1159.06 1026.21 1159.06 1026.96 1159.06 1027.55 1158.89 1027.98 1158.57 1028.41 1158.25 1028.62 1157.8 1028.62 1157.23 1028.62 1156.96 1028.6 1156.74 1028.55 1156.55 1028.49 1156.35 1028.39 1156.17 1028.24 1156 1028.08 1155.83 1027.87 1155.65 1027.61 1155.47 1027.34 1155.28 1027 1155.07 1026.57 1154.83 1026.13 1154.59 1025.75 1154.34 1025.43 1154.1 1025.11 1153.86 1024.85 1153.62 1024.64 1153.37 1024.44 1153.13 1024.29 1152.87 1024.19 1152.6 1024.09 1152.33 1024.04 1152.04 1024.04 1151.73 1024.04 1151.26 1024.14 1150.83 1024.34 1150.43 1024.54 1150.02 1024.82 1149.68 1025.19 1149.39 1025.55 1149.09 1026 1148.87 1026.51 1148.7 1027.03 1148.54 1027.61 1148.45 1028.25 1148.45Z" fill-rule="evenodd"/><text fill="#000000" fill-opacity="0" font-family="Arial,Arial_MSFontService,sans-serif" font-size="11.6685" x="1022.13" y="1158.66">𝑠</text><path d="M1000.28 1121.89 1014.28 1121.89 1028.28 1121.89 1042.28 1121.89 1042.28 1123.89 1028.28 1123.89 1014.28 1123.89 1000.28 1123.89Z" fill-rule="evenodd"/><path d="M1114.71 1098.21 1133.96 1098.21 1133.96 1100.29 1114.71 1100.29Z" fill-rule="evenodd"/><text fill="#000000" fill-opacity="0" font-family="Arial,Arial_MSFontService,sans-serif" font-size="2.07812" x="1114.71" y="1100.03">−</text><path d="M1145.37 1086.82C1146.54 1086.82 1147.58 1087.01 1148.46 1087.37 1149.35 1087.74 1150.02 1088.26 1150.49 1088.94 1150.96 1089.62 1151.19 1090.44 1151.19 1091.39 1151.19 1092.27 1151.02 1093.05 1150.66 1093.72 1150.31 1094.39 1149.81 1094.98 1149.17 1095.48 1148.53 1095.98 1147.7 1096.47 1146.68 1096.95L1146.68 1097.09C1147.31 1097.2 1147.93 1097.4 1148.52 1097.68 1149.1 1097.95 1149.63 1098.31 1150.09 1098.75 1150.54 1099.18 1150.91 1099.71 1151.19 1100.32 1151.46 1100.93 1151.6 1101.62 1151.6 1102.4 1151.6 1103.61 1151.34 1104.68 1150.81 1105.62 1150.29 1106.56 1149.48 1107.3 1148.4 1107.84 1147.31 1108.38 1146 1108.65 1144.44 1108.65 1143.55 1108.65 1142.58 1108.55 1141.55 1108.35 1140.51 1108.14 1139.56 1107.88 1138.69 1107.54L1138.69 1104.23 1140.57 1104.23C1140.93 1105.31 1141.42 1106.1 1142.02 1106.59 1142.61 1107.08 1143.43 1107.32 1144.46 1107.32 1145.81 1107.32 1146.84 1106.95 1147.53 1106.21 1148.22 1105.47 1148.57 1104.38 1148.57 1102.93 1148.57 1101.41 1148.11 1100.25 1147.19 1099.45 1146.28 1098.65 1144.93 1098.25 1143.16 1098.25L1141.76 1098.25 1141.76 1096.87C1143.16 1096.79 1144.35 1096.52 1145.31 1096.06 1146.28 1095.6 1146.99 1095.01 1147.46 1094.29 1147.93 1093.57 1148.16 1092.77 1148.16 1091.87 1148.16 1090.71 1147.86 1089.82 1147.24 1089.2 1146.63 1088.57 1145.73 1088.26 1144.55 1088.26 1143.58 1088.26 1142.78 1088.53 1142.16 1089.06 1141.55 1089.59 1141.1 1090.4 1140.8 1091.5L1138.93 1091.5 1138.93 1088.53C1140.14 1087.95 1141.27 1087.53 1142.32 1087.25 1143.37 1086.96 1144.39 1086.82 1145.37 1086.82Z" fill-rule="evenodd"/><text fill="#000000" fill-opacity="0" font-family="Arial,Arial_MSFontService,sans-serif" font-size="21.8281" x="1138.69" y="1105.92">3</text><path d="M1121.66 1132.84 1137.97 1132.84 1136.75 1138.34 1135.25 1138.34C1135.25 1137.33 1135.23 1136.57 1135.18 1136.07 1135.12 1135.56 1135.03 1135.17 1134.88 1134.91 1134.73 1134.64 1134.55 1134.46 1134.34 1134.36 1134.13 1134.26 1133.75 1134.21 1133.21 1134.21L1130.89 1134.21 1127.5 1149.62C1127.41 1150.03 1127.35 1150.35 1127.31 1150.59 1127.27 1150.83 1127.24 1151.08 1127.22 1151.35 1127.19 1151.61 1127.18 1151.85 1127.18 1152.06 1127.18 1152.38 1127.23 1152.63 1127.33 1152.82 1127.44 1153 1127.59 1153.13 1127.8 1153.21 1128.01 1153.3 1128.37 1153.36 1128.88 1153.4L1128.71 1154.17 1122.13 1154.17 1122.3 1153.4C1122.72 1153.34 1123.03 1153.26 1123.22 1153.15 1123.42 1153.05 1123.6 1152.89 1123.75 1152.67 1123.9 1152.45 1124.05 1152.1 1124.2 1151.64 1124.35 1151.17 1124.53 1150.46 1124.74 1149.51L1128.08 1134.21 1126.1 1134.21C1125.45 1134.21 1124.94 1134.31 1124.55 1134.49 1124.17 1134.68 1123.78 1135.03 1123.39 1135.54 1123.01 1136.05 1122.54 1136.91 1121.99 1138.1L1120.49 1138.1Z" fill-rule="evenodd"/><text fill="#000000" fill-opacity="0" font-family="Arial,Arial_MSFontService,sans-serif" font-size="21.3281" x="1120.49" y="1151.5">𝑇</text><path d="M1140.59 1149.25C1141.32 1149.25 1141.99 1149.3 1142.6 1149.39 1143.21 1149.48 1143.8 1149.61 1144.38 1149.78L1143.84 1152.32 1142.84 1152.32C1142.76 1151.65 1142.54 1151.15 1142.17 1150.83 1141.81 1150.5 1141.25 1150.34 1140.48 1150.34 1140.18 1150.34 1139.89 1150.39 1139.63 1150.47 1139.37 1150.55 1139.14 1150.66 1138.96 1150.81 1138.77 1150.96 1138.62 1151.13 1138.52 1151.33 1138.41 1151.53 1138.36 1151.76 1138.36 1151.99 1138.36 1152.21 1138.39 1152.41 1138.44 1152.59 1138.49 1152.77 1138.59 1152.95 1138.75 1153.12 1138.9 1153.29 1139.12 1153.47 1139.4 1153.66 1139.68 1153.84 1140.05 1154.06 1140.51 1154.3 1140.98 1154.56 1141.38 1154.81 1141.7 1155.05 1142.02 1155.29 1142.27 1155.53 1142.46 1155.78 1142.65 1156.03 1142.78 1156.29 1142.85 1156.57 1142.93 1156.85 1142.96 1157.16 1142.96 1157.51 1142.96 1158.04 1142.86 1158.52 1142.64 1158.94 1142.42 1159.36 1142.12 1159.72 1141.73 1160.01 1141.34 1160.31 1140.88 1160.53 1140.35 1160.69 1139.83 1160.84 1139.25 1160.92 1138.62 1160.92 1137.93 1160.92 1137.25 1160.88 1136.59 1160.79 1135.92 1160.7 1135.22 1160.54 1134.47 1160.33L1135.06 1157.77 1136.04 1157.77C1136.07 1158.46 1136.29 1158.99 1136.69 1159.33 1137.09 1159.68 1137.71 1159.86 1138.55 1159.86 1139.3 1159.86 1139.89 1159.7 1140.32 1159.37 1140.75 1159.05 1140.97 1158.6 1140.97 1158.03 1140.97 1157.76 1140.94 1157.54 1140.89 1157.35 1140.83 1157.16 1140.73 1156.97 1140.58 1156.8 1140.42 1156.63 1140.21 1156.45 1139.95 1156.27 1139.68 1156.08 1139.34 1155.87 1138.91 1155.63 1138.47 1155.39 1138.09 1155.14 1137.77 1154.9 1137.45 1154.66 1137.19 1154.42 1136.98 1154.17 1136.78 1153.93 1136.63 1153.67 1136.53 1153.4 1136.43 1153.13 1136.38 1152.84 1136.38 1152.53 1136.38 1152.06 1136.48 1151.63 1136.68 1151.23 1136.88 1150.82 1137.16 1150.48 1137.53 1150.19 1137.9 1149.89 1138.34 1149.67 1138.85 1149.5 1139.37 1149.34 1139.95 1149.25 1140.59 1149.25Z" fill-rule="evenodd"/><text fill="#000000" fill-opacity="0" font-family="Arial,Arial_MSFontService,sans-serif" font-size="11.6685" x="1134.47" y="1159.46">𝑠</text><path d="M1112.62 1122.7 1126.62 1122.7 1140.62 1122.7 1154.62 1122.7 1154.62 1124.7 1140.62 1124.7 1126.62 1124.7 1112.62 1124.7Z" fill-rule="evenodd"/><path d="M1227.51 1098.21 1246.76 1098.21 1246.76 1100.29 1227.51 1100.29Z" fill-rule="evenodd"/><text fill="#000000" fill-opacity="0" font-family="Arial,Arial_MSFontService,sans-serif" font-size="2.07812" x="1227.51" y="1100.03">−</text><path d="M1258.23 1086.82C1260.17 1086.82 1261.63 1087.25 1262.62 1088.1 1263.61 1088.95 1264.11 1090.18 1264.11 1091.79 1264.11 1092.34 1264.05 1092.85 1263.94 1093.32 1263.83 1093.78 1263.66 1094.24 1263.43 1094.69 1263.19 1095.14 1262.88 1095.63 1262.48 1096.15 1262.09 1096.67 1261.65 1097.2 1261.17 1097.74 1260.69 1098.27 1259.86 1099.17 1258.69 1100.42 1256.71 1102.51 1255.25 1104.34 1254.33 1105.9L1260.22 1105.9C1260.73 1105.9 1261.14 1105.87 1261.45 1105.81 1261.76 1105.75 1262.01 1105.64 1262.2 1105.5 1262.39 1105.35 1262.54 1105.16 1262.65 1104.93 1262.76 1104.69 1262.89 1104.33 1263.06 1103.84L1264.39 1103.84 1264.12 1108.4 1251.26 1108.4 1251.26 1107.65C1251.71 1106.56 1252.32 1105.44 1253.08 1104.29 1253.84 1103.15 1254.91 1101.8 1256.31 1100.25 1257.52 1098.91 1258.39 1097.9 1258.92 1097.21 1259.5 1096.46 1259.94 1095.82 1260.22 1095.27 1260.51 1094.72 1260.72 1094.21 1260.84 1093.72 1260.97 1093.24 1261.03 1092.75 1261.03 1092.26 1261.03 1091.48 1260.9 1090.79 1260.65 1090.19 1260.4 1089.59 1260.02 1089.12 1259.51 1088.78 1258.99 1088.43 1258.34 1088.26 1257.56 1088.26 1255.61 1088.26 1254.3 1089.34 1253.62 1091.51L1251.73 1091.51 1251.73 1088.51C1252.99 1087.92 1254.17 1087.49 1255.27 1087.22 1256.37 1086.96 1257.36 1086.82 1258.23 1086.82Z" fill-rule="evenodd"/><text fill="#000000" fill-opacity="0" font-family="Arial,Arial_MSFontService,sans-serif" font-size="21.5781" x="1251.26" y="1105.7">2</text><path d="M1234.46 1132.84 1250.78 1132.84 1249.56 1138.34 1248.06 1138.34C1248.06 1137.33 1248.03 1136.57 1247.98 1136.07 1247.93 1135.56 1247.83 1135.17 1247.68 1134.91 1247.54 1134.64 1247.36 1134.46 1247.14 1134.36 1246.93 1134.26 1246.55 1134.21 1246.01 1134.21L1243.7 1134.21 1240.31 1149.62C1240.21 1150.03 1240.15 1150.35 1240.11 1150.59 1240.08 1150.83 1240.04 1151.08 1240.02 1151.35 1239.99 1151.61 1239.98 1151.85 1239.98 1152.06 1239.98 1152.38 1240.03 1152.63 1240.14 1152.82 1240.24 1153 1240.4 1153.13 1240.6 1153.21 1240.81 1153.3 1241.17 1153.36 1241.68 1153.4L1241.51 1154.17 1234.93 1154.17 1235.1 1153.4C1235.52 1153.34 1235.83 1153.26 1236.03 1153.15 1236.22 1153.05 1236.4 1152.89 1236.55 1152.67 1236.7 1152.45 1236.85 1152.1 1237 1151.64 1237.15 1151.17 1237.33 1150.46 1237.54 1149.51L1240.89 1134.21 1238.9 1134.21C1238.26 1134.21 1237.74 1134.31 1237.35 1134.49 1236.97 1134.68 1236.58 1135.03 1236.2 1135.54 1235.81 1136.05 1235.34 1136.91 1234.79 1138.1L1233.29 1138.1Z" fill-rule="evenodd"/><text fill="#000000" fill-opacity="0" font-family="Arial,Arial_MSFontService,sans-serif" font-size="21.3281" x="1233.29" y="1151.5">𝑇</text><path d="M1253.4 1149.25C1254.12 1149.25 1254.79 1149.3 1255.4 1149.39 1256.01 1149.48 1256.61 1149.61 1257.18 1149.78L1256.64 1152.32 1255.64 1152.32C1255.56 1151.65 1255.34 1151.15 1254.98 1150.83 1254.61 1150.5 1254.05 1150.34 1253.29 1150.34 1252.98 1150.34 1252.69 1150.39 1252.43 1150.47 1252.17 1150.55 1251.95 1150.66 1251.76 1150.81 1251.57 1150.96 1251.43 1151.13 1251.32 1151.33 1251.22 1151.53 1251.16 1151.76 1251.16 1151.99 1251.16 1152.21 1251.19 1152.41 1251.24 1152.59 1251.29 1152.77 1251.4 1152.95 1251.55 1153.12 1251.7 1153.29 1251.92 1153.47 1252.2 1153.66 1252.48 1153.84 1252.85 1154.06 1253.31 1154.3 1253.79 1154.56 1254.19 1154.81 1254.5 1155.05 1254.82 1155.29 1255.08 1155.53 1255.26 1155.78 1255.45 1156.03 1255.58 1156.29 1255.66 1156.57 1255.73 1156.85 1255.77 1157.16 1255.77 1157.51 1255.77 1158.04 1255.66 1158.52 1255.44 1158.94 1255.23 1159.36 1254.92 1159.72 1254.53 1160.01 1254.14 1160.31 1253.68 1160.53 1253.16 1160.69 1252.63 1160.84 1252.05 1160.92 1251.42 1160.92 1250.73 1160.92 1250.06 1160.88 1249.39 1160.79 1248.72 1160.7 1248.02 1160.54 1247.28 1160.33L1247.86 1157.77 1248.84 1157.77C1248.88 1158.46 1249.1 1158.99 1249.5 1159.33 1249.9 1159.68 1250.52 1159.86 1251.35 1159.86 1252.1 1159.86 1252.69 1159.7 1253.12 1159.37 1253.55 1159.05 1253.77 1158.6 1253.77 1158.03 1253.77 1157.76 1253.74 1157.54 1253.69 1157.35 1253.64 1157.16 1253.53 1156.97 1253.38 1156.8 1253.23 1156.63 1253.02 1156.45 1252.75 1156.27 1252.49 1156.08 1252.14 1155.87 1251.71 1155.63 1251.27 1155.39 1250.89 1155.14 1250.57 1154.9 1250.26 1154.66 1249.99 1154.42 1249.79 1154.17 1249.58 1153.93 1249.43 1153.67 1249.33 1153.4 1249.24 1153.13 1249.19 1152.84 1249.19 1152.53 1249.19 1152.06 1249.29 1151.63 1249.48 1151.23 1249.68 1150.82 1249.97 1150.48 1250.33 1150.19 1250.7 1149.89 1251.14 1149.67 1251.66 1149.5 1252.17 1149.34 1252.75 1149.25 1253.4 1149.25Z" fill-rule="evenodd"/><text fill="#000000" fill-opacity="0" font-family="Arial,Arial_MSFontService,sans-serif" font-size="11.6685" x="1247.28" y="1159.46">𝑠</text><path d="M1225.43 1122.7 1239.43 1122.7 1253.43 1122.7 1267.43 1122.7 1267.43 1124.7 1253.43 1124.7 1239.43 1124.7 1225.43 1124.7Z" fill-rule="evenodd"/><path d="M1343.28 1098.21 1362.53 1098.21 1362.53 1100.29 1343.28 1100.29Z" fill-rule="evenodd"/><text fill="#000000" fill-opacity="0" font-family="Arial,Arial_MSFontService,sans-serif" font-size="2.07812" x="1343.28" y="1100.03">−</text><path d="M1375.11 1086.82 1375.97 1086.82C1375.91 1087.82 1375.87 1089.21 1375.87 1090.98L1375.87 1104.32C1375.87 1104.93 1375.91 1105.38 1375.98 1105.69 1376.04 1106 1376.16 1106.25 1376.34 1106.44 1376.51 1106.63 1376.75 1106.78 1377.08 1106.89 1377.4 1107 1377.81 1107.09 1378.3 1107.14 1378.79 1107.2 1379.43 1107.24 1380.23 1107.26L1380.23 1108.4 1368.69 1108.4 1368.69 1107.26C1369.84 1107.21 1370.67 1107.14 1371.16 1107.05 1371.66 1106.96 1372.04 1106.83 1372.3 1106.65 1372.56 1106.47 1372.75 1106.22 1372.87 1105.9 1372.99 1105.58 1373.05 1105.05 1373.05 1104.32L1373.05 1091.65C1373.05 1091.24 1372.97 1090.93 1372.83 1090.74 1372.68 1090.55 1372.47 1090.45 1372.19 1090.45 1371.85 1090.45 1371.38 1090.62 1370.76 1090.96 1370.15 1091.31 1369.39 1091.78 1368.48 1092.39L1367.8 1091.18Z" fill-rule="evenodd"/><text fill="#000000" fill-opacity="0" font-family="Arial,Arial_MSFontService,sans-serif" font-size="21.5781" x="1367.8" y="1105.7">1</text><path d="M1350.23 1132.84 1366.54 1132.84 1365.32 1138.34 1363.82 1138.34C1363.82 1137.33 1363.8 1136.57 1363.75 1136.07 1363.69 1135.56 1363.6 1135.17 1363.45 1134.91 1363.3 1134.64 1363.12 1134.46 1362.91 1134.36 1362.7 1134.26 1362.32 1134.21 1361.78 1134.21L1359.46 1134.21 1356.07 1149.62C1355.98 1150.03 1355.92 1150.35 1355.88 1150.59 1355.84 1150.83 1355.81 1151.08 1355.79 1151.35 1355.76 1151.61 1355.75 1151.85 1355.75 1152.06 1355.75 1152.38 1355.8 1152.63 1355.9 1152.82 1356.01 1153 1356.16 1153.13 1356.37 1153.21 1356.58 1153.3 1356.94 1153.36 1357.45 1153.4L1357.28 1154.17 1350.7 1154.17 1350.87 1153.4C1351.29 1153.34 1351.6 1153.26 1351.79 1153.15 1351.99 1153.05 1352.17 1152.89 1352.32 1152.67 1352.47 1152.45 1352.62 1152.1 1352.77 1151.64 1352.92 1151.17 1353.1 1150.46 1353.31 1149.51L1356.65 1134.21 1354.67 1134.21C1354.02 1134.21 1353.51 1134.31 1353.12 1134.49 1352.74 1134.68 1352.35 1135.03 1351.96 1135.54 1351.58 1136.05 1351.11 1136.91 1350.56 1138.1L1349.06 1138.1Z" fill-rule="evenodd"/><text fill="#000000" fill-opacity="0" font-family="Arial,Arial_MSFontService,sans-serif" font-size="21.3281" x="1349.06" y="1151.5">𝑇</text><path d="M1369.17 1149.25C1369.89 1149.25 1370.56 1149.3 1371.17 1149.39 1371.78 1149.48 1372.37 1149.61 1372.95 1149.78L1372.41 1152.32 1371.41 1152.32C1371.33 1151.65 1371.11 1151.15 1370.74 1150.83 1370.38 1150.5 1369.82 1150.34 1369.05 1150.34 1368.75 1150.34 1368.46 1150.39 1368.2 1150.47 1367.94 1150.55 1367.71 1150.66 1367.53 1150.81 1367.34 1150.96 1367.19 1151.13 1367.09 1151.33 1366.98 1151.53 1366.93 1151.76 1366.93 1151.99 1366.93 1152.21 1366.96 1152.41 1367.01 1152.59 1367.06 1152.77 1367.16 1152.95 1367.32 1153.12 1367.47 1153.29 1367.69 1153.47 1367.97 1153.66 1368.25 1153.84 1368.62 1154.06 1369.08 1154.3 1369.55 1154.56 1369.95 1154.81 1370.27 1155.05 1370.59 1155.29 1370.84 1155.53 1371.03 1155.78 1371.22 1156.03 1371.35 1156.29 1371.42 1156.57 1371.5 1156.85 1371.53 1157.16 1371.53 1157.51 1371.53 1158.04 1371.43 1158.52 1371.21 1158.94 1370.99 1159.36 1370.69 1159.72 1370.3 1160.01 1369.91 1160.31 1369.45 1160.53 1368.92 1160.69 1368.4 1160.84 1367.82 1160.92 1367.19 1160.92 1366.5 1160.92 1365.82 1160.88 1365.16 1160.79 1364.49 1160.7 1363.79 1160.54 1363.04 1160.33L1363.63 1157.77 1364.61 1157.77C1364.64 1158.46 1364.86 1158.99 1365.26 1159.33 1365.66 1159.68 1366.28 1159.86 1367.12 1159.86 1367.87 1159.86 1368.46 1159.7 1368.89 1159.37 1369.32 1159.05 1369.54 1158.6 1369.54 1158.03 1369.54 1157.76 1369.51 1157.54 1369.46 1157.35 1369.4 1157.16 1369.3 1156.97 1369.15 1156.8 1368.99 1156.63 1368.79 1156.45 1368.52 1156.27 1368.25 1156.08 1367.91 1155.87 1367.48 1155.63 1367.04 1155.39 1366.66 1155.14 1366.34 1154.9 1366.02 1154.66 1365.76 1154.42 1365.55 1154.17 1365.35 1153.93 1365.2 1153.67 1365.1 1153.4 1365 1153.13 1364.95 1152.84 1364.95 1152.53 1364.95 1152.06 1365.05 1151.63 1365.25 1151.23 1365.45 1150.82 1365.73 1150.48 1366.1 1150.19 1366.47 1149.89 1366.91 1149.67 1367.42 1149.5 1367.94 1149.34 1368.52 1149.25 1369.17 1149.25Z" fill-rule="evenodd"/><text fill="#000000" fill-opacity="0" font-family="Arial,Arial_MSFontService,sans-serif" font-size="11.6685" x="1363.04" y="1159.46">𝑠</text><path d="M1341.19 1122.7 1355.19 1122.7 1369.19 1122.7 1383.19 1122.7 1383.19 1124.7 1369.19 1124.7 1355.19 1124.7 1341.19 1124.7Z" fill-rule="evenodd"/><text font-family="Cambria Math,Cambria Math_MSFontService,sans-serif" font-weight="400" font-size="32" transform="matrix(1 0 0 1 1469.05 1092)">𝑂</text><path d="M1520.5 911.5 1520.5 1062.16" stroke="#000000" stroke-width="6.875" stroke-miterlimit="8" stroke-dasharray="6.875 6.875" fill="none" fill-rule="evenodd"/><path d="M1410.5 911.5 1410.5 1062.16" stroke="#000000" stroke-width="6.875" stroke-miterlimit="8" stroke-dasharray="6.875 6.875" fill="none" fill-rule="evenodd"/><path d="M1519.28 1086.6 1520.14 1086.6C1520.08 1087.6 1520.05 1088.99 1520.05 1090.76L1520.05 1104.1C1520.05 1104.71 1520.08 1105.16 1520.15 1105.47 1520.22 1105.78 1520.34 1106.03 1520.51 1106.22 1520.68 1106.41 1520.93 1106.56 1521.25 1106.67 1521.57 1106.78 1521.98 1106.87 1522.47 1106.92 1522.96 1106.98 1523.6 1107.02 1524.41 1107.04L1524.41 1108.18 1512.86 1108.18 1512.86 1107.04C1514.02 1106.99 1514.84 1106.92 1515.34 1106.83 1515.83 1106.74 1516.21 1106.61 1516.47 1106.43 1516.73 1106.25 1516.92 1106 1517.04 1105.68 1517.16 1105.36 1517.22 1104.83 1517.22 1104.1L1517.22 1091.43C1517.22 1091.02 1517.15 1090.71 1517 1090.52 1516.85 1090.33 1516.64 1090.23 1516.36 1090.23 1516.03 1090.23 1515.55 1090.4 1514.94 1090.74 1514.32 1091.09 1513.56 1091.56 1512.66 1092.17L1511.97 1090.96Z" fill-rule="evenodd"/><text fill="#000000" fill-opacity="0" font-family="Arial,Arial_MSFontService,sans-serif" font-size="21.5781" x="1511.97" y="1105.48">1</text><path d="M1515.57 1132.62 1531.88 1132.62 1530.66 1138.12 1529.16 1138.12C1529.16 1137.11 1529.13 1136.35 1529.08 1135.84 1529.03 1135.34 1528.93 1134.95 1528.78 1134.69 1528.64 1134.42 1528.46 1134.24 1528.25 1134.14 1528.03 1134.04 1527.65 1133.99 1527.11 1133.99L1524.8 1133.99 1521.41 1149.4C1521.32 1149.81 1521.25 1150.13 1521.21 1150.37 1521.18 1150.61 1521.15 1150.86 1521.12 1151.13 1521.09 1151.39 1521.08 1151.63 1521.08 1151.84 1521.08 1152.16 1521.13 1152.41 1521.24 1152.59 1521.34 1152.78 1521.5 1152.91 1521.71 1152.99 1521.91 1153.08 1522.27 1153.14 1522.78 1153.18L1522.61 1153.95 1516.03 1153.95 1516.21 1153.18C1516.62 1153.12 1516.93 1153.04 1517.13 1152.93 1517.33 1152.83 1517.5 1152.67 1517.65 1152.45 1517.8 1152.23 1517.95 1151.88 1518.1 1151.42 1518.26 1150.95 1518.44 1150.24 1518.64 1149.29L1521.99 1133.99 1520 1133.99C1519.36 1133.99 1518.84 1134.09 1518.46 1134.27 1518.07 1134.46 1517.69 1134.81 1517.3 1135.32 1516.91 1135.83 1516.45 1136.69 1515.89 1137.88L1514.39 1137.88ZM1504.28 1132.37C1506.22 1132.37 1507.69 1132.79 1508.68 1133.64 1509.66 1134.49 1510.16 1135.72 1510.16 1137.34 1510.16 1137.89 1510.1 1138.4 1510 1138.86 1509.89 1139.32 1509.71 1139.78 1509.48 1140.24 1509.25 1140.69 1508.93 1141.18 1508.53 1141.7 1508.14 1142.22 1507.7 1142.75 1507.22 1143.28 1506.74 1143.82 1505.91 1144.71 1504.74 1145.96 1502.76 1148.06 1501.31 1149.88 1500.38 1151.45L1506.27 1151.45C1506.78 1151.45 1507.19 1151.42 1507.5 1151.35 1507.82 1151.29 1508.07 1151.19 1508.25 1151.04 1508.44 1150.89 1508.59 1150.7 1508.7 1150.47 1508.81 1150.24 1508.95 1149.87 1509.11 1149.38L1510.44 1149.38 1510.18 1153.95 1497.32 1153.95 1497.32 1153.2C1497.76 1152.1 1498.37 1150.98 1499.13 1149.84 1499.89 1148.69 1500.97 1147.34 1502.36 1145.79 1503.57 1144.46 1504.44 1143.45 1504.97 1142.76 1505.56 1142.01 1505.99 1141.36 1506.28 1140.81 1506.56 1140.27 1506.77 1139.75 1506.89 1139.27 1507.02 1138.78 1507.08 1138.3 1507.08 1137.81 1507.08 1137.02 1506.96 1136.33 1506.71 1135.74 1506.46 1135.14 1506.07 1134.67 1505.56 1134.32 1505.04 1133.98 1504.39 1133.81 1503.61 1133.81 1501.66 1133.81 1500.35 1134.89 1499.68 1137.06L1497.78 1137.06 1497.78 1134.06C1499.05 1133.46 1500.22 1133.03 1501.32 1132.77 1502.42 1132.5 1503.41 1132.37 1504.28 1132.37Z" fill-rule="evenodd"/><text fill="#000000" fill-opacity="0" font-family="Arial,Arial_MSFontService,sans-serif" font-size="21.5781" x="1497.32" y="1151.25">2𝑇</text><path d="M1534.26 1149.03C1534.99 1149.03 1535.66 1149.08 1536.27 1149.17 1536.88 1149.26 1537.47 1149.39 1538.05 1149.56L1537.51 1152.1 1536.51 1152.1C1536.42 1151.43 1536.2 1150.93 1535.84 1150.61 1535.48 1150.28 1534.91 1150.12 1534.15 1150.12 1533.84 1150.12 1533.56 1150.16 1533.3 1150.25 1533.03 1150.33 1532.81 1150.44 1532.62 1150.59 1532.43 1150.74 1532.29 1150.91 1532.18 1151.11 1532.08 1151.31 1532.03 1151.53 1532.03 1151.77 1532.03 1151.99 1532.05 1152.19 1532.1 1152.37 1532.16 1152.55 1532.26 1152.73 1532.41 1152.9 1532.57 1153.07 1532.78 1153.25 1533.06 1153.44 1533.35 1153.62 1533.71 1153.84 1534.17 1154.08 1534.65 1154.34 1535.05 1154.59 1535.37 1154.83 1535.69 1155.07 1535.94 1155.31 1536.13 1155.56 1536.31 1155.81 1536.44 1156.07 1536.52 1156.35 1536.59 1156.63 1536.63 1156.94 1536.63 1157.29 1536.63 1157.82 1536.52 1158.3 1536.3 1158.72 1536.09 1159.14 1535.78 1159.5 1535.4 1159.79 1535.01 1160.09 1534.55 1160.31 1534.02 1160.47 1533.49 1160.62 1532.91 1160.7 1532.28 1160.7 1531.6 1160.7 1530.92 1160.66 1530.25 1160.57 1529.59 1160.48 1528.88 1160.32 1528.14 1160.11L1528.72 1157.55 1529.7 1157.55C1529.74 1158.24 1529.96 1158.77 1530.36 1159.11 1530.76 1159.46 1531.38 1159.64 1532.22 1159.64 1532.97 1159.64 1533.56 1159.47 1533.99 1159.15 1534.42 1158.83 1534.63 1158.38 1534.63 1157.81 1534.63 1157.54 1534.61 1157.32 1534.55 1157.13 1534.5 1156.93 1534.4 1156.75 1534.24 1156.58 1534.09 1156.41 1533.88 1156.23 1533.62 1156.05 1533.35 1155.86 1533 1155.65 1532.58 1155.41 1532.13 1155.17 1531.75 1154.92 1531.44 1154.68 1531.12 1154.44 1530.86 1154.2 1530.65 1153.95 1530.44 1153.71 1530.29 1153.45 1530.2 1153.18 1530.1 1152.91 1530.05 1152.62 1530.05 1152.31 1530.05 1151.84 1530.15 1151.41 1530.35 1151.01 1530.55 1150.6 1530.83 1150.26 1531.19 1149.97 1531.56 1149.67 1532 1149.45 1532.52 1149.28 1533.04 1149.12 1533.62 1149.03 1534.26 1149.03Z" fill-rule="evenodd"/><text fill="#000000" fill-opacity="0" font-family="Arial,Arial_MSFontService,sans-serif" font-size="11.6685" x="1528.14" y="1159.24">𝑠</text><path d="M1495.42 1122.48 1510.75 1122.48 1526.09 1122.48 1541.42 1122.48 1541.42 1124.48 1526.09 1124.48 1510.75 1124.48 1495.42 1124.48Z" fill-rule="evenodd"/><path d="M1396.96 1097.21 1416.21 1097.21 1416.21 1099.29 1396.96 1099.29Z" fill-rule="evenodd"/><text fill="#000000" fill-opacity="0" font-family="Arial,Arial_MSFontService,sans-serif" font-size="2.07812" x="1396.96" y="1099.03">−</text><path d="M1428.79 1085.82 1429.65 1085.82C1429.58 1086.82 1429.55 1088.2 1429.55 1089.97L1429.55 1103.32C1429.55 1103.92 1429.59 1104.38 1429.65 1104.68 1429.72 1104.99 1429.84 1105.24 1430.01 1105.43 1430.18 1105.63 1430.43 1105.78 1430.75 1105.89 1431.08 1106 1431.48 1106.08 1431.97 1106.14 1432.46 1106.19 1433.11 1106.23 1433.91 1106.25L1433.91 1107.4 1422.36 1107.4 1422.36 1106.25C1423.52 1106.2 1424.35 1106.13 1424.84 1106.04 1425.34 1105.96 1425.71 1105.82 1425.97 1105.65 1426.23 1105.47 1426.42 1105.22 1426.54 1104.9 1426.66 1104.57 1426.72 1104.05 1426.72 1103.32L1426.72 1090.65C1426.72 1090.23 1426.65 1089.92 1426.5 1089.73 1426.36 1089.54 1426.15 1089.44 1425.86 1089.44 1425.53 1089.44 1425.06 1089.61 1424.44 1089.96 1423.83 1090.3 1423.07 1090.78 1422.16 1091.38L1421.47 1090.18Z" fill-rule="evenodd"/><text fill="#000000" fill-opacity="0" font-family="Arial,Arial_MSFontService,sans-serif" font-size="21.5781" x="1421.47" y="1104.7">1</text><path d="M1413.04 1131.83 1429.35 1131.83 1428.13 1137.33 1426.63 1137.33C1426.63 1136.32 1426.61 1135.56 1426.55 1135.06 1426.5 1134.55 1426.4 1134.17 1426.26 1133.9 1426.11 1133.64 1425.93 1133.45 1425.72 1133.36 1425.51 1133.26 1425.13 1133.21 1424.59 1133.21L1422.27 1133.21 1418.88 1148.61C1418.79 1149.02 1418.72 1149.34 1418.69 1149.58 1418.65 1149.82 1418.62 1150.07 1418.59 1150.34 1418.57 1150.61 1418.55 1150.84 1418.55 1151.05 1418.55 1151.37 1418.61 1151.63 1418.71 1151.81 1418.81 1151.99 1418.97 1152.12 1419.18 1152.21 1419.39 1152.29 1419.75 1152.35 1420.26 1152.39L1420.09 1153.16 1413.51 1153.16 1413.68 1152.39C1414.1 1152.33 1414.4 1152.25 1414.6 1152.14 1414.8 1152.04 1414.97 1151.88 1415.12 1151.66 1415.28 1151.44 1415.43 1151.1 1415.58 1150.63 1415.73 1150.16 1415.91 1149.45 1416.12 1148.5L1419.46 1133.21 1417.48 1133.21C1416.83 1133.21 1416.31 1133.3 1415.93 1133.49 1415.54 1133.68 1415.16 1134.02 1414.77 1134.53 1414.39 1135.05 1413.92 1135.9 1413.37 1137.1L1411.87 1137.1ZM1401.76 1131.58C1403.7 1131.58 1405.16 1132.01 1406.15 1132.86 1407.14 1133.7 1407.63 1134.94 1407.63 1136.55 1407.63 1137.1 1407.58 1137.61 1407.47 1138.07 1407.36 1138.54 1407.19 1139 1406.95 1139.45 1406.72 1139.9 1406.4 1140.39 1406.01 1140.91 1405.61 1141.43 1405.17 1141.96 1404.7 1142.5 1404.22 1143.03 1403.39 1143.93 1402.21 1145.18 1400.23 1147.27 1398.78 1149.1 1397.85 1150.66L1403.74 1150.66C1404.25 1150.66 1404.66 1150.63 1404.98 1150.57 1405.29 1150.5 1405.54 1150.4 1405.73 1150.25 1405.91 1150.11 1406.06 1149.92 1406.17 1149.68 1406.28 1149.45 1406.42 1149.09 1406.59 1148.6L1407.91 1148.6 1407.65 1153.16 1394.79 1153.16 1394.79 1152.41C1395.24 1151.32 1395.84 1150.2 1396.6 1149.05 1397.36 1147.9 1398.44 1146.56 1399.84 1145 1401.04 1143.67 1401.91 1142.66 1402.45 1141.97 1403.03 1141.22 1403.46 1140.57 1403.75 1140.03 1404.04 1139.48 1404.24 1138.96 1404.37 1138.48 1404.49 1138 1404.55 1137.51 1404.55 1137.02 1404.55 1136.24 1404.43 1135.55 1404.18 1134.95 1403.93 1134.35 1403.55 1133.88 1403.03 1133.53 1402.52 1133.19 1401.87 1133.02 1401.09 1133.02 1399.14 1133.02 1397.83 1134.1 1397.15 1136.27L1395.26 1136.27 1395.26 1133.27C1396.52 1132.68 1397.7 1132.25 1398.8 1131.98 1399.9 1131.71 1400.88 1131.58 1401.76 1131.58Z" fill-rule="evenodd"/><text fill="#000000" fill-opacity="0" font-family="Arial,Arial_MSFontService,sans-serif" font-size="21.5781" x="1394.79" y="1150.46">2𝑇</text><path d="M1431.73 1148.25C1432.46 1148.25 1433.13 1148.29 1433.74 1148.38 1434.35 1148.47 1434.94 1148.6 1435.52 1148.78L1434.98 1151.31 1433.98 1151.31C1433.9 1150.64 1433.67 1150.14 1433.31 1149.82 1432.95 1149.5 1432.39 1149.34 1431.62 1149.34 1431.31 1149.34 1431.03 1149.38 1430.77 1149.46 1430.51 1149.54 1430.28 1149.66 1430.09 1149.8 1429.91 1149.95 1429.76 1150.12 1429.66 1150.33 1429.55 1150.53 1429.5 1150.75 1429.5 1150.99 1429.5 1151.2 1429.53 1151.4 1429.58 1151.58 1429.63 1151.76 1429.73 1151.94 1429.89 1152.11 1430.04 1152.28 1430.26 1152.46 1430.54 1152.65 1430.82 1152.84 1431.19 1153.05 1431.64 1153.29 1432.12 1153.55 1432.52 1153.8 1432.84 1154.04 1433.16 1154.28 1433.41 1154.53 1433.6 1154.77 1433.79 1155.02 1433.92 1155.28 1433.99 1155.56 1434.07 1155.84 1434.1 1156.16 1434.1 1156.5 1434.1 1157.03 1433.99 1157.51 1433.78 1157.93 1433.56 1158.36 1433.26 1158.71 1432.87 1159.01 1432.48 1159.3 1432.02 1159.52 1431.49 1159.68 1430.96 1159.84 1430.39 1159.92 1429.76 1159.92 1429.07 1159.92 1428.39 1159.87 1427.72 1159.78 1427.06 1159.69 1426.35 1159.54 1425.61 1159.32L1426.2 1156.76 1427.17 1156.76C1427.21 1157.46 1427.43 1157.98 1427.83 1158.33 1428.23 1158.68 1428.85 1158.85 1429.69 1158.85 1430.44 1158.85 1431.03 1158.69 1431.46 1158.37 1431.89 1158.04 1432.1 1157.6 1432.1 1157.02 1432.1 1156.76 1432.08 1156.53 1432.03 1156.34 1431.97 1156.15 1431.87 1155.97 1431.72 1155.79 1431.56 1155.62 1431.35 1155.44 1431.09 1155.26 1430.82 1155.08 1430.48 1154.87 1430.05 1154.63 1429.61 1154.38 1429.23 1154.14 1428.91 1153.9 1428.59 1153.66 1428.33 1153.41 1428.12 1153.17 1427.92 1152.92 1427.77 1152.66 1427.67 1152.39 1427.57 1152.12 1427.52 1151.83 1427.52 1151.53 1427.52 1151.06 1427.62 1150.62 1427.82 1150.22 1428.02 1149.82 1428.3 1149.47 1428.67 1149.18 1429.03 1148.89 1429.48 1148.66 1429.99 1148.49 1430.51 1148.33 1431.09 1148.25 1431.73 1148.25Z" fill-rule="evenodd"/><text fill="#000000" fill-opacity="0" font-family="Arial,Arial_MSFontService,sans-serif" font-size="11.6685" x="1425.61" y="1158.46">𝑠</text><path d="M1392.89 1121.7 1408.23 1121.7 1423.56 1121.7 1438.89 1121.7 1438.89 1123.7 1423.56 1123.7 1408.23 1123.7 1392.89 1123.7Z" fill-rule="evenodd"/><path d="M1578.5 910.5 1615.68 910.5" stroke="#000000" stroke-width="6.875" stroke-linecap="square" stroke-miterlimit="8" stroke-dasharray="20.625 6.875" fill="none" fill-rule="evenodd"/><path d="M1615.5 910.5 1648.9 1058.65" stroke="#000000" stroke-width="6.875" stroke-linecap="square" stroke-miterlimit="8" stroke-dasharray="20.625 6.875" fill="none" fill-rule="evenodd"/><path d="M0 0 37.1809 0.000360892" stroke="#000000" stroke-width="6.875" stroke-linecap="square" stroke-miterlimit="8" stroke-dasharray="20.625 6.875" fill="none" fill-rule="evenodd" transform="matrix(-1 0 0 1 1576.68 910.5)"/><path d="M0 0 33.4006 148.148" stroke="#000000" stroke-width="6.875" stroke-linecap="square" stroke-miterlimit="8" stroke-dasharray="20.625 6.875" fill="none" fill-rule="evenodd" transform="matrix(-1 0 0 1 1539.9 910.5)"/><path d="M1802.5 910.5 1839.68 910.5" stroke="#000000" stroke-width="6.875" stroke-linecap="square" stroke-miterlimit="8" stroke-dasharray="20.625 6.875" fill="none" fill-rule="evenodd"/><path d="M1839.5 910.5 1872.9 1058.65" stroke="#000000" stroke-width="6.875" stroke-linecap="square" stroke-miterlimit="8" stroke-dasharray="20.625 6.875" fill="none" fill-rule="evenodd"/><path d="M0 0 37.1809 0.000360892" stroke="#000000" stroke-width="6.875" stroke-linecap="square" stroke-miterlimit="8" stroke-dasharray="20.625 6.875" fill="none" fill-rule="evenodd" transform="matrix(-1 0 0 1 1801.68 910.5)"/><path d="M0 0 33.4006 148.148" stroke="#000000" stroke-width="6.875" stroke-linecap="square" stroke-miterlimit="8" stroke-dasharray="20.625 6.875" fill="none" fill-rule="evenodd" transform="matrix(-1 0 0 1 1764.9 910.5)"/><path d="M1915.5 910.5 1952.68 910.5" stroke="#000000" stroke-width="6.875" stroke-linecap="square" stroke-miterlimit="8" stroke-dasharray="20.625 6.875" fill="none" fill-rule="evenodd"/><path d="M1952.5 910.5 1985.9 1058.65" stroke="#000000" stroke-width="6.875" stroke-linecap="square" stroke-miterlimit="8" stroke-dasharray="20.625 6.875" fill="none" fill-rule="evenodd"/><path d="M0 0 37.1809 0.000360892" stroke="#000000" stroke-width="6.875" stroke-linecap="square" stroke-miterlimit="8" stroke-dasharray="20.625 6.875" fill="none" fill-rule="evenodd" transform="matrix(-1 0 0 1 1914.68 910.5)"/><path d="M0 0 33.4006 148.148" stroke="#000000" stroke-width="6.875" stroke-linecap="square" stroke-miterlimit="8" stroke-dasharray="20.625 6.875" fill="none" fill-rule="evenodd" transform="matrix(-1 0 0 1 1876.9 910.5)"/><path d="M1691.5 910.5 1728.68 910.5" stroke="#000000" stroke-width="6.875" stroke-linecap="square" stroke-miterlimit="8" stroke-dasharray="20.625 6.875" fill="none" fill-rule="evenodd"/><path d="M1729.5 910.5 1762.9 1058.65" stroke="#000000" stroke-width="6.875" stroke-linecap="square" stroke-miterlimit="8" stroke-dasharray="20.625 6.875" fill="none" fill-rule="evenodd"/><path d="M0 0 37.1809 0.000360892" stroke="#000000" stroke-width="6.875" stroke-linecap="square" stroke-miterlimit="8" stroke-dasharray="20.625 6.875" fill="none" fill-rule="evenodd" transform="matrix(-1 0 0 1 1690.68 910.5)"/><path d="M0 0 33.4006 148.148" stroke="#000000" stroke-width="6.875" stroke-linecap="square" stroke-miterlimit="8" stroke-dasharray="20.625 6.875" fill="none" fill-rule="evenodd" transform="matrix(-1 0 0 1 1653.9 910.5)"/><path d="M1129.5 910.5 1166.68 910.5" stroke="#000000" stroke-width="6.875" stroke-linecap="square" stroke-miterlimit="8" stroke-dasharray="20.625 6.875" fill="none" fill-rule="evenodd"/><path d="M1167.5 910.5 1200.9 1058.65" stroke="#000000" stroke-width="6.875" stroke-linecap="square" stroke-miterlimit="8" stroke-dasharray="20.625 6.875" fill="none" fill-rule="evenodd"/><path d="M0 0 37.1809 0.000360892" stroke="#000000" stroke-width="6.875" stroke-linecap="square" stroke-miterlimit="8" stroke-dasharray="20.625 6.875" fill="none" fill-rule="evenodd" transform="matrix(-1 0 0 1 1128.68 910.5)"/><path d="M0 0 33.4006 148.148" stroke="#000000" stroke-width="6.875" stroke-linecap="square" stroke-miterlimit="8" stroke-dasharray="20.625 6.875" fill="none" fill-rule="evenodd" transform="matrix(-1 0 0 1 1091.9 910.5)"/><path d="M1242.5 910.5 1279.68 910.5" stroke="#000000" stroke-width="6.875" stroke-linecap="square" stroke-miterlimit="8" stroke-dasharray="20.625 6.875" fill="none" fill-rule="evenodd"/><path d="M1279.5 910.5 1312.9 1058.65" stroke="#000000" stroke-width="6.875" stroke-linecap="square" stroke-miterlimit="8" stroke-dasharray="20.625 6.875" fill="none" fill-rule="evenodd"/><path d="M0 0 37.1809 0.000360892" stroke="#000000" stroke-width="6.875" stroke-linecap="square" stroke-miterlimit="8" stroke-dasharray="20.625 6.875" fill="none" fill-rule="evenodd" transform="matrix(-1 0 0 1 1241.68 910.5)"/><path d="M0 0 33.4006 148.148" stroke="#000000" stroke-width="6.875" stroke-linecap="square" stroke-miterlimit="8" stroke-dasharray="20.625 6.875" fill="none" fill-rule="evenodd" transform="matrix(-1 0 0 1 1204.9 910.5)"/><path d="M1019.5 910.5 1056.68 910.5" stroke="#000000" stroke-width="6.875" stroke-linecap="square" stroke-miterlimit="8" stroke-dasharray="20.625 6.875" fill="none" fill-rule="evenodd"/><path d="M1056.5 910.5 1089.9 1058.65" stroke="#000000" stroke-width="6.875" stroke-linecap="square" stroke-miterlimit="8" stroke-dasharray="20.625 6.875" fill="none" fill-rule="evenodd"/><path d="M0 0 37.1809 0.000360892" stroke="#000000" stroke-width="6.875" stroke-linecap="square" stroke-miterlimit="8" stroke-dasharray="20.625 6.875" fill="none" fill-rule="evenodd" transform="matrix(-1 0 0 1 1017.68 910.5)"/><path d="M0 0 33.4006 148.148" stroke="#000000" stroke-width="6.875" stroke-linecap="square" stroke-miterlimit="8" stroke-dasharray="20.625 6.875" fill="none" fill-rule="evenodd" transform="matrix(-1 0 0 1 980.9 910.5)"/><path d="M915.5 911.5 2008.62 911.5" stroke="#000000" stroke-width="6.875" stroke-miterlimit="8" fill="none" fill-rule="evenodd"/><text font-family="Cambria Math,Cambria Math_MSFontService,sans-serif" font-weight="400" font-size="32" transform="matrix(1 0 0 1 1472.15 897)">1</text></g></svg>