<?xml version="1.0" encoding="UTF-8" standalone="no"?>
<!-- Created with Inkscape (http://www.inkscape.org/) -->

<svg
   width="203.20001mm"
   height="152.40001mm"
   viewBox="0 0 203.20001 152.40001"
   version="1.1"
   id="svg5"
   xml:space="preserve"
   xmlns:inkscape="http://www.inkscape.org/namespaces/inkscape"
   xmlns:sodipodi="http://sodipodi.sourceforge.net/DTD/sodipodi-0.dtd"
   xmlns="http://www.w3.org/2000/svg"
   xmlns:svg="http://www.w3.org/2000/svg"><sodipodi:namedview
     id="namedview7"
     pagecolor="#ffffff"
     bordercolor="#000000"
     borderopacity="0.25"
     inkscape:showpageshadow="2"
     inkscape:pageopacity="0.0"
     inkscape:pagecheckerboard="0"
     inkscape:deskcolor="#d1d1d1"
     inkscape:document-units="mm"
     showgrid="false" /><defs
     id="defs2"><clipPath
       clipPathUnits="userSpaceOnUse"
       id="clipPath753"><path
         d="M 180,1800 H 5940 V 6120 H 180 Z"
         id="path751" /></clipPath></defs><g
     id="g741"
     transform="matrix(0.03527778,0,0,-0.03527778,-6.3500004,215.90001)"><path
       d="M 180,1800 H 5940 V 6120 H 180 Z"
       style="fill:#ffffff;fill-opacity:1;fill-rule:nonzero;stroke:none"
       id="path743" /><path
       d="M 180,1800 H 5940 V 6120 H 180 Z"
       style="fill:#ffffff;fill-opacity:1;fill-rule:nonzero;stroke:none"
       id="path745" /><g
       id="g747"><g
         id="g749"
         clip-path="url(#clipPath753)"><path
           d="M 928.801,2275.2 H 5392.8 L 928.801,5796"
           style="fill:#ffffff;fill-opacity:1;fill-rule:nonzero;stroke:none"
           id="path755" /><path
           d="M 5392.8,2275.2 V 5796 H 928.801"
           style="fill:#ffffff;fill-opacity:1;fill-rule:nonzero;stroke:none"
           id="path757" /><path
           d="m 928.801,2275.2 v 44.65"
           style="fill:none;stroke:#262626;stroke-width:5;stroke-linecap:butt;stroke-linejoin:miter;stroke-miterlimit:10;stroke-dasharray:none;stroke-opacity:1"
           id="path759" /><path
           d="m 928.801,5796 v -44.65"
           style="fill:none;stroke:#262626;stroke-width:5;stroke-linecap:butt;stroke-linejoin:miter;stroke-miterlimit:10;stroke-dasharray:none;stroke-opacity:1"
           id="path761" /><path
           d="m 1821.6,2275.2 v 44.65"
           style="fill:none;stroke:#262626;stroke-width:5;stroke-linecap:butt;stroke-linejoin:miter;stroke-miterlimit:10;stroke-dasharray:none;stroke-opacity:1"
           id="path763" /><path
           d="m 1821.6,5796 v -44.65"
           style="fill:none;stroke:#262626;stroke-width:5;stroke-linecap:butt;stroke-linejoin:miter;stroke-miterlimit:10;stroke-dasharray:none;stroke-opacity:1"
           id="path765" /><path
           d="m 2714.4,2275.2 v 44.65"
           style="fill:none;stroke:#262626;stroke-width:5;stroke-linecap:butt;stroke-linejoin:miter;stroke-miterlimit:10;stroke-dasharray:none;stroke-opacity:1"
           id="path767" /><path
           d="m 2714.4,5796 v -44.65"
           style="fill:none;stroke:#262626;stroke-width:5;stroke-linecap:butt;stroke-linejoin:miter;stroke-miterlimit:10;stroke-dasharray:none;stroke-opacity:1"
           id="path769" /><path
           d="m 3607.2,2275.2 v 44.65"
           style="fill:none;stroke:#262626;stroke-width:5;stroke-linecap:butt;stroke-linejoin:miter;stroke-miterlimit:10;stroke-dasharray:none;stroke-opacity:1"
           id="path771" /><path
           d="m 3607.2,5796 v -44.65"
           style="fill:none;stroke:#262626;stroke-width:5;stroke-linecap:butt;stroke-linejoin:miter;stroke-miterlimit:10;stroke-dasharray:none;stroke-opacity:1"
           id="path773" /><path
           d="m 4500,2275.2 v 44.65"
           style="fill:none;stroke:#262626;stroke-width:5;stroke-linecap:butt;stroke-linejoin:miter;stroke-miterlimit:10;stroke-dasharray:none;stroke-opacity:1"
           id="path775" /><path
           d="m 4500,5796 v -44.65"
           style="fill:none;stroke:#262626;stroke-width:5;stroke-linecap:butt;stroke-linejoin:miter;stroke-miterlimit:10;stroke-dasharray:none;stroke-opacity:1"
           id="path777" /><path
           d="m 5392.8,2275.2 v 44.65"
           style="fill:none;stroke:#262626;stroke-width:5;stroke-linecap:butt;stroke-linejoin:miter;stroke-miterlimit:10;stroke-dasharray:none;stroke-opacity:1"
           id="path779" /><path
           d="m 5392.8,5796 v -44.65"
           style="fill:none;stroke:#262626;stroke-width:5;stroke-linecap:butt;stroke-linejoin:miter;stroke-miterlimit:10;stroke-dasharray:none;stroke-opacity:1"
           id="path781" /><g
           id="g783"
           transform="scale(10)"><text
             xml:space="preserve"
             transform="matrix(1,0,0,-1,89.8801,212.018)"
             style="font-variant:normal;font-weight:normal;font-size:10px;font-family:Helvetica;-inkscape-font-specification:Helvetica;writing-mode:lr-tb;fill:#262626;fill-opacity:1;fill-rule:nonzero;stroke:none"
             id="text787"><tspan
               x="0 84.780098 90.780098 93.780098 174.0598 180.0598 183.0598 263.3399 269.3399 272.3399 352.62 358.62 361.62003 446.40012"
               y="0"
               sodipodi:role="line"
               id="tspan785">00.20.40.60.81</tspan></text></g><path
           d="M 928.801,2275.2 H 973.48"
           style="fill:none;stroke:#262626;stroke-width:5;stroke-linecap:butt;stroke-linejoin:miter;stroke-miterlimit:10;stroke-dasharray:none;stroke-opacity:1"
           id="path789" /><path
           d="m 5392.8,2275.2 h -44.68"
           style="fill:none;stroke:#262626;stroke-width:5;stroke-linecap:butt;stroke-linejoin:miter;stroke-miterlimit:10;stroke-dasharray:none;stroke-opacity:1"
           id="path791" /><path
           d="M 928.801,3155.4 H 973.48"
           style="fill:none;stroke:#262626;stroke-width:5;stroke-linecap:butt;stroke-linejoin:miter;stroke-miterlimit:10;stroke-dasharray:none;stroke-opacity:1"
           id="path793" /><path
           d="m 5392.8,3155.4 h -44.68"
           style="fill:none;stroke:#262626;stroke-width:5;stroke-linecap:butt;stroke-linejoin:miter;stroke-miterlimit:10;stroke-dasharray:none;stroke-opacity:1"
           id="path795" /><path
           d="M 928.801,4035.6 H 973.48"
           style="fill:none;stroke:#262626;stroke-width:5;stroke-linecap:butt;stroke-linejoin:miter;stroke-miterlimit:10;stroke-dasharray:none;stroke-opacity:1"
           id="path797" /><path
           d="m 5392.8,4035.6 h -44.68"
           style="fill:none;stroke:#262626;stroke-width:5;stroke-linecap:butt;stroke-linejoin:miter;stroke-miterlimit:10;stroke-dasharray:none;stroke-opacity:1"
           id="path799" /><path
           d="M 928.801,4915.8 H 973.48"
           style="fill:none;stroke:#262626;stroke-width:5;stroke-linecap:butt;stroke-linejoin:miter;stroke-miterlimit:10;stroke-dasharray:none;stroke-opacity:1"
           id="path801" /><path
           d="m 5392.8,4915.8 h -44.68"
           style="fill:none;stroke:#262626;stroke-width:5;stroke-linecap:butt;stroke-linejoin:miter;stroke-miterlimit:10;stroke-dasharray:none;stroke-opacity:1"
           id="path803" /><path
           d="M 928.801,5796 H 973.48"
           style="fill:none;stroke:#262626;stroke-width:5;stroke-linecap:butt;stroke-linejoin:miter;stroke-miterlimit:10;stroke-dasharray:none;stroke-opacity:1"
           id="path805" /><path
           d="m 5392.8,5796 h -44.68"
           style="fill:none;stroke:#262626;stroke-width:5;stroke-linecap:butt;stroke-linejoin:miter;stroke-miterlimit:10;stroke-dasharray:none;stroke-opacity:1"
           id="path807" /><g
           id="g809"
           transform="scale(10)"><text
             xml:space="preserve"
             transform="matrix(1,0,0,-1,81.8754,223.52)"
             style="font-variant:normal;font-weight:normal;font-size:10px;font-family:Helvetica;-inkscape-font-specification:Helvetica;writing-mode:lr-tb;fill:#262626;fill-opacity:1;fill-rule:nonzero;stroke:none"
             id="text821"><tspan
               x="0"
               y="0"
               id="tspan811">0</tspan><tspan
               x="-9 -3 0"
               y="-88.019897"
               sodipodi:role="line"
               id="tspan813">0.5</tspan><tspan
               x="0"
               y="-176.04021"
               id="tspan815">1</tspan><tspan
               x="-9 -3 0"
               y="-264.06009"
               sodipodi:role="line"
               id="tspan817">1.5</tspan><tspan
               x="0"
               y="-352.07999"
               id="tspan819">2</tspan></text></g><path
           d="M 928.801,2275.2 H 5392.8"
           style="fill:none;stroke:#262626;stroke-width:5;stroke-linecap:square;stroke-linejoin:miter;stroke-miterlimit:10;stroke-dasharray:160, 0;stroke-dashoffset:0;stroke-opacity:1"
           id="path823" /><path
           d="M 928.801,5796 H 5392.8"
           style="fill:none;stroke:#262626;stroke-width:5;stroke-linecap:square;stroke-linejoin:miter;stroke-miterlimit:10;stroke-dasharray:160, 0;stroke-dashoffset:0;stroke-opacity:1"
           id="path825" /><path
           d="M 928.801,2275.2 V 5796"
           style="fill:none;stroke:#262626;stroke-width:5;stroke-linecap:square;stroke-linejoin:miter;stroke-miterlimit:10;stroke-dasharray:160, 0;stroke-dashoffset:0;stroke-opacity:1"
           id="path827" /><path
           d="M 5392.8,2275.2 V 5796"
           style="fill:none;stroke:#262626;stroke-width:5;stroke-linecap:square;stroke-linejoin:miter;stroke-miterlimit:10;stroke-dasharray:160, 0;stroke-dashoffset:0;stroke-opacity:1"
           id="path829" /><g
           id="g831"
           transform="scale(10)"><text
             xml:space="preserve"
             transform="matrix(1,0,0,-1,248.08,592.6)"
             style="font-variant:normal;font-weight:bold;font-size:11px;font-family:Helvetica;-inkscape-font-specification:Helvetica-Bold;writing-mode:lr-tb;fill:#000000;fill-opacity:1;fill-rule:nonzero;stroke:none"
             id="text835"><tspan
               x="0 7.0000038 13.000012 17.000008 24.000011 30.000021 34.000015 40.000027 43.000015 50.000004 57.000011 61.000023 65.000015 72.000023 79.000023 85.000031 88.000023 95.000031 102.00003 109.00004 115.00005 119.00005 122.00005 129.00005"
               y="0"
               sodipodi:role="line"
               id="tspan833">Ternary Entropy Function</tspan></text></g><path
           d="m 933.27,2297.06 4.468,18.34 4.465,17 4.473,16.14 4.465,15.49 4.468,14.97 4.469,14.55 4.469,14.18 4.469,13.86 4.468,13.58 4.469,13.31 4.469,13.09 4.469,12.87 4.468,12.67 4.469,12.48 4.472,12.32 4.47,12.15 4.46,12 4.47,11.85 4.47,11.72 4.47,11.59 4.47,11.47 4.46,11.35 4.47,11.23 4.47,11.13 4.47,11.02 4.47,10.92 4.47,10.82 4.47,10.73 4.47,10.65 4.46,10.55 4.47,10.47 4.47,10.39 4.47,10.3 4.47,10.23 4.46,10.16 4.47,10.08 4.47,10.01 4.47,9.94 4.47,9.87 4.47,9.81 4.47,9.74 4.47,9.68 4.46,9.61 4.47,9.56 4.47,9.5 4.47,9.43 4.47,9.39 4.46,9.32 4.47,9.28 4.47,9.21 4.47,9.17 4.47,9.11 4.47,9.07 4.47,9.01 4.47,8.97 4.46,8.91 4.47,8.87 4.47,8.83 4.47,8.77 4.47,8.74 4.46,8.68 4.47,8.65 4.47,8.6 4.47,8.56 4.47,8.51 4.47,8.48 4.47,8.43 4.46,8.4 4.47,8.35 4.47,8.32 4.47,8.28 4.47,8.24 4.47,8.2 4.47,8.16 4.46,8.13 4.47,8.09 4.47,8.06 4.47,8.02 4.47,7.99 4.47,7.95 4.46,7.91 4.47,7.89 4.47,7.85 4.47,7.81 4.47,7.79 4.47,7.75 4.47,7.72 4.46,7.69 4.47,7.66 4.47,7.62 4.47,7.6 4.47,7.56 4.47,7.54 4.46,7.5 4.47,7.47 4.47,7.45 4.47,7.42 4.47,7.38 4.47,7.36 4.47,7.34 4.46,7.3 4.47,7.27 4.47,7.25 4.47,7.22 4.47,7.2 4.47,7.16 4.46,7.14 4.47,7.12 4.47,7.08 4.47,7.07 4.47,7.03 4.47,7.01 4.47,6.99 4.46,6.96 4.47,6.93 4.47,6.91 4.47,6.89 4.47,6.86 4.47,6.83 4.46,6.82 4.47,6.79 4.47,6.76 4.47,6.74 4.47,6.72 4.47,6.69 4.47,6.68 4.46,6.64 4.47,6.63 4.47,6.6 4.47,6.58 4.47,6.56 4.47,6.54 4.46,6.51 4.47,6.5 4.47,6.47 4.47,6.44 4.47,6.43 4.47,6.41 4.47,6.38 4.46,6.37 4.47,6.34 4.47,6.32 4.47,6.3 4.47,6.28 4.47,6.26 4.46,6.24 4.47,6.22 4.47,6.2 4.47,6.18 4.47,6.16 4.47,6.14 4.47,6.12 4.46,6.1 4.47,6.08 4.47,6.06 4.47,6.04 4.47,6.02 4.47,6 4.46,5.99 4.47,5.96 4.47,5.95 4.47,5.93 4.47,5.91 4.47,5.89 4.47,5.87 4.46,5.85 4.47,5.84 4.47,5.82 4.47,5.8 4.47,5.78 4.47,5.76 4.46,5.75 4.47,5.72 4.47,5.71 4.47,5.7 4.47,5.67 4.47,5.66 4.47,5.64 4.46,5.62 4.47,5.61 4.47,5.58 4.47,5.58 4.47,5.55 4.47,5.54 4.47,5.52 4.46,5.5 4.47,5.49 4.47,5.47 4.47,5.45 4.47,5.44 4.47,5.42 4.46,5.4 4.47,5.39 4.47,5.37 4.47,5.36 4.47,5.34 4.47,5.32 4.47,5.31 4.46,5.29 4.47,5.27 4.47,5.26 4.47,5.25 4.47,5.23 4.47,5.21 4.46,5.19 4.47,5.19 4.47,5.16 4.47,5.15 4.47,5.14 4.47,5.12 4.47,5.1 4.46,5.09 4.47,5.07 4.47,5.06 4.47,5.05 4.47,5.03 4.47,5.01 4.46,5 4.47,4.98 4.47,4.97 4.47,4.96 4.47,4.94 4.47,4.92 4.47,4.91 4.46,4.9 4.47,4.88 4.47,4.86 4.47,4.86 4.47,4.83 4.47,4.83 4.46,4.81 4.47,4.79 4.47,4.78 4.47,4.77 4.47,4.75 4.47,4.74 4.47,4.72 4.46,4.71 4.47,4.7 4.47,4.68 4.47,4.67 4.47,4.66 4.47,4.64 4.46,4.62 4.47,4.62 4.47,4.6 4.47,4.58 4.47,4.57 4.47,4.56 4.47,4.55 4.46,4.53 4.47,4.52 4.47,4.5 4.47,4.49 4.47,4.48 4.47,4.46 4.46,4.46 4.47,4.43 4.47,4.43 4.47,4.41 4.47,4.4 4.47,4.38 4.47,4.37 4.46,4.36 4.47,4.35 4.47,4.33 4.47,4.32 4.47,4.31 4.47,4.29 4.46,4.28 4.47,4.27 4.47,4.25 4.47,4.25 4.47,4.23 4.47,4.21 4.47,4.21 4.46,4.19 4.47,4.18 4.47,4.16 4.47,4.16 4.47,4.14 4.47,4.13 4.47,4.11 4.46,4.1 4.47,4.09 4.47,4.08 4.47,4.07 4.47,4.05 4.47,4.04 4.46,4.03 4.47,4.02 4.47,4 4.47,3.99 4.47,3.98 4.47,3.97 4.47,3.96 4.46,3.94 4.47,3.93 4.47,3.92 4.47,3.91 4.47,3.89 4.47,3.88 4.46,3.87 4.47,3.86 4.47,3.85 4.47,3.83 4.47,3.82 4.47,3.81 4.47,3.8 4.46,3.79 4.47,3.77 4.47,3.77 4.47,3.75 4.47,3.74 4.47,3.72 4.46,3.72 4.47,3.7 4.47,3.7 4.47,3.68 4.47,3.67 4.47,3.65 4.47,3.65 4.46,3.63 4.47,3.63 4.47,3.61 4.47,3.6 4.47,3.58 4.47,3.58 4.46,3.56 4.47,3.56 4.47,3.54 4.47,3.53 4.47,3.52 4.47,3.5 4.47,3.5 4.46,3.48 4.47,3.48 4.47,3.46 4.47,3.45 4.47,3.44 4.47,3.43 4.46,3.41 4.47,3.41 4.47,3.39 4.47,3.38 4.47,3.37 4.47,3.36 4.47,3.35 4.46,3.34 4.47,3.33 4.47,3.31 4.47,3.31 4.47,3.29 4.47,3.28 4.46,3.27 4.47,3.26 4.47,3.25 4.47,3.24 4.47,3.22 4.47,3.22 4.47,3.2 4.46,3.2 4.47,3.18 4.47,3.17 4.47,3.16 4.47,3.15 4.47,3.14 4.46,3.13 4.47,3.11 4.47,3.11 4.47,3.09 4.47,3.09 4.47,3.07 4.47,3.06 4.46,3.05 4.47,3.04 4.47,3.03 4.47,3.02 4.47,3.01 4.47,3 4.46,2.98 4.47,2.98 4.47,2.97 4.47,2.95 4.47,2.94 4.47,2.94 4.47,2.92 4.46,2.91 4.47,2.9 4.47,2.89 4.47,2.88 4.47,2.87 4.47,2.85 4.46,2.85 4.47,2.84 4.47,2.82 4.47,2.82 4.47,2.8 4.47,2.8 4.47,2.78 4.46,2.77 4.47,2.77 4.47,2.75 4.47,2.74 4.47,2.73 4.47,2.72 4.46,2.71 4.47,2.7 4.47,2.69 4.47,2.67 4.47,2.67 4.47,2.66 4.47,2.65 4.46,2.63 4.47,2.63 4.47,2.61 4.47,2.61 4.47,2.59 4.47,2.58 4.47,2.58 4.46,2.56 4.47,2.55 4.47,2.54 4.47,2.53 4.47,2.53 4.47,2.51 4.46,2.5 4.47,2.49 4.47,2.48 4.47,2.46 4.47,2.46 4.47,2.45 4.47,2.44 4.46,2.43 4.47,2.41 4.47,2.41 4.47,2.4 4.47,2.38 4.47,2.38 4.46,2.37 4.47,2.35 4.47,2.35 4.47,2.33 4.47,2.32 4.47,2.32 4.47,2.3 4.46,2.3 4.47,2.28 4.47,2.27 4.47,2.26 4.47,2.26 4.47,2.24 4.46,2.23 4.47,2.22 4.47,2.21 4.47,2.2 4.47,2.19 4.47,2.18 4.47,2.17 4.46,2.17 4.47,2.14 4.47,2.14 4.47,2.13 4.47,2.12 4.47,2.11 4.46,2.1 4.47,2.09 4.47,2.08 4.47,2.06 4.47,2.06 4.47,2.05 4.47,2.04 4.46,2.02 4.47,2.02 4.47,2.01 4.47,1.99 4.47,1.99 4.47,1.98 4.46,1.96 4.47,1.96 4.47,1.94 4.47,1.94 4.47,1.92 4.47,1.92 4.47,1.9 4.46,1.9 4.47,1.88 4.47,1.88 4.47,1.86 4.47,1.85 4.47,1.85 4.46,1.83 4.47,1.82 4.47,1.82 4.47,1.8 4.47,1.79 4.47,1.79 4.47,1.77 4.46,1.76 4.47,1.75 4.47,1.74 4.47,1.73 4.47,1.73 4.47,1.71 4.46,1.7 4.47,1.69 4.47,1.68 4.47,1.67 4.47,1.66 4.47,1.65 4.47,1.64 4.46,1.63 4.47,1.62 4.47,1.61 4.47,1.6 4.47,1.59 4.47,1.58 4.47,1.57 4.46,1.55 4.47,1.55 4.47,1.54 4.47,1.53 4.47,1.52 4.47,1.5 4.46,1.5 4.47,1.49 4.47,1.48 4.47,1.46 4.47,1.46 4.47,1.44 4.47,1.44 4.46,1.43 4.47,1.41 4.47,1.41 4.47,1.39 4.47,1.39 4.47,1.37 4.46,1.37 4.47,1.35 4.47,1.34 4.47,1.34 4.47,1.32 4.47,1.31 4.46,1.31 4.47,1.29 4.47,1.28 4.47,1.27 4.47,1.27 4.47,1.25 4.47,1.24 4.46,1.23 4.47,1.22 4.47,1.21 4.47,1.2 4.47,1.19 4.47,1.18 4.47,1.17 4.46,1.16 4.47,1.15 4.47,1.13 4.47,1.13 4.47,1.12 4.47,1.11 4.46,1.09 4.47,1.09 4.47,1.08 4.47,1.06 4.47,1.06 4.47,1.04 4.47,1.04 4.46,1.02 4.47,1.01 4.47,1.01 4.47,0.99 4.47,0.98 4.47,0.97 4.46,0.97 4.47,0.95 4.47,0.94 4.47,0.93 4.47,0.92 4.47,0.91 4.47,0.9 4.46,0.88 4.47,0.88 4.47,0.87 4.47,0.86 4.47,0.84 4.47,0.84 4.46,0.82 4.47,0.82 4.47,0.8 4.47,0.8 4.47,0.78 4.47,0.77 4.47,0.77 4.46,0.75 4.47,0.74 4.47,0.73 4.47,0.72 4.47,0.71 4.47,0.7 4.46,0.68 4.47,0.68 4.47,0.67 4.47,0.65 4.47,0.65 4.47,0.63 4.47,0.63 4.46,0.61 4.47,0.6 4.47,0.59 4.47,0.58 4.47,0.57 4.47,0.56 4.47,0.55 4.46,0.54 4.47,0.53 4.47,0.51 4.47,0.51 4.47,0.49 4.47,0.49 4.46,0.47 4.47,0.46 4.47,0.45 4.47,0.44 4.47,0.43 4.47,0.42 4.46,0.41 4.47,0.4 4.47,0.38 4.47,0.38 4.47,0.36 4.47,0.36 4.47,0.34 4.46,0.33 4.47,0.32 4.47,0.31 4.47,0.29 4.47,0.29 4.47,0.28 4.47,0.26 4.46,0.26 4.47,0.24 4.47,0.23 4.47,0.22 4.47,0.21 4.47,0.2 4.46,0.18 4.47,0.18 4.47,0.16 4.47,0.16 4.47,0.14 4.47,0.13 4.47,0.12 4.46,0.11 4.47,0.09 4.47,0.09 4.47,0.07 4.47,0.07 4.47,0.05 4.46,0.04 4.47,0.03 4.47,0.01 4.47,0.01 4.47,-0.01 4.47,-0.01 4.47,-0.03 4.46,-0.04 4.47,-0.06 4.47,-0.06 4.47,-0.07 4.47,-0.09 4.47,-0.1 4.46,-0.11 4.47,-0.12 4.47,-0.13 4.47,-0.15 4.47,-0.15 4.47,-0.17 4.47,-0.18 4.46,-0.19 4.47,-0.2 4.47,-0.22 4.47,-0.23 4.47,-0.24 4.47,-0.25 4.46,-0.26 4.47,-0.27 4.47,-0.29 4.47,-0.3 4.47,-0.31 4.47,-0.32 4.47,-0.33 4.46,-0.35 4.47,-0.36 4.47,-0.37 4.47,-0.38 4.47,-0.39 4.47,-0.41 4.46,-0.42 4.47,-0.43 4.47,-0.44 4.47,-0.46 4.47,-0.46 4.47,-0.48 4.47,-0.5 4.46,-0.5 4.47,-0.52 4.47,-0.53 4.47,-0.54 4.47,-0.55 4.47,-0.57 4.46,-0.58 4.47,-0.59 4.47,-0.6 4.47,-0.62 4.47,-0.63 4.47,-0.64 4.47,-0.65 4.46,-0.67 4.47,-0.68 4.47,-0.69 4.47,-0.71 4.47,-0.72 4.47,-0.73 4.46,-0.74 4.47,-0.76 4.47,-0.77 4.47,-0.78 4.47,-0.79 4.47,-0.81 4.47,-0.82 4.46,-0.84 4.47,-0.85 4.47,-0.86 4.47,-0.87 4.47,-0.89 4.47,-0.9 4.46,-0.91 4.47,-0.93 4.47,-0.94 4.47,-0.95 4.47,-0.97 4.47,-0.98 4.47,-0.99 4.46,-1.01 4.47,-1.02 4.47,-1.03 4.47,-1.05 4.47,-1.06 4.47,-1.08 4.47,-1.09 4.46,-1.1 4.47,-1.12 4.47,-1.13 4.47,-1.14 4.47,-1.16 4.47,-1.17 4.46,-1.19 4.47,-1.19 4.47,-1.22 4.47,-1.23 4.47,-1.24 4.47,-1.26 4.47,-1.27 4.46,-1.28 4.47,-1.3 4.47,-1.31 4.47,-1.33 4.47,-1.34 4.47,-1.36 4.46,-1.37 4.47,-1.39 4.47,-1.4 4.47,-1.41 4.47,-1.43 4.47,-1.45 4.47,-1.46 4.46,-1.47 4.47,-1.49 4.47,-1.51 4.47,-1.52 4.47,-1.53 4.47,-1.55 4.46,-1.57 4.47,-1.58 4.47,-1.59 4.47,-1.61 4.47,-1.63 4.47,-1.64 4.47,-1.66 4.46,-1.67 4.47,-1.69 4.47,-1.7 4.47,-1.72 4.47,-1.73 4.47,-1.76 4.46,-1.76 4.47,-1.79 4.47,-1.79 4.47,-1.82 4.47,-1.83 4.47,-1.85 4.47,-1.86 4.46,-1.88 4.47,-1.9 4.47,-1.91 4.47,-1.93 4.47,-1.95 4.47,-1.96 4.46,-1.98 4.47,-1.99 4.47,-2.02 4.47,-2.03 4.47,-2.04 4.47,-2.07 4.47,-2.08 4.46,-2.1 4.47,-2.11 4.47,-2.13 4.47,-2.16 4.47,-2.16 4.47,-2.19 4.46,-2.2 4.47,-2.22 4.47,-2.24 4.47,-2.26 4.47,-2.27 4.47,-2.3 4.47,-2.31 4.46,-2.33 4.47,-2.35 4.47,-2.36 4.47,-2.39 4.47,-2.4 4.47,-2.42 4.46,-2.44 4.47,-2.46 4.47,-2.48 4.47,-2.5 4.47,-2.52 4.47,-2.53 4.47,-2.56 4.46,-2.58 4.47,-2.59 4.47,-2.62 4.47,-2.63 4.47,-2.65 4.47,-2.68 4.47,-2.69 4.46,-2.72 4.47,-2.74 4.47,-2.75 4.47,-2.78 4.47,-2.8 4.47,-2.81 4.46,-2.84 4.47,-2.86 4.47,-2.88 4.47,-2.91 4.47,-2.92 4.47,-2.95 4.46,-2.97 4.47,-2.99 4.47,-3.01 4.47,-3.03 4.47,-3.06 4.47,-3.08 4.47,-3.1 4.46,-3.12 4.47,-3.15 4.47,-3.17 4.47,-3.19 4.47,-3.22 4.47,-3.24 4.47,-3.27 4.46,-3.28 4.47,-3.32 4.47,-3.33 4.47,-3.36 4.47,-3.39 4.47,-3.41 4.46,-3.44 4.47,-3.46 4.47,-3.48 4.47,-3.51 4.47,-3.54 4.47,-3.56 4.47,-3.59 4.46,-3.62 4.47,-3.64 4.47,-3.67 4.47,-3.7 4.47,-3.72 4.47,-3.75 4.46,-3.78 4.47,-3.81 4.47,-3.83 4.47,-3.87 4.47,-3.89 4.47,-3.92 4.47,-3.95 4.46,-3.98 4.47,-4.01 4.47,-4.04 4.47,-4.07 4.47,-4.1 4.47,-4.14 4.46,-4.16 4.47,-4.2 4.47,-4.22 4.47,-4.26 4.47,-4.3 4.47,-4.32 4.47,-4.36 4.46,-4.39 4.47,-4.43 4.47,-4.46 4.47,-4.5 4.47,-4.53 4.47,-4.57 4.46,-4.6 4.47,-4.64 4.47,-4.68 4.47,-4.71 4.47,-4.76 4.47,-4.79 4.47,-4.83 4.46,-4.87 4.47,-4.91 4.47,-4.95 4.47,-4.99 4.47,-5.04 4.47,-5.08 4.47,-5.11 4.46,-5.17 4.47,-5.21 4.47,-5.25 4.47,-5.3 4.47,-5.34 4.47,-5.4 4.46,-5.44 4.47,-5.49 4.47,-5.54 4.47,-5.59 4.47,-5.64 4.47,-5.69 4.47,-5.75 4.46,-5.8 4.47,-5.86 4.47,-5.91 4.47,-5.98 4.47,-6.03 4.47,-6.09 4.46,-6.15 4.47,-6.22 4.47,-6.28 4.47,-6.35 4.47,-6.42 4.47,-6.48 4.46,-6.56 4.47,-6.63 4.47,-6.7 4.47,-6.79 4.47,-6.86 4.47,-6.94 4.47,-7.03 4.46,-7.12 4.47,-7.21 4.47,-7.3 4.47,-7.39 4.47,-7.5 4.47,-7.6 4.47,-7.71 4.46,-7.83 4.47,-7.94 4.47,-8.06 4.47,-8.2 4.47,-8.33 4.47,-8.48 4.46,-8.62 4.47,-8.79 4.47,-8.96 4.47,-9.15 4.47,-9.34 4.47,-9.56 4.47,-9.8 4.46,-10.05 4.47,-10.33 4.47,-10.66 4.47,-11.02 4.47,-11.46 4.47,-11.96 4.46,-12.61 4.47,-13.48 4.47,-14.81"
           style="fill:none;stroke:#0072bd;stroke-width:5;stroke-linecap:butt;stroke-linejoin:round;stroke-miterlimit:10;stroke-dasharray:none;stroke-opacity:1"
           id="path837" /></g></g></g></svg>
