<svg width="1591" height="822" xmlns="http://www.w3.org/2000/svg" xmlns:xlink="http://www.w3.org/1999/xlink" xml:space="preserve" overflow="hidden"><g transform="translate(-1227 -769)"><path d="M1227.5 1335.06 2670.76 1335.06 2670.76 1341.94 1227.5 1341.94ZM2666.17 1324.75 2693.67 1338.5 2666.17 1352.25Z"/><path d="M3.4375-0.0056816 4.62593 719.024-2.24906 719.035-3.4375 0.0056816ZM14.9308 714.423 1.22631 741.946-12.5691 714.469Z" transform="matrix(1 0 0 -1 1918.5 1590.45)"/><path d="M2772.67 1396.71C2773.51 1396.71 2774.24 1396.81 2774.88 1396.99 2775.51 1397.18 2776.07 1397.47 2776.56 1397.87 2777.05 1398.26 2777.48 1398.76 2777.86 1399.39 2778.23 1400.01 2778.6 1400.85 2778.95 1401.92 2779.3 1402.99 2779.63 1404.31 2779.94 1405.89 2780.25 1407.47 2780.53 1409.11 2780.77 1410.81L2781.18 1410.81C2783.77 1407.17 2785.74 1404.5 2787.08 1402.81 2788.41 1401.12 2789.54 1399.87 2790.46 1399.04 2791.38 1398.22 2792.26 1397.64 2793.11 1397.3 2793.97 1396.96 2795.09 1396.79 2796.5 1396.79 2797.77 1396.79 2798.81 1396.95 2799.62 1397.28L2798 1404.61 2795.16 1404.61C2795 1403.48 2794.53 1402.91 2793.74 1402.91 2793.5 1402.91 2793.24 1402.95 2792.97 1403.03 2792.7 1403.11 2792.37 1403.29 2791.98 1403.56 2791.59 1403.83 2791.01 1404.36 2790.26 1405.14 2789.5 1405.92 2788.65 1406.88 2787.7 1408.02 2786.76 1409.15 2785.79 1410.34 2784.79 1411.58L2782.03 1415.03C2782.52 1417.62 2782.98 1419.87 2783.41 1421.76 2783.84 1423.65 2784.23 1425.22 2784.56 1426.48 2784.9 1427.73 2785.2 1428.73 2785.46 1429.46 2785.71 1430.19 2785.99 1430.73 2786.29 1431.1 2786.58 1431.46 2786.89 1431.72 2787.2 1431.87 2787.51 1432.02 2787.87 1432.09 2788.27 1432.09 2789 1432.09 2789.71 1431.81 2790.4 1431.24 2791.09 1430.67 2792.08 1429.39 2793.38 1427.39L2796.01 1429.13C2794.12 1431.94 2792.41 1433.92 2790.89 1435.07 2789.36 1436.22 2787.54 1436.79 2785.43 1436.79 2784.27 1436.79 2783.29 1436.58 2782.48 1436.16 2781.67 1435.75 2780.96 1435.08 2780.37 1434.16 2779.77 1433.24 2779.25 1431.81 2778.79 1429.86 2777.95 1426.4 2777.44 1423.76 2777.25 1421.92L2776.84 1421.92C2773.98 1425.94 2771.85 1428.84 2770.46 1430.59 2769.07 1432.35 2767.92 1433.64 2767.02 1434.48 2766.11 1435.32 2765.23 1435.91 2764.38 1436.25 2763.53 1436.58 2762.4 1436.75 2761 1436.75 2759.73 1436.75 2758.69 1436.59 2757.88 1436.27L2759.5 1428.93 2762.33 1428.93C2762.5 1430.06 2762.97 1430.63 2763.75 1430.63 2764.13 1430.63 2764.53 1430.53 2764.95 1430.33 2765.37 1430.13 2765.97 1429.64 2766.75 1428.87 2767.54 1428.1 2768.62 1426.89 2769.99 1425.24 2771.37 1423.59 2773.37 1421.12 2775.99 1417.83 2775.59 1415.69 2775.17 1413.64 2774.74 1411.67 2774.3 1409.69 2773.86 1407.86 2773.4 1406.15 2772.94 1404.45 2772.56 1403.34 2772.26 1402.81 2771.97 1402.28 2771.65 1401.92 2771.31 1401.72 2770.97 1401.51 2770.55 1401.41 2770.03 1401.41 2769.47 1401.41 2768.95 1401.54 2768.49 1401.8 2768.04 1402.05 2767.54 1402.5 2766.99 1403.13 2766.45 1403.77 2765.74 1404.76 2764.85 1406.11L2762.21 1404.37C2763.91 1401.8 2765.55 1399.89 2767.12 1398.62 2768.68 1397.35 2770.53 1396.71 2772.67 1396.71Z" fill-rule="evenodd"/><text fill="#000000" fill-opacity="0" font-family="Arial,Arial_MSFontService,sans-serif" font-size="40.0815" x="2757.88" y="1431.78">𝑥</text><path d="M2015.72 810.142C2016.83 810.142 2017.77 810.29 2018.56 810.588 2019.1 810.804 2019.64 811.162 2020.18 811.661 2020.72 812.161 2021.2 812.857 2021.62 813.749 2022.04 814.64 2022.4 815.64 2022.71 816.748 2023.02 817.855 2023.37 819.45 2023.75 821.53 2024.39 825.015 2025.02 828.683 2025.63 832.533 2026.24 836.383 2026.76 839.956 2027.19 843.253 2029.81 839.47 2032.03 835.768 2033.86 832.148 2035.68 828.528 2036.99 825.38 2037.79 822.705 2038.59 820.03 2038.98 817.855 2038.98 816.18 2038.98 814.91 2038.71 814.046 2038.17 813.587 2037.63 813.127 2036.71 812.857 2035.42 812.776L2035.82 810.79 2046.48 810.79 2047.58 812.817C2045.52 818.436 2042.74 824.448 2039.23 830.851 2035.77 837.119 2031.81 843.361 2027.35 849.575 2023.08 855.492 2019.53 859.774 2016.69 862.422 2014.72 864.232 2012.82 865.529 2010.98 866.313 2009.52 866.907 2007.97 867.204 2006.32 867.204 2005.75 867.204 2005.1 867.157 2004.35 867.062 2003.61 866.968 2003.04 866.839 2002.63 866.677L2004.37 858.815 2007.58 858.815C2007.58 860.544 2008.17 861.409 2009.36 861.409 2010.93 861.409 2012.75 860.429 2014.83 858.471 2016.91 856.512 2019.35 853.56 2022.16 849.615 2021.38 844.887 2020.31 839.186 2018.96 832.513 2017.53 825.38 2016.59 820.963 2016.13 819.26 2015.56 817.207 2014.96 815.897 2014.34 815.329 2013.96 814.978 2013.49 814.802 2012.92 814.802 2012.06 814.802 2011.25 815.154 2010.49 815.856 2009.74 816.559 2008.8 817.774 2007.7 819.504L2005.06 817.761C2006.93 814.978 2008.67 813.012 2010.29 811.864 2011.91 810.716 2013.72 810.142 2015.72 810.142Z" fill-rule="evenodd"/><text fill="#000000" fill-opacity="0" font-family="Arial,Arial_MSFontService,sans-serif" font-size="57.0625" x="2002.63" y="860.071">𝑦</text><path d="M1454.5 1338.5 1921.5 1103.5 2388.5 1338.5Z" stroke="#000000" stroke-width="6.875" stroke-miterlimit="8" fill="none" fill-rule="evenodd"/><path d="M2373.14 1374.09 2389.35 1374.09 2388.9 1376.08C2387.88 1376.3 2387.14 1376.54 2386.69 1376.81 2386.25 1377.08 2385.85 1377.48 2385.5 1378.03 2385.15 1378.57 2384.78 1379.41 2384.4 1380.56 2384.03 1381.71 2383.55 1383.58 2382.99 1386.17L2374.31 1425.69 2384.28 1425.69C2386.09 1425.69 2387.52 1425.51 2388.56 1425.16 2389.6 1424.81 2390.58 1424.17 2391.52 1423.23 2392.45 1422.3 2393.36 1421.04 2394.25 1419.44 2395.14 1417.85 2396.05 1415.86 2396.97 1413.49L2400.9 1413.49 2396.81 1429.41 2362.52 1429.41 2362.97 1427.43C2363.99 1427.27 2364.76 1427 2365.28 1426.64 2365.79 1426.27 2366.22 1425.77 2366.57 1425.12 2366.92 1424.47 2367.25 1423.68 2367.54 1422.75 2367.84 1421.81 2368.29 1420.01 2368.88 1417.34L2375.77 1386.13C2376.37 1383.43 2376.66 1381.25 2376.66 1379.61 2376.66 1378.34 2376.35 1377.45 2375.71 1376.95 2375.08 1376.45 2374.07 1376.16 2372.69 1376.08Z" fill-rule="evenodd"/><text fill="#000000" fill-opacity="0" font-family="Arial,Arial_MSFontService,sans-serif" font-size="55.3198" x="2362.52" y="1422.5">𝐿</text><path d="M2383.51 1491.08C2388.54 1491.08 2392.33 1492.18 2394.9 1494.38 2397.47 1496.58 2398.75 1499.78 2398.75 1503.96 2398.75 1505.4 2398.61 1506.71 2398.33 1507.92 2398.04 1509.12 2397.6 1510.31 2396.99 1511.48 2396.38 1512.66 2395.56 1513.92 2394.54 1515.27 2393.51 1516.62 2392.37 1517.99 2391.13 1519.39 2389.89 1520.78 2387.74 1523.09 2384.69 1526.34 2379.55 1531.77 2375.79 1536.51 2373.38 1540.56L2388.66 1540.56C2389.98 1540.56 2391.05 1540.48 2391.86 1540.32 2392.67 1540.16 2393.32 1539.89 2393.81 1539.51 2394.29 1539.13 2394.68 1538.64 2394.96 1538.03 2395.25 1537.42 2395.6 1536.48 2396.04 1535.21L2399.48 1535.21 2398.79 1547.05 2365.44 1547.05 2365.44 1545.1C2366.6 1542.26 2368.17 1539.36 2370.14 1536.39 2372.11 1533.41 2374.91 1529.92 2378.53 1525.89 2381.66 1522.43 2383.92 1519.81 2385.3 1518.03 2386.81 1516.08 2387.94 1514.4 2388.68 1512.98 2389.42 1511.56 2389.96 1510.23 2390.28 1508.97 2390.6 1507.71 2390.77 1506.45 2390.77 1505.18 2390.77 1503.15 2390.44 1501.36 2389.79 1499.81 2389.15 1498.26 2388.15 1497.03 2386.82 1496.14 2385.48 1495.25 2383.8 1494.81 2381.77 1494.81 2376.72 1494.81 2373.31 1497.62 2371.56 1503.23L2366.65 1503.23 2366.65 1495.45C2369.92 1493.91 2372.98 1492.8 2375.83 1492.11 2378.68 1491.42 2381.24 1491.08 2383.51 1491.08Z" fill-rule="evenodd"/><text fill="#000000" fill-opacity="0" font-family="Arial,Arial_MSFontService,sans-serif" font-size="55.9683" x="2365.44" y="1540.05">2</text><path d="M2360.31 1465.86 2375.65 1465.86 2390.98 1465.86 2406.31 1465.86 2406.31 1470.86 2390.98 1470.86 2375.65 1470.86 2360.31 1470.86Z" fill-rule="evenodd"/><path d="M1399.13 1476.21 1449.06 1476.21 1449.06 1481.6 1399.13 1481.6Z" fill-rule="evenodd"/><text fill="#000000" fill-opacity="0" font-family="Arial,Arial_MSFontService,sans-serif" font-size="5.39014" x="1399.13" y="1480.93">−</text><path d="M1481.64 1384.86 1497.85 1384.86 1497.41 1386.85C1496.38 1387.07 1495.64 1387.31 1495.2 1387.58 1494.75 1387.85 1494.35 1388.26 1494 1388.8 1493.65 1389.34 1493.29 1390.18 1492.91 1391.33 1492.53 1392.48 1492.06 1394.35 1491.49 1396.94L1482.82 1436.46 1492.79 1436.46C1494.6 1436.46 1496.02 1436.28 1497.06 1435.93 1498.1 1435.58 1499.09 1434.94 1500.02 1434 1500.95 1433.07 1501.87 1431.81 1502.76 1430.21 1503.65 1428.62 1504.55 1426.64 1505.47 1424.26L1509.4 1424.26 1505.31 1440.18 1471.02 1440.18 1471.47 1438.2C1472.5 1438.04 1473.27 1437.77 1473.78 1437.41 1474.29 1437.04 1474.73 1436.54 1475.08 1435.89 1475.43 1435.24 1475.75 1434.45 1476.05 1433.52 1476.35 1432.59 1476.79 1430.78 1477.39 1428.11L1484.28 1396.9C1484.87 1394.2 1485.17 1392.02 1485.17 1390.38 1485.17 1389.11 1484.85 1388.22 1484.22 1387.72 1483.58 1387.22 1482.57 1386.93 1481.2 1386.85Z" fill-rule="evenodd"/><text fill="#000000" fill-opacity="0" font-family="Arial,Arial_MSFontService,sans-serif" font-size="55.3198" x="1471.02" y="1433.27">𝐿</text><path d="M1492.02 1501.85C1497.04 1501.85 1500.84 1502.95 1503.41 1505.15 1505.97 1507.35 1507.26 1510.55 1507.26 1514.74 1507.26 1516.17 1507.11 1517.48 1506.83 1518.69 1506.55 1519.89 1506.1 1521.08 1505.49 1522.25 1504.88 1523.43 1504.07 1524.69 1503.04 1526.04 1502.01 1527.39 1500.88 1528.76 1499.64 1530.16 1498.39 1531.55 1496.25 1533.86 1493.19 1537.11 1488.06 1542.54 1484.29 1547.28 1481.89 1551.33L1497.16 1551.33C1498.49 1551.33 1499.56 1551.25 1500.37 1551.09 1501.18 1550.93 1501.83 1550.66 1502.31 1550.28 1502.8 1549.9 1503.18 1549.41 1503.47 1548.8 1503.75 1548.19 1504.11 1547.25 1504.54 1545.98L1507.99 1545.98 1507.3 1557.82 1473.94 1557.82 1473.94 1555.87C1475.1 1553.03 1476.67 1550.13 1478.64 1547.16 1480.62 1544.19 1483.41 1540.69 1487.03 1536.66 1490.17 1533.2 1492.42 1530.58 1493.8 1528.8 1495.31 1526.85 1496.44 1525.17 1497.18 1523.75 1497.93 1522.33 1498.46 1521 1498.79 1519.74 1499.11 1518.48 1499.27 1517.22 1499.27 1515.95 1499.27 1513.92 1498.95 1512.13 1498.3 1510.58 1497.65 1509.03 1496.66 1507.81 1495.32 1506.91 1493.98 1506.02 1492.3 1505.58 1490.27 1505.58 1485.22 1505.58 1481.82 1508.39 1480.06 1514.01L1475.16 1514.01 1475.16 1506.22C1478.43 1504.68 1481.49 1503.57 1484.34 1502.88 1487.19 1502.19 1489.75 1501.85 1492.02 1501.85Z" fill-rule="evenodd"/><text fill="#000000" fill-opacity="0" font-family="Arial,Arial_MSFontService,sans-serif" font-size="55.9683" x="1473.94" y="1550.82">2</text><path d="M1468.92 1476.63 1491.92 1476.63 1514.92 1476.63 1514.92 1481.63 1491.92 1481.63 1468.92 1481.63Z" fill-rule="evenodd"/><path d="M2038.31 928.702 2054.52 928.702 2054.07 930.688C2053.05 930.904 2052.31 931.147 2051.86 931.417 2051.42 931.688 2051.02 932.093 2050.67 932.633 2050.32 933.173 2049.95 934.018 2049.57 935.166 2049.2 936.314 2048.72 938.185 2048.16 940.779L2039.48 980.293 2049.45 980.293C2051.26 980.293 2052.69 980.118 2053.73 979.766 2054.77 979.415 2055.75 978.773 2056.69 977.841 2057.62 976.909 2058.53 975.646 2059.42 974.052 2060.31 972.458 2061.22 970.472 2062.14 968.095L2066.07 968.095 2061.98 984.022 2027.69 984.022 2028.14 982.036C2029.16 981.874 2029.93 981.61 2030.45 981.246 2030.96 980.881 2031.39 980.374 2031.74 979.726 2032.09 979.077 2032.42 978.287 2032.72 977.355 2033.01 976.423 2033.46 974.619 2034.05 971.945L2040.94 940.739C2041.54 938.037 2041.83 935.862 2041.83 934.214 2041.83 932.944 2041.52 932.059 2040.88 931.559 2040.25 931.059 2039.24 930.769 2037.86 930.688Z" fill-rule="evenodd"/><text fill="#000000" fill-opacity="0" font-family="Arial,Arial_MSFontService,sans-serif" font-size="55.3198" x="2027.69" y="977.107">𝐿</text><path d="M1998.54 1056.07C2003.57 1056.07 2007.36 1057.17 2009.93 1059.37 2012.5 1061.57 2013.78 1064.77 2013.78 1068.95 2013.78 1070.39 2013.64 1071.7 2013.35 1072.91 2013.07 1074.11 2012.62 1075.3 2012.02 1076.47 2011.41 1077.65 2010.59 1078.91 2009.56 1080.26 2008.54 1081.61 2007.4 1082.98 2006.16 1084.37 2004.92 1085.77 2002.77 1088.08 1999.72 1091.32 1994.58 1096.76 1990.81 1101.5 1988.41 1105.55L2003.69 1105.55C2005.01 1105.55 2006.08 1105.47 2006.89 1105.31 2007.7 1105.14 2008.35 1104.87 2008.84 1104.5 2009.32 1104.12 2009.71 1103.62 2009.99 1103.02 2010.27 1102.41 2010.63 1101.47 2011.06 1100.2L2014.51 1100.2 2013.82 1112.03 1980.47 1112.03 1980.47 1110.09C1981.63 1107.25 1983.19 1104.35 1985.17 1101.38 1987.14 1098.4 1989.94 1094.9 1993.56 1090.88 1996.69 1087.42 1998.95 1084.8 2000.32 1083.02 2001.84 1081.07 2002.97 1079.39 2003.71 1077.97 2004.45 1076.55 2004.98 1075.22 2005.31 1073.96 2005.63 1072.7 2005.8 1071.44 2005.8 1070.17 2005.8 1068.14 2005.47 1066.35 2004.82 1064.8 2004.17 1063.25 2003.18 1062.02 2001.84 1061.13 2000.51 1060.24 1998.82 1059.79 1996.8 1059.79 1991.75 1059.79 1988.34 1062.6 1986.59 1068.22L1981.68 1068.22 1981.68 1060.44C1984.95 1058.9 1988.01 1057.79 1990.86 1057.1 1993.71 1056.41 1996.27 1056.07 1998.54 1056.07Z" fill-rule="evenodd"/><text fill="#000000" fill-opacity="0" font-family="Arial,Arial_MSFontService,sans-serif" font-size="55.9683" x="1980.47" y="1105.04">2</text><path d="M2070.11 1035.6 2080.44 1035.6 2080.44 1040.99 2073.11 1040.99 2051.3 1115.48 2047.37 1115.48 2030.6 1079.41 2023.75 1082.45 2022.49 1079.41 2035.78 1073.33 2050.09 1104.78Z" fill-rule="evenodd"/><text fill="#000000" fill-opacity="0" font-family="Arial,Arial_MSFontService,sans-serif" font-size="79.8794" x="2022.49" y="1105.49">√</text><path d="M2098.64 1056.07C2101.69 1056.07 2104.37 1056.54 2106.66 1057.48 2108.96 1058.43 2110.72 1059.79 2111.93 1061.56 2113.15 1063.33 2113.76 1065.44 2113.76 1067.9 2113.76 1070.2 2113.3 1072.22 2112.38 1073.96 2111.46 1075.7 2110.17 1077.22 2108.51 1078.52 2106.85 1079.82 2104.69 1081.08 2102.04 1082.33L2102.04 1082.69C2103.69 1082.99 2105.28 1083.5 2106.81 1084.21 2108.33 1084.93 2109.69 1085.85 2110.88 1086.99 2112.07 1088.12 2113.02 1089.48 2113.74 1091.06 2114.45 1092.64 2114.81 1094.45 2114.81 1096.47 2114.81 1099.61 2114.13 1102.39 2112.76 1104.82 2111.4 1107.25 2109.31 1109.17 2106.5 1110.58 2103.69 1111.98 2100.27 1112.68 2096.25 1112.68 2093.92 1112.68 2091.42 1112.42 2088.73 1111.89 2086.04 1111.37 2083.58 1110.67 2081.33 1109.81L2081.33 1101.21 2086.2 1101.21C2087.14 1104.02 2088.39 1106.06 2089.95 1107.33 2091.5 1108.6 2093.61 1109.24 2096.29 1109.24 2099.8 1109.24 2102.46 1108.28 2104.25 1106.36 2106.05 1104.44 2106.95 1101.61 2106.95 1097.85 2106.95 1093.91 2105.76 1090.89 2103.38 1088.81 2101 1086.73 2097.52 1085.69 2092.93 1085.69L2089.28 1085.69 2089.28 1082.13C2092.93 1081.91 2096 1081.21 2098.5 1080.02 2101 1078.83 2102.85 1077.3 2104.07 1075.44 2105.29 1073.57 2105.89 1071.48 2105.89 1069.16 2105.89 1066.16 2105.1 1063.85 2103.5 1062.23 2101.91 1060.61 2099.58 1059.79 2096.53 1059.79 2093.99 1059.79 2091.93 1060.48 2090.33 1061.86 2088.74 1063.24 2087.56 1065.35 2086.81 1068.18L2081.94 1068.18 2081.94 1060.48C2085.08 1059 2088.01 1057.89 2090.74 1057.16 2093.47 1056.43 2096.1 1056.07 2098.64 1056.07Z" fill-rule="evenodd"/><text fill="#000000" fill-opacity="0" font-family="Arial,Arial_MSFontService,sans-serif" font-size="56.6167" x="2081.33" y="1105.61">3</text><path d="M1975.07 1020.46 2011.57 1020.46 2048.07 1020.46 2084.57 1020.46 2121.07 1020.46 2121.07 1025.46 2084.57 1025.46 2048.07 1025.46 2011.57 1025.46 1975.07 1025.46Z" fill-rule="evenodd"/><path d="M1920.59 1222.75C1878.55 1234.02 1838.92 1222.43 1832.07 1196.87" stroke="#000000" stroke-width="6.875" stroke-miterlimit="8" fill="none" fill-rule="evenodd"/><path d="M1838.21 1274.02C1836.94 1279.88 1836.31 1284.81 1836.31 1288.81 1836.31 1291.84 1836.77 1294.06 1837.68 1295.48 1838.6 1296.89 1840.09 1297.6 1842.14 1297.6 1845.17 1297.6 1848.04 1295.57 1850.76 1291.5 1853.47 1287.44 1855.77 1281.61 1857.66 1274.02ZM1854.83 1246.7C1851.67 1246.7 1848.74 1248.7 1846.05 1252.7 1843.37 1256.7 1841.08 1262.43 1839.18 1269.88L1858.6 1269.88C1859.87 1264.18 1860.5 1259.28 1860.5 1255.17 1860.5 1252.34 1860.04 1250.21 1859.12 1248.81 1858.21 1247.4 1856.77 1246.7 1854.83 1246.7ZM1855.31 1243.42C1863.15 1243.42 1867.07 1248.39 1867.07 1258.33 1867.07 1261.14 1866.75 1264.5 1866.11 1268.4 1865.48 1272.31 1864.47 1276.29 1863.1 1280.34 1861.72 1284.39 1859.97 1287.98 1857.87 1291.1 1855.76 1294.22 1853.33 1296.63 1850.57 1298.33 1847.82 1300.04 1844.84 1300.89 1841.66 1300.89 1837.63 1300.89 1834.63 1299.66 1832.66 1297.2 1830.69 1294.74 1829.7 1291.05 1829.7 1286.13 1829.7 1283.46 1830 1280.16 1830.59 1276.25 1831.19 1272.33 1832.17 1268.32 1833.53 1264.23 1834.9 1260.14 1836.65 1256.5 1838.8 1253.33 1840.95 1250.15 1843.42 1247.71 1846.22 1245.99 1849.01 1244.28 1852.05 1243.42 1855.31 1243.42Z" fill-rule="evenodd"/><text fill="#000000" fill-opacity="0" font-family="Arial,Arial_MSFontService,sans-serif" font-size="57.4678" x="1829.7" y="1293.7">𝜃</text><path d="M0 0 225.686 234.764" stroke="#000000" stroke-width="6.875" stroke-miterlimit="8" fill="none" fill-rule="evenodd" transform="matrix(-1 0 0 1 1921.19 1103.5)"/><path d="M1686.55 1360.77C1687.38 1360.77 1688.12 1360.87 1688.76 1361.06 1689.39 1361.24 1689.95 1361.54 1690.44 1361.93 1690.92 1362.32 1691.36 1362.83 1691.73 1363.45 1692.11 1364.07 1692.48 1364.91 1692.83 1365.98 1693.18 1367.05 1693.51 1368.37 1693.82 1369.95 1694.13 1371.53 1694.41 1373.17 1694.65 1374.88L1695.06 1374.88C1697.65 1371.23 1699.62 1368.56 1700.95 1366.87 1702.29 1365.18 1703.42 1363.93 1704.34 1363.1 1705.26 1362.28 1706.14 1361.7 1706.99 1361.36 1707.84 1361.02 1708.97 1360.85 1710.38 1360.85 1711.65 1360.85 1712.69 1361.02 1713.5 1361.34L1711.88 1368.67 1709.04 1368.67C1708.88 1367.54 1708.4 1366.97 1707.62 1366.97 1707.38 1366.97 1707.12 1367.01 1706.85 1367.09 1706.58 1367.18 1706.25 1367.35 1705.86 1367.62 1705.47 1367.89 1704.89 1368.42 1704.14 1369.2 1703.38 1369.99 1702.53 1370.94 1701.58 1372.08 1700.64 1373.21 1699.66 1374.4 1698.66 1375.65L1695.91 1379.09C1696.39 1381.68 1696.85 1383.93 1697.29 1385.82 1697.72 1387.71 1698.1 1389.28 1698.44 1390.54 1698.78 1391.8 1699.08 1392.79 1699.33 1393.52 1699.59 1394.25 1699.87 1394.79 1700.16 1395.16 1700.46 1395.52 1700.76 1395.78 1701.08 1395.93 1701.39 1396.08 1701.74 1396.15 1702.15 1396.15 1702.88 1396.15 1703.59 1395.87 1704.28 1395.3 1704.97 1394.73 1705.96 1393.45 1707.26 1391.45L1709.89 1393.19C1708 1396 1706.29 1397.98 1704.76 1399.13 1703.24 1400.28 1701.42 1400.85 1699.31 1400.85 1698.15 1400.85 1697.16 1400.64 1696.35 1400.23 1695.54 1399.81 1694.84 1399.14 1694.25 1398.22 1693.65 1397.3 1693.13 1395.87 1692.67 1393.92 1691.83 1390.47 1691.32 1387.82 1691.13 1385.98L1690.72 1385.98C1687.86 1390.01 1685.73 1392.9 1684.34 1394.65 1682.95 1396.41 1681.8 1397.71 1680.89 1398.54 1679.99 1399.38 1679.11 1399.97 1678.26 1400.31 1677.41 1400.64 1676.28 1400.81 1674.87 1400.81 1673.6 1400.81 1672.56 1400.65 1671.75 1400.33L1673.38 1392.99 1676.21 1392.99C1676.37 1394.13 1676.85 1394.69 1677.63 1394.69 1678.01 1394.69 1678.41 1394.59 1678.83 1394.39 1679.24 1394.19 1679.85 1393.7 1680.63 1392.93 1681.41 1392.16 1682.49 1390.95 1683.87 1389.3 1685.25 1387.66 1687.25 1385.18 1689.87 1381.89 1689.46 1379.75 1689.05 1377.7 1688.61 1375.73 1688.18 1373.75 1687.74 1371.92 1687.28 1370.21 1686.82 1368.51 1686.44 1367.4 1686.14 1366.87 1685.84 1366.34 1685.53 1365.98 1685.19 1365.78 1684.85 1365.57 1684.43 1365.47 1683.91 1365.47 1683.34 1365.47 1682.83 1365.6 1682.37 1365.86 1681.91 1366.11 1681.41 1366.56 1680.87 1367.2 1680.33 1367.83 1679.62 1368.82 1678.72 1370.17L1676.09 1368.43C1677.79 1365.86 1679.43 1363.95 1680.99 1362.68 1682.56 1361.41 1684.41 1360.77 1686.55 1360.77Z" fill-rule="evenodd"/><text fill="#000000" fill-opacity="0" font-family="Arial,Arial_MSFontService,sans-serif" font-size="40.0815" x="1671.75" y="1395.84">𝑥</text></g></svg>